<svg width="244" height="48" viewBox="0 0 244 48" fill="none" xmlns="http://www.w3.org/2000/svg">
<path d="M234.008 0H23.1831C20.5332 0 17.9917 1.05356 16.1179 2.92892C14.2441 4.80429 13.1914 7.34784 13.1914 10C13.1994 20.6694 11.3283 30.9773 4.30045 39L0.763385 43C0.376233 43.4332 0.123135 43.9696 0.0348484 44.544C-0.0534387 45.1184 0.0268852 45.7061 0.266064 46.2357C0.505243 46.7653 0.89298 47.214 1.38214 47.5272C1.8713 47.8404 2.44083 48.0047 3.02151 48H234.008C236.658 48 239.2 46.9464 241.074 45.0711C242.947 43.1957 244 40.6522 244 38V10C244 7.34784 242.947 4.80429 241.074 2.92892C239.2 1.05356 236.658 0 234.008 0Z" fill="white"/>
</svg>
