<svg width="78" height="78" viewBox="0 0 78 78" fill="none" xmlns="http://www.w3.org/2000/svg">
<path fill-rule="evenodd" clip-rule="evenodd" d="M70.0968 25.5629C69.6908 23.2499 68.887 21.0248 67.7214 18.9861C63.9455 12.6575 57.5637 12.1079 53.1496 14.6607C52.5646 15.1092 51.848 15.3523 51.1109 15.3523C50.3738 15.3523 49.6573 15.1092 49.0723 14.6607C46.9415 12.8342 44.2835 11.735 41.485 11.5229C38.5313 11.7238 35.7101 12.8251 33.4014 14.6784C32.8211 15.1142 32.115 15.3498 31.3893 15.3498C30.6636 15.3498 29.9576 15.1142 29.3773 14.6784C25.0873 11.4698 16.7555 13.4198 13.6355 20.7234C11.769 25.1844 11.7244 30.1991 13.5114 34.6925C13.6453 34.9996 13.8755 35.2547 14.1673 35.4193C14.4596 35.5779 14.7966 35.6341 15.1246 35.5789C17.1726 35.2534 19.2627 35.3014 21.2937 35.7207C21.7422 35.7957 22.1861 35.8964 22.6232 36.022C24.6179 36.6249 26.4861 37.586 28.1364 38.8584C28.3112 39.0065 28.4557 39.1871 28.5618 39.3902C28.6719 39.5918 28.7327 39.8166 28.7391 40.0461C28.756 40.2745 28.72 40.5036 28.6339 40.7157C28.5478 40.9279 28.4139 41.1173 28.2427 41.2693C27.982 41.5327 27.6368 41.6959 27.2677 41.7302C26.9049 41.7588 26.543 41.6652 26.2396 41.4643C24.1682 39.9781 21.74 39.0672 19.2022 38.8243C16.6644 38.5814 14.1075 39.0153 11.7918 40.0816C5.72911 43.8575 5.2682 51.9411 9.61138 58.6243C13.3696 64.4566 20.035 66.4775 26.2218 66.4598H49.9409C58.3082 66.4598 63.3959 62.7193 67.0123 55.3802C72.5255 44.0348 71.4086 32.707 70.0968 25.5629ZM38.0811 29.1622C37.958 29.1581 37.8371 29.1279 37.7266 29.0736C37.6181 29.0316 37.5209 28.9648 37.4429 28.8786C37.0777 28.4446 36.8993 27.8837 36.9466 27.3186C36.9224 27.0377 36.9525 26.7549 37.0352 26.4854C37.1247 26.2199 37.263 25.9734 37.4429 25.7586C37.5114 25.6583 37.6111 25.5835 37.7266 25.5458C37.8371 25.4915 37.958 25.4613 38.0811 25.4572C38.2045 25.4595 38.3257 25.4899 38.4356 25.5458C38.5505 25.5939 38.6533 25.6665 38.737 25.7586C38.915 25.9711 39.049 26.2169 39.1312 26.4817C39.2133 26.7464 39.242 27.0249 39.2157 27.3008C39.2668 27.8689 39.0952 28.4347 38.737 28.8786C38.5561 29.0435 38.3252 29.1434 38.0811 29.1622ZM43.842 28.8786C44.023 29.0435 44.2538 29.1434 44.4979 29.1622C44.6154 29.1578 44.7304 29.1276 44.8348 29.0736C44.9506 29.0362 45.0546 28.969 45.1361 28.8786C45.4911 28.4322 45.668 27.8701 45.6325 27.3008C45.6713 26.7421 45.4935 26.1898 45.1361 25.7586C45.0556 25.6629 44.9518 25.5897 44.8348 25.5458C44.7304 25.4919 44.6154 25.4616 44.4979 25.4572C44.3746 25.4595 44.2534 25.4899 44.1434 25.5458C44.0263 25.5897 43.9225 25.6629 43.842 25.7586C43.4832 26.1952 43.3112 26.7558 43.3634 27.3186C43.315 27.8809 43.4866 28.4401 43.842 28.8786Z" fill="#A586FF"/>
<path d="M18.4212 58.873L9.91211 59.0503C13.688 64.3685 20.1939 66.478 26.2212 66.4603H49.9403C58.3076 66.4603 63.3953 62.7199 67.0117 55.3808C72.5248 44.0353 71.408 32.7076 70.0607 25.5635C69.7566 23.818 69.2262 22.1196 68.483 20.5112L67.7917 22.5676C64.3123 32.9725 57.7001 42.0467 48.8615 48.5464C40.0228 55.0461 29.3902 58.6531 18.4212 58.873Z" fill="#9473FF"/>
</svg>
