<svg width="26" height="26" viewBox="0 0 26 26" fill="none" xmlns="http://www.w3.org/2000/svg">
<path d="M13 0C10.4288 0 7.91543 0.762436 5.77759 2.19089C3.63975 3.61935 1.97351 5.64967 0.989572 8.02511C0.00563264 10.4006 -0.251811 13.0144 0.249797 15.5362C0.751405 18.0579 1.98953 20.3743 3.80762 22.1924C5.6257 24.0105 7.94208 25.2486 10.4638 25.7502C12.9856 26.2518 15.5994 25.9944 17.9749 25.0104C20.3503 24.0265 22.3806 22.3602 23.8091 20.2224C25.2376 18.0846 26 15.5712 26 13C26 11.2928 25.6637 9.60234 25.0104 8.02511C24.3571 6.44788 23.3995 5.01477 22.1924 3.80761C20.9852 2.60045 19.5521 1.64288 17.9749 0.989566C16.3977 0.336255 14.7072 0 13 0ZM14.3 18.2C14.3 18.5448 14.163 18.8754 13.9192 19.1192C13.6754 19.363 13.3448 19.5 13 19.5C12.6552 19.5 12.3246 19.363 12.0808 19.1192C11.837 18.8754 11.7 18.5448 11.7 18.2V11.7C11.7 11.3552 11.837 11.0246 12.0808 10.7808C12.3246 10.537 12.6552 10.4 13 10.4C13.3448 10.4 13.6754 10.537 13.9192 10.7808C14.163 11.0246 14.3 11.3552 14.3 11.7V18.2ZM13 9.1C12.7429 9.1 12.4915 9.02375 12.2778 8.88091C12.064 8.73806 11.8974 8.53503 11.799 8.29749C11.7006 8.05994 11.6748 7.79856 11.725 7.54638C11.7751 7.2942 11.899 7.06257 12.0808 6.88076C12.2626 6.69895 12.4942 6.57514 12.7464 6.52498C12.9986 6.47482 13.2599 6.50056 13.4975 6.59895C13.735 6.69735 13.9381 6.86397 14.0809 7.07776C14.2238 7.29154 14.3 7.54288 14.3 7.8C14.3 8.14478 14.163 8.47544 13.9192 8.71924C13.6754 8.96303 13.3448 9.1 13 9.1Z" fill="#231F20"/>
</svg>
