<svg width="105" height="71" viewBox="0 0 105 71" fill="none" xmlns="http://www.w3.org/2000/svg">
<path d="M33.9665 55.7659H29.2966V61.8329H30.0895C32.028 61.8329 33.193 61.7894 34.6095 61.5331L34.4741 60.489C33.2221 60.7258 32.1585 60.7887 30.5439 60.7887V59.2514H33.4831V58.241H30.5439V56.8149H33.9665V55.7659ZM30.8243 64.105H37.9113V67.1602H39.1924V63.0559H30.8243V64.105ZM34.039 59.1595H35.557V62.4178H36.7946V55.1761H35.557V58.1008H34.039V59.1595ZM37.9645 62.5048H39.1924V54.9199H37.9645V62.5048ZM47.0765 56.6506V55.7272H45.7084V56.6506C45.6987 58.6423 43.5862 60.518 41.2561 60.953L41.8362 62.0359C43.7989 61.6057 45.5924 60.3198 46.3997 58.6084C47.1974 60.3294 48.9957 61.6105 50.9584 62.0359L51.5482 60.953C49.1987 60.5325 47.0765 58.6423 47.0765 56.6506ZM40.8548 65.5504H52.0654V64.4724H40.8548V65.5504ZM62.8936 61.4316H55.6713V59.6623H62.5021V58.6278H55.6713V56.9841H62.7728V55.9206H54.3612V62.4758H62.8936V61.4316ZM52.9544 65.6229H64.1651V64.5497H52.9544V65.6229ZM71.2612 55.9883H65.523V61.712H71.2612V55.9883ZM66.7944 60.6775V57.0373H69.9898V60.6775H66.7944ZM66.9152 66.9088H75.2011V65.8453H68.206V63.0124H66.9152V66.9088ZM73.3786 63.8729H74.679V59.6526H76.4532V58.5698H74.679V54.9054H73.3786V63.8729Z" fill="#82857A"/>
<rect width="105" height="50" fill="white"/>
<path d="M22.9855 10.334H81.3622C82.9497 10.334 84.4721 10.9651 85.5946 12.0885C86.7171 13.212 87.3477 14.7357 87.3477 16.3244C87.3429 22.7159 88.4638 28.8908 92.6738 33.6968L94.7927 36.093C95.0246 36.3525 95.1762 36.6738 95.2291 37.0179C95.282 37.362 95.2339 37.7141 95.0906 38.0313C94.9473 38.3486 94.7151 38.6173 94.422 38.805C94.129 38.9926 93.7878 39.091 93.44 39.0882H22.9855C21.398 39.0882 19.8756 38.4571 18.7531 37.3336C17.6306 36.2102 17 34.6865 17 33.0977V16.3244C17 14.7357 17.6306 13.212 18.7531 12.0885C19.8756 10.9651 21.398 10.334 22.9855 10.334Z" fill="#FF6E83"/>
<path d="M36.4844 27.0756C36.4844 28.8572 37.8211 29.8457 39.5406 29.8457C41.0364 29.8457 41.8726 29.0881 42.2141 28.4015H42.2848V29.6444H44.0161V23.6071C44.0161 20.9673 41.9079 20.4346 40.4652 20.4346C38.3334 20.4346 36.9319 21.5296 36.767 23.033H38.5395C38.7221 22.3582 39.3581 21.8788 40.4004 21.8788C41.6135 21.8788 42.2436 22.4707 42.2436 23.4947V24.2345C41.8549 24.2464 40.4769 24.3174 39.8645 24.3588C38.2392 24.4772 36.4844 25.0099 36.4844 27.0756ZM38.2274 27.0993C38.2274 26.2055 38.9576 25.7616 40.1177 25.6788C40.5476 25.6492 41.8431 25.5604 42.2495 25.5367V26.3653C42.2495 27.4426 41.3897 28.4192 39.9352 28.4192C38.94 28.4192 38.2274 27.9753 38.2274 27.0993Z" fill="white"/>
<path d="M46.3094 29.6444H48.0466V28.2298H48.182C48.5118 28.8158 49.1537 29.822 50.8025 29.822C52.9931 29.822 54.589 28.0582 54.589 25.1165C54.589 22.1629 52.9696 20.4346 50.7848 20.4346C49.1065 20.4346 48.5118 21.4586 48.182 22.0268H48.0878V17.5225H46.3094V29.6444ZM48.0466 25.0987C48.0466 23.2046 48.8769 21.9557 50.4021 21.9557C51.9861 21.9557 52.7811 23.2993 52.7811 25.0987C52.7811 26.9217 51.9685 28.3008 50.4021 28.3008C48.8945 28.3008 48.0466 26.9987 48.0466 25.0987Z" fill="white"/>
<path d="M60.1822 29.8279C62.3198 29.8279 63.7095 28.5317 63.898 26.7619H62.1726C61.9488 27.7445 61.195 28.3127 60.1881 28.3127C58.7041 28.3127 57.7442 27.0815 57.7442 25.0987C57.7442 23.1573 58.7218 21.9321 60.1881 21.9321C61.3128 21.9321 61.9841 22.6423 62.1726 23.4947H63.898C63.7154 21.6539 62.2197 20.4346 60.1645 20.4346C57.6088 20.4346 55.9541 22.3641 55.9541 25.1401C55.9541 27.8806 57.5499 29.8279 60.1822 29.8279Z" fill="white"/>
<path d="M66.7527 29.7569C67.3887 29.7569 67.9305 29.2242 67.9305 28.5731C67.9305 27.922 67.3887 27.3893 66.7527 27.3893C66.0991 27.3893 65.5573 27.922 65.5691 28.5731C65.5573 29.2242 66.0991 29.7569 66.7527 29.7569Z" fill="white"/>
<path d="M71.2493 29.7569C71.8853 29.7569 72.4271 29.2242 72.4271 28.5731C72.4271 27.922 71.8853 27.3893 71.2493 27.3893C70.5957 27.3893 70.0539 27.922 70.0657 28.5731C70.0539 29.2242 70.5957 29.7569 71.2493 29.7569Z" fill="white"/>
</svg>
