<svg width="23" height="24" viewBox="0 0 23 24" fill="none" xmlns="http://www.w3.org/2000/svg">
<path d="M7.77899 6.21476L9.99684 1.89624C10.1483 1.59954 10.3747 1.34687 10.654 1.16291C10.9746 1.06899 11.3057 1.01427 11.6397 0.999945C11.8046 0.991424 11.9696 1.01589 12.1249 1.07188C12.2801 1.12787 12.4224 1.21424 12.5433 1.32587C12.8226 1.50984 13.049 1.76251 13.2004 2.0592L15.254 6.4592C15.4218 6.69614 15.6145 6.91466 15.829 7.11106C16.0623 7.30123 16.3492 7.41509 16.6504 7.43698L21.4147 8.2518C21.7481 8.30212 22.0608 8.44314 22.3183 8.6592C22.5579 8.87834 22.729 9.16117 22.8111 9.47402C22.8932 9.79486 22.8932 10.131 22.8111 10.4518C22.7488 10.7726 22.5743 11.0611 22.3183 11.2666L18.7861 14.5259C18.5333 14.6987 18.3568 14.9612 18.2933 15.2592C18.1852 15.5168 18.1566 15.8003 18.2111 16.074L18.9504 20.8814C19.0176 21.2163 18.9591 21.564 18.7861 21.8592C18.6608 22.1727 18.4281 22.4323 18.129 22.5925C17.8925 22.8396 17.5685 22.9857 17.2254 22.9999C16.882 22.9964 16.5443 22.9127 16.2397 22.7555L11.9683 20.3925C11.7223 20.2377 11.4381 20.1532 11.1468 20.1481C10.8657 20.1555 10.5878 20.2106 10.3254 20.3111L5.97184 22.674C5.86231 22.801 5.72156 22.8977 5.56325 22.9548C5.40493 23.0119 5.23443 23.0275 5.06827 22.9999C4.74203 22.9784 4.42866 22.8654 4.1647 22.674C3.88467 22.4757 3.68171 22.1881 3.5897 21.8592C3.48108 21.5451 3.45286 21.2091 3.50756 20.8814L4.41113 15.9111C4.49558 15.6182 4.49558 15.3077 4.41113 15.0148C4.32447 14.7458 4.18487 14.4965 4.00041 14.2814L0.632557 10.9407C0.390513 10.691 0.22033 10.3815 0.1397 10.0444C-0.0093091 9.73994 -0.0385955 9.39133 0.0575569 9.06661C0.171374 8.7484 0.370101 8.46679 0.632557 8.2518C0.901425 8.02877 1.22939 7.88732 1.5772 7.84439L6.42363 7.19254C6.7248 7.17064 7.01175 7.05679 7.24506 6.86661C7.4817 6.70389 7.66686 6.47783 7.77899 6.21476Z" fill="#A586FF"/>
<path d="M10.3255 20.311C10.5879 20.2105 10.8657 20.1554 11.1469 20.148C11.4382 20.1531 11.7224 20.2377 11.9683 20.3924L16.2398 22.7554C16.5444 22.9126 16.8821 22.9963 17.2255 22.9999C17.5686 22.9856 17.8926 22.8395 18.1291 22.5924C18.4282 22.4322 18.6609 22.1726 18.7862 21.8591C18.9592 21.5639 19.0176 21.2162 18.9505 20.8813L18.2112 16.0739C18.1567 15.8002 18.1853 15.5167 18.2933 15.2591C18.3569 14.9611 18.5333 14.6986 18.7862 14.5258L22.3183 11.2665C22.5743 11.0611 22.7489 10.7725 22.8112 10.4517C22.8932 10.1309 22.8932 9.79477 22.8112 9.47393C22.7727 9.34907 22.7203 9.22883 22.6551 9.11541L22.5648 8.96059C22.4902 8.85425 22.4078 8.75349 22.3183 8.65911C22.0609 8.44305 21.7481 8.30202 21.4148 8.2517L16.6505 7.43689C16.4084 7.42727 16.1744 7.348 15.9769 7.20874C14.0705 10.002 11.5834 12.358 8.68262 14.1184L4.23869 16.8399L3.50762 20.9139C3.45292 21.2416 3.48115 21.5776 3.58976 21.8917C3.68177 22.2206 3.88474 22.5082 4.16476 22.7065C4.42873 22.8979 4.74209 23.0109 5.06834 23.0324C5.23449 23.06 5.405 23.0444 5.56331 22.9873C5.72162 22.9302 5.86237 22.8335 5.97191 22.7065L10.3255 20.311Z" fill="#9473FF"/>
</svg>
