<svg width="63" height="76" viewBox="0 0 63 76" fill="none" xmlns="http://www.w3.org/2000/svg">
<rect width="63" height="76" rx="8" fill="#F4F4F3"/>
<path opacity="0.08" fill-rule="evenodd" clip-rule="evenodd" d="M0.300262 5.82128C1.05335 3.15453 3.15453 1.05335 5.82128 0.300262L0.300262 5.82128ZM0 15.1215V10.8789L10.8789 0H15.1215L0 15.1215ZM0 24.1215V19.8789L19.8789 0H24.1215L0 24.1215ZM0 33.1215V28.8789L28.8789 0H33.1215L0 33.1215ZM0 42.1215V37.8789L37.8789 0H42.1215L0 42.1215ZM0 51.1215V46.8789L46.8789 0H51.1215L0 51.1215ZM0 60.1215V55.8789L55.8358 0.0431332C56.9923 0.163195 58.0757 0.529658 59.0324 1.08912L0 60.1215ZM0.0686661 69.0529C0.023371 68.7083 0 68.3569 0 68V64.8789L61.5182 3.3607C62.1369 4.2284 62.5866 5.22486 62.8195 6.30209L0.0686661 69.0529ZM3.5037 74.6178C2.67033 74.0505 1.94969 73.3299 1.38234 72.4966L63 10.8789V15.1215L3.5037 74.6178ZM11.1215 76H8C7.64324 76 7.29193 75.9766 6.94753 75.9314L63 19.8789V24.1215L11.1215 76ZM20.1215 76H15.8789L63 28.8789V33.1215L20.1215 76ZM29.1215 76H24.8789L63 37.8789V42.1215L29.1215 76ZM38.1215 76H33.8789L63 46.8789V51.1215L38.1215 76ZM47.1215 76H42.8789L63 55.8789V60.1215L47.1215 76ZM56.2129 75.9087C55.8174 75.9688 55.4123 76 55 76H51.8789L63 64.8789V68C63 68.4123 62.9688 68.8174 62.9086 69.2129L56.2129 75.9087Z" fill="white"/>
</svg>
