<svg width="335" height="50" viewBox="0 0 335 50" fill="none" xmlns="http://www.w3.org/2000/svg">
<rect width="335" height="50" rx="12" fill="#E8E0FF"/>
<g opacity="0.3">
<mask id="mask0_1324_27483" style="mask-type:alpha" maskUnits="userSpaceOnUse" x="0" y="0" width="335" height="50">
<rect width="335" height="50" rx="12" fill="#E8E0FF"/>
</mask>
<g mask="url(#mask0_1324_27483)">
<path fill-rule="evenodd" clip-rule="evenodd" d="M323.549 15.0332C322.961 11.6824 321.797 8.45871 320.108 5.50529C314.638 -3.66312 305.392 -4.45926 298.997 -0.761079C298.15 -0.11131 297.112 0.240856 296.044 0.240856C294.976 0.240856 293.938 -0.11131 293.091 -0.761079C290.004 -3.4072 286.153 -4.99962 282.099 -5.30676C277.82 -5.01572 273.733 -3.4203 270.388 -0.735397C269.547 -0.104043 268.524 0.237304 267.473 0.237304C266.422 0.237304 265.399 -0.104043 264.558 -0.735397C258.343 -5.38381 246.273 -2.55881 241.753 8.02211C239.049 14.4848 238.984 21.7497 241.573 28.2594C241.767 28.7043 242.1 29.0739 242.523 29.3123C242.947 29.5421 243.435 29.6235 243.91 29.5435C246.877 29.0719 249.905 29.1415 252.847 29.7489C253.497 29.8577 254.14 30.0035 254.773 30.1855C257.663 31.0589 260.37 32.4513 262.76 34.2946C263.014 34.5092 263.223 34.7708 263.377 35.0651C263.536 35.3571 263.624 35.6827 263.634 36.0153C263.658 36.3461 263.606 36.678 263.481 36.9854C263.356 37.2927 263.163 37.5671 262.915 37.7873C262.537 38.1689 262.037 38.4053 261.502 38.4551C260.976 38.4964 260.452 38.3608 260.012 38.0698C257.012 35.9168 253.494 34.5971 249.817 34.2453C246.141 33.8934 242.437 34.5218 239.082 36.0667C230.299 41.5369 229.631 53.2478 235.923 62.9298C241.367 71.3792 251.024 74.3069 259.987 74.2812H294.349C306.471 74.2812 313.842 68.8624 319.081 58.2301C327.068 41.7937 325.45 25.383 323.549 15.0332ZM277.168 20.2476C276.989 20.2417 276.814 20.1979 276.654 20.1192C276.497 20.0584 276.356 19.9616 276.243 19.8366C275.714 19.208 275.455 18.3954 275.524 17.5766C275.489 17.1698 275.533 16.76 275.652 16.3696C275.782 15.9849 275.982 15.6278 276.243 15.3166C276.342 15.1713 276.487 15.063 276.654 15.0085C276.814 14.9297 276.989 14.8859 277.168 14.8801C277.346 14.8834 277.522 14.9274 277.681 15.0085C277.847 15.078 277.997 15.1832 278.118 15.3166C278.376 15.6245 278.57 15.9806 278.689 16.3642C278.808 16.7478 278.849 17.1512 278.811 17.551C278.885 18.374 278.637 19.1936 278.118 19.8366C277.856 20.0756 277.521 20.2203 277.168 20.2476ZM285.514 19.8366C285.776 20.0756 286.11 20.2203 286.464 20.2476C286.634 20.2412 286.8 20.1974 286.952 20.1192C287.12 20.0651 287.27 19.9676 287.388 19.8366C287.903 19.19 288.159 18.3756 288.107 17.551C288.164 16.7415 287.906 15.9414 287.388 15.3166C287.272 15.1781 287.121 15.0719 286.952 15.0085C286.8 14.9302 286.634 14.8864 286.464 14.8801C286.285 14.8834 286.109 14.9274 285.95 15.0085C285.78 15.0719 285.63 15.1781 285.514 15.3166C284.994 15.9492 284.744 16.7614 284.82 17.5766C284.75 18.3913 284.999 19.2015 285.514 19.8366Z" fill="#A586FF"/>
<path d="M248.687 63.2902L236.359 63.547C241.83 71.2516 251.255 74.3077 259.987 74.282H294.349C306.471 74.282 313.841 68.8631 319.081 58.2309C327.068 41.7945 325.45 25.3838 323.498 15.034C323.057 12.5053 322.289 10.0448 321.212 7.71472L320.211 10.6938C315.17 25.7676 305.591 38.9136 292.786 48.3298C279.981 57.746 264.578 62.9715 248.687 63.2902Z" fill="#9473FF"/>
</g>
</g>
</svg>
