<svg width="99" height="26" viewBox="0 0 99 26" fill="none" xmlns="http://www.w3.org/2000/svg">
<rect x="0.5" width="98" height="26" fill="white"/>
<path d="M14.1911 6.79013C12.5548 6.63877 12.3093 6.81467 10.8161 6.38104C9.89977 6.15195 9.42523 5.86558 8.21023 6.22149C7.73864 6.35297 7.33181 6.65315 7.06707 7.06497C6.80233 7.47678 6.69815 7.97152 6.77432 8.45513C6.87117 8.8935 7.06974 9.30296 7.35399 9.65046C7.63824 9.99795 8.00021 10.2738 8.41068 10.4556C9.19375 10.7954 10.0196 11.0266 10.8652 11.1429C10.9574 11.1594 11.0412 11.207 11.1025 11.2779C11.1611 11.3509 11.1929 11.4419 11.1925 11.5356C11.1887 11.5882 11.1749 11.6396 11.1516 11.6869C11.1296 11.7354 11.0959 11.7776 11.0534 11.8097C11.015 11.8456 10.9688 11.8722 10.9184 11.8874C10.8659 11.8996 10.8113 11.8996 10.7589 11.8874C10.5447 11.8756 10.3315 11.8497 10.1207 11.8097C9.57606 11.7001 9.04115 11.5469 8.52114 11.3515C8.38701 11.2969 8.23684 11.2972 8.10294 11.3523C7.96904 11.4074 7.86213 11.5129 7.80523 11.646C7.43844 12.55 7.27234 13.5229 7.31841 14.4974C7.51068 17.4142 9.58068 19.6929 13.0457 20.0488C13.9406 20.1673 14.8502 20.1061 15.7211 19.8688C17.2492 19.441 18.5747 18.4827 19.4599 17.1658C20.3451 15.8489 20.7321 14.2597 20.5513 12.6833C20.3705 11.1068 19.6338 9.64644 18.4734 8.56416C17.3131 7.48188 15.805 6.84856 14.2198 6.77786L14.1911 6.79013Z" fill="#FF6E83"/>
<path d="M13.0336 17.5698L10.1699 19.1611C11.0513 19.6555 12.0271 19.958 13.0336 20.0489C13.9285 20.1674 14.838 20.1062 15.709 19.8689C16.5796 19.6292 17.3924 19.2152 18.0982 18.652C18.8039 18.0888 19.388 17.3881 19.8149 16.5925C20.2418 15.7968 20.5026 14.9228 20.5816 14.0233C20.6606 13.1238 20.5561 12.2177 20.2745 11.3598C20.1178 10.8874 19.9078 10.4345 19.6486 10.0098L18.7936 11.6461C17.4974 14.1438 15.4939 16.2041 13.0336 17.5698Z" fill="#FF5B70"/>
<path d="M28.3706 14.7922C30.7843 14.0108 31.3529 12.5504 31.4715 12.174C31.4856 12.1375 31.4925 12.0986 31.492 12.0595C31.4885 12.0125 31.476 11.9667 31.4552 11.9245C31.4334 11.8828 31.4026 11.8465 31.3652 11.8181C31.328 11.7893 31.2845 11.7697 31.2384 11.7608C30.907 11.6708 30.7229 12.0677 30.7229 12.0677C30.452 12.5998 30.0572 13.0589 29.5716 13.4064C29.086 13.7538 28.524 13.9794 27.9329 14.064C27.8282 14.0799 27.7211 14.0687 27.622 14.0313C27.523 13.9962 27.4334 13.9389 27.3602 13.8636C26.1329 12.5586 25.8752 10.0222 27.4011 8.09538C28.927 6.16856 31.2015 5.17038 33.7011 5.89038C39.1297 7.3222 38.647 14.9967 34.552 18.1631C32.6915 19.5796 30.3528 20.2163 28.0311 19.9386C25.642 19.6277 24.7584 18.3758 24.9015 17.2508C25.0324 16.224 25.4906 15.5613 26.3784 15.2422C27.2661 14.9231 27.577 14.9845 28.3706 14.7922Z" fill="#3AC5FF"/>
<path d="M30.5789 16.8708L25.6289 18.9694C26.3216 19.514 27.16 19.8414 28.0385 19.9103C30.3602 20.1881 32.6989 19.5513 34.5594 18.1349C37.1244 16.1589 38.2698 12.4076 37.423 9.54395L37.0875 10.3335C35.8507 13.2761 33.516 15.621 30.5789 16.8708Z" fill="#2DB8FF"/>
<path d="M48.596 12.2432C48.726 12.3379 48.849 12.4418 48.9642 12.5541L49.1155 12.7054C49.1617 12.7815 49.1818 12.8705 49.1728 12.9591C49.1613 13.0452 49.1226 13.1255 49.0623 13.1882C48.9991 13.2507 48.9173 13.2909 48.8292 13.3027C48.742 13.3108 48.6545 13.2907 48.5796 13.2454C48.2717 12.897 47.8861 12.6258 47.454 12.4538C47.022 12.2819 46.5555 12.2139 46.0923 12.2554H45.8551C44.501 12.2554 43.2778 13.7895 42.9342 15.4177C42.3819 17.9827 44.7178 19.5659 46.4114 19.5659C47.9005 19.5659 48.5632 19.0136 49.5696 19.0136C50.4819 19.0136 50.8951 19.5741 52.6501 19.5741C54.7323 19.5741 55.5546 18.2241 55.7796 16.3422C55.8342 15.7688 55.8232 15.191 55.7469 14.62C55.1496 10.6559 53.9346 8.48361 52.9201 7.12952C52.3109 6.47402 51.4665 6.08693 50.5723 6.05319C49.678 6.01944 48.8069 6.34179 48.1501 6.94952C47.0537 8.03361 46.5342 9.73952 46.1414 11.065C46.1293 11.1133 46.1293 11.1639 46.1414 11.2122C46.1487 11.2607 46.1669 11.3069 46.1946 11.3472C46.2204 11.3902 46.2571 11.4255 46.301 11.4495C46.3434 11.4748 46.3909 11.4902 46.4401 11.4945C47.2149 11.5607 47.9605 11.821 48.6082 12.2513L48.596 12.2432Z" fill="#A4E33D"/>
<path d="M46.4001 17.9337L44.0273 18.6455C44.6878 19.2124 45.5219 19.5371 46.3919 19.5659C47.9014 19.5659 48.5642 19.0137 49.5705 19.0137C50.4828 19.0137 50.896 19.5741 52.651 19.5741C54.7333 19.5741 55.5555 18.2241 55.7805 16.3423C55.8351 15.7688 55.8241 15.191 55.7478 14.62C55.5313 13.0423 55.1275 11.4959 54.5451 10.0137L54.4469 10.2837C53.8012 12.1015 52.7361 13.7415 51.338 15.0707C49.9399 16.3998 48.2482 17.3807 46.4001 17.9337Z" fill="#92DC2F"/>
<path fill-rule="evenodd" clip-rule="evenodd" d="M68.0691 7.44001C71.3337 5.59501 75.7764 8.44638 75.4778 12.6355C75.4532 21.6027 59.3023 21.4636 59.5437 12.3982C59.4455 8.30729 63.7819 5.62774 66.9932 7.44001C67.1606 7.53407 67.3494 7.58338 67.5414 7.5832C67.7265 7.58028 67.908 7.53105 68.0691 7.44001ZM70.352 12.2674C70.3805 12.3163 70.3986 12.3706 70.4051 12.4269C70.4197 12.5254 70.3979 12.6257 70.3438 12.7092C70.2881 12.7909 70.2032 12.848 70.1065 12.8687C68.4025 13.3187 66.6109 13.3187 64.907 12.8687C64.8103 12.848 64.7253 12.7909 64.6697 12.7092C64.6156 12.6257 64.5938 12.5254 64.6083 12.4269C64.616 12.3709 64.6341 12.3168 64.6615 12.2674C64.6896 12.2181 64.7288 12.1761 64.776 12.1447C64.8228 12.1123 64.8757 12.09 64.9315 12.0792C64.9869 12.0691 65.0438 12.0691 65.0992 12.0792C66.6766 12.5006 68.3369 12.5006 69.9142 12.0792C69.9697 12.0691 70.0265 12.0691 70.0819 12.0792C70.1378 12.09 70.1907 12.1123 70.2374 12.1447C70.2846 12.1761 70.3238 12.2181 70.352 12.2674Z" fill="#F9D63F"/>
<path d="M63.8591 18.0147L62.8691 18.1252C67.541 20.727 75.461 18.9147 75.4773 12.6352C75.5805 11.2812 75.1619 9.93902 74.3073 8.88379L73.7019 10.3974C72.8893 12.4293 71.5483 14.207 69.8177 15.5463C68.0871 16.8856 66.0299 17.7378 63.8591 18.0147Z" fill="#F7CC31"/>
<path d="M92.8365 9.89918C92.7428 9.36541 92.5573 8.85191 92.2883 8.38145C91.417 6.921 89.9442 6.79418 88.9256 7.38327C88.7906 7.48677 88.6252 7.54287 88.4551 7.54287C88.285 7.54287 88.1197 7.48677 87.9847 7.38327C87.493 6.96176 86.8796 6.70811 86.2338 6.65918C85.5521 6.70554 84.9011 6.95968 84.3683 7.38736C84.2344 7.48793 84.0715 7.54231 83.904 7.54231C83.7365 7.54231 83.5736 7.48793 83.4397 7.38736C82.4497 6.64691 80.527 7.09691 79.807 8.78236C79.3762 9.81182 79.3659 10.9691 79.7783 12.006C79.8092 12.0769 79.8623 12.1357 79.9297 12.1737C79.9971 12.2103 80.0749 12.2233 80.1506 12.2105C80.6232 12.1354 81.1055 12.1465 81.5742 12.2433C81.6777 12.2606 81.7802 12.2838 81.881 12.3128C82.3414 12.4519 82.7725 12.6737 83.1533 12.9674C83.1937 13.0015 83.227 13.0432 83.2515 13.0901C83.2769 13.1366 83.2909 13.1885 83.2924 13.2415C83.2963 13.2941 83.288 13.347 83.2681 13.396C83.2483 13.4449 83.2174 13.4886 83.1779 13.5237C83.1177 13.5845 83.038 13.6222 82.9529 13.6301C82.8691 13.6367 82.7856 13.6151 82.7156 13.5687C82.2376 13.2258 81.6772 13.0155 81.0916 12.9595C80.5059 12.9035 79.9159 13.0036 79.3815 13.2496C77.9824 14.121 77.876 15.9865 78.8783 17.5287C79.7456 18.8746 81.2838 19.341 82.7115 19.3369H88.1851C90.116 19.3369 91.2901 18.4737 92.1247 16.7801C93.397 14.1619 93.1392 11.5478 92.8365 9.89918Z" fill="#A586FF"/>
<path d="M80.9109 17.5861L78.9473 17.627C79.8186 18.8543 81.32 19.3411 82.7109 19.337H88.1845C90.1155 19.337 91.2895 18.4739 92.1241 16.7802C93.3964 14.162 93.1386 11.5479 92.8277 9.89931C92.7575 9.4965 92.6351 9.10456 92.4636 8.7334L92.3041 9.20794C91.5012 11.6091 89.9753 13.7031 87.9356 15.2031C85.8959 16.703 83.4422 17.5354 80.9109 17.5861Z" fill="#9473FF"/>
</svg>
