<svg width="40" height="40" viewBox="0 0 40 40" fill="none" xmlns="http://www.w3.org/2000/svg">
<path d="M17.99 18.3177C18.2789 18.5282 18.5523 18.7591 18.8082 19.0086L19.1445 19.345C19.2471 19.514 19.2918 19.7119 19.2718 19.9086C19.2461 20.1001 19.1602 20.2784 19.0263 20.4177C18.8859 20.5566 18.704 20.646 18.5082 20.6723C18.3145 20.6903 18.1201 20.6457 17.9536 20.545C17.2693 19.7706 16.4125 19.1681 15.4523 18.7859C14.4922 18.4037 13.4556 18.2527 12.4263 18.345H11.8991C8.88997 18.345 6.17179 21.7541 5.40816 25.3723C4.18088 31.0723 9.37179 34.5904 13.1354 34.5904C16.4445 34.5904 17.9172 33.3632 20.1536 33.3632C22.1809 33.3632 23.0991 34.6086 26.9991 34.6086C31.6263 34.6086 33.4536 31.6086 33.9536 27.4268C34.0749 26.1524 34.0506 24.8684 33.8809 23.5995C32.5536 14.7904 29.8536 9.96317 27.5991 6.95408C26.2453 5.49741 24.369 4.63722 22.3818 4.56223C20.3946 4.48724 18.4588 5.20358 16.9991 6.55408C14.5627 8.96317 13.4082 12.7541 12.5354 15.6995C12.5085 15.807 12.5085 15.9194 12.5354 16.0268C12.5516 16.1345 12.592 16.2371 12.6536 16.3268C12.7109 16.4222 12.7924 16.5006 12.89 16.5541C12.9841 16.6103 13.0898 16.6445 13.1991 16.6541C14.9209 16.8013 16.5779 17.3796 18.0172 18.3359L17.99 18.3177Z" fill="#A4E33D"/>
<path d="M13.1087 30.9633L7.83594 32.5451C9.3037 33.8049 11.1573 34.5265 13.0905 34.5906C16.445 34.5906 17.9178 33.3633 20.1541 33.3633C22.1814 33.3633 23.0996 34.6087 26.9996 34.6087C31.6269 34.6087 33.4541 31.6087 33.9541 27.4269C34.0755 26.1525 34.0511 24.8685 33.8814 23.5996C33.4003 20.0935 32.503 16.6571 31.2087 13.3633L30.9905 13.9633C29.5557 18.0029 27.1888 21.6474 24.0819 24.601C20.975 27.5547 17.2156 29.7344 13.1087 30.9633Z" fill="#92DC2F"/>
</svg>
