<svg width="78" height="78" viewBox="0 0 78 78" fill="none" xmlns="http://www.w3.org/2000/svg">
<path d="M43.8214 54.1392C44.7165 53.5383 45.4526 52.7293 45.9664 51.7814C46.4791 50.8278 46.7471 49.7619 46.7464 48.6792C46.7553 48.2169 46.8863 47.7652 47.126 47.3699C47.3657 46.9745 47.7056 46.6495 48.1114 46.4278C51.714 44.3777 54.604 41.2754 56.3942 37.5368C58.1843 33.7981 58.789 29.6016 58.1273 25.5096C56.3545 14.1819 44.9736 7.09099 33.6814 9.25372C24.8177 11.0264 18.0282 16.3446 17.7268 25.7401C17.6036 28.0169 18.3017 30.2622 19.6941 32.0678C21.0865 33.8734 23.0807 35.1192 25.3141 35.5787C26.0197 35.7206 26.7402 35.7742 27.4591 35.7383C27.8854 35.6882 28.2899 35.5227 28.6291 35.2596C28.9651 34.9932 29.2275 34.6454 29.3914 34.2492C30.3664 32.0687 33.3445 27.4951 41.6941 26.0237C42.0284 25.9366 42.382 25.9603 42.7017 26.0914C43.0214 26.2225 43.2899 26.4538 43.4668 26.7505C43.5708 26.9354 43.6314 27.1415 43.6441 27.3533C43.6873 27.5519 43.6873 27.7574 43.6441 27.956C43.5703 28.1541 43.4485 28.3307 43.2895 28.4701C43.1369 28.613 42.9556 28.7218 42.7577 28.7892H42.4386C38.7335 29.5743 35.4139 31.6165 33.0425 34.5695C30.671 37.5225 29.3936 41.2047 29.4268 44.9919V48.5374C29.4042 49.6141 29.6478 50.6797 30.1359 51.6396C30.6497 52.5874 31.3857 53.3965 32.2809 53.9974C31.2579 54.7887 30.4427 55.8168 29.9054 56.9933C29.3562 58.1666 29.1065 59.4579 29.1786 60.7514C29.0191 72.1146 46.6223 72.2387 46.9059 61.1415V60.6274C46.9236 60.3263 46.9236 60.0244 46.9059 59.7233C46.802 58.6066 46.4766 57.5218 45.9486 56.5324C45.9486 56.4437 45.86 56.3374 45.8068 56.2487L45.5409 55.8587L45.275 55.4864L45.0268 55.1851C44.9027 55.061 44.7964 54.9192 44.6545 54.7951L44.4418 54.5824L43.9632 54.1746L43.8214 54.1392Z" fill="#D1D3CF"/>
<path d="M34.7091 62.7015C34.5863 62.7268 34.4597 62.7268 34.3369 62.7015C34.2252 62.6406 34.1235 62.5629 34.0355 62.4711C33.6574 62.0226 33.4725 61.4425 33.5214 60.8579C33.4816 60.2635 33.6649 59.6757 34.0355 59.2092C34.1235 59.1174 34.2252 59.0397 34.3369 58.9788C34.576 58.884 34.8423 58.884 35.0814 58.9788C35.1931 59.0397 35.2947 59.1174 35.3828 59.2092C35.7506 59.6702 35.9339 60.2515 35.8968 60.8402C35.9428 61.4298 35.7586 62.0144 35.3828 62.4711C35.2947 62.5629 35.1931 62.6406 35.0814 62.7015C34.9586 62.7268 34.8319 62.7268 34.7091 62.7015Z" fill="white"/>
<path d="M41.4113 62.7015C41.2938 62.7198 41.1742 62.7198 41.0568 62.7015C40.9417 62.6225 40.845 62.5197 40.7731 62.4001C40.5797 62.1819 40.4341 61.9257 40.3456 61.6478C40.257 61.37 40.2276 61.0768 40.259 60.7869C40.2261 60.4944 40.2563 60.1981 40.3477 59.9183C40.4358 59.6324 40.5805 59.3672 40.7731 59.1383C40.8582 59.0478 40.9607 58.9754 41.0745 58.9256C41.1844 58.8696 41.3057 58.8393 41.429 58.8369C41.6902 58.8425 41.9386 58.9508 42.1204 59.1383C42.4915 59.5967 42.6696 60.1817 42.6168 60.7692C42.6492 61.0617 42.619 61.3579 42.5281 61.6378C42.4463 61.9173 42.3075 62.1769 42.1204 62.4001C42.0296 62.4964 41.9213 62.5746 41.8013 62.6306C41.6785 62.6839 41.545 62.7082 41.4113 62.7015Z" fill="white"/>
<path opacity="0.5" d="M57.0809 21.6274C51.2565 33.1959 41.4106 42.2413 29.3909 47.0661V48.5374C29.3792 49.6171 29.635 50.6829 30.1355 51.6397C30.6493 52.5875 31.3853 53.3966 32.2805 53.9974C31.2575 54.7887 30.4423 55.8169 29.905 56.9933C29.3558 58.1667 29.106 59.458 29.1782 60.7515C29.0769 62.7322 29.7073 64.6809 30.9494 66.227C32.1915 67.7731 33.9586 68.8086 35.9145 69.1365H40.2223C42.1052 68.8104 43.8123 67.8291 45.0417 66.3661C46.2712 64.9031 46.9439 63.0525 46.9409 61.1415V60.6274C46.9586 60.3263 46.9586 60.0244 46.9409 59.7233C46.837 58.6067 46.5116 57.5219 45.9836 56.5324C45.9836 56.4438 45.895 56.3374 45.8418 56.2488L45.5759 55.8588L45.31 55.4865L45.0618 55.1852C44.9377 55.0611 44.8314 54.9193 44.6895 54.7952L44.4768 54.5824L43.9982 54.1747H43.8209C44.7161 53.5738 45.4521 52.7648 45.9659 51.817C46.4786 50.8634 46.7467 49.7974 46.7459 48.7147C46.7549 48.2525 46.8859 47.8008 47.1256 47.4054C47.3653 47.0101 47.7052 46.6851 48.1109 46.4633C51.7136 44.4132 54.6036 41.311 56.3937 37.5723C58.1838 33.8336 58.7886 29.6371 58.1268 25.5452C57.9236 24.2047 57.5728 22.8908 57.0809 21.6274Z" fill="#BBBDB6"/>
<path d="M34.7091 62.7015C34.5863 62.7268 34.4597 62.7268 34.3369 62.7015C34.2252 62.6406 34.1235 62.5629 34.0355 62.4711C33.6574 62.0226 33.4725 61.4425 33.5214 60.8579C33.4816 60.2635 33.6649 59.6757 34.0355 59.2092C34.1235 59.1174 34.2252 59.0397 34.3369 58.9788C34.576 58.884 34.8423 58.884 35.0814 58.9788C35.1931 59.0397 35.2947 59.1174 35.3828 59.2092C35.7506 59.6702 35.9339 60.2515 35.8968 60.8402C35.9428 61.4298 35.7586 62.0144 35.3828 62.4711C35.2947 62.5629 35.1931 62.6406 35.0814 62.7015C34.9586 62.7268 34.8319 62.7268 34.7091 62.7015Z" fill="white"/>
<path d="M41.4113 62.7015C41.2938 62.7198 41.1742 62.7198 41.0568 62.7015C40.9417 62.6225 40.845 62.5197 40.7731 62.4001C40.5797 62.1819 40.4341 61.9257 40.3456 61.6478C40.257 61.37 40.2276 61.0768 40.259 60.7869C40.2261 60.4944 40.2563 60.1981 40.3477 59.9183C40.4358 59.6324 40.5805 59.3672 40.7731 59.1383C40.8582 59.0478 40.9607 58.9754 41.0745 58.9256C41.1844 58.8696 41.3057 58.8393 41.429 58.8369C41.6902 58.8425 41.9386 58.9508 42.1204 59.1383C42.4915 59.5967 42.6696 60.1817 42.6168 60.7692C42.6492 61.0617 42.619 61.3579 42.5281 61.6378C42.4463 61.9173 42.3075 62.1769 42.1204 62.4001C42.0296 62.4964 41.9213 62.5746 41.8013 62.6306C41.6785 62.6839 41.545 62.7082 41.4113 62.7015Z" fill="white"/>
</svg>
