<svg width="38" height="38" viewBox="0 0 38 38" fill="none" xmlns="http://www.w3.org/2000/svg">
<path fill-rule="evenodd" clip-rule="evenodd" d="M19 38C29.4934 38 38 29.4934 38 19C38 8.50659 29.4934 0 19 0C8.50659 0 0 8.50659 0 19C0 29.4934 8.50659 38 19 38ZM13.3177 18.5261C12.7319 19.1119 12.7319 20.0616 13.3177 20.6474L20.5799 27.9096C21.1657 28.4954 22.1154 28.4954 22.7012 27.9096C23.287 27.3238 23.287 26.374 22.7012 25.7882L16.4997 19.5867L22.7012 13.3852C23.287 12.7994 23.287 11.8497 22.7012 11.2639C22.1154 10.6781 21.1657 10.6781 20.5799 11.2639L13.3177 18.5261Z" fill="#A586FF"/>
</svg>
