<svg width="79" height="79" viewBox="0 0 79 79" fill="none" xmlns="http://www.w3.org/2000/svg">
<circle cx="39.5" cy="39.5" r="39.5" fill="#D1D3CF"/>
<path d="M43.3822 51.6879C44.1029 51.2042 44.6954 50.5529 45.1091 49.7898C45.5219 49.0221 45.7376 48.1639 45.737 47.2923C45.7443 46.9201 45.8497 46.5565 46.0427 46.2382C46.2357 45.9199 46.5093 45.6583 46.8359 45.4798C49.7363 43.8293 52.063 41.3318 53.5041 38.3219C54.9453 35.3121 55.4321 31.9337 54.8994 28.6393C53.4722 19.5198 44.3099 13.8112 35.2189 15.5523C28.0831 16.9795 22.6171 21.261 22.3745 28.8249C22.2753 30.6578 22.8373 32.4655 23.9583 33.9191C25.0793 35.3727 26.6847 36.3757 28.4827 36.7456C29.0508 36.8598 29.6309 36.9029 30.2096 36.874C30.5528 36.8337 30.8784 36.7005 31.1515 36.4887C31.422 36.2742 31.6332 35.9942 31.7652 35.6752C32.5501 33.9198 34.9477 30.2378 41.6696 29.0532C41.9388 28.9831 42.2235 29.0022 42.4808 29.1077C42.7382 29.2132 42.9543 29.3994 43.0968 29.6384C43.1805 29.7872 43.2293 29.9531 43.2395 30.1236C43.2743 30.2835 43.2743 30.4489 43.2395 30.6088C43.1801 30.7683 43.082 30.9105 42.9541 31.0227C42.8312 31.1378 42.6853 31.2254 42.5259 31.2796H42.269C39.2862 31.9117 36.6137 33.5557 34.7045 35.9331C32.7954 38.3105 31.767 41.2749 31.7937 44.3238V47.1781C31.7755 48.0449 31.9716 48.9028 32.3646 49.6756C32.7782 50.4387 33.3708 51.09 34.0914 51.5737C33.2679 52.2108 32.6116 53.0385 32.179 53.9856C31.7369 54.9303 31.5358 55.9698 31.5939 57.0112C31.4655 66.1593 45.6371 66.2592 45.8655 57.3252V56.9113C45.8797 56.6689 45.8797 56.4259 45.8655 56.1835C45.7819 55.2845 45.5199 54.4112 45.0948 53.6146C45.0948 53.5432 45.0235 53.4576 44.9806 53.3862L44.7666 53.0723L44.5525 52.7726L44.3527 52.5299C44.2528 52.43 44.1672 52.3159 44.053 52.216L43.8817 52.0447L43.4964 51.7165L43.3822 51.6879Z" fill="white"/>
<path d="M36.0464 58.5811C35.9475 58.6015 35.8456 58.6015 35.7467 58.5811C35.6568 58.5321 35.575 58.4695 35.5041 58.3956C35.1997 58.0345 35.0508 57.5675 35.0902 57.0969C35.0582 56.6184 35.2057 56.1451 35.5041 55.7696C35.575 55.6957 35.6568 55.6331 35.7467 55.5841C35.9392 55.5078 36.1536 55.5078 36.3461 55.5841C36.436 55.6331 36.5178 55.6957 36.5887 55.7696C36.8849 56.1407 37.0324 56.6087 37.0026 57.0826C37.0396 57.5573 36.8913 58.0279 36.5887 58.3956C36.5178 58.4695 36.436 58.5321 36.3461 58.5811C36.2472 58.6015 36.1453 58.6015 36.0464 58.5811Z" fill="white"/>
<path d="M41.442 58.581C41.3474 58.5958 41.2511 58.5958 41.1565 58.581C41.0639 58.5174 40.9861 58.4347 40.9282 58.3384C40.7725 58.1628 40.6553 57.9565 40.584 57.7328C40.5127 57.5092 40.489 57.2731 40.5143 57.0397C40.4878 56.8042 40.5121 56.5657 40.5857 56.3404C40.6567 56.1103 40.7731 55.8967 40.9282 55.7125C40.9967 55.6396 41.0792 55.5814 41.1708 55.5412C41.2593 55.4961 41.3569 55.4717 41.4562 55.4698C41.6665 55.4744 41.8664 55.5615 42.0128 55.7125C42.3116 56.0816 42.455 56.5525 42.4124 57.0254C42.4385 57.261 42.4142 57.4994 42.3411 57.7248C42.2752 57.9498 42.1634 58.1587 42.0128 58.3384C41.9397 58.416 41.8526 58.4789 41.756 58.524C41.6571 58.5669 41.5496 58.5865 41.442 58.581Z" fill="white"/>
<path opacity="0.5" d="M54.0572 25.5139C49.3682 34.8272 41.4417 42.1093 31.765 45.9935V47.1781C31.7556 48.0473 31.9616 48.9053 32.3644 49.6756C32.7781 50.4387 33.3706 51.09 34.0913 51.5737C33.2677 52.2108 32.6114 53.0385 32.1789 53.9856C31.7367 54.9303 31.5357 55.9698 31.5938 57.0112C31.5123 58.6057 32.0198 60.1746 33.0197 61.4193C34.0197 62.664 35.4423 63.4976 37.017 63.7616H40.485C42.0009 63.4991 43.3751 62.709 44.3649 61.5312C45.3547 60.3534 45.8963 58.8636 45.8939 57.3252V56.9113C45.9082 56.6689 45.9082 56.4258 45.8939 56.1834C45.8103 55.2844 45.5483 54.4111 45.1232 53.6146C45.1232 53.5432 45.0519 53.4576 45.009 53.3862L44.795 53.0722L44.5809 52.7725L44.3811 52.5299C44.2812 52.43 44.1956 52.3158 44.0814 52.2159L43.9101 52.0447L43.5248 51.7164H43.3821C44.1027 51.2327 44.6953 50.5814 45.1089 49.8183C45.5217 49.0506 45.7375 48.1924 45.7369 47.3208C45.7441 46.9487 45.8496 46.585 46.0425 46.2667C46.2355 45.9484 46.5092 45.6868 46.8358 45.5083C49.7362 43.8578 52.0628 41.3603 53.504 38.3505C54.9452 35.3406 55.432 31.9622 54.8992 28.6679C54.7356 27.5887 54.4532 26.531 54.0572 25.5139Z" fill="white"/>
<path d="M36.0464 58.5811C35.9475 58.6015 35.8456 58.6015 35.7467 58.5811C35.6568 58.5321 35.575 58.4695 35.5041 58.3956C35.1997 58.0345 35.0508 57.5675 35.0902 57.0969C35.0582 56.6184 35.2057 56.1451 35.5041 55.7696C35.575 55.6957 35.6568 55.6331 35.7467 55.5841C35.9392 55.5078 36.1536 55.5078 36.3461 55.5841C36.436 55.6331 36.5178 55.6957 36.5887 55.7696C36.8849 56.1407 37.0324 56.6087 37.0026 57.0826C37.0396 57.5573 36.8913 58.0279 36.5887 58.3956C36.5178 58.4695 36.436 58.5321 36.3461 58.5811C36.2472 58.6015 36.1453 58.6015 36.0464 58.5811Z" fill="white"/>
<path d="M41.442 58.581C41.3474 58.5958 41.2511 58.5958 41.1565 58.581C41.0639 58.5174 40.9861 58.4347 40.9282 58.3384C40.7725 58.1628 40.6553 57.9565 40.584 57.7328C40.5127 57.5092 40.489 57.2731 40.5143 57.0397C40.4878 56.8042 40.5121 56.5657 40.5857 56.3404C40.6567 56.1103 40.7731 55.8967 40.9282 55.7125C40.9967 55.6396 41.0792 55.5814 41.1708 55.5412C41.2593 55.4961 41.3569 55.4717 41.4562 55.4698C41.6665 55.4744 41.8664 55.5615 42.0128 55.7125C42.3116 56.0816 42.455 56.5525 42.4124 57.0254C42.4385 57.261 42.4142 57.4994 42.3411 57.7248C42.2752 57.9498 42.1634 58.1587 42.0128 58.3384C41.9397 58.416 41.8526 58.4789 41.756 58.524C41.6571 58.5669 41.5496 58.5865 41.442 58.581Z" fill="white"/>
<mask id="mask0_982_39777" style="mask-type:alpha" maskUnits="userSpaceOnUse" x="0" y="0" width="79" height="79">
<circle cx="39.5" cy="39.5" r="39.5" fill="#FF6E83"/>
</mask>
<g mask="url(#mask0_982_39777)">
<path d="M3 65.5L9.4395 63.7495C37.1853 56.2069 58.5347 34.0164 65 6L79 8V79H26.5L3 65.5Z" fill="#D9D9D9" style="mix-blend-mode:color-burn"/>
</g>
</svg>
