<svg width="44" height="44" viewBox="0 0 44 44" fill="none" xmlns="http://www.w3.org/2000/svg">
<path d="M32.1887 12.7201H11.8087C10.9786 12.7201 10.1824 13.0499 9.59546 13.6369C9.00847 14.2239 8.6787 15.02 8.6787 15.8501V28.6701C8.65334 29.4955 8.79338 30.3176 9.09057 31.088C9.38777 31.8585 9.83611 32.5616 10.4092 33.1562C10.9823 33.7507 11.6685 34.2245 12.4275 34.5498C13.1865 34.8751 14.003 35.0452 14.8287 35.0501H28.9987C30.689 35.0475 32.3093 34.3741 33.5036 33.1779C34.6979 31.9817 35.3687 30.3605 35.3687 28.6701V15.8501C35.3688 15.4348 35.2862 15.0237 35.1258 14.6407C34.9653 14.2576 34.7303 13.9103 34.4343 13.619C34.1384 13.3277 33.7874 13.0982 33.4019 12.9439C33.0163 12.7896 32.6039 12.7135 32.1887 12.7201ZM25.0987 19.0001H18.8987C18.6335 19.0001 18.3791 18.8948 18.1916 18.7072C18.0041 18.5197 17.8987 18.2653 17.8987 18.0001C17.8987 17.7349 18.0041 17.4806 18.1916 17.293C18.3791 17.1055 18.6335 17.0001 18.8987 17.0001H25.0987C25.3639 17.0001 25.6183 17.1055 25.8058 17.293C25.9933 17.4806 26.0987 17.7349 26.0987 18.0001C26.0987 18.2653 25.9933 18.5197 25.8058 18.7072C25.6183 18.8948 25.3639 19.0001 25.0987 19.0001Z" fill="#1B210D"/>
<path d="M28.4805 11H15.4805C15.2153 11 14.9609 10.8946 14.7734 10.7071C14.5858 10.5196 14.4805 10.2652 14.4805 10C14.4805 9.73478 14.5858 9.48043 14.7734 9.29289C14.9609 9.10536 15.2153 9 15.4805 9H28.4805C28.7457 9 29 9.10536 29.1876 9.29289C29.3751 9.48043 29.4805 9.73478 29.4805 10C29.4805 10.2652 29.3751 10.5196 29.1876 10.7071C29 10.8946 28.7457 11 28.4805 11Z" fill="#1B210D"/>
</svg>
