<svg width="28" height="28" viewBox="0 0 28 28" fill="none" xmlns="http://www.w3.org/2000/svg">
<rect width="28" height="28" fill="#1B210D"/>
<path d="M22.1 7.80105H17.6V6.21466C17.5789 5.60653 17.3302 5.03204 16.9084 4.61714C16.4866 4.20225 15.9262 3.98078 15.35 4.00131H12.65C12.0738 3.98078 11.5134 4.20225 11.0916 4.61714C10.6698 5.03204 10.4211 5.60653 10.4 6.21466V7.80105H5.9C5.66131 7.80105 5.43239 7.90113 5.2636 8.07928C5.09482 8.25742 5 8.49904 5 8.75098C5 9.00292 5.09482 9.24454 5.2636 9.42269C5.43239 9.60083 5.66131 9.70092 5.9 9.70092H6.8V20.1502C6.8 20.906 7.08446 21.6309 7.59081 22.1653C8.09716 22.6998 8.78392 23 9.5 23H18.5C19.2161 23 19.9028 22.6998 20.4092 22.1653C20.9155 21.6309 21.2 20.906 21.2 20.1502V9.70092H22.1C22.3387 9.70092 22.5676 9.60083 22.7364 9.42269C22.9052 9.24454 23 9.00292 23 8.75098C23 8.49904 22.9052 8.25742 22.7364 8.07928C22.5676 7.90113 22.3387 7.80105 22.1 7.80105ZM12.2 17.3004C12.2 17.5523 12.1052 17.794 11.9364 17.9721C11.7676 18.1502 11.5387 18.2503 11.3 18.2503C11.0613 18.2503 10.8324 18.1502 10.6636 17.9721C10.4948 17.794 10.4 17.5523 10.4 17.3004V13.5007C10.4 13.2487 10.4948 13.0071 10.6636 12.8289C10.8324 12.6508 11.0613 12.5507 11.3 12.5507C11.5387 12.5507 11.7676 12.6508 11.9364 12.8289C12.1052 13.0071 12.2 13.2487 12.2 13.5007V17.3004ZM12.2 6.21466C12.2 6.06267 12.389 5.90118 12.65 5.90118H15.35C15.611 5.90118 15.8 6.06267 15.8 6.21466V7.80105H12.2V6.21466ZM17.6 17.3004C17.6 17.5523 17.5052 17.794 17.3364 17.9721C17.1676 18.1502 16.9387 18.2503 16.7 18.2503C16.4613 18.2503 16.2324 18.1502 16.0636 17.9721C15.8948 17.794 15.8 17.5523 15.8 17.3004V13.5007C15.8 13.2487 15.8948 13.0071 16.0636 12.8289C16.2324 12.6508 16.4613 12.5507 16.7 12.5507C16.9387 12.5507 17.1676 12.6508 17.3364 12.8289C17.5052 13.0071 17.6 13.2487 17.6 13.5007V17.3004Z" fill="#FF6E83"/>
</svg>
