<svg width="40" height="40" viewBox="0 0 40 40" fill="none" xmlns="http://www.w3.org/2000/svg">
<rect width="40" height="40" fill="white"/>
<path d="M20.0009 28.2352C24.5491 28.2352 28.2362 24.5482 28.2362 19.9999C28.2362 15.4517 24.5491 11.7646 20.0009 11.7646C15.4527 11.7646 11.7656 15.4517 11.7656 19.9999C11.7656 24.5482 15.4527 28.2352 20.0009 28.2352Z" fill="#D1D3CF"/>
<path d="M18.9675 23.4468C18.8455 23.4465 18.7249 23.4196 18.6142 23.3682C18.5035 23.3167 18.4053 23.2418 18.3264 23.1487L15.6529 19.9847C15.5496 19.8679 15.4907 19.7184 15.4866 19.5625C15.4825 19.4065 15.5334 19.2541 15.6305 19.132C15.6907 19.0606 15.7658 19.0031 15.8505 18.9637C15.9352 18.9242 16.0275 18.9038 16.121 18.9038C16.2144 18.9038 16.3067 18.9242 16.3914 18.9637C16.4762 19.0031 16.5512 19.0606 16.6114 19.132L18.8746 21.8151C18.8863 21.8287 18.9008 21.8396 18.9171 21.847C18.9335 21.8545 18.9512 21.8584 18.9691 21.8584C18.9871 21.8584 19.0048 21.8545 19.0211 21.847C19.0374 21.8396 19.052 21.8287 19.0637 21.8151L23.3624 16.7182C23.4604 16.597 23.5977 16.514 23.7506 16.4836C23.9034 16.4531 24.0621 16.4772 24.1991 16.5515C24.2789 16.5988 24.3476 16.6628 24.4003 16.7392C24.4531 16.8155 24.4886 16.9024 24.5044 16.9939C24.5203 17.0853 24.5161 17.1791 24.4921 17.2688C24.4682 17.3584 24.4251 17.4418 24.3658 17.5132L19.6119 23.1487C19.5326 23.2422 19.4339 23.3174 19.3226 23.3688C19.2113 23.4203 19.0901 23.4469 18.9675 23.4468Z" fill="white"/>
</svg>
