<svg width="288" height="50" viewBox="0 0 288 50" fill="none" xmlns="http://www.w3.org/2000/svg">
<rect y="9.87598" width="288" height="40" rx="20" fill="#F4F4F3"/>
<path d="M54.6875 23.1416H52.9688V28.2041H50.0938V24.2354H48.3906V27.751H45.125V24.2354H43.375V33.8604H50.0938V29.626H52.9688V37.2822H54.6875V23.1416ZM45.125 32.4697V29.1104H48.3906V32.4697H45.125ZM69.5469 30.8447H56.6406V32.2197H69.5469V30.8447ZM58.2656 36.9854H68.2188V35.5791H59.9688V33.0322H58.2656V36.9854ZM58.2969 29.8135H68.1094V28.4854H60.0312V27.3604H67.6562V26.0635H60.0312V24.9697H68V23.626H58.2969V29.8135ZM76.9219 23.3604C73.7109 23.3682 71.8281 24.2197 71.8281 25.7822C71.8281 27.3604 73.7109 28.2119 76.9219 28.2197C80.1406 28.2119 82.0078 27.3604 82.0156 25.7822C82.0078 24.2197 80.1406 23.3682 76.9219 23.3604ZM70.5 30.3604H83.375V28.9697H70.5V30.3604ZM72.0156 32.5947H80.0625V33.5322H72.0312V37.1416H82.1562V35.8135H73.7344V34.7666H81.7656V31.3135H72.0156V32.5947ZM73.6562 25.7822C73.6484 25.0557 74.7734 24.6416 76.9219 24.6416C79.1016 24.6416 80.2188 25.0557 80.2188 25.7822C80.2188 26.5635 79.1016 26.9229 76.9219 26.9229C74.7734 26.9229 73.6484 26.5635 73.6562 25.7822ZM99.5312 26.1885H91.4844V23.3291H89.7812V27.5791H99.5312V26.1885ZM88.1094 29.9385H93.6875V31.1729H89.6406V32.4854H97.7188V33.4697H89.6562V37.1416H99.9062V35.7979H91.4062V34.6885H99.4375V31.1729H95.3906V29.9385H101.016V28.5322H88.1094V29.9385ZM113.781 23.1416H112.047V28.3447H109.625V29.7666H112.047V37.2822H113.781V23.1416ZM102.422 25.7822H107.109V28.1416H102.469V33.9697H103.594C106.023 33.9619 107.914 33.8838 110.016 33.5166L109.875 32.0947C107.977 32.4385 106.289 32.5088 104.188 32.5166V29.5479H108.812V24.376H102.422V25.7822ZM121.656 24.4385H120.016V33.8447H125.562V24.4385H123.953V27.7041H121.656V24.4385ZM121.656 32.4385V29.0791H123.953V32.4385H121.656ZM126.953 36.5791H128.594V30.0322H130.094V37.2666H131.766V23.1416H130.094V28.5947H128.594V23.3916H126.953V36.5791ZM145.234 23.1572H143.5V25.5479H140.664C140.742 25.1025 140.781 24.6338 140.781 24.1416H134.297V25.5479H138.883C138.617 27.6494 136.852 29.3291 133.547 30.2197L134.25 31.5947C137.32 30.7354 139.383 29.165 140.273 26.9229H143.5V28.4385H140.141V29.8447H143.5V31.4072H145.234V23.1572ZM135.766 34.376C135.766 36.1104 137.664 37.1963 140.562 37.1885C143.422 37.1963 145.328 36.1104 145.328 34.376C145.328 32.6416 143.422 31.5713 140.562 31.5635C137.664 31.5713 135.766 32.6416 135.766 34.376ZM137.5 34.376C137.5 33.4307 138.664 32.9229 140.562 32.9229C142.43 32.9229 143.586 33.4307 143.594 34.376C143.586 35.3057 142.43 35.8135 140.562 35.8135C138.664 35.8135 137.5 35.3057 137.5 34.376ZM156.078 26.5322V24.2822H154.344V26.5322C154.336 29.1416 153.039 31.8447 150.766 32.9229L151.828 34.3135C153.445 33.501 154.602 31.9072 155.219 29.9854C155.82 31.7822 156.922 33.2744 158.453 34.0479L159.516 32.6572C157.328 31.6025 156.062 29.0557 156.078 26.5322ZM160.359 37.2666H162.094V30.1572H164.266V28.6729H162.094V23.1416H160.359V37.2666ZM170.219 26.0166V25.6104H173.188V24.2197H165.422V25.6104H168.469V26.0166C168.453 27.876 167.242 29.7041 164.969 30.4541L165.859 31.8291C167.531 31.251 168.734 30.0869 169.367 28.626C170.016 29.9697 171.18 31.0322 172.781 31.5479L173.672 30.1885C171.422 29.4932 170.219 27.7744 170.219 26.0166ZM167.281 36.9854H177.016V35.5791H169.031V32.4697H167.281V36.9854ZM174.875 33.4072H176.625V23.1572H174.875V33.4072ZM185.109 23.3604C181.898 23.3682 180.016 24.2197 180.016 25.7822C180.016 27.3604 181.898 28.2119 185.109 28.2197C188.328 28.2119 190.195 27.3604 190.203 25.7822C190.195 24.2197 188.328 23.3682 185.109 23.3604ZM178.688 30.3604H191.562V28.9697H178.688V30.3604ZM180.203 32.5947H188.25V33.5322H180.219V37.1416H190.344V35.8135H181.922V34.7666H189.953V31.3135H180.203V32.5947ZM181.844 25.7822C181.836 25.0557 182.961 24.6416 185.109 24.6416C187.289 24.6416 188.406 25.0557 188.406 25.7822C188.406 26.5635 187.289 26.9229 185.109 26.9229C182.961 26.9229 181.836 26.5635 181.844 25.7822ZM209.188 31.626H196.312V33.0479H201.875V37.2822H203.594V33.0479H209.188V31.626ZM197.016 29.3916L197.641 30.7666C199.992 30.4697 201.828 29.4619 202.75 28.0869C203.664 29.4463 205.477 30.4697 207.812 30.7666L208.453 29.3916C205.633 29.0479 203.789 27.5869 203.625 26.1885H207.984V24.8135H203.594V23.1572H201.875V24.8135H197.5V26.1885H201.859C201.688 27.6025 199.836 29.0479 197.016 29.3916ZM221.203 23.1416H219.469V37.2354H221.203V30.1104H223.297V28.6572H221.203V23.1416ZM210.062 33.376L211.047 34.7197C215.742 32.4072 217.461 28.7588 217.469 24.6104H210.828V26.0479H215.703C215.359 29.2666 213.5 31.6572 210.062 33.376ZM235.031 23.1416H233.312V37.2666H235.031V30.2041H237.203V28.7666H235.031V23.1416ZM223.891 26.7041H232.219V25.3135H228.969V23.3447H227.234V25.3135H223.891V26.7041ZM224.547 30.9541C224.531 32.8994 226.047 34.2666 228.109 34.2666C230.141 34.2666 231.648 32.8994 231.656 30.9541C231.648 29.001 230.141 27.6182 228.109 27.626C226.047 27.6182 224.531 29.001 224.547 30.9541ZM226.203 30.9541C226.195 29.8057 227 29.0479 228.109 29.0479C229.195 29.0479 229.984 29.8057 230 30.9541C229.984 32.1025 229.195 32.8369 228.109 32.8291C227 32.8369 226.195 32.1025 226.203 30.9541ZM242.203 26.8447V24.3916H240.531V26.9229C240.523 29.3291 239.617 31.8213 237.562 33.0635L238.641 34.3604C239.969 33.5479 240.875 32.1104 241.383 30.415C241.852 31.9541 242.68 33.2666 243.953 34.0322L244.906 32.7041C242.992 31.501 242.211 29.126 242.203 26.8447ZM243.391 29.4385H245.406V36.5791H247.047V23.3916H245.406V28.001H243.391V29.4385ZM248.312 37.2666H249.984V23.1416H248.312V37.2666ZM264.531 34.126H261.562V30.5166C262.656 29.8682 263.32 28.876 263.312 27.6416C263.32 25.3916 261.102 23.9072 258.047 23.9072C255.008 23.9072 252.805 25.3916 252.812 27.6416C252.805 28.8916 253.484 29.9072 254.609 30.5557V34.126H251.625V35.5479H264.531V34.126ZM254.516 27.6416C254.508 26.1729 255.938 25.2744 258.047 25.2822C260.148 25.2744 261.609 26.1729 261.609 27.6416C261.609 29.0869 260.148 30.0088 258.047 30.001C255.938 30.0088 254.508 29.0869 254.516 27.6416ZM256.328 34.126V31.1885C256.859 31.2979 257.438 31.3604 258.047 31.3604C258.672 31.3604 259.258 31.2979 259.797 31.1807V34.126H256.328ZM268.359 24.5635H266.234L266.422 32.5479H268.188L268.359 24.5635ZM266.094 34.7822C266.086 35.4541 266.641 36.001 267.312 36.001C267.961 36.001 268.516 35.4541 268.516 34.7822C268.516 34.126 267.961 33.5869 267.312 33.5791C266.641 33.5869 266.086 34.126 266.094 34.7822Z" fill="#1B210D"/>
<circle cx="28.3008" cy="30.177" r="9.40525" transform="rotate(45 28.3008 30.177)" fill="#1B210D"/>
<path d="M28.9647 34.5368V30.9667H32.5348C32.7214 30.9667 32.9003 30.8926 33.0322 30.7606C33.1642 30.6287 33.2383 30.4498 33.2383 30.2632C33.2383 30.0766 33.1642 29.8977 33.0322 29.7658C32.9003 29.6338 32.7214 29.5597 32.5348 29.5597H28.9647V25.9896C28.9647 25.803 28.8906 25.6241 28.7586 25.4922C28.6267 25.3602 28.4478 25.2861 28.2612 25.2861C28.0746 25.2861 27.8957 25.3602 27.7638 25.4922C27.6319 25.6241 27.5577 25.803 27.5577 25.9896V29.5597H23.9876C23.801 29.5597 23.6221 29.6338 23.4902 29.7658C23.3583 29.8977 23.2841 30.0766 23.2841 30.2632C23.2841 30.4498 23.3583 30.6287 23.4902 30.7606C23.6221 30.8926 23.801 30.9667 23.9876 30.9667H27.5577V34.5368C27.5577 34.7234 27.6319 34.9023 27.7638 35.0342C27.8957 35.1662 28.0746 35.2403 28.2612 35.2403C28.4478 35.2403 28.6267 35.1662 28.7586 35.0342C28.8906 34.9023 28.9647 34.7234 28.9647 34.5368Z" fill="white"/>
<path d="M139.779 1.73666C140.854 -0.578892 144.146 -0.578886 145.221 1.73667L149 9.876H136L139.779 1.73666Z" fill="#F4F4F3"/>
</svg>
