<svg width="16" height="165" viewBox="0 0 16 165" fill="none" xmlns="http://www.w3.org/2000/svg">
<path fill-rule="evenodd" clip-rule="evenodd" d="M8 165C3.58172 165 1.82294e-07 161.418 4.07165e-07 157L7.99062e-06 8C8.21549e-06 3.58173 3.58173 1.34462e-07 8 3.0033e-07C12.4183 4.66197e-07 16 3.58173 16 8L16 157C16 161.418 12.4183 165 8 165Z" fill="#F4F4F3"/>
<path opacity="0.08" fill-rule="evenodd" clip-rule="evenodd" d="M0.3 5.78C0.672023 4.46504 1.37469 3.26731 2.341 2.301C3.30731 1.33469 4.50504 0.632023 5.82 0.26L0.3 5.78ZM0 13.08V8.84L8.84 0C9.9559 0.121812 11.0331 0.479742 12 1.05L0 13.08ZM0 20.08V15.84L13.6 2.24C14.3322 2.95805 14.9195 3.81018 15.33 4.75L0 20.08ZM0 27.08V22.84L15.93 6.9C15.9805 7.26444 16.0039 7.63211 16 8V11.12L0 27.08ZM0 34.08V29.84L16 13.84V18.08L0 34.08ZM0 41.08V36.84L16 20.84V25.08L0 41.08ZM0 48.08V43.84L16 27.84V32.08L0 48.08ZM0 55.08V50.84L16 34.84V39.08L0 55.08ZM0 62.08V57.84L16 41.84V46.08L0 62.08ZM0 69.08V64.84L16 48.84V53.08L0 69.08ZM0 76.08V71.84L16 55.84V60.08L0 76.08ZM0 83.08V78.84L16 62.84V67.08L0 83.08ZM0 90.08V85.84L16 69.84V74.08L0 90.08ZM0 97.08V92.84L16 76.84V81.08L0 97.08ZM0 104.08V99.84L16 83.84V88.08L0 104.08ZM0 111.08V106.84L16 90.84V95.08L0 111.08ZM0 118.08V113.84L16 97.84V102.08L0 118.08ZM0 125.08V120.84L16 104.84V109.08L0 125.08ZM0 132.08V127.84L16 111.84V116.08L0 132.08ZM0 139.08V134.84L16 118.84V123.08L0 139.08ZM0 146.08V141.84L16 125.84V130.08L0 146.08ZM0 153.08V148.84L16 132.84V137.08L0 153.08ZM0.46 159.62C0.158355 158.779 0.00277702 157.893 0 157L0 155.88L16 139.88V144.12L0.46 159.62ZM3.46 163.57C2.6248 163.005 1.90525 162.285 1.34 161.45L16 146.84V151.08L3.46 163.57ZM9.17 164.87C8.78372 164.942 8.39266 164.985 8 165C7.0902 165.001 6.18702 164.845 5.33 164.54L16 153.84V157C16.0003 157.405 15.9702 157.809 15.91 158.21L9.17 164.87Z" fill="white"/>
</svg>
