<svg width="375" height="326" viewBox="0 0 375 326" fill="none" xmlns="http://www.w3.org/2000/svg">
<path d="M158.5 286C199.093 286 232 279.06 232 270.5C232 261.94 199.093 255 158.5 255C117.907 255 85 261.94 85 270.5C85 279.06 117.907 286 158.5 286Z" fill="#F4F4F3"/>
<path d="M215.428 167.024C215.428 167.024 241.463 185.021 253.395 178.588C255.288 177.562 257.351 176.848 259.566 177.116H259.602C260.263 177.196 260.924 177.196 261.576 177.143C262.692 177.053 264.871 177.517 265.693 179.15C266.863 181.452 266.551 184.709 265.22 186.252C263.996 187.671 261.942 189.331 259.272 190.25C254.752 191.802 249.287 191.668 243.874 190.776C235.452 189.384 223.708 185.423 216.455 182.318C209.203 179.213 208.015 175.465 208.015 175.465L205.881 173.511L215.419 167.033L215.428 167.024Z" fill="#FF6E83"/>
<path d="M269.632 148.464L268.523 148.338C264.847 147.922 261.529 150.561 261.112 154.233L257.369 187.214C256.952 190.886 259.594 194.2 263.27 194.617L264.379 194.742C268.055 195.159 271.373 192.52 271.789 188.847L275.533 155.867C275.95 152.195 273.308 148.88 269.632 148.464Z" fill="#130E4E"/>
<path d="M313.298 117.978C316.293 91.5753 300.615 68.1186 278.281 65.5858C255.948 63.0531 235.416 82.4035 232.421 108.806C229.427 135.209 245.105 158.665 267.438 161.198C289.772 163.731 310.304 144.381 313.298 117.978Z" fill="#FF6E82"/>
<path d="M260.488 122.398C260.013 122.398 259.554 122.209 259.177 121.865C258.522 121.259 258.17 120.235 258.186 118.99C258.178 117.721 258.53 116.697 259.194 116.099C259.579 115.755 260.029 115.566 260.504 115.566C260.979 115.566 261.43 115.755 261.815 116.099C262.47 116.705 262.822 117.729 262.806 118.974C262.814 120.244 262.462 121.267 261.798 121.865C261.413 122.209 260.963 122.398 260.488 122.398Z" fill="white"/>
<path d="M273.562 122.43C273.087 122.43 272.636 122.242 272.251 121.898C271.596 121.291 271.244 120.268 271.26 119.023C271.252 117.753 271.604 116.729 272.268 116.131C272.653 115.787 273.103 115.599 273.578 115.599C274.053 115.599 274.512 115.787 274.889 116.131C275.544 116.737 275.896 117.761 275.88 119.006C275.888 120.276 275.536 121.3 274.873 121.898C274.488 122.242 274.037 122.43 273.562 122.43Z" fill="white"/>
<path d="M279.626 66.6913C256.256 62.854 233.616 81.9996 229.07 109.449C228.058 115.567 228.031 121.578 228.853 127.277L292.849 71.6002C288.841 69.174 284.411 67.4742 279.626 66.6913Z" fill="#FF8991" fill-opacity="0.6"/>
<path d="M267.182 135.781C267.182 135.781 278.854 139.09 285.857 127.541" stroke="white" stroke-width="2.45733" stroke-linecap="round" stroke-linejoin="round"/>
<path opacity="0.9" d="M272.988 100.42C272.988 100.42 262.896 98.9047 261.594 87.6992" stroke="#FFB7C4" stroke-width="2.45733" stroke-linecap="round" stroke-linejoin="round"/>
<path opacity="0.9" d="M263.347 102.747C263.347 102.747 256.565 102.165 256 95.8418" stroke="#FFB7C4" stroke-width="2.45733" stroke-linecap="round" stroke-linejoin="round"/>
<path fill-rule="evenodd" clip-rule="evenodd" d="M279.561 57.7067C305.846 60.6847 324.323 88.0378 320.83 118.802C317.338 149.566 293.199 172.091 266.914 169.113C240.629 166.135 222.152 138.782 225.644 108.018C229.137 77.2538 253.276 54.7288 279.561 57.7067ZM275.884 67.494C297.135 69.9017 312.053 92.2001 309.204 117.299C306.355 142.398 286.817 160.792 265.566 158.385C244.315 155.977 229.397 133.679 232.246 108.58C235.095 83.4811 254.632 65.0863 275.884 67.494Z" fill="#130E4E"/>
<path d="M126.365 71.9819C145.79 65.2722 149.515 66.6641 166.52 57.349C177.041 51.594 181.926 46.4457 197.949 47.3647C210.676 48.0874 221.348 57.7237 222.224 70.4294C223.108 83.3224 215.445 93.8687 208.353 99.713C203.164 103.657 193.197 110.411 180.193 115.452C177.88 116.344 176.674 118.896 177.353 121.279C178.13 124.018 181.051 125.374 183.757 124.491C188.356 122.983 191.322 121.618 191.322 121.618C198.726 118.156 204.915 114.39 209.559 111.223C212.667 109.099 217.043 109.653 219.187 112.749C220.661 114.881 222.143 117.174 223.572 119.628C227.868 126.989 231.717 135.796 233.522 146.039C239.872 182.255 221.313 216.25 180.193 230.874C129.928 248.745 76.7163 219.257 67.1153 167.908C59.2201 126.052 85.3796 83.706 126.374 71.9908L126.365 71.9819Z" fill="#FF6E83"/>
<path d="M170.719 266.234L177.962 205.222L145.756 195.229C145.756 195.229 145.97 245.391 147.98 269.312C148.65 277.253 156.295 276.405 166.405 277.012C172.46 277.378 175.783 276.735 173.166 272.078C172.594 271.061 170.799 268.661 170.71 266.225L170.719 266.234Z" fill="#FF6E83"/>
<path d="M140.761 257.213L143.646 208.452L118.406 201.831C118.406 201.831 120.791 241.67 123.39 260.595C124.256 266.876 130.106 265.895 137.921 265.957C142.601 265.993 145.128 265.359 142.913 261.763C142.431 260.978 140.94 259.149 140.761 257.213Z" fill="#FF6E83"/>
<path d="M186.643 182.656C186.643 182.656 207.631 213.135 221.725 213.591C224.369 213.68 227.012 213.635 229.281 215L229.316 215.027C229.995 215.437 230.719 215.75 231.46 216.009C232.728 216.455 234.845 218.016 234.845 220.175C234.845 223.236 232.701 226.591 230.397 227.617C228.271 228.554 225.119 229.348 221.689 229.035C215.884 228.518 209.998 225.716 204.577 222.12C196.146 216.526 185.5 206.542 179.293 199.671C173.086 192.792 173.871 188.17 173.871 188.17L172.621 185.021L186.643 182.665V182.656Z" fill="#FF6E83"/>
<path d="M219.794 214.001C219.794 214.001 218.374 216.981 219.866 219.078C221.357 221.175 224.51 217.204 225.582 216.41C227.136 215.259 229.377 214.001 228.859 212.234C227.609 207.961 219.794 214.001 219.794 214.001Z" fill="#FF6E83"/>
<path d="M221.481 141.015C221.99 140.935 222.445 140.659 222.802 140.212C223.401 139.454 223.606 138.294 223.383 136.947C223.177 135.582 222.615 134.547 221.811 134.011C221.338 133.699 220.82 133.583 220.311 133.663C219.801 133.744 219.337 134.02 218.989 134.466C218.39 135.225 218.185 136.385 218.408 137.732C218.614 139.097 219.176 140.132 219.98 140.667C220.453 140.98 220.971 141.096 221.481 141.015Z" fill="white"/>
<path d="M235.522 155.47C235.522 155.47 229.359 162.01 216.168 155.47" stroke="white" stroke-width="3" stroke-linecap="round" stroke-linejoin="round"/>
<path d="M203.548 223.361C203.548 223.361 193.786 216.053 184.283 203.928" stroke="white" stroke-width="3" stroke-miterlimit="10" stroke-linecap="round"/>
<path d="M230.244 188.902C230.244 188.902 234.808 176.741 236.907 161.475" stroke="white" stroke-width="3" stroke-miterlimit="10" stroke-linecap="round"/>
<path d="M273.346 175.037C273.346 175.037 273.748 169.487 278.651 168.782H274.06L273.355 175.037H273.346Z" fill="#130E4E"/>
<path d="M255.957 166.329C255.957 166.329 259.726 167.364 258.994 172.771L260.199 166.588L255.957 166.329Z" fill="#130E4E"/>
<path d="M254.466 180.131C254.466 180.131 252.858 182.335 253.698 184.352C254.537 186.368 257.69 183.692 258.664 183.245C260.084 182.594 262.066 181.978 261.95 180.417C261.647 176.625 254.466 180.131 254.466 180.131Z" fill="#FF6E83"/>
</svg>
