<svg width="79" height="79" viewBox="0 0 79 79" fill="none" xmlns="http://www.w3.org/2000/svg">
<circle cx="39.5" cy="39.5" r="39.5" fill="#FF6E83"/>
<mask id="mask0_982_39643" style="mask-type:alpha" maskUnits="userSpaceOnUse" x="0" y="0" width="79" height="79">
<circle cx="39.5" cy="39.5" r="39.5" fill="#FF6E83"/>
</mask>
<g mask="url(#mask0_982_39643)">
<path d="M3 65.5L9.4395 63.7495C37.1853 56.2069 58.5347 34.0164 65 6L79 8V79H26.5L3 65.5Z" fill="#FF5B70"/>
</g>
<path fill-rule="evenodd" clip-rule="evenodd" d="M41.9123 17.8353C40.0367 17.6618 38.6849 17.6116 37.5304 17.5687C35.1711 17.481 33.6359 17.4239 30.1383 16.4082C29.573 16.2668 29.0559 16.1193 28.5642 15.9789C26.2752 15.3257 24.5364 14.8295 21.0473 15.8516C19.4021 16.3102 17.9828 17.3574 17.0593 18.7941C16.1357 20.2308 15.7722 21.9567 16.038 23.6438C16.3758 25.1731 17.0686 26.6016 18.0602 27.8139C19.0518 29.0261 20.3146 29.9883 21.7466 30.6226C24.4784 31.8081 27.3593 32.6147 30.3095 33.0202C30.6312 33.0778 30.9234 33.2441 31.1373 33.4912C31.3418 33.7461 31.4526 34.0635 31.4512 34.3903C31.4382 34.5739 31.3897 34.7532 31.3085 34.9184C31.2318 35.0874 31.1141 35.2346 30.966 35.3465C30.8319 35.4718 30.6707 35.5645 30.4951 35.6177C30.312 35.6603 30.1215 35.6603 29.9385 35.6177C29.1912 35.5766 28.4474 35.486 27.7121 35.3465C25.8121 34.9644 23.946 34.4299 22.1319 33.7481C21.664 33.5578 21.1401 33.5589 20.673 33.751C20.2059 33.9432 19.8329 34.3112 19.6344 34.7757C18.3548 37.9294 17.7754 41.3233 17.9361 44.7229C18.6068 54.8986 25.8282 62.8478 37.9163 64.0894C41.0383 64.5029 44.2114 64.2895 47.2499 63.4615C52.5805 61.9692 57.2049 58.6261 60.293 54.032C63.3812 49.4379 64.7311 43.8936 64.1003 38.3941C63.4696 32.8946 60.8996 27.7999 56.8515 24.0242C52.8034 20.2486 47.5423 18.0391 42.0122 17.7925L41.9123 17.8353ZM45.3949 31.8646C45.2956 31.8627 45.198 31.8383 45.1095 31.7932C45.0204 31.7628 44.9415 31.7085 44.8812 31.6362C44.7338 31.4597 44.6223 31.2561 44.5529 31.0368C44.4871 30.8246 44.4629 30.6017 44.4816 30.3803C44.455 30.1542 44.4794 29.925 44.5529 29.7096C44.6193 29.4933 44.7312 29.2938 44.8812 29.1244C44.9363 29.0437 45.0166 28.9835 45.1095 28.9532C45.1975 28.9069 45.2955 28.8828 45.3949 28.8828C45.4944 28.8828 45.5923 28.9069 45.6804 28.9532C45.7704 28.9888 45.8493 29.048 45.9087 29.1244C46.1964 29.4716 46.3395 29.9162 46.3083 30.3661C46.3291 30.5937 46.3045 30.8232 46.2359 31.0412C46.1673 31.2592 46.0561 31.4615 45.9087 31.6362C45.77 31.771 45.5879 31.8519 45.3949 31.8646ZM50.2895 31.7356C50.3672 31.8013 50.4606 31.8455 50.5606 31.8641V31.807C50.7572 31.7918 50.943 31.7114 51.0887 31.5786C51.3771 31.2213 51.5152 30.7658 51.474 30.3085C51.4953 30.0863 51.4722 29.8621 51.406 29.649C51.3399 29.4358 51.232 29.2379 51.0887 29.0668C51.0213 28.9927 50.9385 28.9342 50.8461 28.8956C50.7576 28.8505 50.66 28.8261 50.5606 28.8242C50.4615 28.8275 50.3642 28.8518 50.2752 28.8956C50.1872 28.9348 50.1092 28.9933 50.0469 29.0668C49.7595 29.4198 49.6167 29.8686 49.6473 30.3227C49.6209 30.7763 49.7633 31.2237 50.0469 31.5786C50.1125 31.6514 50.1962 31.7056 50.2895 31.7356Z" fill="white"/>
<path d="M37.8729 55.4409L27.8828 60.9925C30.9575 62.7171 34.3619 63.7725 37.8729 64.0894C40.9949 64.5029 44.168 64.2895 47.2065 63.4615C50.2435 62.6253 53.0791 61.1811 55.5413 59.2164C58.0035 57.2516 60.041 54.8073 61.5303 52.0316C63.0195 49.2558 63.9296 46.2066 64.2052 43.0686C64.4808 39.9307 64.1162 36.7695 63.1336 33.7766C62.5871 32.1289 61.8545 30.5488 60.95 29.067L57.9673 34.7756C53.4454 43.489 46.4562 50.6767 37.8729 55.4409V55.4409Z" fill="white"/>
</svg>
