<svg width="335" height="380" viewBox="0 0 335 380" fill="none" xmlns="http://www.w3.org/2000/svg">
<rect width="335" height="380" rx="12" fill="white"/>
<rect x="213" y="262" width="63" height="76" rx="8" fill="#92DC2F"/>
<path d="M243.717 321.04H240.617V320.04H239.697V321.04H236.577V321.8H243.717V321.04ZM236.177 326.5H239.697V328.84H240.617V326.5H244.197V325.74H236.177V326.5ZM237.257 323.72C237.247 324.67 238.337 325.19 240.157 325.2C241.977 325.19 243.067 324.67 243.077 323.72C243.067 322.78 241.977 322.25 240.157 322.26C238.337 322.25 237.247 322.78 237.257 323.72ZM238.217 323.72C238.207 323.23 238.907 322.95 240.157 322.96C241.417 322.95 242.107 323.23 242.117 323.72C242.107 324.22 241.417 324.5 240.157 324.5C238.907 324.5 238.207 324.22 238.217 323.72ZM251.7 320.08H250.78V325.2H251.7V323.02H252.96V322.24H251.7V320.08ZM244.78 324.42L245.16 325.12C247.75 324.45 249.27 322.87 249.28 320.62H245.18V321.36H248.28C248.13 322.74 246.88 323.86 244.78 324.42ZM245.92 326.32H250.78V328.82H251.7V325.58H245.92V326.32Z" fill="white"/>
<path fill-rule="evenodd" clip-rule="evenodd" d="M243.011 290.761C242.692 290.45 242.351 290.162 241.99 289.899C240.198 288.716 238.139 288.001 235.999 287.818C235.863 287.806 235.731 287.763 235.613 287.693C235.491 287.626 235.389 287.528 235.318 287.409C235.24 287.297 235.19 287.168 235.17 287.034C235.136 286.899 235.136 286.759 235.17 286.625C236.261 282.943 237.704 278.204 240.749 275.193C242.574 273.505 244.994 272.609 247.478 272.703C249.962 272.797 252.307 273.872 253.999 275.693C256.818 279.454 260.193 285.488 261.852 296.5C262.064 298.086 262.094 299.691 261.943 301.284C261.318 306.511 259.033 310.261 253.249 310.261C250.417 310.261 248.842 309.735 247.523 309.295C246.572 308.977 245.754 308.704 244.693 308.704C243.431 308.704 242.364 309.016 241.193 309.359C239.769 309.776 238.19 310.238 235.92 310.238C231.215 310.238 224.727 305.841 226.261 298.716C227.215 294.193 230.613 289.931 234.374 289.931H235.033C236.32 289.816 237.616 290.005 238.816 290.483C240.016 290.96 241.087 291.713 241.943 292.681C242.151 292.807 242.394 292.863 242.636 292.841C242.88 292.808 243.108 292.696 243.283 292.522C243.451 292.348 243.558 292.125 243.59 291.886C243.615 291.64 243.559 291.393 243.431 291.181L243.011 290.761ZM244.738 284.943C244.659 284.941 244.581 284.922 244.511 284.886C244.44 284.862 244.377 284.819 244.329 284.761C244.103 284.478 243.99 284.122 244.011 283.761C243.993 283.581 244.012 283.4 244.067 283.228C244.122 283.056 244.211 282.897 244.329 282.761C244.376 282.7 244.439 282.653 244.511 282.625C244.581 282.587 244.659 282.567 244.738 282.567C244.817 282.567 244.896 282.587 244.965 282.625C245.037 282.653 245.1 282.7 245.147 282.761C245.263 282.897 245.35 283.054 245.405 283.224C245.46 283.393 245.48 283.572 245.465 283.75C245.482 283.931 245.462 284.114 245.408 284.287C245.353 284.461 245.264 284.622 245.147 284.761C245.099 284.819 245.036 284.862 244.965 284.886C244.895 284.922 244.817 284.941 244.738 284.943ZM248.636 284.885C248.707 284.92 248.784 284.939 248.863 284.942C249.02 284.93 249.168 284.866 249.284 284.76C249.393 284.616 249.478 284.455 249.534 284.283C249.592 284.111 249.612 283.929 249.59 283.749C249.612 283.569 249.592 283.386 249.534 283.215C249.48 283.049 249.395 282.894 249.284 282.76C249.23 282.701 249.164 282.655 249.09 282.624C249.02 282.588 248.942 282.569 248.863 282.567C248.784 282.57 248.707 282.589 248.636 282.624C248.564 282.652 248.501 282.699 248.454 282.76C248.225 283.041 248.112 283.399 248.136 283.76C248.115 284.121 248.228 284.478 248.454 284.76C248.504 284.816 248.566 284.858 248.636 284.885Z" fill="white"/>
<path d="M235.886 305.705L229.295 307.682C231.13 309.257 233.447 310.159 235.863 310.239C240.056 310.239 241.897 308.705 244.693 308.705C247.227 308.705 248.374 310.261 253.249 310.261C259.034 310.261 261.318 306.511 261.943 301.284C262.094 299.691 262.064 298.086 261.852 296.5C261.25 292.117 260.129 287.822 258.511 283.705L258.238 284.455C256.445 289.504 253.486 294.06 249.602 297.752C245.719 301.444 241.02 304.169 235.886 305.705Z" fill="white"/>
<path opacity="0.08" fill-rule="evenodd" clip-rule="evenodd" d="M213.3 267.821C214.053 265.155 216.155 263.053 218.821 262.3L213.3 267.821ZM213 277.122V272.879L223.879 262H228.122L213 277.122ZM213 286.122V281.879L232.879 262H237.122L213 286.122ZM213 295.122V290.879L241.879 262H246.122L213 295.122ZM213 304.122V299.879L250.879 262H255.122L213 304.122ZM213 313.122V308.879L259.879 262H264.122L213 313.122ZM213 322.122V317.879L268.836 262.043C269.992 262.163 271.076 262.53 272.032 263.089L213 322.122ZM213.069 331.053C213.023 330.708 213 330.357 213 330V326.879L274.518 265.361C275.137 266.228 275.587 267.225 275.819 268.302L213.069 331.053ZM216.504 336.618C215.67 336.051 214.95 335.33 214.382 334.497L276 272.879V277.122L216.504 336.618ZM224.122 338H221C220.643 338 220.292 337.977 219.948 337.931L276 281.879V286.122L224.122 338ZM233.122 338H228.879L276 290.879V295.122L233.122 338ZM242.122 338H237.879L276 299.879V304.122L242.122 338ZM251.122 338H246.879L276 308.879V313.122L251.122 338ZM260.122 338H255.879L276 317.879V322.122L260.122 338ZM269.213 337.909C268.817 337.969 268.412 338 268 338H264.879L276 326.879V330C276 330.412 275.969 330.817 275.909 331.213L269.213 337.909Z" fill="white"/>
<path d="M236.084 357H238.211L242.388 348.816V347.099H235.402V348.787H240.256V348.854L236.084 357ZM253.887 345.828H252.137V351.59H249.89V352.635H252.137V353.041H253.887V345.828ZM243.344 350.213L243.528 351.407C244.427 351.416 245.403 351.416 246.419 351.392V353.055H248.149V351.329C249.256 351.271 250.383 351.175 251.485 351.03L251.393 349.947C248.729 350.193 245.751 350.213 243.344 350.213ZM244.195 347.868C244.19 349.023 245.452 349.734 247.347 349.729C249.203 349.734 250.474 349.023 250.484 347.868C250.474 346.747 249.203 346.002 247.347 345.997C245.452 346.002 244.19 346.747 244.195 347.868ZM245.128 354.583H252.147V355.187H245.176V358.175H254.178V356.956H246.892V356.314H253.887V353.408H245.128V354.583ZM245.843 347.868C245.834 347.409 246.409 347.133 247.347 347.138C248.27 347.133 248.85 347.409 248.85 347.868C248.85 348.327 248.27 348.584 247.347 348.584C246.409 348.584 245.834 348.327 245.843 347.868Z" fill="#82857A"/>
<rect x="136" y="262" width="63" height="76" rx="8" fill="#F7CC31"/>
<path fill-rule="evenodd" clip-rule="evenodd" d="M169.08 276.556C178.148 271.431 190.489 279.352 189.659 290.988C189.591 315.897 144.728 315.511 145.398 290.329C145.125 278.965 157.171 271.522 166.091 276.556C166.556 276.817 167.081 276.954 167.614 276.954C168.128 276.946 168.632 276.809 169.08 276.556ZM175.421 289.965C175.5 290.101 175.551 290.252 175.569 290.409C175.609 290.682 175.548 290.961 175.398 291.193C175.244 291.42 175.008 291.578 174.739 291.636C170.006 292.886 165.029 292.886 160.296 291.636C160.027 291.578 159.791 291.42 159.637 291.193C159.487 290.961 159.426 290.682 159.466 290.409C159.488 290.253 159.538 290.103 159.614 289.965C159.692 289.828 159.801 289.712 159.932 289.624C160.062 289.534 160.209 289.473 160.364 289.443C160.518 289.414 160.676 289.414 160.83 289.443C165.211 290.613 169.824 290.613 174.205 289.443C174.359 289.414 174.517 289.414 174.671 289.443C174.826 289.473 174.973 289.534 175.103 289.624C175.234 289.712 175.343 289.828 175.421 289.965ZM165.5 285.886C165.421 285.885 165.343 285.865 165.273 285.829C165.202 285.805 165.139 285.762 165.091 285.704C164.974 285.567 164.886 285.408 164.832 285.236C164.777 285.065 164.757 284.884 164.773 284.704C164.755 284.525 164.774 284.344 164.829 284.172C164.884 284 164.973 283.841 165.091 283.704C165.138 283.644 165.201 283.596 165.273 283.568C165.343 283.532 165.421 283.513 165.5 283.511C165.579 283.514 165.656 283.533 165.727 283.568C165.799 283.596 165.862 283.644 165.909 283.704C166.028 283.838 166.118 283.995 166.173 284.165C166.227 284.335 166.246 284.515 166.227 284.693C166.243 284.873 166.224 285.054 166.17 285.227C166.111 285.4 166.022 285.561 165.909 285.704C165.861 285.762 165.798 285.805 165.727 285.829C165.656 285.864 165.579 285.884 165.5 285.886ZM169.398 285.829C169.469 285.864 169.546 285.884 169.625 285.886C169.72 285.877 169.81 285.841 169.886 285.784C169.94 285.768 169.991 285.741 170.034 285.704C170.151 285.565 170.24 285.404 170.294 285.231C170.349 285.057 170.369 284.874 170.352 284.693C170.37 284.515 170.35 284.336 170.296 284.166C170.241 283.996 170.152 283.839 170.034 283.704C169.987 283.644 169.924 283.596 169.852 283.568C169.782 283.532 169.704 283.513 169.625 283.511C169.546 283.514 169.469 283.533 169.398 283.568C169.326 283.596 169.263 283.644 169.216 283.704C169.1 283.842 169.012 284 168.954 284.17C168.901 284.343 168.882 284.524 168.898 284.704C168.883 284.881 168.902 285.058 168.954 285.227C169.014 285.4 169.103 285.561 169.216 285.704C169.264 285.762 169.327 285.805 169.398 285.829Z" fill="white"/>
<path d="M157.387 305.931L154.637 306.238C167.614 313.465 189.614 308.431 189.659 290.988C189.946 287.227 188.783 283.499 186.409 280.567L184.728 284.772C182.471 290.416 178.746 295.354 173.938 299.074C169.131 302.795 163.417 305.162 157.387 305.931Z" fill="white"/>
<path opacity="0.08" fill-rule="evenodd" clip-rule="evenodd" d="M136.3 267.821C137.053 265.155 139.155 263.053 141.821 262.3L136.3 267.821ZM136 277.122V272.879L146.879 262H151.122L136 277.122ZM136 286.122V281.879L155.879 262H160.122L136 286.122ZM136 295.122V290.879L164.879 262H169.122L136 295.122ZM136 304.122V299.879L173.879 262H178.122L136 304.122ZM136 313.122V308.879L182.879 262H187.122L136 313.122ZM136 322.122V317.879L191.836 262.043C192.992 262.163 194.076 262.53 195.032 263.089L136 322.122ZM136.069 331.053C136.023 330.708 136 330.357 136 330V326.879L197.518 265.361C198.137 266.228 198.587 267.225 198.819 268.302L136.069 331.053ZM139.504 336.618C138.67 336.051 137.95 335.33 137.382 334.497L199 272.879V277.122L139.504 336.618ZM147.122 338H144C143.643 338 143.292 337.977 142.948 337.931L199 281.879V286.122L147.122 338ZM156.122 338H151.879L199 290.879V295.122L156.122 338ZM165.122 338H160.879L199 299.879V304.122L165.122 338ZM174.122 338H169.879L199 308.879V313.122L174.122 338ZM183.122 338H178.879L199 317.879V322.122L183.122 338ZM192.213 337.909C191.817 337.969 191.412 338 191 338H187.879L199 326.879V330C199 330.412 198.969 330.817 198.909 331.213L192.213 337.909Z" fill="white"/>
<path d="M163.777 320.92H159.657V326.66H163.777V320.92ZM160.577 325.92V321.66H162.877V325.92H160.577ZM165.497 328.84H166.437V320.08H165.497V328.84ZM174.7 320.08H173.78V325.2H174.7V323.02H175.96V322.24H174.7V320.08ZM167.78 324.42L168.16 325.12C170.75 324.45 172.27 322.87 172.28 320.62H168.18V321.36H171.28C171.13 322.74 169.88 323.86 167.78 324.42ZM168.92 326.32H173.78V328.82H174.7V325.58H168.92V326.32Z" fill="white"/>
<path d="M161.564 357.135C163.793 357.145 165.311 355.7 165.306 353.684C165.311 351.827 163.986 350.488 162.207 350.488C161.105 350.488 160.128 351.006 159.669 351.881H159.582C159.587 349.937 160.297 348.729 161.641 348.729C162.439 348.729 163.009 349.159 163.174 349.85H165.199C164.996 348.221 163.633 346.964 161.641 346.964C159.166 346.964 157.576 348.941 157.566 352.277C157.561 355.907 159.514 357.126 161.564 357.135ZM159.79 353.751C159.8 352.78 160.559 351.987 161.569 351.987C162.579 351.987 163.314 352.756 163.309 353.742C163.314 354.742 162.565 355.516 161.554 355.516C160.534 355.516 159.795 354.718 159.79 353.751ZM176.859 345.828H175.109V351.59H172.861V352.635H175.109V353.041H176.859V345.828ZM166.316 350.213L166.499 351.407C167.399 351.416 168.375 351.416 169.39 351.392V353.055H171.121V351.329C172.228 351.271 173.354 351.175 174.457 351.03L174.365 349.947C171.701 350.193 168.723 350.213 166.316 350.213ZM167.166 347.868C167.162 349.023 168.423 349.734 170.318 349.729C172.175 349.734 173.446 349.023 173.456 347.868C173.446 346.747 172.175 346.002 170.318 345.997C168.423 346.002 167.162 346.747 167.166 347.868ZM168.099 354.583H175.119V355.187H168.148V358.175H177.149V356.956H169.864V356.314H176.859V353.408H168.099V354.583ZM168.815 347.868C168.805 347.409 169.381 347.133 170.318 347.138C171.242 347.133 171.822 347.409 171.822 347.868C171.822 348.327 171.242 348.584 170.318 348.584C169.381 348.584 168.805 348.327 168.815 347.868Z" fill="#82857A"/>
<rect x="59" y="262" width="63" height="76" rx="8" fill="#A586FF"/>
<path fill-rule="evenodd" clip-rule="evenodd" d="M110.434 283.386C110.174 281.903 109.659 280.477 108.911 279.17C106.491 275.113 102.4 274.761 99.5704 276.397C99.1955 276.685 98.7361 276.84 98.2636 276.84C97.7911 276.84 97.3318 276.685 96.9568 276.397C95.5909 275.226 93.8871 274.522 92.0932 274.386C90.1997 274.515 88.3913 275.22 86.9113 276.408C86.5394 276.688 86.0868 276.839 85.6216 276.839C85.1564 276.839 84.7038 276.688 84.3318 276.408C81.5818 274.352 76.2409 275.602 74.2409 280.283C73.0444 283.143 73.0159 286.358 74.1613 289.238C74.2472 289.435 74.3948 289.598 74.5818 289.704C74.7692 289.806 74.9852 289.842 75.1954 289.806C76.5083 289.598 77.8481 289.628 79.15 289.897C79.4375 289.945 79.7221 290.01 80.0022 290.09C81.2809 290.477 82.4785 291.093 83.5363 291.908C83.6484 292.003 83.741 292.119 83.8091 292.249C83.8796 292.379 83.9186 292.523 83.9227 292.67C83.9335 292.816 83.9104 292.963 83.8552 293.099C83.8001 293.235 83.7143 293.356 83.6045 293.454C83.4374 293.623 83.2161 293.727 82.9795 293.749C82.747 293.768 82.515 293.708 82.3204 293.579C80.9926 292.626 79.4361 292.042 77.8093 291.887C76.1825 291.731 74.5435 292.009 73.0591 292.693C69.1727 295.113 68.8772 300.295 71.6613 304.579C74.0704 308.318 78.3432 309.613 82.3091 309.602H97.5136C102.877 309.602 106.139 307.204 108.457 302.499C111.991 295.227 111.275 287.965 110.434 283.386ZM89.9112 285.693C89.8322 285.691 89.7548 285.671 89.6839 285.637C89.6144 285.61 89.5521 285.567 89.5021 285.512C89.268 285.233 89.1536 284.874 89.1839 284.512C89.1684 284.332 89.1877 284.15 89.2407 283.977C89.2981 283.807 89.3867 283.649 89.5021 283.512C89.5459 283.447 89.6099 283.399 89.6839 283.375C89.7548 283.34 89.8322 283.321 89.9112 283.318C89.9902 283.32 90.068 283.339 90.1384 283.375C90.212 283.406 90.278 283.453 90.3316 283.512C90.4457 283.648 90.5316 283.805 90.5843 283.975C90.6369 284.145 90.6554 284.323 90.6384 284.5C90.6713 284.864 90.5612 285.227 90.3316 285.512C90.2156 285.617 90.0677 285.681 89.9112 285.693ZM93.604 285.512C93.72 285.617 93.868 285.681 94.0245 285.693C94.0998 285.691 94.1735 285.671 94.2404 285.637C94.3147 285.613 94.3813 285.57 94.4336 285.512C94.6611 285.225 94.7745 284.865 94.7518 284.5C94.7766 284.142 94.6627 283.788 94.4336 283.512C94.382 283.45 94.3154 283.403 94.2404 283.375C94.1735 283.341 94.0998 283.321 94.0245 283.318C93.9454 283.32 93.8677 283.339 93.7972 283.375C93.7222 283.403 93.6556 283.45 93.604 283.512C93.374 283.791 93.2638 284.151 93.2972 284.512C93.2662 284.872 93.3762 285.23 93.604 285.512Z" fill="white"/>
<path d="M77.31 304.738L71.8555 304.852C74.2759 308.261 78.4464 309.613 82.31 309.602H97.5146C102.878 309.602 106.14 307.204 108.458 302.5C111.992 295.227 111.276 287.966 110.412 283.386C110.217 282.267 109.877 281.178 109.401 280.147L108.958 281.466C106.727 288.135 102.489 293.952 96.823 298.119C91.1572 302.285 84.3414 304.597 77.31 304.738Z" fill="white"/>
<path opacity="0.08" fill-rule="evenodd" clip-rule="evenodd" d="M59.3003 267.821C60.0533 265.155 62.1545 263.053 64.8213 262.3L59.3003 267.821ZM59 277.122V272.879L69.8789 262H74.1215L59 277.122ZM59 286.122V281.879L78.8789 262H83.1215L59 286.122ZM59 295.122V290.879L87.8789 262H92.1215L59 295.122ZM59 304.122V299.879L96.8789 262H101.122L59 304.122ZM59 313.122V308.879L105.879 262H110.122L59 313.122ZM59 322.122V317.879L114.836 262.043C115.992 262.163 117.076 262.53 118.032 263.089L59 322.122ZM59.0687 331.053C59.0234 330.708 59 330.357 59 330V326.879L120.518 265.361C121.137 266.228 121.587 267.225 121.819 268.302L59.0687 331.053ZM62.5037 336.618C61.6703 336.051 60.9497 335.33 60.3823 334.497L122 272.879V277.122L62.5037 336.618ZM70.1215 338H67C66.6432 338 66.2919 337.977 65.9475 337.931L122 281.879V286.122L70.1215 338ZM79.1215 338H74.8789L122 290.879V295.122L79.1215 338ZM88.1215 338H83.8789L122 299.879V304.122L88.1215 338ZM97.1215 338H92.8789L122 308.879V313.122L97.1215 338ZM106.122 338H101.879L122 317.879V322.122L106.122 338ZM115.213 337.909C114.817 337.969 114.412 338 114 338H110.879L122 326.879V330C122 330.412 121.969 330.817 121.909 331.213L115.213 337.909Z" fill="white"/>
<path d="M90.1574 324.68H86.6174V323.64H85.6974V324.68H82.1774V325.42H90.1574V324.68ZM82.6174 323.34L82.8974 324.06C84.3974 323.91 85.6274 323.4 86.1574 322.57C86.7074 323.4 87.9174 323.91 89.4174 324.06L89.7174 323.34C87.9574 323.2 86.7574 322.54 86.6774 321.66H89.3574V320.92H86.6174V320.06H85.6974V320.92H82.9774V321.66H85.6474C85.5574 322.54 84.3574 323.2 82.6174 323.34ZM83.0574 326.92H88.2374V328.82H89.1774V326.18H83.0574V326.92ZM97.7 320.08H96.78V325.2H97.7V323.02H98.96V322.24H97.7V320.08ZM90.78 324.42L91.16 325.12C93.75 324.45 95.27 322.87 95.28 320.62H91.18V321.36H94.28C94.13 322.74 92.88 323.86 90.78 324.42ZM91.92 326.32H96.78V328.82H97.7V325.58H91.92V326.32Z" fill="white"/>
<path d="M84.48 357.135C86.7038 357.135 88.2217 355.704 88.2169 353.703C88.2217 351.803 86.873 350.445 85.0553 350.445C84.1851 350.445 83.4358 350.798 83.0684 351.286H82.9911L83.2618 348.787H87.661V347.099H81.5698L81.0284 352.799H82.8992C83.1845 352.248 83.7066 351.972 84.4462 351.972C85.4904 351.977 86.2349 352.712 86.23 353.756C86.2349 354.791 85.5049 355.516 84.48 355.516C83.6147 355.516 82.9089 354.984 82.8606 354.215H80.864C80.9027 355.917 82.4158 357.135 84.48 357.135ZM99.7498 345.828H97.9998V351.59H95.7519V352.635H97.9998V353.041H99.7498V345.828ZM89.2063 350.213L89.39 351.407C90.2891 351.416 91.2657 351.416 92.2809 351.392V353.055H94.0115V351.329C95.1186 351.271 96.2449 351.175 97.3472 351.03L97.2553 349.947C94.5916 350.193 91.6137 350.213 89.2063 350.213ZM90.0571 347.868C90.0523 349.023 91.314 349.734 93.209 349.729C95.0654 349.734 96.3368 349.023 96.3465 347.868C96.3368 346.747 95.0654 346.002 93.209 345.997C91.314 346.002 90.0523 346.747 90.0571 347.868ZM90.9901 354.583H98.0094V355.187H91.0385V358.175H100.04V356.956H92.7546V356.314H99.7498V353.408H90.9901V354.583ZM91.7056 347.868C91.6959 347.409 92.2712 347.133 93.209 347.138C94.1324 347.133 94.7125 347.409 94.7125 347.868C94.7125 348.327 94.1324 348.584 93.209 348.584C92.2712 348.584 91.6959 348.327 91.7056 347.868Z" fill="#82857A"/>
<path d="M300 293L306 300L300 307" stroke="#D1D3CF" stroke-width="2" stroke-linecap="round" stroke-linejoin="round"/>
<path d="M35 307L29 300L35 293" stroke="#82857A" stroke-width="2" stroke-linecap="round" stroke-linejoin="round"/>
<path d="M14 242H320" stroke="#F4F4F3" stroke-linecap="round" stroke-linejoin="round"/>
<path d="M112.951 219.114H110.467V217.765H108.707V219.114H106.203V220.487H108.707C108.692 221.898 107.769 223.31 105.777 223.881L106.594 225.244C108.069 224.823 109.065 223.914 109.606 222.764C110.177 223.774 111.168 224.557 112.584 224.92L113.401 223.576C111.4 223.059 110.462 221.763 110.447 220.487H112.951V219.114ZM107.822 227.883C107.817 229.387 109.456 230.262 112.096 230.257C114.745 230.262 116.379 229.387 116.384 227.883C116.379 226.39 114.745 225.548 112.096 225.548C109.456 225.548 107.817 226.39 107.822 227.883ZM109.558 227.883C109.553 227.216 110.447 226.878 112.096 226.883C113.778 226.878 114.648 227.216 114.653 227.883C114.648 228.565 113.778 228.927 112.096 228.932C110.447 228.927 109.553 228.565 109.558 227.883ZM112.584 222.551H114.61V225.34H116.35V217.809H114.61V221.154H112.584V222.551ZM127.836 217.809H126.086V225.046H127.836V222.174H129.508V220.724H127.836V217.809ZM117.785 223.692L118.51 225.021C122.242 224.084 124.326 221.836 124.331 218.515H118.438V219.902H122.445C122.18 221.575 120.618 222.986 117.785 223.692ZM119.458 226.936H126.086V230.262H127.836V225.548H119.458V226.936ZM136.365 217.707H134.446V230.392H136.365V217.707Z" fill="#3B749F" style="mix-blend-mode:multiply"/>
<path d="M151.906 217.828H150.156V226.912H151.906V217.828ZM141.445 223.837L142.354 225.215C143.809 224.717 144.805 223.692 145.361 222.411C145.912 223.6 146.879 224.528 148.285 224.997L149.175 223.624C147.13 222.972 146.245 221.362 146.255 219.709V218.51H144.447V219.709C144.442 221.405 143.538 223.136 141.445 223.837ZM143.567 230.044H152.235V228.637H145.332V226.027H143.567V230.044ZM163.474 218.5H154.942V219.916H161.768C161.758 220.893 161.7 222.184 161.376 223.866H153.593V225.273H156.174V230.262H157.92V225.273H160.506V230.262H162.241V225.273H164.944V223.866H163.141C163.469 221.816 163.469 220.376 163.474 219.336V218.5ZM179.371 217.809H177.606V230.262H179.371V217.809ZM168.958 226.738L169.867 228.125C174.314 226.027 175.639 222.89 175.644 219.119H169.625V220.487H173.865C173.584 223.252 172.168 225.215 168.958 226.738ZM192.384 224.49H187.559V223.586H191.238V222.247H184.156V221.42H191.011V218.055H182.401V219.404H189.261V220.163H182.421V223.586H185.834V224.49H181.004V225.882H192.384V224.49ZM182.276 227.961H189.319V230.204H191.079V226.588H182.276V227.961ZM200.42 229.135C202.649 229.135 204.259 227.917 204.249 226.225C204.259 224.988 203.456 224.103 201.996 223.924V223.847C203.113 223.648 203.886 222.86 203.877 221.749C203.886 220.187 202.509 218.964 200.449 218.964C198.419 218.964 196.881 220.148 196.848 221.85H198.82C198.849 221.091 199.565 220.603 200.44 220.603C201.315 220.603 201.899 221.12 201.895 221.874C201.899 222.657 201.218 223.189 200.236 223.189H199.318V224.712H200.236C201.402 224.712 202.117 225.282 202.112 226.09C202.117 226.887 201.411 227.434 200.425 227.434C199.473 227.434 198.757 226.945 198.723 226.215H196.649C196.683 227.941 198.24 229.135 200.42 229.135ZM205.528 227.245H210.338V229H212.301V227.245H213.548V225.597H212.301V219.099H209.719L205.528 225.626V227.245ZM207.602 225.597V225.519L210.275 221.352H210.367V225.597H207.602ZM225.215 217.809H223.537V222.527H222.396V218.137H220.777V229.706H222.396V223.929H223.537V230.262H225.215V217.809ZM214.333 226.491L215.338 227.7C218.853 225.664 219.887 222.822 219.892 219.351H214.961V220.748H218.191C217.958 223.189 216.866 225.012 214.333 226.491ZM229.42 219.099H227.303L227.486 226.037H229.236L229.42 219.099ZM227.216 227.975C227.206 228.608 227.733 229.121 228.366 229.121C228.975 229.121 229.507 228.608 229.512 227.975C229.507 227.347 228.975 226.834 228.366 226.834C227.733 226.834 227.206 227.347 227.216 227.975Z" fill="#82857A"/>
<rect width="246" height="134" transform="translate(44 76)" fill="white"/>
<path d="M78.4062 142.324L85.4562 137.624L88.9812 142.324L82.5187 145.849L78.4062 142.324Z" fill="#FF6E83"/>
<path d="M106.039 162.085L105.265 153.647L111.077 152.787L111.097 160.148L106.039 162.085Z" fill="#3AC5FF"/>
<path d="M230.634 179.403L228.422 173.513L233.582 173.963L234.913 178.985L230.634 179.403Z" fill="#FFDAE2"/>
<path d="M251.684 160.874L259.153 161.851L257.082 167.253L250.881 165.811L251.684 160.874Z" fill="#9473FF"/>
<path d="M246.282 107.452L238.747 103.578L241.139 98.2124L247.362 102.144L246.282 107.452Z" fill="#A4E33D"/>
<path d="M101.163 111.569L99.8728 119.943L94.0256 119.372L95.786 112.225L101.163 111.569Z" fill="#E8E0FF"/>
<path d="M252.645 130.603L251.355 138.978L245.508 138.407L247.268 131.259L252.645 130.603Z" fill="#FEF6CD"/>
<path d="M104.825 182.113L99.5058 188.708L94.7354 185.279L99.8461 179.981L104.825 182.113Z" fill="#E1FED2"/>
<path d="M205.104 127.919C210.194 127.919 214.32 123.433 214.32 117.899C214.32 112.365 210.194 107.879 205.104 107.879C200.015 107.879 195.889 112.365 195.889 117.899C195.889 123.433 200.015 127.919 205.104 127.919Z" fill="#3B749F" style="mix-blend-mode:multiply"/>
<path d="M200.387 131.417C206.939 131.417 212.25 125.642 212.25 118.518C212.25 111.394 206.939 105.619 200.387 105.619C193.835 105.619 188.523 111.394 188.523 118.518C188.523 125.642 193.835 131.417 200.387 131.417Z" fill="#F4F4F3"/>
<path d="M110.22 104.593L109.981 104.895C109.65 105.313 109.721 105.92 110.139 106.25L115.091 110.163C115.509 110.494 116.115 110.423 116.446 110.005L116.685 109.702C117.015 109.284 116.944 108.678 116.526 108.348L111.574 104.434C111.156 104.104 110.55 104.175 110.22 104.593Z" fill="#3B749F" style="mix-blend-mode:multiply"/>
<path d="M108.206 115.956L108.147 116.337C108.066 116.863 108.427 117.356 108.953 117.437L115.208 118.403C115.734 118.485 116.226 118.124 116.308 117.598L116.367 117.216C116.448 116.69 116.087 116.197 115.561 116.116L109.306 115.15C108.78 115.069 108.287 115.429 108.206 115.956Z" fill="#3B749F" style="mix-blend-mode:multiply"/>
<path d="M193.668 166.605C196.095 167.507 200.243 170.889 200.951 171.744C202.478 173.584 205.054 176.32 203.717 180.319C202.322 184.492 198.934 188.164 195.487 189.23C192.039 190.296 191.176 192.885 191.176 193.747C191.176 194.61 189.015 194.61 187.725 192.885C186.435 191.158 185.522 186.275 185.135 185.117C184.273 182.528 186.118 182.568 189.451 181.666C191.299 181.165 193.334 179.348 188.412 177.523C185.175 176.323 182.74 175.269 182.74 175.269L188.203 163.654L193.669 166.609L193.668 166.605Z" fill="#3AC5FF"/>
<path d="M144.965 154.029C161.509 144.49 163.417 132.892 163.712 129.947C163.897 128.096 162.714 127.079 161.368 127.092C158.805 126.968 158.058 130.15 158.058 130.15C157.521 133.24 153.12 144.727 140.653 149.263C139.131 149.817 137.451 149.602 136.124 148.676C125.119 140.995 119.214 122.723 127.409 106.16C135.687 89.4311 150.817 78.6996 170.329 80.1269C212.517 82.1832 220.961 139.389 195.745 169.052C176.564 191.349 150.493 192.142 150.493 192.142L150.49 192.135C132.433 193.56 123.875 185.713 123.14 177.264C122.468 169.531 124.829 163.895 130.891 160.187C137.352 156.234 139.434 156.701 144.963 154.029H144.965Z" fill="#3AC5FF"/>
<path d="M186.396 128.552C183.159 127.486 181.335 125.175 181.305 125.136C181.026 124.773 181.094 124.253 181.455 123.974C181.817 123.695 182.338 123.763 182.615 124.123C182.783 124.339 186.809 129.377 193.655 126.59C194.079 126.416 194.563 126.622 194.734 127.045C194.908 127.469 194.704 127.953 194.279 128.124C191.136 129.405 188.471 129.235 186.393 128.552H186.396Z" fill="white"/>
<path d="M148.569 202.142C148.471 201.421 148.595 200.686 148.827 199.995L152.162 190.096C152.721 188.433 152.969 186.684 152.896 184.935C152.885 184.675 152.888 184.415 152.917 184.155L153.862 175.629C154.167 172.87 152.293 170.341 149.565 169.831L145.27 169.029C141.438 168.313 138.142 171.842 139.172 175.602C140.012 178.664 140.713 182.242 140.748 185.726C140.809 191.373 136.414 196.039 136.736 200.259C137.011 203.867 137.534 203.441 145.761 205.55C147.814 206.076 151.015 206.402 149.053 203.415C148.842 203.093 148.653 202.733 148.572 202.153V202.138L148.569 202.142Z" fill="#3AC5FF"/>
<path d="M188.355 140.461C188.355 140.461 210.255 142.12 215.236 133.605C216.029 132.251 217.023 131.027 218.449 130.372L218.473 130.361C218.899 130.165 219.294 129.916 219.671 129.64C220.313 129.165 221.787 128.649 222.847 129.372C224.346 130.395 225.28 132.566 225.011 134.038C224.762 135.394 224.096 137.204 222.802 138.78C220.61 141.45 217.272 143.401 213.699 144.855C208.143 147.116 199.693 148.999 194.251 149.741C188.807 150.485 186.8 148.557 186.8 148.557L184.838 148.118L188.359 140.461H188.355Z" fill="#3AC5FF"/>
<path d="M214.791 134.691C214.791 134.691 215.779 136.384 217.303 136.352C218.824 136.319 217.933 133.45 217.901 132.663C217.856 131.518 217.986 129.996 216.95 129.661C214.437 128.846 214.791 134.691 214.791 134.691Z" fill="#3AC5FF"/>
<path d="M147.715 131.354C147.715 131.354 128.485 143.189 119.923 137.755C118.562 136.891 117.076 136.243 115.464 136.314H115.436C114.956 136.337 114.476 136.298 114.001 136.22C113.191 136.09 111.602 136.313 110.973 137.473C110.084 139.113 110.256 141.538 111.195 142.754C112.061 143.875 113.523 145.216 115.449 146.046C118.711 147.453 122.68 147.664 126.629 147.308C132.773 146.754 141.379 144.494 146.702 142.61C152.026 140.725 152.952 138.017 152.952 138.017L154.539 136.691L147.715 131.354Z" fill="#3AC5FF"/>
<path d="M120.838 138.539C120.838 138.539 120.732 140.552 119.326 141.241C117.919 141.931 117.382 138.888 117.04 138.153C116.541 137.085 115.706 135.758 116.493 134.961C118.407 133.033 120.838 138.539 120.838 138.539Z" fill="#3AC5FF"/>
<path d="M190.643 117.097C190.349 117.132 190.056 117.055 189.794 116.869C189.342 116.547 189.044 115.942 188.956 115.168C188.851 114.385 188.992 113.726 189.351 113.304C189.56 113.059 189.826 112.911 190.12 112.875C190.413 112.839 190.709 112.916 190.971 113.103C191.423 113.425 191.72 114.029 191.809 114.803C191.914 115.586 191.773 116.245 191.413 116.667C191.204 116.912 190.939 117.061 190.643 117.097Z" fill="white"/>
<path d="M197.688 116.604C197.393 116.628 197.103 116.538 196.848 116.342C196.41 116.003 196.135 115.387 196.078 114.61C196.003 113.823 196.17 113.171 196.545 112.763C196.764 112.527 197.035 112.388 197.33 112.363C197.626 112.339 197.918 112.429 198.172 112.625C198.611 112.964 198.884 113.58 198.942 114.357C199.016 115.145 198.85 115.796 198.475 116.205C198.257 116.44 197.986 116.579 197.69 116.604H197.688Z" fill="white"/>
<path d="M160.842 132.926C167.394 132.926 172.705 127.151 172.705 120.027C172.705 112.903 167.394 107.128 160.842 107.128C154.29 107.128 148.979 112.903 148.979 120.027C148.979 127.151 154.29 132.926 160.842 132.926Z" fill="#F4F4F3"/>
<path d="M157.829 130.855C163.328 130.855 167.786 126.008 167.786 120.028C167.786 114.048 163.328 109.2 157.829 109.2C152.329 109.2 147.871 114.048 147.871 120.028C147.871 126.008 152.329 130.855 157.829 130.855Z" fill="#3B749F" style="mix-blend-mode:multiply"/>
<path d="M162.713 109.683C162.713 109.683 165.04 93.9731 176.971 90.013C189.542 85.8421 200.809 91.4046 206.599 108.256L208.105 109.009C208.105 109.009 202.315 87.1357 184.174 86.6762C165.558 86.2055 160.961 104.84 160.236 108.819L162.713 109.681V109.683Z" fill="#F4F4F3"/>
<path d="M88.2195 48.4945H87.1008V58.9945H88.2195V48.4945ZM79.5925 56.1809L80.1809 57.0801C83.7858 55.3605 85.0911 52.6961 85.0994 49.6257H80.1021V50.5124H83.964C83.7444 52.9613 82.3853 54.855 79.5925 56.1809ZM99.4567 54.2251H95.2011V53.2307H98.4622V52.3564H92.1846V51.3826H98.2467V48.739H91.0533V49.6215H97.1362V50.558H91.0823V53.2307H94.1072V54.2251H89.8475V55.1326H99.4567V54.2251ZM90.9249 56.7569H97.1859V58.9116H98.3047V55.8619H90.9249V56.7569ZM106.745 49.5138H105.485L103.376 50.8978V52.1285L105.402 50.8066H105.452V58H106.745V49.5138ZM111.855 58.1367C113.819 58.1367 114.971 56.5414 114.971 53.761C114.971 51.0014 113.806 49.3978 111.855 49.3978C109.907 49.3978 108.743 50.9972 108.743 53.761C108.739 56.5414 109.895 58.1367 111.855 58.1367ZM110.027 53.761C110.027 51.6478 110.719 50.4959 111.855 50.4959C112.994 50.4959 113.686 51.6478 113.686 53.761C113.686 55.8785 113.002 57.0262 111.855 57.0262C110.711 57.0262 110.023 55.8785 110.027 53.761ZM124.942 48.4945H123.864V52.6423H122.572V48.7762H121.532V58.489H122.572V53.5497H123.864V58.9945H124.942V48.4945ZM115.909 55.9903L116.555 56.7735C119.559 55.0746 120.475 52.5925 120.483 49.8329H116.356V50.7403H119.398C119.228 52.8785 118.25 54.6644 115.909 55.9903ZM137.948 48.4945H136.83V59.0152H137.948V48.4945ZM129.611 52.9655C129.611 55.2279 130.743 56.6575 132.325 56.6575C133.892 56.6575 135.035 55.2279 135.035 52.9655C135.035 50.7155 133.892 49.2859 132.325 49.2818C130.743 49.2859 129.611 50.7155 129.611 52.9655ZM130.685 52.9655C130.685 51.3122 131.356 50.2845 132.325 50.2762C133.295 50.2845 133.958 51.3122 133.958 52.9655C133.958 54.6312 133.295 55.6588 132.325 55.6588C131.356 55.6588 130.685 54.6312 130.685 52.9655ZM143.235 50.1768V49.0414H142.133V50.0815C142.125 51.6436 141.176 53.0483 139.539 53.6326L140.14 54.5152C141.362 54.0635 142.253 53.1395 142.705 51.9627C143.165 52.9986 144.027 53.8149 145.179 54.221L145.771 53.3467C144.205 52.8329 143.235 51.5525 143.235 50.1768ZM140.956 57.0221C140.956 58.2693 142.299 58.9779 144.478 58.9779C146.641 58.9779 147.967 58.2693 147.967 57.0221C147.967 55.7997 146.641 55.0787 144.478 55.0787C142.299 55.0787 140.956 55.7997 140.956 57.0221ZM142.071 57.0221C142.063 56.355 142.962 55.9613 144.478 55.9613C145.991 55.9613 146.877 56.355 146.877 57.0221C146.877 57.7182 145.991 58.0953 144.478 58.1036C142.962 58.0953 142.063 57.7182 142.071 57.0221ZM146.757 54.8301H147.872V52.0663H149.393V51.1381H147.872V48.4945H146.757V54.8301ZM159.586 54.6685H149.976V55.5552H154.207V58.9945H155.301V55.5552H159.586V54.6685ZM151.174 53.4793H158.384V48.9213H157.273V50.2887H152.276V48.9213H151.174V53.4793ZM152.276 52.5843V51.1796H157.273V52.5843H152.276ZM169.12 48.4945H168.017V52.3771H165.925V53.2845H168.017V59.0152H169.12V48.4945ZM160.845 56.5331H161.657C163.609 56.529 164.926 56.4669 166.455 56.2224L166.335 55.3149C164.939 55.5552 163.72 55.6091 161.964 55.6133V53.2638H165.312V52.3771H161.964V50.3384H165.751V49.4268H160.845V56.5331ZM183.257 53.9931H173.648V54.8881H177.991V56.8191H179.093V54.8881H183.257V53.9931ZM174.846 58.779H182.193V57.8674H175.948V55.8992H174.846V58.779ZM174.916 53.0649H181.994V48.8301H180.887V50.0939H176.023V48.8301H174.916V53.0649ZM176.023 52.174V50.9351H180.887V52.174H176.023ZM187.736 50.1644V49.0331H186.622V50.1064C186.617 51.6644 185.669 53.0483 184.019 53.6119L184.62 54.5152C185.843 54.047 186.738 53.1354 187.193 51.9627C187.645 53.0276 188.503 53.8729 189.663 54.2914L190.264 53.4047C188.689 52.8785 187.728 51.5649 187.736 50.1644ZM185.669 56.1478H191.677V58.9945H192.787V55.2652H185.669V56.1478ZM189.464 51.5359H191.677V54.7182H192.787V48.4945H191.677V50.616H189.464V51.5359ZM202.657 48.4613H201.542V54.2334H202.657V51.8301H204.186V50.9227H202.657V48.4613ZM194.42 50.2597H200.668V49.3895H198.103V48.3992H196.997V49.3895H194.42V50.2597ZM194.991 52.3812C194.987 53.4544 196.002 54.1008 197.548 54.1008C199.085 54.1008 200.088 53.4544 200.092 52.3812C200.088 51.3246 199.085 50.6616 197.548 50.6616C196.002 50.6616 194.987 51.3246 194.991 52.3812ZM195.866 55.5552H201.551V56.3798H195.891V58.895H203.013V58.0497H196.984V57.1713H202.657V54.7348H195.866V55.5552ZM196.065 52.3812C196.056 51.8177 196.641 51.4655 197.548 51.4655C198.447 51.4655 199.031 51.8177 199.04 52.3812C199.031 52.953 198.447 53.2845 197.548 53.2887C196.641 53.2845 196.056 52.953 196.065 52.3812ZM213.078 49.4185V48.8467H211.918V49.4185C211.918 50.8315 210.219 52.1243 208.16 52.4019L208.607 53.3094C210.314 53.0359 211.818 52.1492 212.502 50.9061C213.186 52.1409 214.69 53.0359 216.405 53.3094L216.849 52.4019C214.781 52.1243 213.078 50.8149 213.078 49.4185ZM207.708 55.261H211.922V58.9945H213.016V55.261H217.28V54.3412H207.708V55.261ZM224.647 55.4309V54.9296H223.574V55.4309C223.565 56.4503 222.836 57.5401 221.489 58.029L222.045 58.8412C223.035 58.4807 223.731 57.7845 224.108 56.9558C224.431 57.8177 225.069 58.5594 226.08 58.9365C227.042 58.5387 227.672 57.7638 228.003 56.9227C228.368 57.7845 229.072 58.4848 230.108 58.8412L230.659 58.029C229.292 57.5773 228.571 56.5249 228.579 55.4309V54.9296H227.485V55.4309C227.485 56.2348 227.009 57.2376 226.047 57.8591C225.098 57.2873 224.647 56.3343 224.647 55.4309ZM221.22 51.5649C221.22 53.0193 222.405 54.0304 224.017 54.0304C225.625 54.0304 226.806 53.0193 226.806 51.5649C226.806 50.0981 225.625 49.087 224.017 49.087C222.405 49.087 221.22 50.0981 221.22 51.5649ZM222.31 51.5649C222.301 50.645 223.018 50.0235 224.017 50.0318C225.003 50.0235 225.716 50.645 225.716 51.5649C225.716 52.4807 225.003 53.1022 224.017 53.1064C223.018 53.1022 222.301 52.4807 222.31 51.5649ZM228.604 54.4779H229.719V48.5028H228.604V54.4779ZM234.226 49.2818C232.656 49.2859 231.554 50.7155 231.562 52.9655C231.554 55.2279 232.656 56.6575 234.226 56.6575C235.689 56.6575 236.75 55.3854 236.866 53.3384H239.033V59.0152H240.135V48.4945H239.033V52.4309H236.858C236.692 50.4917 235.648 49.2859 234.226 49.2818ZM232.623 52.9655C232.623 51.3122 233.273 50.2845 234.226 50.2762C235.171 50.2845 235.826 51.3122 235.826 52.9655C235.826 54.6312 235.171 55.6588 234.226 55.6588C233.273 55.6588 232.623 54.6312 232.623 52.9655ZM251.36 56.7652H249.056V53.9972C249.901 53.5207 250.411 52.779 250.411 51.8508C250.411 50.1975 248.787 49.1119 246.528 49.1036C244.278 49.1119 242.658 50.1975 242.658 51.8508C242.658 52.7914 243.185 53.5456 244.051 54.018V56.7652H241.751V57.6851H251.36V56.7652ZM243.74 51.8508C243.74 50.7155 244.883 49.9945 246.528 50.0028C248.165 49.9945 249.325 50.7155 249.325 51.8508C249.325 52.9738 248.165 53.7072 246.528 53.7072C244.883 53.7072 243.74 52.9738 243.74 51.8508ZM245.144 56.7652V54.4282C245.567 54.5235 246.031 54.5773 246.528 54.5773C247.03 54.5773 247.502 54.5235 247.933 54.424V56.7652H245.144ZM253.315 58.0787C253.763 58.0787 254.144 57.7058 254.144 57.25C254.144 56.7942 253.763 56.4213 253.315 56.4213C252.855 56.4213 252.474 56.7942 252.482 57.25C252.474 57.7058 252.855 58.0787 253.315 58.0787Z" fill="#FF6E83"/>
<path d="M138.327 23.6112H136.058V39.6595H138.327V23.6112ZM125.405 30.4358C125.398 33.9537 127.189 36.154 129.637 36.154C132.055 36.154 133.845 33.9537 133.852 30.4358C133.845 26.9551 132.055 24.7424 129.637 24.7424C127.189 24.7424 125.398 26.9551 125.405 30.4358ZM127.574 30.4358C127.561 28.0677 128.394 26.7686 129.637 26.7686C130.856 26.7686 131.682 28.0677 131.682 30.4358C131.682 32.8287 130.856 34.1215 129.637 34.1215C128.394 34.1215 127.561 32.8287 127.574 30.4358ZM152.401 24.4503H145.203V31.2003H146.533C149.983 31.2065 151.934 31.1506 154.01 30.672L153.774 28.9378C151.903 29.3232 150.219 29.4413 147.428 29.4662V26.2155H152.401V24.4503ZM146.72 34.0097H155.098V34.9669H146.744V39.442H157.796V37.6457H148.957V36.6388H157.336V32.232H146.72V34.0097ZM155.086 31.5794H157.336V28.4717H159.486V26.6443H157.336V23.6112H155.086V31.5794ZM165.372 24.6865C162.854 24.6865 160.927 26.3211 160.934 28.6146C160.927 30.9144 162.854 32.5428 165.372 32.5428C167.92 32.5428 169.803 30.9144 169.816 28.6146C169.803 26.3211 167.92 24.6865 165.372 24.6865ZM160.269 34.5628L160.523 36.384C163.327 36.384 167.124 36.3529 170.667 35.663L170.499 34.047C167.075 34.5256 163.122 34.5628 160.269 34.5628ZM163.159 28.6146C163.159 27.3653 164.11 26.6257 165.372 26.6257C166.658 26.6257 167.622 27.3653 167.628 28.6146C167.622 29.8826 166.652 30.6036 165.372 30.6036C164.116 30.6036 163.159 29.8826 163.159 28.6146ZM171.407 39.6595H173.638V23.6112H171.407V39.6595ZM192.597 23.6112H190.347V32.5615H192.597V28.9565H194.748V27.1167H192.597V23.6112ZM179.725 31.1381L180.614 32.9282C185.425 31.6602 188.104 28.7887 188.11 24.5559H180.514V26.3398H185.661C185.307 28.4717 183.318 30.2493 179.725 31.1381ZM182.124 39.4233H192.597V33.1644H182.124V39.4233ZM184.356 37.6644V34.9731H190.378V37.6644H184.356ZM208.154 23.6112H205.904V32.9157H208.154V29.2238H210.305V27.3591H208.154V23.6112ZM195.232 31.1754L196.164 32.8847C200.963 31.6789 203.642 28.7887 203.648 24.5186H196.071V26.3025H201.224C200.882 28.453 198.874 30.268 195.232 31.1754ZM197.383 35.346H205.904V39.6222H208.154V33.5622H197.383V35.346Z" fill="#1B210D"/>
<g filter="url(#filter0_b_2008_32175)">
<rect x="10" y="70" width="315" height="300" fill="white" fill-opacity="0.8"/>
</g>
<path d="M174.113 156.017C175.042 155.393 175.807 154.553 176.34 153.568C176.873 152.578 177.151 151.471 177.15 150.347C177.159 149.867 177.295 149.398 177.544 148.987C177.793 148.576 178.146 148.239 178.568 148.009C182.309 145.88 185.31 142.658 187.169 138.776C189.028 134.893 189.656 130.535 188.969 126.286C187.128 114.523 175.309 107.159 163.583 109.405C154.378 111.246 147.327 116.768 147.014 126.525C146.887 128.89 147.611 131.221 149.057 133.096C150.503 134.971 152.574 136.265 154.894 136.742C155.626 136.89 156.375 136.945 157.121 136.908C157.564 136.856 157.984 136.684 158.336 136.411C158.685 136.134 158.957 135.773 159.128 135.362C160.14 133.097 163.233 128.348 171.904 126.82C172.251 126.729 172.618 126.754 172.95 126.89C173.282 127.026 173.561 127.266 173.744 127.575C173.852 127.767 173.915 127.981 173.929 128.201C173.973 128.407 173.973 128.62 173.929 128.826C173.852 129.032 173.725 129.216 173.56 129.36C173.402 129.509 173.214 129.622 173.008 129.692H172.677C168.829 130.507 165.382 132.628 162.919 135.694C160.457 138.761 159.13 142.585 159.164 146.518V150.199C159.141 151.318 159.394 152.424 159.901 153.421C160.434 154.405 161.199 155.245 162.128 155.869C161.066 156.691 160.219 157.759 159.661 158.981C159.091 160.199 158.832 161.54 158.907 162.883C158.741 174.683 177.021 174.812 177.316 163.288V162.754C177.334 162.442 177.334 162.128 177.316 161.816C177.208 160.656 176.87 159.529 176.322 158.502C176.322 158.41 176.23 158.299 176.174 158.207L175.898 157.802L175.622 157.416L175.364 157.103C175.236 156.974 175.125 156.827 174.978 156.698L174.757 156.477L174.26 156.053L174.113 156.017Z" fill="#FF6E83"/>
<defs>
<filter id="filter0_b_2008_32175" x="6" y="66" width="323" height="308" filterUnits="userSpaceOnUse" color-interpolation-filters="sRGB">
<feFlood flood-opacity="0" result="BackgroundImageFix"/>
<feGaussianBlur in="BackgroundImageFix" stdDeviation="2"/>
<feComposite in2="SourceAlpha" operator="in" result="effect1_backgroundBlur_2008_32175"/>
<feBlend mode="normal" in="SourceGraphic" in2="effect1_backgroundBlur_2008_32175" result="shape"/>
</filter>
</defs>
</svg>
