<svg width="57" height="58" viewBox="0 0 57 58" fill="none" xmlns="http://www.w3.org/2000/svg">
<circle cx="28.5" cy="29" r="20.1525" transform="rotate(45 28.5 29)" fill="#1B210D"/>
<path d="M29.9192 38.3419V30.6922H37.5688C37.9686 30.6922 38.352 30.5334 38.6347 30.2507C38.9174 29.968 39.0762 29.5846 39.0762 29.1848C39.0762 28.7851 38.9174 28.4017 38.6347 28.119C38.352 27.8363 37.9686 27.6775 37.5688 27.6775H29.9192V20.0278C29.9192 19.6281 29.7604 19.2447 29.4777 18.962C29.195 18.6793 28.8116 18.5205 28.4118 18.5205C28.0121 18.5205 27.6287 18.6793 27.346 18.962C27.0633 19.2447 26.9045 19.6281 26.9045 20.0278V27.6775H19.2548C18.8551 27.6775 18.4717 27.8363 18.189 28.119C17.9063 28.4017 17.7475 28.7851 17.7475 29.1848C17.7475 29.5846 17.9063 29.968 18.189 30.2507C18.4717 30.5334 18.8551 30.6922 19.2548 30.6922H26.9045V38.3419C26.9045 38.7416 27.0633 39.125 27.346 39.4077C27.6287 39.6904 28.0121 39.8492 28.4118 39.8492C28.8116 39.8492 29.195 39.6904 29.4777 39.4077C29.7604 39.125 29.9192 38.7416 29.9192 38.3419Z" fill="white"/>
</svg>
