<svg width="335" height="380" viewBox="0 0 335 380" fill="none" xmlns="http://www.w3.org/2000/svg">
<rect width="335" height="380" rx="12" fill="white"/>
<rect x="15" y="130" width="305" height="235" fill="white"/>
<rect x="273" y="167" width="40" height="192" fill="white"/>
<path d="M285.185 356.622C286.997 356.622 288.293 355.626 288.305 354.246C288.293 353.154 287.501 352.266 286.529 352.11V352.062C287.369 351.858 287.957 351.09 287.969 350.166C287.957 348.858 286.781 347.898 285.185 347.91C283.565 347.898 282.377 348.858 282.377 350.166C282.377 351.09 282.965 351.858 283.817 352.062V352.11C282.833 352.266 282.053 353.154 282.065 354.246C282.053 355.626 283.337 356.622 285.185 356.622ZM283.361 354.15C283.361 353.274 284.129 352.638 285.185 352.638C286.217 352.638 286.985 353.274 286.985 354.15C286.985 354.978 286.277 355.554 285.185 355.542C284.057 355.554 283.361 354.978 283.361 354.15ZM283.649 350.262C283.637 349.482 284.249 348.954 285.185 348.942C286.085 348.954 286.709 349.494 286.697 350.262C286.709 351.078 286.061 351.618 285.185 351.63C284.273 351.618 283.637 351.078 283.649 350.262ZM292.891 347.622H291.763L289.027 357.774H290.155L292.891 347.622ZM293.775 356.502H299.487V355.398H295.575V355.326L297.303 353.574C298.887 352.014 299.343 351.258 299.343 350.31C299.343 348.93 298.203 347.898 296.583 347.91C294.951 347.898 293.775 348.93 293.775 350.478H294.999C294.999 349.578 295.599 348.978 296.535 348.99C297.435 348.978 298.119 349.518 298.119 350.358C298.119 351.09 297.651 351.63 296.727 352.59L293.775 355.566V356.502ZM304.116 348.006H302.868L300.756 349.398V350.622L302.772 349.302H302.82V356.502H304.116V348.006Z" fill="#1B210D"/>
<path fill-rule="evenodd" clip-rule="evenodd" d="M293 337C288.582 337 285 333.418 285 329L285 180C285 175.582 288.582 172 293 172C297.418 172 301 175.582 301 180L301 329C301 333.418 297.418 337 293 337Z" fill="#F4F4F3"/>
<path fill-rule="evenodd" clip-rule="evenodd" d="M293 337C288.582 337 285 333.418 285 329L285 277C285 272.582 288.582 269 293 269C297.418 269 301 272.582 301 277L301 329C301 333.418 297.418 337 293 337Z" fill="#FF6E83"/>
<path opacity="0.1" fill-rule="evenodd" clip-rule="evenodd" d="M285.3 177.78C285.672 176.465 286.375 175.267 287.341 174.301C288.307 173.335 289.505 172.632 290.82 172.26L285.3 177.78ZM285 185.08V180.84L293.84 172C294.956 172.122 296.033 172.48 297 173.05L285 185.08ZM285 192.08V187.84L298.6 174.24C299.332 174.958 299.92 175.81 300.33 176.75L285 192.08ZM285 199.08V194.84L300.93 178.9C300.98 179.264 301.004 179.632 301 180V183.12L285 199.08ZM285 206.08V201.84L301 185.84V190.08L285 206.08ZM285 213.08V208.84L301 192.84V197.08L285 213.08ZM285 220.08V215.84L301 199.84V204.08L285 220.08ZM285 227.08V222.84L301 206.84V211.08L285 227.08ZM285 234.08V229.84L301 213.84V218.08L285 234.08ZM285 241.08V236.84L301 220.84V225.08L285 241.08ZM285 248.08V243.84L301 227.84V232.08L285 248.08ZM285 255.08V250.84L301 234.84V239.08L285 255.08ZM285 262.08V257.84L301 241.84V246.08L285 262.08ZM285 269.08V264.84L301 248.84V253.08L285 269.08ZM285 276.08V271.84L301 255.84V260.08L285 276.08ZM285 283.08V278.84L301 262.84V267.08L285 283.08ZM285 290.08V285.84L301 269.84V274.08L285 290.08ZM285 297.08V292.84L301 276.84V281.08L285 297.08ZM285 304.08V299.84L301 283.84V288.08L285 304.08ZM285 311.08V306.84L301 290.84V295.08L285 311.08ZM285 318.08V313.84L301 297.84V302.08L285 318.08ZM285 325.08V320.84L301 304.84V309.08L285 325.08ZM285.46 331.62C285.158 330.779 285.003 329.893 285 329V327.88L301 311.88V316.12L285.46 331.62ZM288.46 335.57C287.625 335.005 286.905 334.285 286.34 333.45L301 318.84V323.08L288.46 335.57ZM294.17 336.87C293.784 336.942 293.393 336.985 293 337C292.09 337.001 291.187 336.845 290.33 336.54L301 325.84V329C301 329.405 300.97 329.809 300.91 330.21L294.17 336.87Z" fill="#F4F4F3"/>
<rect x="231" y="167" width="40" height="192" fill="white"/>
<path d="M242.177 356.622C243.989 356.622 245.285 355.626 245.297 354.246C245.285 353.154 244.493 352.266 243.521 352.11V352.062C244.361 351.858 244.949 351.09 244.961 350.166C244.949 348.858 243.773 347.898 242.177 347.91C240.557 347.898 239.369 348.858 239.369 350.166C239.369 351.09 239.957 351.858 240.809 352.062V352.11C239.825 352.266 239.045 353.154 239.057 354.246C239.045 355.626 240.329 356.622 242.177 356.622ZM240.353 354.15C240.353 353.274 241.121 352.638 242.177 352.638C243.209 352.638 243.977 353.274 243.977 354.15C243.977 354.978 243.269 355.554 242.177 355.542C241.049 355.554 240.353 354.978 240.353 354.15ZM240.641 350.262C240.629 349.482 241.241 348.954 242.177 348.942C243.077 348.954 243.701 349.494 243.689 350.262C243.701 351.078 243.053 351.618 242.177 351.63C241.265 351.618 240.629 351.078 240.641 350.262ZM249.883 347.622H248.755L246.019 357.774H247.147L249.883 347.622ZM250.767 356.502H256.479V355.398H252.567V355.326L254.295 353.574C255.879 352.014 256.335 351.258 256.335 350.31C256.335 348.93 255.195 347.898 253.575 347.91C251.943 347.898 250.767 348.93 250.767 350.478H251.991C251.991 349.578 252.591 348.978 253.527 348.99C254.427 348.978 255.111 349.518 255.111 350.358C255.111 351.09 254.643 351.63 253.719 352.59L250.767 355.566V356.502ZM260.844 356.622C262.812 356.622 263.964 355.038 263.964 352.254C263.964 349.506 262.8 347.898 260.844 347.91C258.9 347.898 257.736 349.506 257.724 352.254C257.736 355.038 258.888 356.622 260.844 356.622ZM259.02 352.254C259.02 350.154 259.716 348.99 260.844 348.99C261.984 348.99 262.68 350.154 262.668 352.254C262.68 354.378 261.996 355.506 260.844 355.518C259.704 355.506 259.02 354.378 259.02 352.254Z" fill="#82857A"/>
<path fill-rule="evenodd" clip-rule="evenodd" d="M251 337C246.582 337 243 333.418 243 329L243 180C243 175.582 246.582 172 251 172C255.418 172 259 175.582 259 180L259 329C259 333.418 255.418 337 251 337Z" fill="#F4F4F3"/>
<path fill-rule="evenodd" clip-rule="evenodd" d="M251 337C246.582 337 243 333.418 243 329L243 203C243 198.582 246.582 195 251 195C255.418 195 259 198.582 259 203L259 329C259 333.418 255.418 337 251 337Z" fill="#BBBDB6"/>
<path opacity="0.1" fill-rule="evenodd" clip-rule="evenodd" d="M243.3 177.78C243.672 176.465 244.375 175.267 245.341 174.301C246.307 173.335 247.505 172.632 248.82 172.26L243.3 177.78ZM243 185.08V180.84L251.84 172C252.956 172.122 254.033 172.48 255 173.05L243 185.08ZM243 192.08V187.84L256.6 174.24C257.332 174.958 257.92 175.81 258.33 176.75L243 192.08ZM243 199.08V194.84L258.93 178.9C258.98 179.264 259.004 179.632 259 180V183.12L243 199.08ZM243 206.08V201.84L259 185.84V190.08L243 206.08ZM243 213.08V208.84L259 192.84V197.08L243 213.08ZM243 220.08V215.84L259 199.84V204.08L243 220.08ZM243 227.08V222.84L259 206.84V211.08L243 227.08ZM243 234.08V229.84L259 213.84V218.08L243 234.08ZM243 241.08V236.84L259 220.84V225.08L243 241.08ZM243 248.08V243.84L259 227.84V232.08L243 248.08ZM243 255.08V250.84L259 234.84V239.08L243 255.08ZM243 262.08V257.84L259 241.84V246.08L243 262.08ZM243 269.08V264.84L259 248.84V253.08L243 269.08ZM243 276.08V271.84L259 255.84V260.08L243 276.08ZM243 283.08V278.84L259 262.84V267.08L243 283.08ZM243 290.08V285.84L259 269.84V274.08L243 290.08ZM243 297.08V292.84L259 276.84V281.08L243 297.08ZM243 304.08V299.84L259 283.84V288.08L243 304.08ZM243 311.08V306.84L259 290.84V295.08L243 311.08ZM243 318.08V313.84L259 297.84V302.08L243 318.08ZM243 325.08V320.84L259 304.84V309.08L243 325.08ZM243.46 331.62C243.158 330.779 243.003 329.893 243 329V327.88L259 311.88V316.12L243.46 331.62ZM246.46 335.57C245.625 335.005 244.905 334.285 244.34 333.45L259 318.84V323.08L246.46 335.57ZM252.17 336.87C251.784 336.942 251.393 336.985 251 337C250.09 337.001 249.187 336.845 248.33 336.54L259 325.84V329C259 329.405 258.97 329.809 258.91 330.21L252.17 336.87Z" fill="#F4F4F3"/>
<rect x="189" y="167" width="40" height="192" fill="white"/>
<path d="M201.003 356.622C202.815 356.622 204.111 355.626 204.123 354.246C204.111 353.154 203.319 352.266 202.347 352.11V352.062C203.187 351.858 203.775 351.09 203.787 350.166C203.775 348.858 202.599 347.898 201.003 347.91C199.383 347.898 198.195 348.858 198.195 350.166C198.195 351.09 198.783 351.858 199.635 352.062V352.11C198.651 352.266 197.871 353.154 197.883 354.246C197.871 355.626 199.155 356.622 201.003 356.622ZM199.179 354.15C199.179 353.274 199.947 352.638 201.003 352.638C202.035 352.638 202.803 353.274 202.803 354.15C202.803 354.978 202.095 355.554 201.003 355.542C199.875 355.554 199.179 354.978 199.179 354.15ZM199.467 350.262C199.455 349.482 200.067 348.954 201.003 348.942C201.903 348.954 202.527 349.494 202.515 350.262C202.527 351.078 201.879 351.618 201.003 351.63C200.091 351.618 199.455 351.078 199.467 350.262ZM208.709 347.622H207.581L204.845 357.774H205.973L208.709 347.622ZM212.81 348.006H211.562L209.45 349.398V350.622L211.466 349.302H211.514V356.502H212.81V348.006ZM217.901 347.91C216.053 347.886 214.853 349.158 214.853 350.766C214.853 352.398 216.065 353.562 217.589 353.55C218.501 353.562 219.305 353.13 219.749 352.398H219.869C219.857 354.354 219.089 355.494 217.781 355.494C216.917 355.494 216.377 354.99 216.197 354.27H214.925C215.129 355.65 216.221 356.622 217.781 356.622C219.821 356.622 221.093 354.93 221.093 351.966C221.093 348.846 219.461 347.91 217.901 347.91ZM216.101 350.742C216.101 349.782 216.869 348.978 217.901 348.99C218.933 348.978 219.689 349.818 219.701 350.742C219.689 351.678 218.897 352.506 217.877 352.518C216.845 352.506 216.113 351.738 216.101 350.742Z" fill="#82857A"/>
<path fill-rule="evenodd" clip-rule="evenodd" d="M209 337C204.582 337 201 333.418 201 329L201 180C201 175.582 204.582 172 209 172C213.418 172 217 175.582 217 180L217 329C217 333.418 213.418 337 209 337Z" fill="#F4F4F3"/>
<path fill-rule="evenodd" clip-rule="evenodd" d="M209 337C204.582 337 201 333.418 201 329L201 269C201 264.582 204.582 261 209 261C213.418 261 217 264.582 217 269L217 329C217 333.418 213.418 337 209 337Z" fill="#BBBDB6"/>
<path opacity="0.1" fill-rule="evenodd" clip-rule="evenodd" d="M201.3 177.78C201.672 176.465 202.375 175.267 203.341 174.301C204.307 173.335 205.505 172.632 206.82 172.26L201.3 177.78ZM201 185.08V180.84L209.84 172C210.956 172.122 212.033 172.48 213 173.05L201 185.08ZM201 192.08V187.84L214.6 174.24C215.332 174.958 215.92 175.81 216.33 176.75L201 192.08ZM201 199.08V194.84L216.93 178.9C216.98 179.264 217.004 179.632 217 180V183.12L201 199.08ZM201 206.08V201.84L217 185.84V190.08L201 206.08ZM201 213.08V208.84L217 192.84V197.08L201 213.08ZM201 220.08V215.84L217 199.84V204.08L201 220.08ZM201 227.08V222.84L217 206.84V211.08L201 227.08ZM201 234.08V229.84L217 213.84V218.08L201 234.08ZM201 241.08V236.84L217 220.84V225.08L201 241.08ZM201 248.08V243.84L217 227.84V232.08L201 248.08ZM201 255.08V250.84L217 234.84V239.08L201 255.08ZM201 262.08V257.84L217 241.84V246.08L201 262.08ZM201 269.08V264.84L217 248.84V253.08L201 269.08ZM201 276.08V271.84L217 255.84V260.08L201 276.08ZM201 283.08V278.84L217 262.84V267.08L201 283.08ZM201 290.08V285.84L217 269.84V274.08L201 290.08ZM201 297.08V292.84L217 276.84V281.08L201 297.08ZM201 304.08V299.84L217 283.84V288.08L201 304.08ZM201 311.08V306.84L217 290.84V295.08L201 311.08ZM201 318.08V313.84L217 297.84V302.08L201 318.08ZM201 325.08V320.84L217 304.84V309.08L201 325.08ZM201.46 331.62C201.158 330.779 201.003 329.893 201 329V327.88L217 311.88V316.12L201.46 331.62ZM204.46 335.57C203.625 335.005 202.905 334.285 202.34 333.45L217 318.84V323.08L204.46 335.57ZM210.17 336.87C209.784 336.942 209.393 336.985 209 337C208.09 337.001 207.187 336.845 206.33 336.54L217 325.84V329C217 329.405 216.97 329.809 216.91 330.21L210.17 336.87Z" fill="#F4F4F3"/>
<rect x="147" y="167" width="40" height="192" fill="white"/>
<path d="M159.038 356.622C160.85 356.622 162.146 355.626 162.158 354.246C162.146 353.154 161.354 352.266 160.382 352.11V352.062C161.222 351.858 161.81 351.09 161.822 350.166C161.81 348.858 160.634 347.898 159.038 347.91C157.418 347.898 156.23 348.858 156.23 350.166C156.23 351.09 156.818 351.858 157.67 352.062V352.11C156.686 352.266 155.906 353.154 155.918 354.246C155.906 355.626 157.19 356.622 159.038 356.622ZM157.214 354.15C157.214 353.274 157.982 352.638 159.038 352.638C160.07 352.638 160.838 353.274 160.838 354.15C160.838 354.978 160.13 355.554 159.038 355.542C157.91 355.554 157.214 354.978 157.214 354.15ZM157.502 350.262C157.49 349.482 158.102 348.954 159.038 348.942C159.938 348.954 160.562 349.494 160.55 350.262C160.562 351.078 159.914 351.618 159.038 351.63C158.126 351.618 157.49 351.078 157.502 350.262ZM166.744 347.622H165.616L162.88 357.774H164.008L166.744 347.622ZM170.845 348.006H169.597L167.485 349.398V350.622L169.501 349.302H169.549V356.502H170.845V348.006ZM175.984 356.622C177.796 356.622 179.092 355.626 179.104 354.246C179.092 353.154 178.3 352.266 177.328 352.11V352.062C178.168 351.858 178.756 351.09 178.768 350.166C178.756 348.858 177.58 347.898 175.984 347.91C174.364 347.898 173.176 348.858 173.176 350.166C173.176 351.09 173.764 351.858 174.616 352.062V352.11C173.632 352.266 172.852 353.154 172.864 354.246C172.852 355.626 174.136 356.622 175.984 356.622ZM174.16 354.15C174.16 353.274 174.928 352.638 175.984 352.638C177.016 352.638 177.784 353.274 177.784 354.15C177.784 354.978 177.076 355.554 175.984 355.542C174.856 355.554 174.16 354.978 174.16 354.15ZM174.448 350.262C174.436 349.482 175.048 348.954 175.984 348.942C176.884 348.954 177.508 349.494 177.496 350.262C177.508 351.078 176.86 351.618 175.984 351.63C175.072 351.618 174.436 351.078 174.448 350.262Z" fill="#82857A"/>
<path fill-rule="evenodd" clip-rule="evenodd" d="M167 337C162.582 337 159 333.418 159 329L159 180C159 175.582 162.582 172 167 172C171.418 172 175 175.582 175 180L175 329C175 333.418 171.418 337 167 337Z" fill="#F4F4F3"/>
<path fill-rule="evenodd" clip-rule="evenodd" d="M167 337C162.582 337 159 333.418 159 329L159 180C159 175.582 162.582 172 167 172C171.418 172 175 175.582 175 180L175 329C175 333.418 171.418 337 167 337Z" fill="#BBBDB6"/>
<path opacity="0.1" fill-rule="evenodd" clip-rule="evenodd" d="M159.3 177.78C159.672 176.465 160.375 175.267 161.341 174.301C162.307 173.335 163.505 172.632 164.82 172.26L159.3 177.78ZM159 185.08V180.84L167.84 172C168.956 172.122 170.033 172.48 171 173.05L159 185.08ZM159 192.08V187.84L172.6 174.24C173.332 174.958 173.92 175.81 174.33 176.75L159 192.08ZM159 199.08V194.84L174.93 178.9C174.98 179.264 175.004 179.632 175 180V183.12L159 199.08ZM159 206.08V201.84L175 185.84V190.08L159 206.08ZM159 213.08V208.84L175 192.84V197.08L159 213.08ZM159 220.08V215.84L175 199.84V204.08L159 220.08ZM159 227.08V222.84L175 206.84V211.08L159 227.08ZM159 234.08V229.84L175 213.84V218.08L159 234.08ZM159 241.08V236.84L175 220.84V225.08L159 241.08ZM159 248.08V243.84L175 227.84V232.08L159 248.08ZM159 255.08V250.84L175 234.84V239.08L159 255.08ZM159 262.08V257.84L175 241.84V246.08L159 262.08ZM159 269.08V264.84L175 248.84V253.08L159 269.08ZM159 276.08V271.84L175 255.84V260.08L159 276.08ZM159 283.08V278.84L175 262.84V267.08L159 283.08ZM159 290.08V285.84L175 269.84V274.08L159 290.08ZM159 297.08V292.84L175 276.84V281.08L159 297.08ZM159 304.08V299.84L175 283.84V288.08L159 304.08ZM159 311.08V306.84L175 290.84V295.08L159 311.08ZM159 318.08V313.84L175 297.84V302.08L159 318.08ZM159 325.08V320.84L175 304.84V309.08L159 325.08ZM159.46 331.62C159.158 330.779 159.003 329.893 159 329V327.88L175 311.88V316.12L159.46 331.62ZM162.46 335.57C161.625 335.005 160.905 334.285 160.34 333.45L175 318.84V323.08L162.46 335.57ZM168.17 336.87C167.784 336.942 167.393 336.985 167 337C166.09 337.001 165.187 336.845 164.33 336.54L175 325.84V329C175 329.405 174.97 329.809 174.91 330.21L168.17 336.87Z" fill="#F4F4F3"/>
<rect x="105" y="167" width="40" height="192" fill="white"/>
<path d="M116.89 356.622C118.702 356.622 119.998 355.626 120.01 354.246C119.998 353.154 119.206 352.266 118.234 352.11V352.062C119.074 351.858 119.662 351.09 119.674 350.166C119.662 348.858 118.486 347.898 116.89 347.91C115.27 347.898 114.082 348.858 114.082 350.166C114.082 351.09 114.67 351.858 115.522 352.062V352.11C114.538 352.266 113.758 353.154 113.77 354.246C113.758 355.626 115.042 356.622 116.89 356.622ZM115.066 354.15C115.066 353.274 115.834 352.638 116.89 352.638C117.922 352.638 118.69 353.274 118.69 354.15C118.69 354.978 117.982 355.554 116.89 355.542C115.762 355.554 115.066 354.978 115.066 354.15ZM115.354 350.262C115.342 349.482 115.954 348.954 116.89 348.942C117.79 348.954 118.414 349.494 118.402 350.262C118.414 351.078 117.766 351.618 116.89 351.63C115.978 351.618 115.342 351.078 115.354 350.262ZM124.596 347.622H123.468L120.732 357.774H121.86L124.596 347.622ZM128.696 348.006H127.448L125.336 349.398V350.622L127.352 349.302H127.4V356.502H128.696V348.006ZM131.147 356.502H132.491L136.283 349.158V348.006H130.571V349.134H134.939V349.182L131.147 356.502Z" fill="#82857A"/>
<path fill-rule="evenodd" clip-rule="evenodd" d="M125 337C120.582 337 117 333.418 117 329L117 180C117 175.582 120.582 172 125 172C129.418 172 133 175.582 133 180L133 329C133 333.418 129.418 337 125 337Z" fill="#F4F4F3"/>
<path fill-rule="evenodd" clip-rule="evenodd" d="M125 337C120.582 337 117 333.418 117 329L117 324C117 319.582 120.582 316 125 316C129.418 316 133 319.582 133 324L133 329C133 333.418 129.418 337 125 337Z" fill="#BBBDB6"/>
<path opacity="0.1" fill-rule="evenodd" clip-rule="evenodd" d="M117.3 177.78C117.672 176.465 118.375 175.267 119.341 174.301C120.307 173.335 121.505 172.632 122.82 172.26L117.3 177.78ZM117 185.08V180.84L125.84 172C126.956 172.122 128.033 172.48 129 173.05L117 185.08ZM117 192.08V187.84L130.6 174.24C131.332 174.958 131.92 175.81 132.33 176.75L117 192.08ZM117 199.08V194.84L132.93 178.9C132.98 179.264 133.004 179.632 133 180V183.12L117 199.08ZM117 206.08V201.84L133 185.84V190.08L117 206.08ZM117 213.08V208.84L133 192.84V197.08L117 213.08ZM117 220.08V215.84L133 199.84V204.08L117 220.08ZM117 227.08V222.84L133 206.84V211.08L117 227.08ZM117 234.08V229.84L133 213.84V218.08L117 234.08ZM117 241.08V236.84L133 220.84V225.08L117 241.08ZM117 248.08V243.84L133 227.84V232.08L117 248.08ZM117 255.08V250.84L133 234.84V239.08L117 255.08ZM117 262.08V257.84L133 241.84V246.08L117 262.08ZM117 269.08V264.84L133 248.84V253.08L117 269.08ZM117 276.08V271.84L133 255.84V260.08L117 276.08ZM117 283.08V278.84L133 262.84V267.08L117 283.08ZM117 290.08V285.84L133 269.84V274.08L117 290.08ZM117 297.08V292.84L133 276.84V281.08L117 297.08ZM117 304.08V299.84L133 283.84V288.08L117 304.08ZM117 311.08V306.84L133 290.84V295.08L117 311.08ZM117 318.08V313.84L133 297.84V302.08L117 318.08ZM117 325.08V320.84L133 304.84V309.08L117 325.08ZM117.46 331.62C117.158 330.779 117.003 329.893 117 329V327.88L133 311.88V316.12L117.46 331.62ZM120.46 335.57C119.625 335.005 118.905 334.285 118.34 333.45L133 318.84V323.08L120.46 335.57ZM126.17 336.87C125.784 336.942 125.393 336.985 125 337C124.09 337.001 123.187 336.845 122.33 336.54L133 325.84V329C133 329.405 132.97 329.809 132.91 330.21L126.17 336.87Z" fill="#F4F4F3"/>
<rect x="63" y="167" width="40" height="192" fill="white"/>
<path d="M75.0032 356.622C76.8152 356.622 78.1112 355.626 78.1232 354.246C78.1112 353.154 77.3192 352.266 76.3472 352.11V352.062C77.1872 351.858 77.7752 351.09 77.7872 350.166C77.7752 348.858 76.5992 347.898 75.0032 347.91C73.3832 347.898 72.1952 348.858 72.1952 350.166C72.1952 351.09 72.7832 351.858 73.6352 352.062V352.11C72.6512 352.266 71.8712 353.154 71.8832 354.246C71.8712 355.626 73.1552 356.622 75.0032 356.622ZM73.1792 354.15C73.1792 353.274 73.9472 352.638 75.0032 352.638C76.0352 352.638 76.8032 353.274 76.8032 354.15C76.8032 354.978 76.0952 355.554 75.0032 355.542C73.8752 355.554 73.1792 354.978 73.1792 354.15ZM73.4672 350.262C73.4552 349.482 74.0672 348.954 75.0032 348.942C75.9032 348.954 76.5272 349.494 76.5152 350.262C76.5272 351.078 75.8792 351.618 75.0032 351.63C74.0912 351.618 73.4552 351.078 73.4672 350.262ZM82.7092 347.622H81.5812L78.8452 357.774H79.9732L82.7092 347.622ZM86.8096 348.006H85.5616L83.4496 349.398V350.622L85.4656 349.302H85.5136V356.502H86.8096V348.006ZM92.0445 356.622C93.8685 356.634 95.0805 355.374 95.0925 353.718C95.0805 352.098 93.8685 350.946 92.3565 350.934C91.4325 350.946 90.6285 351.366 90.1725 352.086H90.0765C90.0765 350.166 90.8445 349.026 92.1645 349.038C93.0165 349.026 93.5565 349.53 93.7245 350.214H94.9965C94.8045 348.87 93.7125 347.898 92.1645 347.91C90.1245 347.898 88.8405 349.59 88.8525 352.542C88.8405 355.674 90.4845 356.61 92.0445 356.622ZM90.2445 353.766C90.2445 352.818 91.0365 351.99 92.0685 351.99C93.0885 351.99 93.8325 352.77 93.8445 353.742C93.8325 354.738 93.0645 355.542 92.0445 355.542C90.9885 355.542 90.2445 354.702 90.2445 353.766Z" fill="#82857A"/>
<path fill-rule="evenodd" clip-rule="evenodd" d="M83 337C78.5817 337 75 333.418 75 329L75 180C75 175.582 78.5817 172 83 172C87.4183 172 91 175.582 91 180L91 329C91 333.418 87.4183 337 83 337Z" fill="#F4F4F3"/>
<path fill-rule="evenodd" clip-rule="evenodd" d="M83 337C78.5817 337 75 333.418 75 329L75 229C75 224.582 78.5817 221 83 221C87.4183 221 91 224.582 91 229L91 329C91 333.418 87.4183 337 83 337Z" fill="#BBBDB6"/>
<path opacity="0.1" fill-rule="evenodd" clip-rule="evenodd" d="M75.3 177.78C75.672 176.465 76.3747 175.267 77.341 174.301C78.3073 173.335 79.505 172.632 80.82 172.26L75.3 177.78ZM75 185.08V180.84L83.84 172C84.9559 172.122 86.0331 172.48 87 173.05L75 185.08ZM75 192.08V187.84L88.6 174.24C89.3322 174.958 89.9195 175.81 90.33 176.75L75 192.08ZM75 199.08V194.84L90.93 178.9C90.9805 179.264 91.0039 179.632 91 180V183.12L75 199.08ZM75 206.08V201.84L91 185.84V190.08L75 206.08ZM75 213.08V208.84L91 192.84V197.08L75 213.08ZM75 220.08V215.84L91 199.84V204.08L75 220.08ZM75 227.08V222.84L91 206.84V211.08L75 227.08ZM75 234.08V229.84L91 213.84V218.08L75 234.08ZM75 241.08V236.84L91 220.84V225.08L75 241.08ZM75 248.08V243.84L91 227.84V232.08L75 248.08ZM75 255.08V250.84L91 234.84V239.08L75 255.08ZM75 262.08V257.84L91 241.84V246.08L75 262.08ZM75 269.08V264.84L91 248.84V253.08L75 269.08ZM75 276.08V271.84L91 255.84V260.08L75 276.08ZM75 283.08V278.84L91 262.84V267.08L75 283.08ZM75 290.08V285.84L91 269.84V274.08L75 290.08ZM75 297.08V292.84L91 276.84V281.08L75 297.08ZM75 304.08V299.84L91 283.84V288.08L75 304.08ZM75 311.08V306.84L91 290.84V295.08L75 311.08ZM75 318.08V313.84L91 297.84V302.08L75 318.08ZM75 325.08V320.84L91 304.84V309.08L75 325.08ZM75.46 331.62C75.1584 330.779 75.0028 329.893 75 329V327.88L91 311.88V316.12L75.46 331.62ZM78.46 335.57C77.6248 335.005 76.9052 334.285 76.34 333.45L91 318.84V323.08L78.46 335.57ZM84.17 336.87C83.7837 336.942 83.3927 336.985 83 337C82.0902 337.001 81.187 336.845 80.33 336.54L91 325.84V329C91.0003 329.405 90.9702 329.809 90.91 330.21L84.17 336.87Z" fill="#F4F4F3"/>
<rect x="21" y="167" width="40" height="192" fill="white"/>
<path d="M33.1087 356.622C34.9207 356.622 36.2167 355.626 36.2287 354.246C36.2167 353.154 35.4247 352.266 34.4527 352.11V352.062C35.2927 351.858 35.8807 351.09 35.8927 350.166C35.8807 348.858 34.7047 347.898 33.1087 347.91C31.4887 347.898 30.3007 348.858 30.3007 350.166C30.3007 351.09 30.8887 351.858 31.7407 352.062V352.11C30.7567 352.266 29.9767 353.154 29.9887 354.246C29.9767 355.626 31.2607 356.622 33.1087 356.622ZM31.2847 354.15C31.2847 353.274 32.0527 352.638 33.1087 352.638C34.1407 352.638 34.9087 353.274 34.9087 354.15C34.9087 354.978 34.2007 355.554 33.1087 355.542C31.9807 355.554 31.2847 354.978 31.2847 354.15ZM31.5727 350.262C31.5607 349.482 32.1727 348.954 33.1087 348.942C34.0087 348.954 34.6327 349.494 34.6207 350.262C34.6327 351.078 33.9847 351.618 33.1087 351.63C32.1967 351.618 31.5607 351.078 31.5727 350.262ZM40.8146 347.622H39.6866L36.9506 357.774H38.0786L40.8146 347.622ZM44.9151 348.006H43.6671L41.5551 349.398V350.622L43.5711 349.302H43.6191V356.502H44.9151V348.006ZM49.982 356.622C51.734 356.622 52.994 355.422 52.982 353.742C52.994 352.11 51.806 350.922 50.222 350.934C49.562 350.922 48.974 351.162 48.614 351.486H48.542L48.83 349.134H52.55V348.006H47.75L47.198 352.734H48.422C48.71 352.218 49.226 351.99 49.91 351.99C50.978 352.002 51.734 352.746 51.734 353.79C51.734 354.798 51.002 355.542 49.982 355.542C49.106 355.542 48.422 355.014 48.35 354.294H47.102C47.15 355.638 48.362 356.622 49.982 356.622Z" fill="#82857A"/>
<path fill-rule="evenodd" clip-rule="evenodd" d="M41 337C36.5817 337 33 333.418 33 329L33 180C33 175.582 36.5817 172 41 172C45.4183 172 49 175.582 49 180L49 329C49 333.418 45.4183 337 41 337Z" fill="#F4F4F3"/>
<path fill-rule="evenodd" clip-rule="evenodd" d="M41 337C36.5817 337 33 333.418 33 329L33 229C33 224.582 36.5817 221 41 221C45.4183 221 49 224.582 49 229L49 329C49 333.418 45.4183 337 41 337Z" fill="#BBBDB6"/>
<path opacity="0.1" fill-rule="evenodd" clip-rule="evenodd" d="M33.3 177.78C33.672 176.465 34.3747 175.267 35.341 174.301C36.3073 173.335 37.505 172.632 38.82 172.26L33.3 177.78ZM33 185.08V180.84L41.84 172C42.9559 172.122 44.0331 172.48 45 173.05L33 185.08ZM33 192.08V187.84L46.6 174.24C47.3322 174.958 47.9195 175.81 48.33 176.75L33 192.08ZM33 199.08V194.84L48.93 178.9C48.9805 179.264 49.0039 179.632 49 180V183.12L33 199.08ZM33 206.08V201.84L49 185.84V190.08L33 206.08ZM33 213.08V208.84L49 192.84V197.08L33 213.08ZM33 220.08V215.84L49 199.84V204.08L33 220.08ZM33 227.08V222.84L49 206.84V211.08L33 227.08ZM33 234.08V229.84L49 213.84V218.08L33 234.08ZM33 241.08V236.84L49 220.84V225.08L33 241.08ZM33 248.08V243.84L49 227.84V232.08L33 248.08ZM33 255.08V250.84L49 234.84V239.08L33 255.08ZM33 262.08V257.84L49 241.84V246.08L33 262.08ZM33 269.08V264.84L49 248.84V253.08L33 269.08ZM33 276.08V271.84L49 255.84V260.08L33 276.08ZM33 283.08V278.84L49 262.84V267.08L33 283.08ZM33 290.08V285.84L49 269.84V274.08L33 290.08ZM33 297.08V292.84L49 276.84V281.08L33 297.08ZM33 304.08V299.84L49 283.84V288.08L33 304.08ZM33 311.08V306.84L49 290.84V295.08L33 311.08ZM33 318.08V313.84L49 297.84V302.08L33 318.08ZM33 325.08V320.84L49 304.84V309.08L33 325.08ZM33.46 331.62C33.1584 330.779 33.0028 329.893 33 329V327.88L49 311.88V316.12L33.46 331.62ZM36.46 335.57C35.6248 335.005 34.9052 334.285 34.34 333.45L49 318.84V323.08L36.46 335.57ZM42.17 336.87C41.7837 336.942 41.3927 336.985 41 337C40.0902 337.001 39.187 336.845 38.33 336.54L49 325.84V329C49.0003 329.405 48.9702 329.809 48.91 330.21L42.17 336.87Z" fill="#F4F4F3"/>
<path fill-rule="evenodd" clip-rule="evenodd" d="M284.5 135C278.149 135 273 140.149 273 146.5C273 152.851 278.149 158 284.5 158H289.536C289.893 158 290.223 158.191 290.402 158.5L292.134 161.5C292.519 162.167 293.481 162.167 293.866 161.5L295.598 158.5C295.777 158.191 296.107 158 296.464 158H301.5C307.851 158 313 152.851 313 146.5C313 140.149 307.851 135 301.5 135H284.5Z" fill="#FF6E83"/>
<path d="M285.728 142.504H284.48L282.368 143.896V145.12L284.384 143.8H284.432V151H285.728V142.504ZM288.178 151H289.522L293.314 143.656V142.504H287.602V143.632H291.97V143.68L288.178 151ZM303.245 141.496H302.165V145.648H300.869V141.784H299.837V151.48H300.869V146.56H302.165V151.984H303.245V141.496ZM294.221 148.984L294.869 149.776C297.857 148.072 298.781 145.588 298.781 142.84H294.653V143.752H297.701C297.521 145.888 296.549 147.664 294.221 148.984Z" fill="white"/>
<rect x="15" y="77" width="305" height="45" rx="22.5" fill="#F4F4F3"/>
<rect x="168" y="81" width="148" height="37" rx="18.5" fill="#F4F4F3"/>
<path d="M240.832 92.328H239.328V98.952H236.608V99.88H239.328V100.552H240.832V92.328ZM229.152 97.512L229.312 98.568C230.416 98.568 231.632 98.568 232.896 98.536V100.584H234.368V98.472C235.712 98.408 237.072 98.296 238.4 98.12L238.304 97.16C235.296 97.48 231.872 97.512 229.152 97.512ZM230.208 94.696C230.192 95.992 231.584 96.776 233.696 96.776C235.792 96.776 237.184 95.992 237.184 94.696C237.184 93.4 235.792 92.584 233.696 92.584C231.584 92.584 230.192 93.4 230.208 94.696ZM231.264 102.056H239.36V103.048H231.296V106.184H241.248V105.128H232.768V104.04H240.832V101.032H231.264V102.056ZM231.584 94.696C231.584 94.024 232.416 93.576 233.696 93.576C234.976 93.576 235.808 94.024 235.808 94.696C235.808 95.352 234.976 95.784 233.696 95.784C232.416 95.784 231.584 95.352 231.584 94.696ZM254.02 92.328H252.516V102.504H254.02V97.704H256.036V96.456H254.02V92.328ZM243.012 99.784L243.62 100.968C247.716 99.72 250.212 97.064 250.212 93.384H243.588V94.632H248.612C248.324 96.92 246.276 98.792 243.012 99.784ZM245.124 106.024H254.596V104.84H246.628V101.448H245.124V106.024Z" fill="#82857A"/>
<rect x="19" y="81" width="148" height="37" rx="18.5" fill="white"/>
<path d="M84.1519 92.648C81.9439 92.632 80.3119 93.992 80.3119 95.88C80.3119 97.768 81.9439 99.112 84.1519 99.112C86.2959 99.112 87.9279 97.768 87.9279 95.88C87.9279 93.992 86.2959 92.632 84.1519 92.648ZM82.2639 95.88C82.2319 94.872 83.0479 94.264 84.1519 94.28C85.2079 94.264 86.0079 94.872 86.0079 95.88C86.0079 96.904 85.2079 97.512 84.1519 97.512C83.0479 97.512 82.2319 96.904 82.2639 95.88ZM82.4559 101.48H90.0079V102.344H82.4879V106.28H92.3759V104.712H84.4399V103.784H91.9919V99.944H82.4559V101.48ZM90.0079 99.336H91.9919V92.2H90.0079V99.336ZM105.212 92.2H103.196V102.408H105.212V97.832H107.132V96.2H105.212V92.2ZM93.82 99.432L94.652 101.032C98.924 99.816 101.324 97.128 101.34 93.288H94.46V94.92H99.132C98.796 96.92 97.004 98.552 93.82 99.432ZM95.964 106.184H105.692V104.584H97.98V101.352H95.964V106.184Z" fill="#1B210D"/>
<path d="M88.2195 48.4945H87.1008V58.9945H88.2195V48.4945ZM79.5925 56.1809L80.1809 57.0801C83.7858 55.3605 85.0911 52.6961 85.0994 49.6257H80.1021V50.5124H83.964C83.7444 52.9613 82.3853 54.855 79.5925 56.1809ZM99.4567 54.2251H95.2011V53.2307H98.4622V52.3564H92.1846V51.3826H98.2467V48.739H91.0533V49.6215H97.1362V50.558H91.0823V53.2307H94.1072V54.2251H89.8475V55.1326H99.4567V54.2251ZM90.9249 56.7569H97.1859V58.9116H98.3047V55.8619H90.9249V56.7569ZM106.745 49.5138H105.485L103.376 50.8978V52.1285L105.402 50.8066H105.452V58H106.745V49.5138ZM111.855 58.1367C113.819 58.1367 114.971 56.5414 114.971 53.761C114.971 51.0014 113.806 49.3978 111.855 49.3978C109.907 49.3978 108.743 50.9972 108.743 53.761C108.739 56.5414 109.895 58.1367 111.855 58.1367ZM110.027 53.761C110.027 51.6478 110.719 50.4959 111.855 50.4959C112.994 50.4959 113.686 51.6478 113.686 53.761C113.686 55.8785 113.002 57.0262 111.855 57.0262C110.711 57.0262 110.023 55.8785 110.027 53.761ZM124.942 48.4945H123.864V52.6423H122.572V48.7762H121.532V58.489H122.572V53.5497H123.864V58.9945H124.942V48.4945ZM115.909 55.9903L116.555 56.7735C119.559 55.0746 120.475 52.5925 120.483 49.8329H116.356V50.7403H119.398C119.228 52.8785 118.25 54.6644 115.909 55.9903ZM137.948 48.4945H136.83V59.0152H137.948V48.4945ZM129.611 52.9655C129.611 55.2279 130.743 56.6575 132.325 56.6575C133.892 56.6575 135.035 55.2279 135.035 52.9655C135.035 50.7155 133.892 49.2859 132.325 49.2818C130.743 49.2859 129.611 50.7155 129.611 52.9655ZM130.685 52.9655C130.685 51.3122 131.356 50.2845 132.325 50.2762C133.295 50.2845 133.958 51.3122 133.958 52.9655C133.958 54.6312 133.295 55.6588 132.325 55.6588C131.356 55.6588 130.685 54.6312 130.685 52.9655ZM143.235 50.1768V49.0414H142.133V50.0815C142.125 51.6436 141.176 53.0483 139.539 53.6326L140.14 54.5152C141.362 54.0635 142.253 53.1395 142.705 51.9627C143.165 52.9986 144.027 53.8149 145.179 54.221L145.771 53.3467C144.205 52.8329 143.235 51.5525 143.235 50.1768ZM140.956 57.0221C140.956 58.2693 142.299 58.9779 144.478 58.9779C146.641 58.9779 147.967 58.2693 147.967 57.0221C147.967 55.7997 146.641 55.0787 144.478 55.0787C142.299 55.0787 140.956 55.7997 140.956 57.0221ZM142.071 57.0221C142.063 56.355 142.962 55.9613 144.478 55.9613C145.991 55.9613 146.877 56.355 146.877 57.0221C146.877 57.7182 145.991 58.0953 144.478 58.1036C142.962 58.0953 142.063 57.7182 142.071 57.0221ZM146.757 54.8301H147.872V52.0663H149.393V51.1381H147.872V48.4945H146.757V54.8301ZM159.586 54.6685H149.976V55.5552H154.207V58.9945H155.301V55.5552H159.586V54.6685ZM151.174 53.4793H158.384V48.9213H157.273V50.2887H152.276V48.9213H151.174V53.4793ZM152.276 52.5843V51.1796H157.273V52.5843H152.276ZM169.12 48.4945H168.017V52.3771H165.925V53.2845H168.017V59.0152H169.12V48.4945ZM160.845 56.5331H161.657C163.609 56.529 164.926 56.4669 166.455 56.2224L166.335 55.3149C164.939 55.5552 163.72 55.6091 161.964 55.6133V53.2638H165.312V52.3771H161.964V50.3384H165.751V49.4268H160.845V56.5331ZM183.257 53.9931H173.648V54.8881H177.991V56.8191H179.093V54.8881H183.257V53.9931ZM174.846 58.779H182.193V57.8674H175.948V55.8992H174.846V58.779ZM174.916 53.0649H181.994V48.8301H180.887V50.0939H176.023V48.8301H174.916V53.0649ZM176.023 52.174V50.9351H180.887V52.174H176.023ZM187.736 50.1644V49.0331H186.622V50.1064C186.617 51.6644 185.669 53.0483 184.019 53.6119L184.62 54.5152C185.843 54.047 186.738 53.1354 187.193 51.9627C187.645 53.0276 188.503 53.8729 189.663 54.2914L190.264 53.4047C188.689 52.8785 187.728 51.5649 187.736 50.1644ZM185.669 56.1478H191.677V58.9945H192.787V55.2652H185.669V56.1478ZM189.464 51.5359H191.677V54.7182H192.787V48.4945H191.677V50.616H189.464V51.5359ZM202.657 48.4613H201.542V54.2334H202.657V51.8301H204.186V50.9227H202.657V48.4613ZM194.42 50.2597H200.668V49.3895H198.103V48.3992H196.997V49.3895H194.42V50.2597ZM194.991 52.3812C194.987 53.4544 196.002 54.1008 197.548 54.1008C199.085 54.1008 200.088 53.4544 200.092 52.3812C200.088 51.3246 199.085 50.6616 197.548 50.6616C196.002 50.6616 194.987 51.3246 194.991 52.3812ZM195.866 55.5552H201.551V56.3798H195.891V58.895H203.013V58.0497H196.984V57.1713H202.657V54.7348H195.866V55.5552ZM196.065 52.3812C196.056 51.8177 196.641 51.4655 197.548 51.4655C198.447 51.4655 199.031 51.8177 199.04 52.3812C199.031 52.953 198.447 53.2845 197.548 53.2887C196.641 53.2845 196.056 52.953 196.065 52.3812ZM213.078 49.4185V48.8467H211.918V49.4185C211.918 50.8315 210.219 52.1243 208.16 52.4019L208.607 53.3094C210.314 53.0359 211.818 52.1492 212.502 50.9061C213.186 52.1409 214.69 53.0359 216.405 53.3094L216.849 52.4019C214.781 52.1243 213.078 50.8149 213.078 49.4185ZM207.708 55.261H211.922V58.9945H213.016V55.261H217.28V54.3412H207.708V55.261ZM224.647 55.4309V54.9296H223.574V55.4309C223.565 56.4503 222.836 57.5401 221.489 58.029L222.045 58.8412C223.035 58.4807 223.731 57.7845 224.108 56.9558C224.431 57.8177 225.069 58.5594 226.08 58.9365C227.042 58.5387 227.672 57.7638 228.003 56.9227C228.368 57.7845 229.072 58.4848 230.108 58.8412L230.659 58.029C229.292 57.5773 228.571 56.5249 228.579 55.4309V54.9296H227.485V55.4309C227.485 56.2348 227.009 57.2376 226.047 57.8591C225.098 57.2873 224.647 56.3343 224.647 55.4309ZM221.22 51.5649C221.22 53.0193 222.405 54.0304 224.017 54.0304C225.625 54.0304 226.806 53.0193 226.806 51.5649C226.806 50.0981 225.625 49.087 224.017 49.087C222.405 49.087 221.22 50.0981 221.22 51.5649ZM222.31 51.5649C222.301 50.645 223.018 50.0235 224.017 50.0318C225.003 50.0235 225.716 50.645 225.716 51.5649C225.716 52.4807 225.003 53.1022 224.017 53.1064C223.018 53.1022 222.301 52.4807 222.31 51.5649ZM228.604 54.4779H229.719V48.5028H228.604V54.4779ZM234.226 49.2818C232.656 49.2859 231.554 50.7155 231.562 52.9655C231.554 55.2279 232.656 56.6575 234.226 56.6575C235.689 56.6575 236.75 55.3854 236.866 53.3384H239.033V59.0152H240.135V48.4945H239.033V52.4309H236.858C236.692 50.4917 235.648 49.2859 234.226 49.2818ZM232.623 52.9655C232.623 51.3122 233.273 50.2845 234.226 50.2762C235.171 50.2845 235.826 51.3122 235.826 52.9655C235.826 54.6312 235.171 55.6588 234.226 55.6588C233.273 55.6588 232.623 54.6312 232.623 52.9655ZM251.36 56.7652H249.056V53.9972C249.901 53.5207 250.411 52.779 250.411 51.8508C250.411 50.1975 248.787 49.1119 246.528 49.1036C244.278 49.1119 242.658 50.1975 242.658 51.8508C242.658 52.7914 243.185 53.5456 244.051 54.018V56.7652H241.751V57.6851H251.36V56.7652ZM243.74 51.8508C243.74 50.7155 244.883 49.9945 246.528 50.0028C248.165 49.9945 249.325 50.7155 249.325 51.8508C249.325 52.9738 248.165 53.7072 246.528 53.7072C244.883 53.7072 243.74 52.9738 243.74 51.8508ZM245.144 56.7652V54.4282C245.567 54.5235 246.031 54.5773 246.528 54.5773C247.03 54.5773 247.502 54.5235 247.933 54.424V56.7652H245.144ZM253.315 58.0787C253.763 58.0787 254.144 57.7058 254.144 57.25C254.144 56.7942 253.763 56.4213 253.315 56.4213C252.855 56.4213 252.474 56.7942 252.482 57.25C252.474 57.7058 252.855 58.0787 253.315 58.0787Z" fill="#FF6E83"/>
<path d="M130.098 23.6112H127.829V39.6222H130.098V23.6112ZM116.71 35.0912L117.878 36.875C123.597 34.1775 125.3 30.1436 125.306 25.2956H117.568V27.0546H123.019C122.658 30.6098 120.837 33.1333 116.71 35.0912ZM146.829 32.201H140.626V31.0387H145.356V29.317H136.251V28.2541H145.064V23.9282H133.994V25.6623H142.814V26.6381H134.019V31.0387H138.407V32.201H132.198V33.991H146.829V32.201ZM133.833 36.6637H142.889V39.5477H145.151V34.8985H133.833V36.6637ZM158.933 24.9786H152.612V26.7562H156.627C156.304 29.0808 154.856 30.8025 151.841 32.0456L152.997 33.6802C157.149 31.9026 158.927 29.0497 158.933 24.9786ZM153.855 37.8073L154.731 39.5477C157.298 39.1623 159.169 38.0311 160.151 36.4896C161.139 38.0311 163.023 39.1623 165.596 39.5477L166.454 37.8073C163.035 37.3536 161.258 35.5014 161.264 33.761V33.27H159.051V33.761C159.045 35.5014 157.273 37.3536 153.855 37.8073ZM159.99 32.549H162.103V29.3356H163.539V34.0532H165.664V23.636H163.539V27.5021H162.103V23.9157H159.99V32.549ZM175.963 24.8667V24.0898H173.607V24.8667C173.601 26.7562 171.68 28.8446 168.044 29.2983L168.927 31.107C171.699 30.7093 173.738 29.4102 174.782 27.6761C175.826 29.4102 177.877 30.7093 180.674 31.107L181.55 29.2983C177.89 28.8446 175.963 26.7562 175.963 24.8667ZM167.479 34.1464H173.619V39.6222H175.838V34.1464H182.073V32.3191H167.479V34.1464ZM201.778 33.1954H187.184V35.029H193.343V39.6347H195.568V35.029H201.778V33.1954ZM187.917 30.5912L188.731 32.3501C191.46 32.0269 193.43 30.933 194.474 29.4662C195.519 30.9206 197.476 32.0331 200.186 32.3501L200.994 30.5912C197.688 30.2058 195.892 28.6271 195.624 27.2286H200.435V25.4634H195.568V23.636H193.343V25.4634H188.501V27.2286H193.306C193.039 28.6457 191.23 30.2058 187.917 30.5912ZM216.128 23.6112H213.86V39.6595H216.128V23.6112ZM203.206 30.4358C203.2 33.9537 204.99 36.154 207.439 36.154C209.857 36.154 211.647 33.9537 211.653 30.4358C211.647 26.9551 209.857 24.7424 207.439 24.7424C204.99 24.7424 203.2 26.9551 203.206 30.4358ZM205.376 30.4358C205.363 28.0677 206.196 26.7686 207.439 26.7686C208.657 26.7686 209.484 28.0677 209.484 30.4358C209.484 32.8287 208.657 34.1215 207.439 34.1215C206.196 34.1215 205.363 32.8287 205.376 30.4358Z" fill="#1B210D"/>
<g filter="url(#filter0_b_2012_32316)">
<rect x="10" y="132" width="315" height="238" fill="white" fill-opacity="0.8"/>
</g>
<path d="M174.113 267.017C175.042 266.393 175.807 265.553 176.34 264.568C176.873 263.578 177.151 262.471 177.15 261.347C177.159 260.867 177.295 260.398 177.544 259.987C177.793 259.576 178.146 259.239 178.568 259.009C182.309 256.88 185.31 253.658 187.169 249.776C189.028 245.893 189.656 241.535 188.969 237.286C187.128 225.523 175.309 218.159 163.583 220.405C154.378 222.246 147.327 227.768 147.014 237.525C146.887 239.89 147.611 242.221 149.057 244.096C150.503 245.971 152.574 247.265 154.894 247.742C155.626 247.89 156.375 247.945 157.121 247.908C157.564 247.856 157.984 247.684 158.336 247.411C158.685 247.134 158.957 246.773 159.128 246.362C160.14 244.097 163.233 239.348 171.904 237.82C172.251 237.729 172.618 237.754 172.95 237.89C173.282 238.026 173.561 238.266 173.744 238.575C173.852 238.767 173.915 238.981 173.929 239.201C173.973 239.407 173.973 239.62 173.929 239.826C173.852 240.032 173.725 240.216 173.56 240.36C173.402 240.509 173.214 240.622 173.008 240.692H172.677C168.829 241.507 165.382 243.628 162.919 246.694C160.457 249.761 159.13 253.585 159.164 257.518V261.199C159.141 262.318 159.394 263.424 159.901 264.421C160.434 265.405 161.199 266.245 162.128 266.869C161.066 267.691 160.219 268.759 159.661 269.981C159.091 271.199 158.832 272.54 158.907 273.883C158.741 285.683 177.021 285.812 177.316 274.288V273.754C177.334 273.442 177.334 273.128 177.316 272.816C177.208 271.656 176.87 270.529 176.322 269.502C176.322 269.41 176.23 269.299 176.174 269.207L175.898 268.802L175.622 268.416L175.364 268.103C175.236 267.974 175.125 267.827 174.978 267.698L174.757 267.477L174.26 267.053L174.113 267.017Z" fill="#FF6E83"/>
<defs>
<filter id="filter0_b_2012_32316" x="6" y="128" width="323" height="246" filterUnits="userSpaceOnUse" color-interpolation-filters="sRGB">
<feFlood flood-opacity="0" result="BackgroundImageFix"/>
<feGaussianBlur in="BackgroundImageFix" stdDeviation="2"/>
<feComposite in2="SourceAlpha" operator="in" result="effect1_backgroundBlur_2012_32316"/>
<feBlend mode="normal" in="SourceGraphic" in2="effect1_backgroundBlur_2012_32316" result="shape"/>
</filter>
</defs>
</svg>
