<svg width="78" height="78" viewBox="0 0 78 78" fill="none" xmlns="http://www.w3.org/2000/svg">
<path fill-rule="evenodd" clip-rule="evenodd" d="M25.4368 46.7649C35.8959 43.379 38.36 37.0503 38.8741 35.4194C38.935 35.2611 38.9651 35.0927 38.9627 34.9231C38.9474 34.7197 38.8932 34.5211 38.8031 34.3381C38.7087 34.1576 38.5755 34.0002 38.4131 33.8772C38.2521 33.7523 38.0638 33.6673 37.8636 33.629C36.4277 33.239 35.63 34.9585 35.63 34.9585C34.4562 37.2644 32.7451 39.254 30.6409 40.7597C28.5367 42.2653 26.1012 43.2427 23.54 43.6094C23.0861 43.6785 22.6222 43.6296 22.1927 43.4676C21.7637 43.3158 21.3754 43.0671 21.0581 42.7408C15.74 37.0858 14.6231 26.0949 21.2354 17.7453C27.8477 9.3958 37.704 5.07034 48.5354 8.19034C72.0595 14.3949 69.9677 47.6513 52.2227 61.3722C44.1607 67.5101 34.0263 70.2694 23.9654 69.0658C13.6127 67.7185 9.78359 62.294 10.404 57.419C10.9713 52.9694 12.9568 50.0976 16.8036 48.7149C19.1878 47.8579 20.6118 47.6342 22.1688 47.3896C23.124 47.2396 24.1292 47.0817 25.4368 46.7649ZM49.5996 28.9496C49.4789 28.9525 49.359 28.9286 49.2487 28.8795C49.1383 28.8305 49.0402 28.7575 48.9615 28.6659C48.6061 28.2267 48.4289 27.6698 48.4651 27.1059C48.4217 26.5412 48.5997 25.9817 48.9615 25.5459C49.0402 25.4544 49.1383 25.3814 49.2487 25.3324C49.359 25.2833 49.4789 25.2594 49.5996 25.2623C49.7163 25.2357 49.8375 25.2357 49.9542 25.2623C50.0626 25.3125 50.1593 25.385 50.2378 25.475C50.4241 25.6854 50.5631 25.9333 50.6456 26.2019C50.7089 26.47 50.7089 26.7492 50.6456 27.0173C50.6714 27.3001 50.6408 27.5851 50.5556 27.8559C50.4704 28.1268 50.3322 28.378 50.1492 28.595C50.0706 28.6851 49.974 28.7576 49.8656 28.8078C49.7489 28.8344 49.6277 28.8344 49.511 28.8078L49.5996 28.9496ZM55.7149 28.9497C55.8257 28.9748 55.9408 28.9748 56.0517 28.9497V29.0206C56.1744 29.0194 56.2956 28.9937 56.4082 28.945C56.5209 28.8963 56.6226 28.8256 56.7076 28.737C57.0658 28.2931 57.2374 27.7274 57.1862 27.1593C57.2356 26.6022 57.0636 26.0482 56.7076 25.617C56.6225 25.5265 56.52 25.4541 56.4062 25.4043C56.2895 25.3777 56.1684 25.3777 56.0517 25.4043C55.9347 25.3809 55.8142 25.3809 55.6971 25.4043C55.5915 25.4591 55.4957 25.531 55.4135 25.617C55.2335 25.8318 55.0953 26.0783 55.0058 26.3438C54.9318 26.615 54.9019 26.8963 54.9171 27.177C54.881 27.7409 55.0581 28.2977 55.4135 28.737C55.4986 28.8275 55.6011 28.8998 55.7149 28.9497Z" fill="#3AC5FF"/>
<path d="M35.0086 55.7705L13.5586 64.8646C16.5603 67.2246 20.1933 68.6433 24 68.9419C34.0609 70.1455 44.1952 67.3862 52.2572 61.2483C63.3722 52.686 68.3359 36.4301 64.6663 24.021L63.2127 27.4424C57.8529 40.1935 47.7361 50.3548 35.0086 55.7705Z" fill="#2DB8FF"/>
</svg>
