<svg width="24" height="24" viewBox="0 0 24 24" fill="none" xmlns="http://www.w3.org/2000/svg">
<path d="M12.9215 3.72017C10.7397 3.51835 10.4124 3.7529 8.42151 3.17472C7.1997 2.86926 6.56697 2.48745 4.94697 2.96199C4.31819 3.1373 3.77575 3.53754 3.42276 4.08662C3.06978 4.63571 2.93086 5.29536 3.03242 5.94017C3.16156 6.52467 3.42632 7.07062 3.80532 7.53395C4.18432 7.99727 4.66694 8.365 5.21424 8.60745C6.25833 9.06051 7.35942 9.36882 8.48697 9.52381C8.60992 9.54582 8.7216 9.60935 8.80333 9.70381C8.8815 9.80124 8.92386 9.92254 8.92333 10.0474C8.91833 10.1176 8.89981 10.1861 8.86879 10.2493C8.83948 10.3139 8.79447 10.3701 8.73788 10.4129C8.6866 10.4608 8.62502 10.4962 8.55788 10.5165C8.4879 10.5328 8.41512 10.5328 8.34515 10.5165C8.05953 10.5008 7.77527 10.4662 7.49424 10.4129C6.76808 10.2669 6.05487 10.0626 5.36151 9.80199C5.18269 9.72926 4.98245 9.72966 4.80391 9.80312C4.62538 9.87657 4.48283 10.0172 4.40697 10.1947C3.91792 11.4001 3.69645 12.6972 3.75788 13.9965C4.01424 17.8856 6.77424 20.9238 11.3942 21.3984C12.5875 21.5564 13.8002 21.4748 14.9615 21.1584C16.9989 20.588 18.7663 19.3103 19.9466 17.5544C21.1269 15.7986 21.6428 13.6796 21.4017 11.5777C21.1607 9.47578 20.1784 7.52859 18.6312 6.08555C17.0841 4.64251 15.0733 3.79808 12.9597 3.70381L12.9215 3.72017Z" fill="#1B210D"/>
</svg>
