<svg width="375" height="326" viewBox="0 0 375 326" fill="none" xmlns="http://www.w3.org/2000/svg">
<path d="M298.211 266.595C318.381 266.595 334.732 262.796 334.732 258.11C334.732 253.425 318.381 249.626 298.211 249.626C278.041 249.626 261.689 253.425 261.689 258.11C261.689 262.796 278.041 266.595 298.211 266.595Z" fill="#F2F2F2"/>
<path d="M129.686 92.2665C129.686 92.2665 110.307 98.8958 103.896 94.4534C102.696 93.6181 101.533 92.7297 100.075 92.5854H100.052C99.6189 92.5398 99.1935 92.4411 98.7757 92.312C98.0616 92.0918 96.6107 92.0918 95.8966 93.0486C94.8862 94.4079 94.7343 96.6101 95.418 97.8175C96.0485 98.9337 97.1956 100.323 98.8137 101.318C101.564 102.996 105.104 103.695 108.697 103.885C114.288 104.173 122.31 103.247 127.331 102.237C132.353 101.227 133.538 98.9109 133.538 98.9109L135.133 97.9238L129.686 92.2589V92.2665Z" fill="#F8D53F"/>
<path d="M217.832 78.18C215.53 52.0046 185.235 38.6852 166.92 53.379C164.982 54.9281 162.453 55.3306 160.136 54.4649C138.622 46.4384 114.457 67.3211 119.228 92.4941C126.68 148.703 226.576 133.599 217.84 78.18H217.832Z" fill="#F8D53F"/>
<path d="M176.302 79.797C176.097 79.2199 175.428 78.9465 174.881 79.2275C173.089 80.1311 171.106 80.9361 169.04 81.3917C166.981 81.8777 164.846 82.022 162.833 81.9764C162.218 81.9612 161.739 82.5004 161.8 83.1079C161.853 83.6242 162.279 84.0267 162.795 84.0343C164.96 84.0723 167.262 83.8596 169.495 83.3888C171.714 82.8497 173.871 82.0372 175.808 81.0652C176.272 80.8298 176.477 80.283 176.302 79.797Z" fill="white"/>
<path d="M258.896 104.764C267.247 93.6209 265.196 85.2998 264.55 83.2428C264.143 81.9514 263.058 81.6053 262.159 82.0047C260.407 82.657 260.82 85.0069 260.82 85.0069C261.346 87.2303 261.699 96.1971 254.64 102.814C253.781 103.619 252.589 103.959 251.437 103.719C241.854 101.729 232.644 91.1845 233.377 77.7243C234.123 64.1376 241.182 52.5946 254.674 47.9481C283.549 37.2106 305.645 73.1244 297.261 100.244C290.808 120.694 273.553 128.716 273.553 128.716C261.859 134.854 253.861 132.051 250.944 126.599C248.274 121.606 248.234 117.153 251.237 112.926C254.434 108.419 255.966 108.133 258.902 104.758L258.896 104.764Z" fill="#39C4FF"/>
<path d="M261 80.2144C261 80.2144 266.141 81.6523 269.204 76.5664" stroke="white" stroke-width="1.60597" stroke-linecap="round" stroke-linejoin="round"/>
<path d="M148.682 130.342C149.685 130.471 150.672 130.676 151.637 130.957L152.944 131.329C154.007 131.633 154.721 132.635 154.661 133.736C154.585 135.262 153.111 136.28 151.63 135.893C146.221 134.48 142.468 133.857 135.008 137.973L133.595 138.748C133.595 138.748 133.588 138.725 133.595 138.748C126.151 142.856 124.122 154.968 127.131 164.908C131.886 180.635 149.465 182.244 158.748 177.126C166.899 172.631 168.965 167.49 174.465 164.46C179.464 161.704 183.429 163.518 193.046 158.21C204.456 151.915 204.874 142.066 200.43 131.048C199.314 128.276 196.86 124.077 195.044 121.708C179.775 101.789 166.519 93.5426 156.902 89.2218L156.879 89.237C146.54 85.2579 133.162 91.9631 130.184 102.67H130.177C127.45 111.942 129.759 122.854 131.59 131.306C131.871 132.605 133.246 133.326 134.469 132.802C137.508 131.519 143.137 129.628 148.667 130.342H148.682Z" fill="#A3E23D"/>
<path d="M180.685 136.096C180.685 136.096 172.146 139.201 173.696 129.109" stroke="white" stroke-width="1.83198" stroke-miterlimit="10" stroke-linecap="round"/>
<path d="M231.158 78.0735C232.017 77.8989 243.624 74.7019 242.804 82.7284" stroke="white" stroke-width="1.83198" stroke-miterlimit="10" stroke-linecap="round"/>
<path d="M184.431 80.8301H267.895V238.809H184.773C181.529 238.809 178.9 236.182 178.9 232.939V86.3583C178.9 83.3056 181.377 80.8301 184.431 80.8301Z" fill="#999999"/>
<path d="M270.933 82.3488L267.895 80.8301L267.955 85.933L270.933 82.3488Z" fill="#CCCCCC"/>
<path d="M267.895 238.809L203.218 258.454C200.567 259.259 197.9 257.277 197.9 254.513V107.499C197.9 104.287 200.005 101.447 203.081 100.513L267.903 80.8223V238.801L267.895 238.809Z" fill="#CCCCCC"/>
<path d="M199.951 258.074L203.218 259.714L202.45 256.973L199.951 258.074Z" fill="#CCCCCC"/>
<path d="M270.995 239.987L206.318 259.632C203.666 260.437 201 258.455 201 255.69V108.677C201 105.465 203.104 102.624 206.181 101.69L271.003 82V239.979L270.995 239.987Z" fill="#F2F2F2"/>
<g clip-path="url(#clip0_1191_33892)">
<path d="M214.048 174H213.952C211.769 174 210 175.769 210 177.952V180.048C210 182.231 211.769 184 213.952 184H214.048C216.231 184 218 182.231 218 180.048V177.952C218 175.769 216.231 174 214.048 174Z" fill="#CCCCCC"/>
<path d="M215.945 182.496C217.08 182.496 218.001 181.049 218.001 179.264C218.001 177.479 217.08 176.032 215.945 176.032C214.809 176.032 213.889 177.479 213.889 179.264C213.889 181.049 214.809 182.496 215.945 182.496Z" fill="#E6E6E6"/>
</g>
<path d="M229.396 79.4543C228.013 80.1681 227.231 81.702 227.626 83.2056C227.876 84.1472 228.53 85.1799 230.057 85.9925C233.749 87.9592 239.947 85.8026 240.054 82.0665C240.16 78.3304 235.405 78.3912 233.771 78.3608C232.655 78.3456 230.832 78.7101 229.388 79.4543H229.396Z" fill="#39C4FF"/>
<path d="M174.843 133.535C175.314 135.016 176.704 136.049 178.254 135.904C179.219 135.813 180.35 135.342 181.406 133.976C183.959 130.665 182.865 124.195 179.203 123.466C175.542 122.737 174.797 127.437 174.501 129.04C174.296 130.133 174.357 132.001 174.851 133.543L174.843 133.535Z" fill="#A3E23D"/>
<path d="M340.607 175.03C339.943 171.567 338.867 168.175 337.055 165.146C331.36 155.618 321.702 154.796 315.128 158.654C312.739 160.054 310.667 160.046 308.974 158.654C306.514 156.63 302.053 153.918 297.56 153.918C293.059 153.918 288.597 156.298 285.417 158.662C283.622 159.999 281.17 160.078 279.374 158.733C272.919 153.886 260.382 156.82 255.683 167.803C251.997 176.406 253.745 184.234 255.509 188.804C255.881 189.777 256.901 190.283 257.929 190.125C260.927 189.658 264.052 189.698 267.2 190.323C267.873 190.457 268.529 190.615 269.186 190.797C269.186 190.797 273.473 191.912 277.507 195.075C278.654 195.968 278.71 197.692 277.665 198.704C276.851 199.495 275.569 199.645 274.644 198.981C272.2 197.226 269.352 195.953 266.204 195.328C261.537 194.403 256.933 195.075 252.914 196.925C243.77 202.563 243.098 214.7 249.647 224.79C255.248 233.417 265.365 236.58 274.667 236.564C274.667 236.564 296.049 236.564 310.248 236.564C322.817 236.564 330.482 230.942 335.9 219.903C344.293 202.808 342.64 185.768 340.591 175.038L340.607 175.03Z" fill="#A485FF"/>
<path d="M274.123 253.112L274.542 226.528L290.386 224.077C290.386 224.077 287.12 245.585 284.667 255.73C283.853 259.098 280.293 258.299 275.476 257.983C272.588 257.793 271.062 257.327 272.588 255.484C272.921 255.081 273.925 254.156 274.115 253.112H274.123Z" fill="#A485FF"/>
<path d="M323.728 252.75L320.666 225.763L304.672 224.308C304.672 224.308 309.323 244.993 312.543 254.956C313.61 258.269 314.006 257.747 322.169 257.874C324.21 257.905 327.271 257.486 324.764 255.138C324.495 254.885 324.234 254.592 324.028 254.07C323.862 253.643 323.767 253.2 323.712 252.75H323.728Z" fill="#A485FF"/>
<path d="M297.247 130.766C296.934 130.267 296.475 129.874 295.975 129.561L288.776 125.128C287.564 124.382 286.506 123.424 285.646 122.299C285.52 122.132 285.38 121.972 285.227 121.826L280.226 117.006C278.607 115.449 278.468 112.906 279.899 111.175L282.157 108.452C284.175 106.023 288.051 106.515 289.356 109.384C290.421 111.721 291.833 114.31 293.618 116.5C296.501 120.049 301.656 120.674 303.64 123.464C305.338 125.853 304.792 125.86 300.763 131.425C299.758 132.816 297.933 134.674 297.607 131.798C297.573 131.485 297.5 131.166 297.254 130.766H297.247Z" fill="#39C4FF"/>
<path d="M187.097 170.095L171.213 149.402L157.334 156.115C157.334 156.115 171.403 170.832 178.992 177.446C181.514 179.64 181.582 179.025 188.359 175.084C190.053 174.097 192.37 172.244 189.141 171.546C188.792 171.47 188.434 171.356 188.009 171.029C187.66 170.763 187.363 170.437 187.097 170.095Z" fill="#A3E23D"/>
<path d="M104.616 95.273C104.616 95.273 104.259 97.0651 102.915 97.5055C101.57 97.9459 101.471 95.1439 101.259 94.4377C100.947 93.4125 100.37 92.114 101.175 91.4989C103.143 90.0105 104.616 95.2654 104.616 95.2654V95.273Z" fill="#F8D53F"/>
<path d="M267.557 203.156C267.557 203.156 248.027 202.001 244.649 193.897C244.111 192.608 243.375 191.406 242.197 190.662L242.173 190.647C241.825 190.425 241.501 190.156 241.2 189.864C240.686 189.366 239.452 188.741 238.432 189.247C236.984 189.967 235.9 191.777 235.964 193.106C236.019 194.331 236.391 196.008 237.348 197.558C238.962 200.175 241.675 202.294 244.657 204.002C249.292 206.659 256.522 209.331 261.237 210.636C265.951 211.941 267.952 210.478 267.952 210.478L269.74 210.328L267.549 203.148L267.557 203.156Z" fill="#A485FF"/>
<path d="M244.913 194.9C244.913 194.9 243.837 196.276 242.5 196.062C241.163 195.849 242.295 193.429 242.413 192.734C242.587 191.729 242.658 190.369 243.616 190.195C245.933 189.776 244.921 194.892 244.921 194.892L244.913 194.9Z" fill="#A485FF"/>
<path d="M325.652 203.321C325.652 203.321 341.726 214.47 340.381 223.153C340.168 224.536 340.168 225.936 340.785 227.193V227.217C340.982 227.588 341.117 227.984 341.22 228.387C341.394 229.075 342.129 230.261 343.268 230.356C344.882 230.49 346.741 229.518 347.382 228.348C347.975 227.272 348.529 225.643 348.521 223.833C348.505 220.757 347.295 217.531 345.641 214.526C343.071 209.845 338.285 203.796 334.939 200.23C331.593 196.663 329.125 196.861 329.125 196.861L327.519 196.062L325.652 203.329V203.321Z" fill="#A485FF"/>
<path d="M340.687 222.149C340.687 222.149 342.325 221.532 343.353 222.41C344.381 223.288 342.159 224.766 341.692 225.296C341.02 226.063 340.252 227.186 339.351 226.838C337.152 225.992 340.68 222.149 340.68 222.149H340.687Z" fill="#A485FF"/>
<path d="M287.705 81.8645C287.705 81.8645 301.849 73.4369 301.23 66.0678C301.13 64.8962 301.217 63.7179 301.803 62.6994L301.816 62.6794C301.989 62.3732 302.129 62.0537 302.236 61.7208C302.422 61.155 303.108 60.2031 304.067 60.1898C305.425 60.1698 306.937 61.1018 307.403 62.1203C307.836 63.0589 308.209 64.4568 308.096 65.9812C307.903 68.5641 306.697 71.2002 305.132 73.63C302.702 77.4111 298.333 82.2107 295.31 85.0132C292.293 87.8158 290.229 87.5029 290.229 87.5029L288.837 88.082L287.691 81.8712L287.705 81.8645Z" fill="#39C4FF"/>
<path d="M301.428 66.9208C301.428 66.9208 302.766 67.5332 303.685 66.8542C304.604 66.1752 302.82 64.8039 302.46 64.3312C301.941 63.6456 301.361 62.6604 300.582 62.9C298.691 63.4858 301.428 66.9141 301.428 66.9141V66.9208Z" fill="#39C4FF"/>
<path d="M182.007 99.926C181.384 98.4984 179.903 97.6175 178.376 97.9137C177.427 98.0959 176.348 98.6882 175.436 100.154C173.233 103.708 174.973 110.033 178.688 110.39C182.402 110.747 182.668 106.001 182.805 104.368C182.896 103.26 182.653 101.407 182.007 99.926Z" fill="#A3E23D"/>
<path d="M291.541 187.361C291.237 187.361 290.941 187.239 290.697 187.019C290.272 186.632 290.044 185.979 290.059 185.174C290.052 184.361 290.28 183.701 290.697 183.313C290.941 183.086 291.237 182.972 291.541 182.972C291.845 182.972 292.141 183.093 292.384 183.313C292.809 183.701 293.03 184.354 293.022 185.159C293.022 185.971 292.802 186.632 292.384 187.019C292.141 187.247 291.845 187.361 291.541 187.361Z" fill="white"/>
<path d="M299.276 187.165C298.972 187.195 298.669 187.104 298.41 186.899C297.954 186.55 297.666 185.919 297.605 185.114C297.521 184.302 297.689 183.626 298.076 183.201C298.296 182.958 298.577 182.813 298.881 182.783C299.185 182.753 299.489 182.844 299.755 183.049C300.211 183.398 300.499 184.028 300.56 184.833C300.644 185.646 300.477 186.322 300.089 186.747C299.869 186.99 299.588 187.134 299.284 187.165H299.276Z" fill="white"/>
<path d="M163.625 73.1147C163.321 73.1679 163.017 73.1071 162.736 72.9249C162.25 72.6211 161.908 72.0136 161.779 71.2239C161.627 70.4189 161.733 69.7355 162.075 69.2799C162.272 69.0141 162.538 68.8471 162.842 68.7939C163.146 68.7407 163.45 68.8015 163.731 68.9837C164.217 69.2875 164.559 69.895 164.688 70.6847C164.84 71.4897 164.734 72.1731 164.392 72.6287C164.194 72.8945 163.921 73.0615 163.625 73.1147Z" fill="white"/>
<path d="M171.198 71.5424C170.901 71.6259 170.59 71.5879 170.294 71.4361C169.785 71.1779 169.39 70.6008 169.185 69.8262C168.957 69.0441 169.002 68.3454 169.306 67.8594C169.481 67.5785 169.732 67.3886 170.028 67.3051C170.324 67.2216 170.636 67.2595 170.932 67.4114C171.441 67.6696 171.836 68.2467 172.041 69.0213C172.269 69.8034 172.223 70.502 171.919 70.988C171.745 71.269 171.494 71.4588 171.198 71.5424Z" fill="white"/>
<path d="M153.101 115.405C152.82 115.595 152.478 115.671 152.121 115.626C151.491 115.534 150.868 115.079 150.374 114.342C149.85 113.606 149.645 112.861 149.789 112.239C149.873 111.882 150.063 111.593 150.344 111.396C150.625 111.198 150.967 111.13 151.331 111.176C151.962 111.267 152.577 111.722 153.078 112.459C153.603 113.196 153.808 113.94 153.663 114.562C153.58 114.919 153.39 115.215 153.109 115.405H153.101Z" fill="white"/>
<path d="M159.597 111.669C159.316 111.859 158.974 111.935 158.617 111.889C157.987 111.798 157.364 111.342 156.87 110.606C156.346 109.869 156.141 109.125 156.285 108.502C156.369 108.146 156.559 107.857 156.84 107.66C157.121 107.462 157.463 107.394 157.827 107.439C158.458 107.53 159.073 107.986 159.575 108.723C160.099 109.459 160.304 110.203 160.159 110.826C160.076 111.183 159.886 111.479 159.605 111.669H159.597Z" fill="white"/>
<path d="M150.908 122.217C150.908 122.217 156.514 125.968 162.204 121.055" stroke="white" stroke-width="1.83198" stroke-linecap="round" stroke-linejoin="round"/>
<path d="M300.33 195.44C300.33 195.44 306.437 197.148 310.075 191.106" stroke="white" stroke-width="1.90761" stroke-linecap="round" stroke-linejoin="round"/>
<path d="M256.899 72.6182C256.632 72.6182 256.373 72.5117 256.16 72.3186C255.787 71.9791 255.587 71.4066 255.6 70.701C255.594 69.9887 255.793 69.4096 256.16 69.0701C256.373 68.8704 256.632 68.7705 256.899 68.7705C257.165 68.7705 257.425 68.877 257.638 69.0701C258.011 69.4096 258.204 69.9821 258.197 70.6877C258.197 71.4 258.004 71.9791 257.638 72.3186C257.425 72.5183 257.165 72.6182 256.899 72.6182Z" fill="white"/>
<path d="M263.677 72.4456C263.41 72.4723 263.144 72.3924 262.918 72.2126C262.518 71.9064 262.265 71.3539 262.212 70.6483C262.139 69.936 262.285 69.3435 262.625 68.9707C262.818 68.7577 263.064 68.6312 263.331 68.6046C263.597 68.578 263.863 68.6579 264.096 68.8376C264.496 69.1438 264.749 69.6963 264.802 70.402C264.876 71.1143 264.729 71.7067 264.389 72.0795C264.196 72.2925 263.95 72.419 263.684 72.4456H263.677Z" fill="white"/>
<path d="M338.183 217.666C338.183 217.666 336.783 214.384 333.99 210.842" stroke="white" stroke-width="1.90761" stroke-miterlimit="10" stroke-linecap="round"/>
<path d="M302.661 78.2627C302.661 78.2627 298.958 83.1888 293.877 86.1111" stroke="white" stroke-width="1.60597" stroke-miterlimit="10" stroke-linecap="round"/>
<path d="M38.3957 213.16C38.3957 213.16 37.1005 215.366 35.1048 215.318C33.1091 215.27 34.2892 211.53 34.3372 210.503C34.4043 209.007 34.2412 207.022 35.5941 206.59C38.8851 205.535 38.3957 213.17 38.3957 213.17V213.16Z" fill="#FF6E82"/>
<path d="M103.422 298.471C127.887 298.471 147.72 295.427 147.72 291.671C147.72 287.916 127.887 284.871 103.422 284.871C78.9562 284.871 59.123 287.916 59.123 291.671C59.123 295.427 78.9562 298.471 103.422 298.471Z" fill="#F2F2F2"/>
<path d="M139.716 278.408C139.015 277.775 138.536 276.941 138.19 276.068L133.278 263.494C132.453 261.384 131.244 259.446 129.718 257.768C129.488 257.519 129.277 257.26 129.095 256.982L122.954 247.755C120.968 244.772 117.005 243.823 113.877 245.578L108.955 248.35C104.561 250.824 104.225 257.049 108.37 259.916C111.747 262.257 115.413 265.211 118.339 268.635C123.088 274.178 122.609 282.446 126.427 286.359C129.699 289.706 129.862 288.853 139.764 284.105C142.239 282.925 145.674 280.585 141.251 279.262C140.771 279.118 140.292 278.916 139.725 278.408H139.716Z" fill="#FF6E82"/>
<path d="M92.7042 159.796C105.619 156.621 107.931 157.734 119.445 152.737C126.564 149.649 130.018 146.618 140.284 148.162C148.44 149.38 154.753 156.228 154.561 164.467C154.369 172.83 148.804 179.17 143.892 182.527C140.313 184.761 133.491 188.531 124.818 191.005C123.273 191.446 122.352 193.019 122.64 194.592C122.975 196.405 124.779 197.45 126.573 197.038C129.625 196.338 131.62 195.628 131.62 195.628C136.6 193.834 140.802 191.772 143.988 189.998C146.118 188.809 148.9 189.432 150.1 191.552C150.925 193.01 151.74 194.582 152.517 196.242C154.849 201.239 156.806 207.147 157.363 213.851C159.31 237.569 145.341 258.391 117.977 265.383C84.5295 273.938 51.9939 251.774 48.8469 218.109C46.2371 190.66 65.5992 164.908 92.7042 159.777V159.796Z" fill="#FF6E82"/>
<path d="M72.8997 220.803C72.8997 220.803 44.2308 220.583 37.8215 211.74C36.6222 210.081 35.4996 208.364 33.6383 207.51L33.6095 207.491C33.053 207.232 32.5349 206.906 32.0455 206.542C31.2108 205.918 29.2823 205.237 27.9006 206.177C25.9433 207.501 24.7056 210.34 25.0606 212.258C25.3772 214.032 26.2408 216.392 27.9294 218.454C30.779 221.945 35.135 224.515 39.798 226.424C47.0516 229.397 58.0759 231.891 65.176 232.888C72.2857 233.886 74.9146 231.373 74.9146 231.373L77.4764 230.807L72.9093 220.794L72.8997 220.803Z" fill="#FF6E82"/>
<path d="M92.5303 259.379C93.0676 262.592 91.9642 269.238 91.4749 270.552C90.4194 273.372 89.0474 277.899 83.8375 278.935C78.6276 279.971 72.2663 278.618 68.9465 275.52C65.6268 272.423 62.259 273.094 61.3092 273.641C60.3593 274.187 59.016 271.818 60.0906 269.325C61.1652 266.831 65.9338 262.784 66.9604 261.633C69.2536 259.072 70.3666 261.115 73.4369 264.184C75.1447 265.891 78.3973 266.975 77.3131 260.453C76.6031 256.166 76.2289 252.847 76.2289 252.847L92.3384 251.543L92.5303 259.36V259.379Z" fill="#FF6E82"/>
<path d="M115.595 214.128C115.183 214.234 114.741 214.186 114.329 213.965C113.619 213.591 113.072 212.786 112.794 211.692C112.486 210.589 112.563 209.621 112.995 208.949C113.244 208.556 113.599 208.297 114.012 208.182C114.425 208.067 114.866 208.124 115.279 208.345C115.989 208.719 116.535 209.525 116.814 210.618C117.121 211.721 117.044 212.69 116.612 213.361C116.363 213.754 116.008 214.013 115.595 214.128Z" fill="white"/>
<path d="M124.9 212.451C124.487 212.556 124.046 212.508 123.633 212.288C122.923 211.914 122.376 211.108 122.098 210.014C121.791 208.912 121.868 207.943 122.3 207.271C122.549 206.878 122.904 206.619 123.317 206.504C123.729 206.389 124.171 206.447 124.583 206.667C125.293 207.041 125.84 207.847 126.118 208.94C126.425 210.043 126.349 211.012 125.917 211.683C125.667 212.077 125.312 212.336 124.9 212.451Z" fill="white"/>
<path d="M106.654 222.146C106.654 222.146 111.73 228.994 120.576 225.57" stroke="white" stroke-width="2.1039" stroke-linecap="round" stroke-linejoin="round"/>
<path d="M65.3373 231.805C65.3373 231.805 56.5102 232.783 48.4219 230.347" stroke="white" stroke-width="2.1039" stroke-miterlimit="10" stroke-linecap="round"/>
<defs>
<clipPath id="clip0_1191_33892">
<rect width="8" height="10" fill="white" transform="translate(210 174)"/>
</clipPath>
</defs>
</svg>
