<svg width="246" height="134" viewBox="0 0 246 134" fill="none" xmlns="http://www.w3.org/2000/svg">
<rect width="246" height="134" fill="white"/>
<path d="M34.4062 66.324L41.4562 61.624L44.9812 66.324L38.5187 69.849L34.4062 66.324Z" fill="#FF6E83"/>
<path d="M62.0386 86.0848L61.2649 77.6471L67.0765 76.7869L67.0971 84.1482L62.0386 86.0848Z" fill="#3AC5FF"/>
<path d="M186.634 103.404L184.422 97.5137L189.582 97.9635L190.913 102.986L186.634 103.404Z" fill="#FFDAE2"/>
<path d="M207.684 84.874L215.153 85.8507L213.082 91.2521L206.881 89.8109L207.684 84.874Z" fill="#9473FF"/>
<path d="M202.282 31.4522L194.747 27.5784L197.139 22.2124L203.362 26.1444L202.282 31.4522Z" fill="#A4E33D"/>
<path d="M57.1627 35.5692L55.8728 43.9434L50.0256 43.3725L51.786 36.2247L57.1627 35.5692Z" fill="#E8E0FF"/>
<path d="M208.645 54.6033L207.355 62.9776L201.508 62.4067L203.268 55.2589L208.645 54.6033Z" fill="#FEF6CD"/>
<path d="M60.8253 106.113L55.5058 112.708L50.7354 109.279L55.8461 103.981L60.8253 106.113Z" fill="#E1FED2"/>
<path d="M122.001 7.50603C109.606 7.01414 107.703 8.4695 96.2535 6.05474C89.1739 4.56076 85.4521 2.44073 76.3582 5.7661C69.1342 8.40649 64.6502 15.8378 66.3658 23.3361C68.1077 30.9463 74.3743 35.7026 79.4945 37.845C83.1817 39.217 90.115 41.3879 98.5077 42.0302C99.9976 42.144 101.14 43.4083 101.164 44.9023C101.193 46.6219 99.7456 47.9167 98.026 47.876C95.1071 47.8089 93.1517 47.5345 93.1517 47.5345C88.2694 46.8272 84.0374 45.7275 80.8035 44.7051C78.6347 44.0201 76.2057 45.1035 75.5106 47.2683C75.0329 48.7582 74.5756 50.3416 74.1772 52.0104C72.9799 57.0147 72.295 62.7772 73.045 69.0133C75.7016 91.0571 92.3631 107.475 118.665 108.753C150.821 110.316 176.4 83.9775 172.977 52.6181C170.225 27.0416 147.722 7.12796 121.997 7.50806L122.001 7.50603Z" fill="#FF6E83"/>
<path d="M102.406 123.657L102.89 90.0819L121.041 86.9883C121.041 86.9883 117.301 114.15 114.488 126.966C113.553 131.222 109.474 130.21 103.959 129.81C100.654 129.57 98.902 128.984 100.654 126.651C101.036 126.141 102.183 124.972 102.406 123.657Z" fill="#FF6E83"/>
<path d="M150.532 123.2L147.023 89.1188L128.701 87.2812C128.701 87.2812 134.033 113.405 137.722 125.997C138.946 130.178 139.397 129.527 148.755 129.68C151.091 129.718 154.601 129.192 151.731 126.224C151.42 125.903 151.127 125.533 150.891 124.873C150.7 124.334 150.591 123.769 150.532 123.2Z" fill="#FF6E83"/>
<path d="M116.351 54.3544C116.036 54.3544 115.739 54.2345 115.489 54.0048C115.058 53.6084 114.824 52.9356 114.834 52.1145C114.826 51.279 115.058 50.6083 115.489 50.2119C115.739 49.9822 116.038 49.8623 116.351 49.8623C116.664 49.8623 116.962 49.9822 117.212 50.2119C117.643 50.6083 117.877 51.2811 117.869 52.1023C117.877 52.9377 117.643 53.6084 117.212 54.0048C116.962 54.2345 116.664 54.3544 116.351 54.3544Z" fill="white"/>
<path d="M124.952 54.3544C124.639 54.3544 124.34 54.2345 124.09 54.0048C123.659 53.6084 123.426 52.9356 123.434 52.1145C123.426 51.279 123.659 50.6083 124.09 50.2119C124.34 49.9822 124.639 49.8623 124.952 49.8623C125.265 49.8623 125.564 49.9822 125.814 50.2119C126.245 50.6083 126.479 51.2811 126.471 52.1023C126.479 52.9377 126.245 53.6084 125.814 54.0048C125.564 54.2345 125.265 54.3544 124.952 54.3544Z" fill="white"/>
<path d="M121.597 67.6723C120.093 67.6723 119.078 67.4101 119.017 67.3939C118.53 67.2638 118.239 66.7637 118.369 66.2759C118.499 65.7881 118.999 65.4994 119.485 65.6255C119.776 65.7007 126.595 67.3796 130.658 60.426C130.912 59.989 131.473 59.8426 131.91 60.0988C132.347 60.3528 132.494 60.9138 132.238 61.3509C129.746 65.6153 126.29 67.0361 123.831 67.4772C123.018 67.6235 122.259 67.6744 121.597 67.6744V67.6723Z" fill="white"/>
<path d="M72.0819 68.0607C72.0819 68.0607 65.0876 73.313 66.1852 80.228C67.2829 87.143 71.1753 89.4337 75.6227 90.3383C80.0701 91.2428 80.2287 91.8444 81.3283 91.1859C82.5032 90.4826 81.9544 87.395 79.3648 85.403C76.7752 83.4111 74.5373 83.6977 73.8808 80.6081C73.2242 77.5185 75.8422 74.8273 75.8422 74.8273L74.1999 66.5342L72.0819 68.0627V68.0607Z" fill="#FF6E83"/>
<path d="M174.814 65.4408C174.814 65.4408 181.671 70.872 180.396 77.7565C179.12 84.641 175.17 86.8302 170.7 87.6208C166.231 88.4115 166.058 89.0071 164.975 88.3201C163.818 87.5863 164.446 84.515 167.086 82.5881C169.727 80.6632 171.957 81.0087 172.692 77.9354C173.428 74.8641 170.881 72.1058 170.881 72.1058L172.737 63.8574L174.814 65.4388V65.4408Z" fill="#FF6E83"/>
<path d="M103.019 48.8005L118.737 52.6686C119.375 52.8251 119.737 53.5061 119.503 54.1199C118.843 55.8578 116.779 58.8234 110.458 58.173C104.346 57.5449 102.216 53.0752 101.482 50.3799C101.226 49.4388 102.071 48.5688 103.019 48.8005Z" fill="#1B210D"/>
<path d="M139.128 48.8005L123.41 52.6686C122.772 52.8251 122.41 53.5061 122.644 54.1199C123.304 55.8578 125.367 58.8234 131.689 58.173C137.801 57.5449 139.931 53.0752 140.665 50.3799C140.921 49.4388 140.075 48.5688 139.128 48.8005Z" fill="#1B210D"/>
<path d="M117.547 54.7386C117.547 54.7386 120.809 51.3848 123.952 54.7386L123.714 55.8139C123.714 55.8139 121.234 52.9398 118.02 55.8139L117.547 54.7386Z" fill="#1B210D"/>
<path d="M149.563 43.3525C149.643 43.0434 150.304 43.0323 150.385 43.3409C150.906 45.3039 151.979 48.1112 154.007 49.1651C154.278 49.306 154.386 50.1484 154.141 50.3298C153.094 51.1023 151.672 52.6031 150.727 55.4036C150.62 55.7217 149.533 55.6843 149.449 55.3593C148.928 53.3463 147.877 50.9924 145.758 49.9529C145.503 49.8279 145.479 49.274 145.723 49.1289C146.849 48.4594 148.647 46.8787 149.563 43.3525Z" fill="white"/>
</svg>
