<svg width="78" height="78" viewBox="0 0 78 78" fill="none" xmlns="http://www.w3.org/2000/svg">
<path fill-rule="evenodd" clip-rule="evenodd" d="M41.9949 12.0896C39.6652 11.8741 37.986 11.8117 36.552 11.7584C33.6214 11.6494 31.7145 11.5786 27.3699 10.3169C26.6678 10.1413 26.0255 9.95802 25.4147 9.78372L25.4147 9.78371C22.5714 8.9723 20.4117 8.35594 16.0776 9.62549C14.0341 10.1952 12.2712 11.496 11.124 13.2806C9.97677 15.0651 9.5253 17.2089 9.85538 19.3046C10.2751 21.2042 11.1355 22.9785 12.3673 24.4843C13.599 25.9902 15.1676 27.1853 16.9463 27.9732C20.3396 29.4457 23.9181 30.4477 27.5826 30.9514C27.9822 31.0229 28.3452 31.2294 28.6108 31.5364C28.8649 31.853 29.0025 32.2473 29.0008 32.6532C28.9846 32.8812 28.9244 33.104 28.8236 33.3091C28.7283 33.5191 28.582 33.7019 28.3981 33.8409C28.2315 33.9965 28.0313 34.1118 27.8131 34.1778C27.5857 34.2307 27.3492 34.2307 27.1217 34.1778C26.1935 34.1268 25.2696 34.0142 24.3563 33.8409C21.9963 33.3663 19.6783 32.7023 17.4249 31.8555C16.8437 31.6191 16.193 31.6204 15.6127 31.8591C15.0325 32.0979 14.5692 32.5549 14.3226 33.1319C12.7332 37.0492 12.0135 41.265 12.2131 45.4878C13.0463 58.1273 22.0163 68.0014 37.0313 69.5437C40.9092 70.0573 44.8507 69.7921 48.6249 68.7637C55.2463 66.9101 60.9904 62.7574 64.8264 57.0509C68.6623 51.3444 70.339 44.4577 69.5556 37.6265C68.7721 30.7953 65.5798 24.4669 60.5515 19.7771C55.5232 15.0872 48.9881 12.3428 42.119 12.0364L41.9949 12.0896ZM46.3208 29.5159C46.1975 29.5135 46.0762 29.4832 45.9663 29.4273C45.8557 29.3895 45.7576 29.322 45.6827 29.2323C45.4997 29.0129 45.3612 28.76 45.2749 28.4877C45.1932 28.2241 45.1631 27.9472 45.1863 27.6723C45.1534 27.3914 45.1836 27.1067 45.2749 26.8391C45.3574 26.5705 45.4964 26.3226 45.6827 26.1123C45.7511 26.012 45.8508 25.9372 45.9663 25.8995C46.0756 25.8421 46.1973 25.8121 46.3208 25.8121C46.4444 25.8121 46.566 25.8421 46.6754 25.8995C46.7872 25.9438 46.8852 26.0173 46.959 26.1123C47.3164 26.5435 47.4942 27.0958 47.4554 27.6545C47.4812 27.9373 47.4506 28.2223 47.3654 28.4932C47.2802 28.764 47.1421 29.0152 46.959 29.2323C46.7868 29.3996 46.5605 29.5002 46.3208 29.5159ZM52.4006 29.3557C52.4971 29.4373 52.6131 29.4923 52.7374 29.5153V29.4443C52.9815 29.4255 53.2123 29.3257 53.3933 29.1607C53.7515 28.7168 53.9231 28.1511 53.8719 27.583C53.8983 27.307 53.8696 27.0286 53.7874 26.7638C53.7053 26.499 53.5713 26.2532 53.3933 26.0407C53.3096 25.9486 53.2067 25.876 53.0919 25.828C52.982 25.772 52.8607 25.7417 52.7374 25.7393C52.6142 25.7434 52.4934 25.7736 52.3828 25.828C52.2735 25.8767 52.1766 25.9494 52.0992 26.0407C51.7423 26.4792 51.5649 27.0366 51.6028 27.6007C51.5701 28.1641 51.7469 28.7198 52.0992 29.1607C52.1807 29.2511 52.2847 29.3184 52.4006 29.3557Z" fill="#FF6E83"/>
<path d="M36.9774 58.801L24.5684 65.6969C28.3875 67.8392 32.6163 69.1501 36.9774 69.5437C40.8554 70.0574 44.7969 69.7922 48.5711 68.7637C52.3435 67.7252 55.8657 65.9312 58.924 63.4907C61.9824 61.0502 64.5133 58.014 66.3632 54.5662C68.2131 51.1183 69.3435 47.3307 69.6858 43.433C70.0281 39.5352 69.5753 35.6085 68.3547 31.891C67.6759 29.8443 66.766 27.8816 65.6425 26.041L61.9375 33.1319C56.3206 43.9551 47.6391 52.8833 36.9774 58.801Z" fill="#FF5B70"/>
</svg>
