<svg width="63" height="76" viewBox="0 0 63 76" fill="none" xmlns="http://www.w3.org/2000/svg">
<rect width="63" height="76" rx="8" fill="#FF6E83"/>
<path fill-rule="evenodd" clip-rule="evenodd" d="M33.4198 12.7507C31.9264 12.6125 30.85 12.5725 29.9308 12.5384C28.0522 12.4685 26.8298 12.4231 24.0448 11.6143C23.5947 11.5018 23.183 11.3843 22.7915 11.2726C20.9689 10.7524 19.5844 10.3573 16.8062 11.1711C15.4962 11.5364 14.3661 12.3702 13.6308 13.5141C12.8954 14.6581 12.606 16.0323 12.8175 17.3757C13.0866 18.5934 13.6382 19.7308 14.4277 20.696C15.2173 21.6613 16.2228 22.4274 17.363 22.9325C19.5382 23.8764 21.8321 24.5187 24.1812 24.8416C24.4373 24.8874 24.67 25.0198 24.8403 25.2166C25.0031 25.4196 25.0914 25.6723 25.0903 25.9325C25.0799 26.0787 25.0413 26.2214 24.9766 26.353C24.9156 26.4876 24.8218 26.6047 24.7039 26.6939C24.5971 26.7936 24.4688 26.8675 24.3289 26.9098C24.1831 26.9437 24.0315 26.9437 23.8857 26.9098C23.2907 26.8771 22.6985 26.8049 22.113 26.6939C20.6002 26.3896 19.1143 25.964 17.6698 25.4211C17.2973 25.2696 16.8801 25.2705 16.5082 25.4235C16.1362 25.5765 15.8392 25.8695 15.6812 26.2393C14.6623 28.7504 14.2009 31.4529 14.3289 34.1598C14.863 42.262 20.613 48.5916 30.238 49.5802C32.7239 49.9095 35.2505 49.7395 37.6698 49.0802C41.9143 47.892 45.5964 45.2301 48.0554 41.5721C50.5143 37.914 51.5891 33.4994 51.0869 29.1205C50.5847 24.7415 48.5383 20.6849 45.3151 17.6786C42.0918 14.6722 37.9026 12.913 33.4994 12.7166L33.4198 12.7507ZM36.1929 23.9212C36.1139 23.9197 36.0361 23.9002 35.9657 23.8643C35.8948 23.8401 35.8319 23.7969 35.7838 23.7393C35.6665 23.5987 35.5778 23.4366 35.5225 23.2621C35.4701 23.0931 35.4508 22.9156 35.4657 22.7393C35.4446 22.5593 35.464 22.3768 35.5225 22.2052C35.5753 22.0331 35.6645 21.8742 35.7838 21.7393C35.8277 21.675 35.8917 21.6271 35.9657 21.603C36.0358 21.5661 36.1138 21.5469 36.1929 21.5469C36.2721 21.5469 36.3501 21.5661 36.4202 21.603C36.4919 21.6314 36.5547 21.6785 36.602 21.7393C36.8311 22.0158 36.9451 22.3698 36.9202 22.728C36.9367 22.9092 36.9171 23.0919 36.8625 23.2656C36.8079 23.4392 36.7194 23.6002 36.602 23.7393C36.4916 23.8466 36.3466 23.9111 36.1929 23.9212ZM40.0902 23.8188C40.152 23.8711 40.2264 23.9063 40.3061 23.9211V23.8756C40.4626 23.8635 40.6105 23.7995 40.7265 23.6938C40.9561 23.4092 41.0662 23.0466 41.0333 22.6824C41.0503 22.5055 41.0318 22.327 40.9792 22.1573C40.9265 21.9876 40.8406 21.83 40.7265 21.6938C40.6729 21.6348 40.6069 21.5882 40.5333 21.5574C40.4629 21.5215 40.3851 21.5021 40.3061 21.5006C40.2271 21.5032 40.1497 21.5226 40.0788 21.5574C40.0087 21.5887 39.9466 21.6353 39.897 21.6938C39.6682 21.9748 39.5545 22.3322 39.5788 22.6938C39.5578 23.055 39.6711 23.4111 39.897 23.6938C39.9492 23.7517 40.0159 23.7949 40.0902 23.8188Z" fill="white"/>
<path d="M30.2045 42.6934L22.25 47.1138C24.6982 48.487 27.4089 49.3274 30.2045 49.5797C32.6904 49.909 35.217 49.739 37.6364 49.0797C40.0546 48.414 42.3124 47.264 44.2729 45.6996C46.2334 44.1352 47.8557 42.1889 49.0416 39.9787C50.2274 37.7686 50.952 35.3406 51.1714 32.842C51.3909 30.3435 51.1006 27.8264 50.3182 25.4434C49.8831 24.1313 49.2998 22.8732 48.5795 21.6934L46.2045 26.2388C42.604 33.1767 37.0389 38.8999 30.2045 42.6934Z" fill="white"/>
<path opacity="0.08" fill-rule="evenodd" clip-rule="evenodd" d="M0.300262 5.82128C1.05335 3.15453 3.15453 1.05335 5.82128 0.300262L0.300262 5.82128ZM0 15.1215V10.8789L10.8789 0H15.1215L0 15.1215ZM0 24.1215V19.8789L19.8789 0H24.1215L0 24.1215ZM0 33.1215V28.8789L28.8789 0H33.1215L0 33.1215ZM0 42.1215V37.8789L37.8789 0H42.1215L0 42.1215ZM0 51.1215V46.8789L46.8789 0H51.1215L0 51.1215ZM0 60.1215V55.8789L55.8358 0.0431332C56.9923 0.163195 58.0757 0.529658 59.0324 1.08912L0 60.1215ZM0.0686661 69.0529C0.023371 68.7083 0 68.3569 0 68V64.8789L61.5182 3.3607C62.1369 4.2284 62.5866 5.22486 62.8195 6.30209L0.0686661 69.0529ZM3.5037 74.6178C2.67033 74.0505 1.94969 73.3299 1.38234 72.4966L63 10.8789V15.1215L3.5037 74.6178ZM11.1215 76H8C7.64324 76 7.29193 75.9766 6.94753 75.9314L63 19.8789V24.1215L11.1215 76ZM20.1215 76H15.8789L63 28.8789V33.1215L20.1215 76ZM29.1215 76H24.8789L63 37.8789V42.1215L29.1215 76ZM38.1215 76H33.8789L63 46.8789V51.1215L38.1215 76ZM47.1215 76H42.8789L63 55.8789V60.1215L47.1215 76ZM56.2129 75.9087C55.8174 75.9688 55.4123 76 55 76H51.8789L63 64.8789V68C63 68.4123 62.9688 68.8174 62.9086 69.2129L56.2129 75.9087Z" fill="white"/>
<path d="M26.5774 60.02V58.7H25.3174V60.02C25.3074 61.75 24.5574 63.45 22.9974 64.1L23.7574 65.14C24.8374 64.65 25.5674 63.68 25.9674 62.48C26.3674 63.58 27.0774 64.46 28.0974 64.92L28.8374 63.92C27.3174 63.29 26.5774 61.66 26.5774 60.02ZM29.2974 66.92H30.5574V58H29.2974V66.92ZM38.82 58H37.56V63.18H38.82V61.12H40.02V60.08H38.82V58ZM31.64 62.2L32.16 63.16C34.82 62.49 36.31 60.88 36.32 58.5H32.1V59.5H34.97C34.78 60.69 33.66 61.7 31.64 62.2ZM32.84 64.52H37.56V66.9H38.82V63.54H32.84V64.52Z" fill="white"/>
</svg>
