<svg width="375" height="326" viewBox="0 0 375 326" fill="none" xmlns="http://www.w3.org/2000/svg">
<path d="M196.301 273.706C260.577 273.706 312.683 267.736 312.683 260.372C312.683 253.008 260.577 247.038 196.301 247.038C132.026 247.038 79.9199 253.008 79.9199 260.372C79.9199 267.736 132.026 273.706 196.301 273.706Z" fill="#F4F4F3"/>
<path d="M199.315 77.9196C177.836 75.8885 174.393 78.2344 154.732 72.9536C142.546 69.6835 136.31 65.6518 120.204 70.5569C107.408 74.4566 98.8775 86.9377 101.183 100.13C103.478 113.514 113.918 122.37 122.601 126.534C133.025 131.047 144.016 134.115 155.271 135.653C156.516 135.833 157.649 136.469 158.452 137.437C159.255 138.405 159.67 139.637 159.617 140.894C159.579 141.596 159.397 142.284 159.084 142.915C158.771 143.545 158.332 144.105 157.795 144.56C157.258 145.016 156.634 145.357 155.961 145.563C155.287 145.768 154.579 145.835 153.879 145.758C151.053 145.572 148.24 145.233 145.45 144.742C138.239 143.286 131.158 141.249 124.276 138.649C122.498 137.938 120.512 137.953 118.746 138.692C116.979 139.431 115.574 140.834 114.832 142.6C113.816 145.138 112.922 147.85 112.069 150.724C109.127 160.248 107.913 170.223 108.485 180.175C111.003 218.765 138.392 248.815 183.96 253.538C239.662 259.306 286.601 215.963 283.625 161.194C281.198 116.429 244.039 79.6968 199.315 77.9196Z" fill="#FF6E83"/>
<path d="M130.657 164.221C130.657 164.221 88.1256 155.822 91.8324 135.989L86.582 131.551C86.582 131.551 74.9134 120.085 71.7449 122.36C68.5764 124.635 66.0274 130.586 70.3942 140.457C72.862 146.053 79.9403 155.548 85.343 159.753C93.7517 166.242 100.881 171.482 109.807 175.321C118.734 179.16 129.479 178.814 129.479 178.814L133.033 178.997L130.657 164.221Z" fill="#FF6E83"/>
<path d="M89.8808 233.664L147.614 224.768L158.186 255.01C158.186 255.01 110.506 256.463 87.7075 255.356C80.1417 254.98 77.7958 248.064 79.7862 238.092C80.3346 235.319 83.5234 229.043 85.8795 231.419C86.6818 232.232 87.5653 233.664 89.8808 233.664Z" fill="#FF6E83"/>
<path d="M297.102 231.429L246.589 224.757L228.797 252.755C228.797 252.755 276.527 254.208 299.276 253.101C306.841 252.725 309.187 245.809 307.207 235.836C306.648 233.064 303.46 226.788 301.114 229.164C300.301 230.007 299.418 231.429 297.102 231.429Z" fill="#FF6E83"/>
<path d="M262.717 147.881C262.717 147.881 296.138 120.269 283.434 104.589L285.942 98.1807C285.942 98.1807 290.766 82.5414 294.625 83.039C297.195 83.3741 300.312 85.263 302.353 89.6705C303.542 92.41 304.23 95.3405 304.385 98.3229C304.872 104.416 303.166 116.136 300.393 122.371C296.077 132.08 287.618 144.855 281.586 152.492C275.553 160.129 270.628 160.129 270.628 160.129L267.581 161.977L262.717 147.881Z" fill="#FF6E83"/>
<path d="M134.87 233.004L159.243 232.222C160.104 232.282 160.963 232.087 161.713 231.66C162.463 231.234 163.07 230.596 163.458 229.825L182.489 192.25C182.821 191.601 182.986 190.88 182.969 190.151C182.952 189.422 182.755 188.709 182.394 188.076C182.034 187.442 181.522 186.908 180.903 186.522C180.285 186.135 179.581 185.909 178.854 185.862L154.481 186.634C153.619 186.577 152.761 186.775 152.011 187.203C151.262 187.631 150.655 188.27 150.266 189.041L131.235 226.616C130.906 227.266 130.743 227.986 130.761 228.714C130.779 229.442 130.977 230.154 131.337 230.787C131.697 231.419 132.208 231.953 132.825 232.34C133.441 232.727 134.144 232.955 134.87 233.004Z" fill="#130E4E"/>
<path d="M203.867 231.429L178.874 232.11C178.013 232.133 177.165 231.902 176.434 231.447C175.702 230.993 175.121 230.333 174.761 229.55L157.142 191.285C156.837 190.624 156.701 189.897 156.747 189.171C156.792 188.444 157.017 187.74 157.402 187.122C157.786 186.504 158.318 185.991 158.95 185.629C159.582 185.268 160.293 185.068 161.021 185.049L186.014 184.369C186.866 184.353 187.705 184.587 188.427 185.042C189.148 185.496 189.722 186.152 190.076 186.928L207.695 225.184C207.998 225.842 208.134 226.564 208.091 227.287C208.048 228.01 207.827 228.711 207.449 229.329C207.07 229.946 206.545 230.461 205.921 230.827C205.296 231.194 204.59 231.4 203.867 231.429Z" fill="#F0DFCB"/>
<path d="M185.09 231.551L209.463 230.779C210.324 230.833 211.182 230.634 211.931 230.207C212.679 229.779 213.287 229.141 213.678 228.373L232.709 190.798C233.036 190.148 233.197 189.427 233.177 188.7C233.158 187.973 232.959 187.262 232.598 186.63C232.237 185.999 231.725 185.467 231.108 185.081C230.492 184.695 229.789 184.468 229.063 184.42L204.69 185.192C203.829 185.138 202.972 185.337 202.223 185.765C201.474 186.192 200.866 186.83 200.476 187.599L181.444 225.174C181.115 225.823 180.952 226.544 180.97 227.272C180.988 228.001 181.187 228.713 181.549 229.345C181.91 229.977 182.423 230.51 183.041 230.895C183.659 231.28 184.363 231.506 185.09 231.551Z" fill="#130E4E"/>
<path d="M109.93 279.82L134.303 279.048C135.162 279.105 136.018 278.908 136.766 278.482C137.513 278.056 138.119 277.419 138.507 276.651L157.549 239.076C157.878 238.426 158.04 237.704 158.022 236.976C158.004 236.247 157.805 235.535 157.444 234.902C157.083 234.269 156.57 233.735 155.952 233.349C155.334 232.963 154.63 232.736 153.903 232.688L129.53 233.46C128.669 233.405 127.811 233.604 127.062 234.031C126.312 234.459 125.705 235.098 125.315 235.867L106.284 273.442C105.955 274.092 105.792 274.813 105.81 275.541C105.828 276.269 106.027 276.981 106.388 277.614C106.75 278.246 107.263 278.778 107.881 279.164C108.499 279.549 109.203 279.774 109.93 279.82Z" fill="#130E4E"/>
<path d="M252.289 231.307L227.296 231.988C226.444 232.001 225.606 231.766 224.885 231.312C224.164 230.857 223.59 230.203 223.234 229.429L205.614 191.163C205.31 190.502 205.174 189.775 205.22 189.049C205.265 188.322 205.49 187.618 205.875 187C206.259 186.382 206.791 185.869 207.423 185.508C208.054 185.146 208.766 184.946 209.494 184.927L234.486 184.247C235.348 184.221 236.197 184.451 236.929 184.906C237.661 185.361 238.242 186.022 238.599 186.806L256.219 225.062C256.524 225.727 256.659 226.459 256.611 227.19C256.563 227.921 256.334 228.628 255.944 229.248C255.553 229.868 255.015 230.381 254.377 230.74C253.739 231.1 253.021 231.295 252.289 231.307Z" fill="#F0DFCB"/>
<path d="M178.01 279.159L153.028 279.84C152.165 279.865 151.315 279.636 150.581 279.181C149.848 278.725 149.265 278.065 148.905 277.281L131.285 239.025C130.981 238.363 130.846 237.636 130.891 236.91C130.937 236.183 131.162 235.478 131.546 234.86C131.931 234.241 132.462 233.727 133.094 233.364C133.725 233.001 134.437 232.8 135.165 232.78L160.157 232.099C161.019 232.077 161.869 232.307 162.602 232.762C163.334 233.217 163.918 233.876 164.28 234.658L181.89 272.924C182.194 273.585 182.33 274.312 182.285 275.038C182.239 275.765 182.014 276.468 181.629 277.087C181.245 277.705 180.713 278.218 180.081 278.579C179.45 278.941 178.738 279.14 178.01 279.159Z" fill="#F0DFCB"/>
<path d="M158.045 279.424L182.418 278.653C183.279 278.709 184.138 278.511 184.888 278.083C185.637 277.655 186.244 277.016 186.633 276.246L205.664 238.671C205.993 238.022 206.156 237.301 206.139 236.574C206.121 235.847 205.923 235.135 205.563 234.503C205.202 233.871 204.691 233.338 204.074 232.953C203.457 232.567 202.754 232.34 202.028 232.293L177.655 233.065C176.794 233.008 175.935 233.206 175.186 233.634C174.436 234.062 173.83 234.701 173.441 235.472L154.409 273.047C154.08 273.696 153.917 274.416 153.935 275.143C153.953 275.87 154.15 276.582 154.511 277.214C154.871 277.846 155.383 278.379 155.999 278.765C156.616 279.15 157.319 279.377 158.045 279.424Z" fill="#130E4E"/>
<path d="M224.655 277.9L199.662 278.581C198.8 278.604 197.95 278.375 197.217 277.92C196.484 277.465 195.901 276.805 195.539 276.021L177.93 237.766C177.626 237.104 177.49 236.377 177.536 235.65C177.582 234.923 177.807 234.219 178.191 233.6C178.575 232.982 179.107 232.468 179.738 232.105C180.37 231.742 181.081 231.541 181.809 231.52L206.792 230.84C207.654 230.814 208.506 231.042 209.239 231.498C209.973 231.953 210.555 232.614 210.915 233.399L228.534 271.655C228.838 272.316 228.974 273.043 228.928 273.77C228.883 274.497 228.658 275.201 228.273 275.82C227.889 276.439 227.357 276.953 226.726 277.316C226.095 277.679 225.383 277.879 224.655 277.9Z" fill="#F0DFCB"/>
<path d="M205.279 278.733L229.652 277.951C230.511 278.011 231.368 277.815 232.116 277.389C232.864 276.962 233.47 276.324 233.856 275.555L252.887 237.98C253.219 237.33 253.384 236.609 253.367 235.88C253.351 235.152 253.153 234.438 252.793 233.805C252.432 233.172 251.92 232.638 251.302 232.251C250.684 231.865 249.979 231.638 249.252 231.592L224.879 232.364C224.018 232.307 223.159 232.505 222.409 232.933C221.66 233.361 221.053 234 220.664 234.77L201.633 272.346C201.304 272.996 201.141 273.718 201.16 274.446C201.178 275.174 201.377 275.887 201.738 276.52C202.099 277.153 202.612 277.686 203.229 278.073C203.847 278.459 204.551 278.686 205.279 278.733Z" fill="#130E4E"/>
<path d="M274.559 278.144L249.567 278.824C248.705 278.845 247.856 278.613 247.125 278.156C246.394 277.7 245.813 277.039 245.454 276.255L227.834 238C227.53 237.338 227.395 236.611 227.44 235.884C227.486 235.157 227.711 234.453 228.095 233.834C228.479 233.215 229.011 232.702 229.642 232.339C230.274 231.976 230.985 231.775 231.713 231.754L256.706 231.074C257.566 231.053 258.414 231.284 259.145 231.739C259.875 232.194 260.457 232.852 260.819 233.633L278.439 271.898C278.743 272.56 278.878 273.287 278.832 274.014C278.787 274.741 278.562 275.445 278.178 276.064C277.793 276.683 277.262 277.196 276.63 277.559C275.999 277.922 275.287 278.123 274.559 278.144Z" fill="#F0DFCB"/>
<path d="M298.427 51.1947L277.969 47.7382C274.081 47.0813 270.397 49.7005 269.74 53.5883L262.856 94.3333C262.199 98.2211 264.818 101.905 268.706 102.562L289.164 106.019C293.052 106.676 296.736 104.056 297.393 100.169L304.277 59.4236C304.934 55.5358 302.315 51.8516 298.427 51.1947Z" fill="#F0DFCB"/>
<path d="M81.6256 113.268L97.5647 127.726C98.1801 128.284 98.6795 128.958 99.0345 129.709C99.3894 130.461 99.5929 131.274 99.6334 132.104C99.6738 132.934 99.5504 133.764 99.2702 134.546C98.99 135.328 98.5584 136.047 98.0002 136.663L69.1529 168.466C68.5947 169.081 67.9207 169.581 67.1695 169.936C66.4183 170.291 65.6045 170.494 64.7746 170.535C63.9447 170.575 63.115 170.452 62.3329 170.171C61.5507 169.891 60.8314 169.46 60.216 168.901L43.6676 153.891C42.4247 152.764 41.6806 151.189 41.5989 149.513C41.5172 147.837 42.1047 146.197 43.232 144.954L71.5063 113.783C72.7821 112.376 74.5631 111.533 76.4596 111.436C78.3561 111.34 80.2136 111.998 81.6256 113.268Z" fill="#130E4E"/>
<path d="M92.5117 143.128C92.5117 143.128 91.3336 139.158 88.6628 138.802C85.9919 138.447 86.6317 144.956 86.4082 146.683C86.1137 149.191 85.3927 152.471 87.0887 153.487C91.2118 155.965 92.5117 143.128 92.5117 143.128Z" fill="#FF6E83"/>
<path d="M285.973 109.625C285.973 109.625 289.02 111.372 291.295 110.001C293.569 108.63 289.741 104.923 289.01 103.786C287.943 102.059 286.816 99.6018 284.948 99.9877C280.347 100.922 285.973 109.625 285.973 109.625Z" fill="#FF6E83"/>
<path d="M221.455 135.501C220.906 135.615 220.336 135.513 219.86 135.217C218.942 134.449 218.309 133.395 218.06 132.224C217.811 131.053 217.963 129.833 218.489 128.758C218.803 128.296 219.285 127.973 219.832 127.857C220.379 127.742 220.95 127.843 221.424 128.139C221.916 128.483 222.33 128.926 222.64 129.441C222.95 129.955 223.148 130.529 223.222 131.124C223.395 131.701 223.446 132.308 223.372 132.906C223.299 133.504 223.102 134.08 222.795 134.598C222.478 135.056 221.999 135.379 221.455 135.501Z" fill="white"/>
<path d="M236.101 132.404C235.552 132.517 234.982 132.415 234.506 132.119C234.013 131.776 233.598 131.333 233.289 130.818C232.979 130.304 232.781 129.73 232.709 129.134C232.536 128.557 232.484 127.95 232.558 127.352C232.631 126.754 232.828 126.178 233.135 125.66C233.448 125.196 233.929 124.871 234.477 124.755C235.025 124.64 235.596 124.742 236.07 125.041C236.988 125.809 237.622 126.863 237.87 128.034C238.119 129.205 237.968 130.425 237.441 131.5C237.123 131.959 236.645 132.281 236.101 132.404Z" fill="white"/>
<path d="M210.547 147.963C210.547 147.963 219.372 158.677 233.488 152.381" stroke="white" stroke-width="3.04663" stroke-linecap="round" stroke-linejoin="round"/>
<path d="M280.457 69.4307L274.953 79.6572L290.288 70.6087L278.487 89.1018L291.08 84.3795" stroke="#FF6E83" stroke-width="3.04663" stroke-linecap="round" stroke-linejoin="round"/>
<path d="M96.1875 169.999C96.1875 169.999 107.866 177.788 121.211 178.347" stroke="white" stroke-width="3.04663" stroke-miterlimit="10" stroke-linecap="round"/>
<path d="M284.603 154.736C282.711 144.997 279.849 135.471 276.062 126.301" stroke="white" stroke-width="3.04663" stroke-miterlimit="10" stroke-linecap="round"/>
<path d="M282.986 64.9722L283.606 63.8145" stroke="#FF6E83" stroke-width="3.04663" stroke-linecap="round" stroke-linejoin="round"/>
</svg>
