<svg width="78" height="78" viewBox="0 0 78 78" fill="none" xmlns="http://www.w3.org/2000/svg">
<path fill-rule="evenodd" clip-rule="evenodd" d="M41.465 14.9084C55.6114 6.91336 74.8632 19.2693 73.5691 37.422C73.4627 76.2802 3.47546 75.6774 4.52137 36.3938C4.09592 18.6665 22.8868 7.05517 36.8027 14.9084C37.5281 15.3159 38.3462 15.5296 39.1782 15.5288C39.9803 15.5162 40.7665 15.3029 41.465 14.9084ZM51.3572 35.827C51.481 36.039 51.5595 36.2744 51.5876 36.5183C51.6507 36.9448 51.5561 37.3797 51.3217 37.7415C51.0806 38.0955 50.7124 38.3431 50.2935 38.4329C42.9096 40.3828 35.146 40.3828 27.7622 38.4329C27.3433 38.3431 26.9751 38.0955 26.734 37.7415C26.4995 37.3797 26.405 36.9448 26.4681 36.5183C26.5016 36.2756 26.5797 36.0412 26.6985 35.827C26.8203 35.6134 26.9903 35.4313 27.1949 35.2951C27.3973 35.1548 27.6267 35.0582 27.8685 35.0115C28.1088 34.9676 28.3551 34.9676 28.5953 35.0115C35.4305 36.8376 42.6252 36.8376 49.4603 35.0115C49.7006 34.9676 49.9469 34.9676 50.1872 35.0115C50.429 35.0582 50.6584 35.1548 50.8608 35.2951C51.0654 35.4313 51.2354 35.6134 51.3572 35.827ZM35.8806 29.4633C35.7572 29.461 35.636 29.4307 35.526 29.3747C35.4154 29.3369 35.3173 29.2694 35.2424 29.1797C35.0607 28.9653 34.9233 28.7171 34.8381 28.4493C34.7529 28.1816 34.7216 27.8996 34.746 27.6197C34.7186 27.3396 34.7485 27.0568 34.8338 26.7886C34.9191 26.5204 35.0581 26.2724 35.2424 26.0597C35.3162 25.9647 35.4142 25.8912 35.526 25.8469C35.636 25.7909 35.7572 25.7606 35.8806 25.7583C36.0037 25.7624 36.1246 25.7926 36.2351 25.8469C36.347 25.8912 36.4449 25.9647 36.5188 26.0597C36.7043 26.268 36.8443 26.5128 36.9298 26.7784C37.0153 27.044 37.0443 27.3245 37.0151 27.6019C37.0393 27.8828 37.0092 28.1656 36.9265 28.4351C36.8331 28.7043 36.6953 28.956 36.5188 29.1797C36.4439 29.2694 36.3457 29.3369 36.2351 29.3747C36.1246 29.429 36.0037 29.4592 35.8806 29.4633ZM41.9608 29.3747C42.0713 29.429 42.1922 29.4592 42.3153 29.4633C42.4632 29.4483 42.6042 29.3931 42.723 29.3038C42.8076 29.2788 42.8861 29.2365 42.9535 29.1797C43.1365 28.9626 43.2746 28.7114 43.3599 28.4406C43.4451 28.1697 43.4756 27.8847 43.4498 27.6019C43.4769 27.3246 43.4468 27.0446 43.3615 26.7794C43.2761 26.5141 43.1372 26.2692 42.9535 26.0597C42.8796 25.9647 42.7817 25.8912 42.6698 25.8469C42.5599 25.7909 42.4387 25.7606 42.3153 25.7583C42.1922 25.7624 42.0713 25.7926 41.9608 25.8469C41.8489 25.8912 41.751 25.9647 41.6771 26.0597C41.4972 26.2745 41.3589 26.5209 41.2694 26.7865C41.1867 27.056 41.1566 27.3388 41.1808 27.6197C41.1576 27.8947 41.1877 28.1715 41.2694 28.4351C41.3628 28.7043 41.5006 28.956 41.6771 29.1797C41.752 29.2694 41.8501 29.3369 41.9608 29.3747Z" fill="#F9D63F"/>
<path d="M23.2236 60.7328L18.9336 61.2114C39.1781 72.486 73.4981 64.6328 73.569 37.4214C74.0163 31.5542 72.2024 25.7382 68.4991 21.1655L65.8754 27.7246C62.3545 36.5295 56.5434 44.2327 49.0441 50.0364C41.5448 55.8401 32.6301 59.5331 23.2236 60.7328Z" fill="#F7CC31"/>
</svg>
