<svg width="24" height="24" viewBox="0 0 24 24" fill="none" xmlns="http://www.w3.org/2000/svg">
<path d="M8.76459 6.53472L10.6932 2.77948C10.8248 2.52149 11.0217 2.30177 11.2646 2.1418C11.5434 2.06014 11.8313 2.01255 12.1217 2.0001C12.2652 1.99269 12.4086 2.01396 12.5436 2.06264C12.6786 2.11133 12.8023 2.18644 12.9074 2.28351C13.1503 2.44348 13.3472 2.66319 13.4789 2.92119L15.2646 6.74728C15.4105 6.95331 15.5781 7.14332 15.7646 7.31411C15.9675 7.47948 16.217 7.57848 16.4789 7.59752L20.6217 8.30605C20.9116 8.34981 21.1836 8.47244 21.4074 8.66032C21.6158 8.85088 21.7646 9.09682 21.836 9.36886C21.9074 9.64785 21.9074 9.9401 21.836 10.2191C21.7819 10.498 21.6301 10.749 21.4074 10.9276L18.336 13.7618C18.1161 13.9121 17.9627 14.1403 17.9074 14.3995C17.8135 14.6234 17.7886 14.87 17.836 15.108L18.4789 19.2883C18.5373 19.5796 18.4865 19.8819 18.336 20.1386C18.2271 20.4112 18.0247 20.637 17.7646 20.7763C17.559 20.9911 17.2772 21.1181 16.9789 21.1305C16.6803 21.1275 16.3866 21.0546 16.1217 20.918L12.4074 18.8632C12.1936 18.7286 11.9464 18.6551 11.6932 18.6507C11.4487 18.6571 11.2071 18.705 10.9789 18.7924L7.19316 20.8471C7.09792 20.9575 6.97552 21.0416 6.83786 21.0913C6.7002 21.1409 6.55193 21.1544 6.40745 21.1305C6.12376 21.1118 5.85127 21.0135 5.62173 20.8471C5.37823 20.6747 5.20174 20.4246 5.12173 20.1386C5.02728 19.8654 5.00274 19.5732 5.0503 19.2883L5.83602 14.9663C5.90946 14.7116 5.90946 14.4416 5.83602 14.1869C5.76066 13.953 5.63927 13.7362 5.47888 13.5492L2.5503 10.6442C2.33983 10.4271 2.19185 10.1579 2.12173 9.86483C1.99216 9.60009 1.96669 9.29695 2.0503 9.01459C2.14928 8.73789 2.32208 8.49301 2.5503 8.30605C2.7841 8.11211 3.06929 7.98912 3.37173 7.95179L7.58602 7.38496C7.84791 7.36592 8.09743 7.26692 8.3003 7.10154C8.50608 6.96005 8.66709 6.76348 8.76459 6.53472Z" fill="#1B210D"/>
<path opacity="0.05" d="M10.9795 18.7927C11.2077 18.7053 11.4493 18.6574 11.6938 18.6509C11.9471 18.6554 12.1942 18.7289 12.4081 18.8635L16.1224 20.9183C16.3873 21.0549 16.6809 21.1278 16.9795 21.1308C17.2779 21.1184 17.5596 20.9913 17.7652 20.7765C18.0254 20.6372 18.2277 20.4115 18.3367 20.1389C18.4871 19.8822 18.5379 19.5798 18.4795 19.2886L17.8367 15.1083C17.7893 14.8703 17.8141 14.6237 17.9081 14.3997C17.9634 14.1406 18.1168 13.9123 18.3367 13.7621L21.4081 10.9279C21.6307 10.7493 21.7825 10.4983 21.8367 10.2194C21.908 9.94039 21.908 9.64813 21.8367 9.36914C21.8032 9.26057 21.7577 9.15601 21.701 9.05739L21.6224 8.92276C21.5575 8.8303 21.4859 8.74267 21.4081 8.66061C21.1843 8.47273 20.9123 8.35009 20.6224 8.30634L16.4795 7.5978C16.269 7.58944 16.0655 7.52051 15.8938 7.39941C14.2361 9.82833 12.0733 11.877 9.55096 13.4078L5.68667 15.7743L5.05096 19.317C5.00339 19.6019 5.02793 19.894 5.12238 20.1672C5.20239 20.4532 5.37888 20.7033 5.62238 20.8757C5.85192 21.0422 6.12441 21.1405 6.4081 21.1592C6.55258 21.1831 6.70085 21.1696 6.83851 21.1199C6.97618 21.0702 7.09857 20.9861 7.19381 20.8757L10.9795 18.7927Z" fill="#1B210D"/>
</svg>
