<svg width="246" height="134" viewBox="0 0 246 134" fill="none" xmlns="http://www.w3.org/2000/svg">
<rect width="246" height="134" fill="white"/>
<path d="M140 35.4699C140 42.6483 143.005 49.1334 147.843 53.7722C149.164 51.7268 151.481 50.3687 154.122 50.3687C158.231 50.3687 161.562 53.6539 161.562 57.7058C161.562 58.7105 161.357 59.6688 160.985 60.5403C162.574 60.8413 164.212 61 165.89 61C173.458 61 180.265 57.7971 185 52.6941C181.779 35.6781 172.067 20.9156 158.494 11C147.8 14.1385 140.002 23.9058 140.002 35.4714L140 35.4699Z" fill="white"/>
<path d="M148.001 57.8391C148.001 61.7937 151.262 65 155.283 65C158.307 65 160.9 63.1864 162 60.6056C157.049 59.6717 152.611 57.3218 149.137 54C148.419 55.1092 148 56.4259 148 57.8391H148.001Z" fill="white"/>
<path d="M154.949 51C152.447 51 150.25 52.2017 149 54.0115C152.362 57.023 156.66 59.1534 161.453 60C161.804 59.2276 162 58.381 162 57.492C162 53.9068 158.844 51 154.95 51H154.949Z" fill="white"/>
<path d="M144.5 69C146.433 69 148 67.8807 148 66.5C148 65.1193 146.433 64 144.5 64C142.567 64 141 65.1193 141 66.5C141 67.8807 142.567 69 144.5 69Z" fill="white"/>
<g clip-path="url(#clip0_3398_34949)">
<path d="M106.722 115.434C114.474 115.434 120.757 113.959 120.757 112.139C120.757 110.319 114.474 108.844 106.722 108.844C98.9712 108.844 92.6875 110.319 92.6875 112.139C92.6875 113.959 98.9712 115.434 106.722 115.434Z" fill="#82857A"/>
<path d="M173.178 121.135C177.355 118.913 176.109 116.368 171.311 116.049C169.022 115.897 156.022 114.735 153.606 114.502C131.087 112.342 120.661 114.546 120.715 116.663C120.792 119.734 125.19 119.3 143.317 122.003C144.445 122.171 154.494 123.76 155.581 123.863C156.608 123.961 158.115 124.111 161.313 123.863C161.369 123.858 167.579 124.111 173.178 121.133V121.135Z" fill="#82857A"/>
<path d="M143.389 67.9544C145.341 67.9544 146.924 66.3672 146.924 64.4093C146.924 62.4514 145.341 60.8643 143.389 60.8643C141.436 60.8643 139.854 62.4514 139.854 64.4093C139.854 66.3672 141.436 67.9544 143.389 67.9544Z" fill="#F4F4F3"/>
<path d="M163.674 54.7868C177.108 54.7868 188 43.8655 188 30.3934C188 16.9213 177.108 6 163.674 6C150.239 6 139.348 16.9213 139.348 30.3934C139.348 43.8655 150.239 54.7868 163.674 54.7868Z" fill="#F4F4F3"/>
<path d="M155.174 60.3576C159.915 60.3576 163.759 56.503 163.759 51.7481C163.759 46.9933 159.915 43.1387 155.174 43.1387C150.432 43.1387 146.588 46.9933 146.588 51.7481C146.588 56.503 150.432 60.3576 155.174 60.3576Z" fill="#F4F4F3"/>
<path d="M112.274 77.0551C124.964 71.0217 133.245 57.1791 130.816 41.6872C127.917 23.1988 109.399 11.598 91.0727 15.1431C76.5428 17.9521 65.5734 26.6206 65.0111 42.0872C64.73 49.8189 69.814 56.622 77.3778 58.1447C78.6572 58.403 79.7666 58.4925 80.8709 58.4097C82.2834 58.3034 83.4466 57.2956 84.0224 55.9974C85.6099 52.4152 90.4818 44.9486 104.064 42.5346C105.249 42.3236 106.454 42.6528 106.998 43.7298C107.643 45.0077 107.104 46.7954 105.7 47.0605C105.52 47.0942 105.342 47.1297 105.163 47.1668C92.7359 49.7091 83.9752 60.9318 83.9752 73.6501V79.5636C83.9752 83.286 85.8708 86.5609 88.7445 88.482C85.689 90.8167 83.6133 94.4901 83.6857 99.5291C83.413 118.087 112.118 118.291 112.527 100.171C112.528 100.206 112.54 100.235 112.542 100.27C112.552 100.081 112.537 99.9089 112.542 99.7249C112.542 99.6591 112.55 99.5966 112.549 99.5308C112.549 99.465 112.542 99.4059 112.542 99.34C112.542 98.8336 112.532 98.3373 112.491 97.8596C112.486 97.8089 112.479 97.7616 112.474 97.7127C112.286 95.7291 111.742 93.9887 110.927 92.4896C110.845 92.3377 110.771 92.1807 110.683 92.0338C110.55 91.811 110.402 91.6034 110.257 91.3923C110.116 91.1847 109.975 90.9771 109.823 90.7812C109.695 90.6158 109.559 90.4605 109.422 90.3035C109.229 90.0773 109.03 89.8578 108.821 89.6485C108.7 89.527 108.577 89.4088 108.451 89.2923C108.205 89.0644 107.953 88.8466 107.692 88.639C107.629 88.59 107.574 88.531 107.51 88.482C110.38 86.5592 112.274 83.286 112.274 79.5636V77.0568V77.0551Z" fill="#D1D3CF"/>
<path d="M92.6358 102.497C92.2351 102.497 91.8564 102.327 91.5365 102.004C90.986 101.447 90.6897 100.502 90.7015 99.3454C90.6897 98.1704 90.986 97.2268 91.5365 96.6697C91.8547 96.3473 92.2368 96.1768 92.6358 96.1768C93.0348 96.1768 93.4152 96.3473 93.7334 96.6697C94.2839 97.2268 94.5819 98.1721 94.5701 99.3285C94.5802 100.503 94.2839 101.447 93.7334 102.004C93.4152 102.327 93.0348 102.497 92.6358 102.497Z" fill="white"/>
<path d="M103.597 102.497C103.198 102.497 102.817 102.327 102.499 102.004C101.949 101.447 101.651 100.502 101.662 99.3454C101.651 98.1704 101.949 97.2268 102.499 96.6697C102.817 96.3473 103.198 96.1768 103.597 96.1768C103.996 96.1768 104.376 96.3473 104.696 96.6697C105.247 97.2268 105.543 98.1721 105.533 99.3285C105.543 100.503 105.247 101.447 104.696 102.004C104.378 102.327 103.996 102.497 103.597 102.497Z" fill="white"/>
<path d="M161.733 39.7205C161.225 39.7205 160.751 39.3964 160.585 38.8866C160.162 37.5935 160.236 36.1502 160.807 34.5937C161.166 33.6129 162.475 32.1392 164.697 30.2147C166.08 29.0178 166.888 26.987 166.66 25.2753C166.494 24.0142 165.814 23.0891 164.644 22.5253C163.364 21.9091 162.142 22.0205 160.906 22.8629C159.879 23.5618 159.255 24.5088 159.248 24.519C158.883 25.0777 158.135 25.2364 157.576 24.8718C157.018 24.5072 156.858 23.761 157.218 23.2005C158.396 21.3689 161.682 18.4113 165.689 20.3409C167.586 21.2541 168.783 22.8933 169.058 24.9562C169.393 27.4698 168.275 30.3211 166.28 32.0497C164.393 33.6855 163.24 34.9887 163.078 35.4293C162.699 36.4608 162.634 37.369 162.883 38.1303C163.091 38.7668 162.745 39.4521 162.112 39.6598C161.987 39.7003 161.859 39.7205 161.735 39.7205H161.733Z" fill="#BBBDB6"/>
<path d="M163.702 46.2142C164.555 46.2142 165.246 45.5211 165.246 44.6662C165.246 43.8112 164.555 43.1182 163.702 43.1182C162.849 43.1182 162.158 43.8112 162.158 44.6662C162.158 45.5211 162.849 46.2142 163.702 46.2142Z" fill="#BBBDB6"/>
</g>
<defs>
<clipPath id="clip0_3398_34949">
<rect width="123" height="118" fill="white" transform="translate(65 6)"/>
</clipPath>
</defs>
</svg>
