<svg width="305" height="30" viewBox="0 0 305 30" fill="none" xmlns="http://www.w3.org/2000/svg">
<mask id="mask0_2867_33388" style="mask-type:alpha" maskUnits="userSpaceOnUse" x="0" y="0" width="305" height="30">
<rect width="305" height="30" fill="#D9D9D9"/>
</mask>
<g mask="url(#mask0_2867_33388)">
<rect width="305" height="30" fill="#A4E33D"/>
</g>
<path opacity="0.08" fill-rule="evenodd" clip-rule="evenodd" d="M15 0C14.4216 0.0011499 13.8439 0.037886 13.27 0.11L0.11 13.27C0.037886 13.8439 0.0011499 14.4216 0 15C0.00407357 15.8077 0.0743084 16.6137 0.21 17.41L17.62 0H15ZM21.38 0L1 20.37C1.3756 21.3548 1.85497 22.2967 2.43 23.18L25.62 0H21.38ZM4.09961 25.28L29.3796 0H33.6196L6.36961 27.28C5.54626 26.6931 4.78558 26.0229 4.09961 25.28ZM37.38 0L8.75 28.62C9.7683 29.0967 10.8389 29.4524 11.94 29.68L41.62 0H37.38ZM15.3809 30L45.3809 0H49.6209L19.6209 30H15.3809ZM53.3809 0L23.3809 30H27.6209L57.6209 0H53.3809ZM31.3809 30L61.3809 0H65.6209L35.6209 30H31.3809ZM69.3809 0L39.3809 30H43.6209L73.6209 0H69.3809ZM47.3809 30L77.3809 0H81.6209L51.6209 30H47.3809ZM85.3809 0L55.3809 30H59.6209L89.6209 0H85.3809ZM63.3809 30L93.3809 0H97.6209L67.6209 30H63.3809ZM101.381 0L71.3809 30H75.6209L105.621 0H101.381ZM79.3809 30L109.381 0H113.621L83.6209 30H79.3809ZM117.381 0L87.3809 30H91.6209L121.621 0H117.381ZM95.3809 30L125.381 0H129.621L99.6209 30H95.3809ZM133.381 0L103.381 30H107.621L137.621 0H133.381ZM111.381 30L141.381 0H145.621L115.621 30H111.381ZM149.381 0L119.381 30H123.621L153.621 0H149.381ZM127.381 30L157.381 0H161.621L131.621 30H127.381ZM165.381 0L135.381 30H139.621L169.621 0H165.381ZM143.381 30L173.381 0H177.621L147.621 30H143.381ZM181.381 0L151.381 30H155.621L185.621 0H181.381ZM159.381 30L189.381 0H193.621L163.621 30H159.381ZM197.381 0L167.381 30H171.621L201.621 0H197.381ZM175.381 30L205.381 0H209.621L179.621 30H175.381ZM213.381 0L183.381 30H187.621L217.621 0H213.381ZM191.381 30L221.381 0H225.621L195.621 30H191.381ZM229.381 0L199.381 30H203.621L233.621 0H229.381ZM207.381 30L237.381 0H241.621L211.621 30H207.381ZM245.381 0L215.381 30H219.621L249.621 0H245.381ZM223.381 30L253.381 0H257.621L227.621 30H223.381ZM261.381 0L231.381 30H235.621L265.621 0H261.381ZM239.381 30L269.381 0H273.621L243.621 30H239.381ZM277.381 0L247.381 30H251.621L281.621 0H277.381ZM255.381 30L285.381 0H289.621L259.621 30H255.381ZM293.061 0.319824L263.381 29.9998H267.621L296.251 1.37982C295.233 0.903166 294.162 0.547409 293.061 0.319824ZM271.381 30L298.631 2.75C299.453 3.32749 300.213 3.9876 300.901 4.72L275.621 30H271.381ZM302.561 6.81982L279.381 29.9998H283.621L304.001 9.62982C303.622 8.64464 303.139 7.70265 302.561 6.81982ZM304.791 12.5898C304.927 13.3861 304.997 14.1921 305.001 14.9998C305 15.5782 304.963 16.156 304.891 16.7298L291.731 29.8898C291.157 29.962 290.579 29.9987 290.001 29.9998H287.381L304.791 12.5898Z" fill="white"/>
</svg>
