<svg width="335" height="50" viewBox="0 0 335 50" fill="none" xmlns="http://www.w3.org/2000/svg">
<rect width="335" height="50" rx="12" fill="#FFDAE2"/>
<mask id="mask0_1324_27479" style="mask-type:alpha" maskUnits="userSpaceOnUse" x="0" y="0" width="335" height="50">
<rect width="335" height="50" rx="12" fill="#FFDAE2"/>
</mask>
<g mask="url(#mask0_1324_27479)">
<g opacity="0.2">
<path fill-rule="evenodd" clip-rule="evenodd" d="M286.916 -0.175841C283.481 -0.49357 281.005 -0.585587 278.891 -0.664172C274.57 -0.824771 271.759 -0.929273 265.353 -2.78948C264.318 -3.04829 263.371 -3.31854 262.47 -3.57552C258.278 -4.77184 255.094 -5.68058 248.704 -3.8088C245.691 -2.96879 243.092 -1.05098 241.401 1.58007C239.709 4.21112 239.044 7.37194 239.53 10.4617C240.149 13.2624 241.418 15.8784 243.234 18.0985C245.05 20.3186 247.362 22.0806 249.985 23.2423C254.988 25.4133 260.264 26.8906 265.667 27.6332C266.256 27.7387 266.791 28.0432 267.183 28.4957C267.557 28.9626 267.76 29.5438 267.758 30.1423C267.734 30.4785 267.645 30.8069 267.496 31.1094C267.356 31.419 267.14 31.6885 266.869 31.8935C266.623 32.1228 266.328 32.2927 266.006 32.3901C265.671 32.4681 265.322 32.4681 264.987 32.3901C263.619 32.3149 262.257 32.149 260.91 31.8935C257.43 31.1937 254.013 30.2147 250.691 28.9662C249.834 28.6177 248.874 28.6196 248.019 28.9716C247.163 29.3236 246.48 29.9974 246.117 30.848C243.773 36.6236 242.712 42.8392 243.006 49.0651C244.235 67.7003 257.46 82.2582 279.597 84.5321C285.315 85.2894 291.126 84.8984 296.691 83.3821C306.453 80.6493 314.922 74.5268 320.577 66.1133C326.233 57.6999 328.705 47.5463 327.55 37.4747C326.395 27.4031 321.688 18.0728 314.275 11.1583C306.861 4.24367 297.226 0.197466 287.099 -0.254251L286.916 -0.175841ZM293.294 25.5168C293.112 25.5133 292.933 25.4687 292.771 25.3861C292.608 25.3304 292.463 25.2309 292.353 25.0986C292.083 24.7752 291.879 24.4024 291.751 24.0009C291.631 23.6123 291.587 23.204 291.621 22.7986C291.572 22.3845 291.617 21.9648 291.751 21.5702C291.873 21.1742 292.078 20.8088 292.353 20.4986C292.454 20.3507 292.601 20.2404 292.771 20.185C292.932 20.1003 293.111 20.056 293.294 20.056C293.476 20.056 293.655 20.1003 293.816 20.185C293.981 20.2503 294.126 20.3586 294.234 20.4986C294.761 21.1344 295.023 21.9487 294.966 22.7725C295.004 23.1893 294.959 23.6096 294.834 24.0089C294.708 24.4082 294.504 24.7786 294.234 25.0986C293.98 25.3454 293.647 25.4937 293.294 25.5168ZM302.257 25.2806C302.399 25.4009 302.571 25.4819 302.754 25.5159V25.4113C303.114 25.3835 303.454 25.2363 303.721 24.9931C304.249 24.3387 304.502 23.5046 304.427 22.667C304.465 22.2601 304.423 21.8496 304.302 21.4592C304.181 21.0689 303.983 20.7065 303.721 20.3931C303.597 20.2574 303.446 20.1503 303.277 20.0795C303.114 19.9969 302.936 19.9523 302.754 19.9488C302.572 19.9548 302.394 19.9994 302.231 20.0795C302.07 20.1513 301.927 20.2585 301.813 20.3931C301.287 21.0396 301.025 21.8615 301.081 22.6931C301.033 23.5238 301.294 24.343 301.813 24.9931C301.933 25.1264 302.086 25.2256 302.257 25.2806Z" fill="#FF6E83"/>
<path d="M279.518 68.6934L261.223 78.8605C266.853 82.0189 273.088 83.9517 279.518 84.5321C285.236 85.2893 291.047 84.8984 296.611 83.3821C302.173 81.8508 307.366 79.2059 311.875 75.6077C316.384 72.0096 320.116 67.5331 322.843 62.4498C325.571 57.3664 327.237 51.7821 327.742 46.0354C328.247 40.2887 327.579 34.4994 325.779 29.0184C324.779 26.0008 323.437 23.1071 321.781 20.3934L316.318 30.848C308.037 46.8052 295.237 59.9685 279.518 68.6934Z" fill="#FF5B70"/>
</g>
</g>
</svg>
