<svg width="335" height="205" viewBox="0 0 335 205" fill="none" xmlns="http://www.w3.org/2000/svg">
<rect width="335" height="205" rx="12" fill="white"/>
<path d="M290.997 163.14C293.223 163.14 294.833 161.922 294.833 160.228C294.833 158.982 294.035 158.1 292.565 157.932V157.848C293.685 157.652 294.455 156.868 294.441 155.748C294.455 154.194 293.083 152.962 291.025 152.976C288.995 152.962 287.455 154.152 287.413 155.86H289.401C289.415 155.09 290.143 154.6 291.025 154.6C291.893 154.6 292.467 155.118 292.453 155.86C292.467 156.658 291.795 157.19 290.801 157.204H289.905V158.716H290.801C291.977 158.716 292.691 159.29 292.677 160.088C292.691 160.886 291.991 161.432 290.997 161.432C290.045 161.432 289.331 160.942 289.289 160.228H287.217C287.259 161.936 288.813 163.14 290.997 163.14ZM299.869 152.976C297.629 152.962 296.117 154.404 296.117 156.392C296.131 158.24 297.447 159.584 299.225 159.584C300.317 159.584 301.297 159.066 301.745 158.184H301.857C301.843 160.158 301.129 161.376 299.785 161.376C298.987 161.376 298.413 160.942 298.245 160.228H296.229C296.425 161.88 297.783 163.14 299.785 163.14C302.263 163.14 303.859 161.152 303.845 157.792C303.859 154.194 301.913 152.976 299.869 152.976ZM298.133 156.336C298.105 155.356 298.861 154.586 299.869 154.572C300.891 154.586 301.633 155.384 301.633 156.336C301.633 157.274 300.863 158.086 299.869 158.072C298.847 158.086 298.119 157.316 298.133 156.336Z" fill="#1B210D"/>
<path d="M284.241 179.329C284.379 179.237 284.492 179.112 284.571 178.967C284.65 178.82 284.691 178.656 284.691 178.489C284.693 178.418 284.713 178.349 284.75 178.288C284.787 178.227 284.839 178.177 284.901 178.143C285.456 177.828 285.9 177.35 286.176 176.775C286.451 176.2 286.544 175.554 286.442 174.925C286.169 173.182 284.419 172.091 282.681 172.424C281.318 172.697 280.273 173.515 280.227 174.96C280.208 175.311 280.315 175.656 280.529 175.934C280.744 176.212 281.05 176.403 281.394 176.474C281.503 176.496 281.613 176.504 281.724 176.498C281.79 176.491 281.852 176.465 281.904 176.425C281.956 176.384 281.996 176.33 282.021 176.269C282.171 175.934 282.629 175.23 283.914 175.004C283.965 174.99 284.02 174.994 284.069 175.014C284.118 175.034 284.16 175.07 284.187 175.116C284.203 175.144 284.212 175.176 284.214 175.208C284.221 175.239 284.221 175.271 284.214 175.301C284.203 175.332 284.184 175.359 284.159 175.38C284.136 175.402 284.108 175.419 284.078 175.429H284.029C283.459 175.55 282.948 175.864 282.583 176.319C282.218 176.773 282.022 177.339 282.027 177.922V178.468C282.023 178.633 282.061 178.797 282.136 178.945C282.215 179.091 282.328 179.215 282.466 179.308C282.308 179.429 282.183 179.587 282.1 179.768C282.016 179.949 281.977 180.148 281.989 180.347C281.964 182.095 284.672 182.114 284.716 180.407V180.328C284.719 180.281 284.719 180.235 284.716 180.188C284.7 180.017 284.65 179.85 284.569 179.698C284.569 179.684 284.555 179.668 284.547 179.654L284.506 179.594L284.465 179.537L284.427 179.49C284.408 179.471 284.391 179.449 284.369 179.43L284.337 179.398L284.263 179.335L284.241 179.329Z" fill="#D1D3CF"/>
<path opacity="0.5" d="M286.281 174.328C285.385 176.107 283.87 177.499 282.021 178.241V178.468C282.019 178.634 282.058 178.798 282.135 178.945C282.215 179.091 282.328 179.215 282.465 179.308C282.308 179.429 282.183 179.588 282.1 179.769C282.016 179.949 281.977 180.148 281.988 180.347C281.973 180.651 282.07 180.951 282.261 181.189C282.452 181.427 282.724 181.586 283.025 181.637H283.687C283.977 181.587 284.24 181.436 284.429 181.211C284.618 180.985 284.721 180.701 284.721 180.407V180.328C284.724 180.281 284.724 180.235 284.721 180.189C284.705 180.017 284.655 179.85 284.574 179.698C284.574 179.684 284.56 179.668 284.552 179.654L284.511 179.594L284.47 179.537L284.432 179.49C284.413 179.471 284.396 179.449 284.375 179.43L284.342 179.398L284.268 179.335H284.241C284.379 179.242 284.492 179.118 284.571 178.972C284.65 178.825 284.691 178.661 284.691 178.495C284.692 178.424 284.712 178.354 284.749 178.293C284.786 178.233 284.839 178.183 284.901 178.149C285.455 177.833 285.9 177.356 286.175 176.781C286.451 176.206 286.544 175.56 286.442 174.93C286.411 174.724 286.357 174.522 286.281 174.328Z" fill="#D1D3CF"/>
<path d="M299.749 171.496H298.621V181.984H299.749V171.496ZM291.109 179.176L291.709 180.088C295.309 178.36 296.617 175.696 296.629 172.624H291.637V173.512H295.489C295.273 175.96 293.917 177.856 291.109 179.176ZM306.784 172.408H301.84V179.512H302.68C304.612 179.512 306.016 179.452 307.648 179.176L307.528 178.288C306.004 178.528 304.708 178.6 302.944 178.6V176.248H306.568V175.36H302.944V173.344H306.784V172.408ZM308.464 181.984H309.568V176.584H311.248V175.624H309.568V171.496H308.464V181.984Z" fill="#82857A"/>
<path d="M241.138 163.14C243.364 163.14 244.876 161.698 244.862 159.696C244.876 157.834 243.546 156.49 241.782 156.476C240.676 156.49 239.696 157.008 239.234 157.876H239.15C239.15 155.944 239.864 154.726 241.194 154.74C242.006 154.726 242.58 155.16 242.734 155.86H244.778C244.568 154.222 243.196 152.962 241.194 152.976C238.73 152.962 237.134 154.95 237.134 158.268C237.134 161.908 239.08 163.126 241.138 163.14ZM239.346 159.752C239.36 158.786 240.13 157.988 241.138 157.988C242.146 157.988 242.874 158.758 242.874 159.752C242.874 160.746 242.132 161.516 241.11 161.516C240.102 161.516 239.36 160.718 239.346 159.752ZM249.896 152.976C247.656 152.962 246.144 154.404 246.144 156.392C246.158 158.24 247.474 159.584 249.252 159.584C250.344 159.584 251.324 159.066 251.772 158.184H251.884C251.87 160.158 251.156 161.376 249.812 161.376C249.014 161.376 248.44 160.942 248.272 160.228H246.256C246.452 161.88 247.81 163.14 249.812 163.14C252.29 163.14 253.886 161.152 253.872 157.792C253.886 154.194 251.94 152.976 249.896 152.976ZM248.16 156.336C248.132 155.356 248.888 154.586 249.896 154.572C250.918 154.586 251.66 155.384 251.66 156.336C251.66 157.274 250.89 158.086 249.896 158.072C248.874 158.086 248.146 157.316 248.16 156.336Z" fill="#1B210D"/>
<path d="M239.39 174.933C239.328 174.577 239.204 174.235 239.025 173.921C238.444 172.947 237.462 172.863 236.783 173.256C236.693 173.325 236.583 173.362 236.469 173.362C236.356 173.362 236.246 173.325 236.156 173.256C235.828 172.975 235.419 172.806 234.989 172.773C234.534 172.804 234.1 172.973 233.745 173.258C233.656 173.325 233.547 173.362 233.435 173.362C233.324 173.362 233.215 173.325 233.126 173.258C232.466 172.765 231.184 173.065 230.704 174.188C230.417 174.875 230.41 175.646 230.685 176.337C230.705 176.385 230.741 176.424 230.786 176.449C230.831 176.474 230.883 176.482 230.933 176.474C231.248 176.424 231.57 176.431 231.882 176.496C231.951 176.507 232.019 176.523 232.087 176.542C232.394 176.635 232.681 176.783 232.935 176.978C232.962 177.001 232.984 177.029 233 177.06C233.017 177.091 233.027 177.126 233.028 177.161C233.03 177.196 233.025 177.232 233.011 177.264C232.998 177.297 232.978 177.326 232.951 177.349C232.911 177.39 232.858 177.415 232.801 177.42C232.745 177.425 232.69 177.41 232.643 177.379C232.324 177.151 231.951 177.011 231.56 176.973C231.17 176.936 230.777 177.003 230.42 177.167C229.488 177.747 229.417 178.991 230.085 180.019C230.663 180.917 231.689 181.227 232.64 181.225H236.289C237.577 181.225 238.359 180.649 238.916 179.52C239.764 177.775 239.592 176.032 239.39 174.933Z" fill="#9473FF"/>
<path d="M231.44 180.058L230.131 180.085C230.712 180.903 231.713 181.228 232.64 181.225H236.289C237.576 181.225 238.359 180.649 238.915 179.52C239.764 177.775 239.592 176.032 239.384 174.933C239.338 174.664 239.256 174.403 239.142 174.156L239.035 174.472C238.5 176.073 237.483 177.469 236.123 178.469C234.763 179.469 233.127 180.024 231.44 180.058Z" fill="#9473FF"/>
<path d="M251.589 177.016H247.341V175.768H246.237V177.016H242.013V177.904H251.589V177.016ZM242.541 175.408L242.877 176.272C244.677 176.092 246.153 175.48 246.789 174.484C247.449 175.48 248.901 176.092 250.701 176.272L251.061 175.408C248.949 175.24 247.509 174.448 247.413 173.392H250.629V172.504H247.341V171.472H246.237V172.504H242.973V173.392H246.177C246.069 174.448 244.629 175.24 242.541 175.408ZM243.069 179.704H249.285V181.984H250.413V178.816H243.069V179.704ZM260.64 171.496H259.536V177.64H260.64V175.024H262.152V174.088H260.64V171.496ZM252.336 176.704L252.792 177.544C255.9 176.74 257.724 174.844 257.736 172.144H252.816V173.032H256.536C256.356 174.688 254.856 176.032 252.336 176.704ZM253.704 178.984H259.536V181.984H260.64V178.096H253.704V178.984Z" fill="#9473FF"/>
<path d="M190.914 152.976C188.674 152.962 187.162 154.404 187.162 156.392C187.176 158.24 188.492 159.584 190.27 159.584C191.362 159.584 192.342 159.066 192.79 158.184H192.902C192.888 160.158 192.174 161.376 190.83 161.376C190.032 161.376 189.458 160.942 189.29 160.228H187.274C187.47 161.88 188.828 163.14 190.83 163.14C193.308 163.14 194.904 161.152 194.89 157.792C194.904 154.194 192.958 152.976 190.914 152.976ZM189.178 156.336C189.15 155.356 189.906 154.586 190.914 154.572C191.936 154.586 192.678 155.384 192.678 156.336C192.678 157.274 191.908 158.086 190.914 158.072C189.892 158.086 189.164 157.316 189.178 156.336ZM199.896 152.976C197.656 152.962 196.144 154.404 196.144 156.392C196.158 158.24 197.474 159.584 199.252 159.584C200.344 159.584 201.324 159.066 201.772 158.184H201.884C201.87 160.158 201.156 161.376 199.812 161.376C199.014 161.376 198.44 160.942 198.272 160.228H196.256C196.452 161.88 197.81 163.14 199.812 163.14C202.29 163.14 203.886 161.152 203.872 157.792C203.886 154.194 201.94 152.976 199.896 152.976ZM198.16 156.336C198.132 155.356 198.888 154.586 199.896 154.572C200.918 154.586 201.66 155.384 201.66 156.336C201.66 157.274 200.89 158.086 199.896 158.072C198.874 158.086 198.146 157.316 198.16 156.336Z" fill="#1B210D"/>
<path fill-rule="evenodd" clip-rule="evenodd" d="M183.879 173.294C186.055 172.064 189.017 173.965 188.818 176.757C188.802 182.735 178.034 182.643 178.195 176.599C178.13 173.872 181.021 172.085 183.162 173.294C183.273 173.356 183.399 173.389 183.527 173.389C183.65 173.387 183.771 173.354 183.879 173.294ZM185.401 176.512C185.42 176.545 185.432 176.581 185.436 176.618C185.446 176.684 185.431 176.751 185.395 176.806C185.358 176.861 185.301 176.899 185.237 176.913C184.101 177.213 182.907 177.213 181.771 176.913C181.706 176.899 181.65 176.861 181.612 176.806C181.576 176.751 181.562 176.684 181.572 176.618C181.577 176.581 181.589 176.545 181.607 176.512C181.626 176.479 181.652 176.451 181.683 176.43C181.715 176.409 181.75 176.394 181.787 176.386C181.824 176.38 181.862 176.38 181.899 176.386C182.95 176.667 184.057 176.667 185.109 176.386C185.146 176.38 185.184 176.38 185.221 176.386C185.258 176.394 185.293 176.409 185.324 176.43C185.356 176.451 185.382 176.479 185.401 176.512Z" fill="#F7CC31"/>
<path d="M181.072 180.344L180.412 180.417C183.527 182.152 188.807 180.944 188.818 176.757C188.886 175.855 188.607 174.96 188.038 174.256L187.634 175.265C187.092 176.62 186.198 177.805 185.044 178.698C183.891 179.591 182.519 180.159 181.072 180.344Z" fill="#F7CC31"/>
<path d="M196.533 172.504H191.589V179.392H196.533V172.504ZM192.693 178.504V173.392H195.453V178.504H192.693ZM198.597 182.008H199.725V171.496H198.597V182.008ZM209.64 171.496H208.536V177.64H209.64V175.024H211.152V174.088H209.64V171.496ZM201.336 176.704L201.792 177.544C204.9 176.74 206.724 174.844 206.736 172.144H201.816V173.032H205.536C205.356 174.688 203.856 176.032 201.336 176.704ZM202.704 178.984H208.536V181.984H209.64V178.096H202.704V178.984Z" fill="#F7CC31"/>
<path d="M81.8856 163H88.9696V161.32H84.7416V161.236L86.2256 159.78C88.2836 157.946 88.8296 157.022 88.8296 155.888C88.8296 154.166 87.4156 152.962 85.3016 152.976C83.2156 152.962 81.7736 154.208 81.7736 156.14H83.7336C83.7336 155.188 84.3496 154.6 85.2736 154.6C86.1836 154.6 86.8416 155.146 86.8416 156.028C86.8416 156.812 86.3516 157.358 85.4136 158.24L81.8856 161.516V163ZM94.1545 163.14C96.3945 163.14 98.0185 161.95 98.0185 160.34C98.0185 159.094 97.0525 158.072 95.8625 157.876V157.82C96.8985 157.61 97.6545 156.714 97.6545 155.636C97.6545 154.096 96.1705 152.962 94.1545 152.976C92.1245 152.962 90.6405 154.096 90.6265 155.636C90.6405 156.714 91.3825 157.61 92.4465 157.82V157.876C91.2145 158.072 90.2625 159.094 90.2625 160.34C90.2625 161.95 91.8865 163.14 94.1545 163.14ZM92.4185 160.144C92.4045 159.276 93.1465 158.646 94.1545 158.632C95.1485 158.646 95.8905 159.276 95.8905 160.144C95.8905 160.984 95.1905 161.572 94.1545 161.572C93.1045 161.572 92.4045 160.97 92.4185 160.144ZM92.6425 155.832C92.6425 155.062 93.2585 154.516 94.1545 154.516C95.0225 154.516 95.6385 155.062 95.6385 155.832C95.6385 156.63 95.0085 157.176 94.1545 157.176C93.2725 157.176 92.6425 156.63 92.6425 155.832ZM103.276 163.14C105.754 163.14 107.252 161.306 107.252 158.044C107.252 154.824 105.74 152.962 103.276 152.976C100.812 152.962 99.3003 154.81 99.3003 158.044C99.3003 161.292 100.798 163.14 103.276 163.14ZM101.4 158.044C101.4 155.79 102.142 154.656 103.276 154.656C104.424 154.656 105.152 155.79 105.152 158.044C105.166 160.34 104.424 161.432 103.276 161.432C102.128 161.432 101.386 160.34 101.4 158.044Z" fill="#1B210D"/>
<path d="M79.898 176.495C79.9846 176.559 80.0667 176.628 80.1434 176.703L80.2443 176.804C80.2751 176.854 80.2885 176.914 80.2825 176.973C80.2748 177.03 80.249 177.084 80.2089 177.125C80.1667 177.167 80.1122 177.194 80.0534 177.202C79.9953 177.207 79.937 177.194 79.8871 177.164C79.6818 176.931 79.4247 176.751 79.1367 176.636C78.8486 176.521 78.5377 176.476 78.2289 176.504H78.0707C77.168 176.504 76.3525 177.526 76.1234 178.612C75.7552 180.322 77.3125 181.377 78.4416 181.377C79.4343 181.377 79.8762 181.009 80.5471 181.009C81.1552 181.009 81.4307 181.383 82.6007 181.383C83.9889 181.383 84.5371 180.483 84.6871 179.228C84.7235 178.846 84.7161 178.461 84.6652 178.08C84.2671 175.437 83.4571 173.989 82.7807 173.086C82.3746 172.649 81.8117 172.391 81.2155 172.369C80.6193 172.346 80.0386 172.561 79.6007 172.966C78.8698 173.689 78.5234 174.826 78.2616 175.71C78.2535 175.742 78.2535 175.776 78.2616 175.808C78.2664 175.84 78.2786 175.871 78.2971 175.898C78.3142 175.927 78.3387 175.95 78.368 175.966C78.3962 175.983 78.4279 175.993 78.4607 175.996C78.9772 176.04 79.4743 176.214 79.9062 176.501L79.898 176.495Z" fill="#92DC2F"/>
<path d="M78.4334 180.289L76.8516 180.764C77.2919 181.142 77.848 181.358 78.4279 181.377C79.4343 181.377 79.8761 181.009 80.547 181.009C81.1552 181.009 81.4307 181.383 82.6007 181.383C83.9888 181.383 84.537 180.483 84.687 179.228C84.7234 178.846 84.7161 178.461 84.6652 178.08C84.5209 177.028 84.2517 175.997 83.8634 175.009L83.7979 175.189C83.3675 176.401 82.6574 177.495 81.7254 178.381C80.7933 179.267 79.6655 179.921 78.4334 180.289Z" fill="#92DC2F"/>
<path d="M97.0609 172.648H93.3409V171.448H92.2369V172.648H88.4929V173.56H97.0609V172.648ZM88.0129 179.2H92.2369V182.008H93.3409V179.2H97.6369V178.288H88.0129V179.2ZM89.3089 175.864C89.2969 177.004 90.6049 177.628 92.7889 177.64C94.9729 177.628 96.2809 177.004 96.2929 175.864C96.2809 174.736 94.9729 174.1 92.7889 174.112C90.6049 174.1 89.2969 174.736 89.3089 175.864ZM90.4609 175.864C90.4489 175.276 91.2889 174.94 92.7889 174.952C94.3009 174.94 95.1289 175.276 95.1409 175.864C95.1289 176.464 94.3009 176.8 92.7889 176.8C91.2889 176.8 90.4489 176.464 90.4609 175.864ZM106.64 171.496H105.536V177.64H106.64V175.024H108.152V174.088H106.64V171.496ZM98.336 176.704L98.792 177.544C101.9 176.74 103.724 174.844 103.736 172.144H98.816V173.032H102.536C102.356 174.688 100.856 176.032 98.336 176.704ZM99.704 178.984H105.536V181.984H106.64V178.096H99.704V178.984Z" fill="#92DC2F"/>
<path d="M137.596 153.088H135.664L133.2 154.656V156.476L135.468 155.048H135.552V163H137.596V153.088ZM143.528 163.14C145.74 163.14 147.266 161.712 147.252 159.696C147.266 157.806 145.908 156.448 144.088 156.448C143.22 156.448 142.478 156.798 142.1 157.288H142.044L142.296 154.796H146.692V153.088H140.616L140.084 158.8H141.932C142.226 158.254 142.744 157.974 143.5 157.988C144.536 157.974 145.278 158.716 145.264 159.752C145.278 160.788 144.55 161.516 143.528 161.516C142.66 161.516 141.946 160.984 141.904 160.228H139.916C139.944 161.922 141.456 163.14 143.528 163.14ZM152.936 153.088H151.004L148.54 154.656V156.476L150.808 155.048H150.892V163H152.936V153.088Z" fill="#1B210D"/>
<path d="M129.412 178.195C131.022 177.674 131.401 176.7 131.48 176.449C131.489 176.425 131.494 176.399 131.493 176.373C131.491 176.342 131.483 176.311 131.469 176.283C131.454 176.255 131.434 176.231 131.409 176.212C131.384 176.193 131.355 176.18 131.324 176.174C131.103 176.114 130.981 176.378 130.981 176.378C130.8 176.733 130.537 177.039 130.213 177.271C129.889 177.502 129.515 177.653 129.121 177.709C129.051 177.72 128.979 177.712 128.913 177.687C128.847 177.664 128.788 177.626 128.739 177.576C127.921 176.706 127.749 175.015 128.766 173.73C129.783 172.446 131.3 171.78 132.966 172.26C136.585 173.215 136.263 178.331 133.533 180.442C132.293 181.386 130.734 181.811 129.186 181.626C127.593 181.418 127.004 180.584 127.1 179.834C127.187 179.149 127.492 178.707 128.084 178.495C128.676 178.282 128.883 178.323 129.412 178.195Z" fill="#2DB8FF"/>
<path d="M130.886 179.58L127.586 180.979C128.048 181.342 128.607 181.56 129.192 181.606C130.74 181.791 132.299 181.367 133.54 180.423C135.25 179.105 136.013 176.604 135.449 174.695L135.225 175.222C134.4 177.183 132.844 178.747 130.886 179.58Z" fill="#2DB8FF"/>
<path d="M142.685 173.728V173.608H144.965V172.72H142.709V171.448H141.581V172.72H139.301V173.608H141.581V173.728C141.593 175.084 140.609 176.344 139.013 176.848L139.541 177.712C140.789 177.316 141.713 176.452 142.169 175.372C142.637 176.344 143.561 177.1 144.773 177.448L145.325 176.56C143.705 176.128 142.697 174.964 142.685 173.728ZM140.693 180.04C140.693 181.264 142.049 181.984 144.245 181.984C146.453 181.984 147.797 181.264 147.797 180.04C147.797 178.792 146.453 178.096 144.245 178.096C142.049 178.096 140.693 178.792 140.693 180.04ZM141.797 180.04C141.797 179.344 142.709 178.96 144.245 178.96C145.793 178.96 146.693 179.344 146.693 180.04C146.693 180.712 145.793 181.108 144.245 181.12C142.709 181.108 141.797 180.712 141.797 180.04ZM144.653 175.336H146.669V177.856H147.773V171.496H146.669V174.448H144.653V175.336ZM157.64 171.496H156.536V177.64H157.64V175.024H159.152V174.088H157.64V171.496ZM149.336 176.704L149.792 177.544C152.9 176.74 154.724 174.844 154.736 172.144H149.816V173.032H153.536C153.356 174.688 151.856 176.032 149.336 176.704ZM150.704 178.984H156.536V181.984H157.64V178.096H150.704V178.984Z" fill="#2DB8FF"/>
<path d="M33.8182 163.14C36.0442 163.14 37.6542 161.922 37.6542 160.228C37.6542 158.982 36.8562 158.1 35.3862 157.932V157.848C36.5062 157.652 37.2762 156.868 37.2622 155.748C37.2762 154.194 35.9042 152.962 33.8462 152.976C31.8162 152.962 30.2762 154.152 30.2342 155.86H32.2222C32.2362 155.09 32.9642 154.6 33.8462 154.6C34.7142 154.6 35.2882 155.118 35.2742 155.86C35.2882 156.658 34.6162 157.19 33.6222 157.204H32.7262V158.716H33.6222C34.7982 158.716 35.5122 159.29 35.4982 160.088C35.5122 160.886 34.8122 161.432 33.8182 161.432C32.8662 161.432 32.1522 160.942 32.1102 160.228H30.0382C30.0802 161.936 31.6342 163.14 33.8182 163.14ZM42.7179 163.14C44.9299 163.14 46.4559 161.712 46.4419 159.696C46.4559 157.806 45.0979 156.448 43.2779 156.448C42.4099 156.448 41.6679 156.798 41.2899 157.288H41.2339L41.4859 154.796H45.8819V153.088H39.8059L39.2739 158.8H41.1219C41.4159 158.254 41.9339 157.974 42.6899 157.988C43.7259 157.974 44.4679 158.716 44.4539 159.752C44.4679 160.788 43.7399 161.516 42.7179 161.516C41.8499 161.516 41.1359 160.984 41.0939 160.228H39.1059C39.1339 161.922 40.6459 163.14 42.7179 163.14ZM52.125 153.088H50.193L47.729 154.656V156.476L49.997 155.048H50.081V163H52.125V153.088Z" fill="#1B210D"/>
<path d="M29.9608 172.86C28.8698 172.759 28.7062 172.876 27.7108 172.587C27.0998 172.435 26.7835 172.244 25.9735 172.481C25.6591 172.569 25.3879 172.769 25.2114 173.043C25.0349 173.318 24.9654 173.648 25.0162 173.97C25.0808 174.262 25.2132 174.535 25.4027 174.767C25.5922 174.999 25.8335 175.183 26.1071 175.304C26.6292 175.53 27.1797 175.684 27.7435 175.762C27.805 175.773 27.8608 175.805 27.9017 175.852C27.9407 175.901 27.9619 175.961 27.9617 176.024C27.9592 176.059 27.9499 176.093 27.9344 176.125C27.9197 176.157 27.8972 176.185 27.8689 176.206C27.8433 176.23 27.8125 176.248 27.7789 176.258C27.744 176.266 27.7076 176.266 27.6726 176.258C27.5298 176.25 27.3876 176.233 27.2471 176.206C26.884 176.133 26.5274 176.031 26.1808 175.901C26.0913 175.865 25.9912 175.865 25.902 175.902C25.8127 175.938 25.7414 176.009 25.7035 176.097C25.459 176.7 25.3482 177.349 25.3789 177.998C25.5071 179.943 26.8871 181.462 29.1971 181.699C29.7937 181.778 30.4001 181.737 30.9808 181.579C31.9994 181.294 32.8831 180.655 33.4733 179.777C34.0634 178.899 34.3214 177.84 34.2009 176.789C34.0803 175.738 33.5892 174.764 32.8156 174.043C32.042 173.321 31.0366 172.899 29.9798 172.852L29.9608 172.86Z" fill="#FF5B70"/>
<path d="M29.1884 180.046L27.2793 181.107C27.8669 181.437 28.5174 181.639 29.1884 181.699C29.785 181.778 30.3914 181.737 30.972 181.579C31.5524 181.419 32.0943 181.143 32.5648 180.768C33.0353 180.392 33.4247 179.925 33.7093 179.395C33.9939 178.864 34.1678 178.282 34.2204 177.682C34.2731 177.082 34.2034 176.478 34.0157 175.906C33.9112 175.591 33.7712 175.29 33.5984 175.006L33.0284 176.097C32.1643 177.762 30.8286 179.136 29.1884 180.046Z" fill="#FF5B70"/>
<path d="M40.8769 174.16V172.36H39.7489V174.16C39.7489 176.176 38.5849 178.18 36.9409 178.912L37.6129 179.848C38.8729 179.236 39.8449 177.976 40.3249 176.44C40.8169 177.868 41.7769 179.044 42.9889 179.608L43.6369 178.744C42.0169 178.012 40.8649 176.08 40.8769 174.16ZM44.5969 182.008H45.7249V171.496H44.5969V182.008ZM55.64 171.496H54.536V177.64H55.64V175.024H57.152V174.088H55.64V171.496ZM47.336 176.704L47.792 177.544C50.9 176.74 52.724 174.844 52.736 172.144H47.816V173.032H51.536C51.356 174.688 49.856 176.032 47.336 176.704ZM48.704 178.984H54.536V181.984H55.64V178.096H48.704V178.984Z" fill="#FF5B70"/>
<path d="M14 134H320" stroke="#F4F4F3" stroke-linecap="round" stroke-linejoin="round"/>
<path d="M305.841 118.62H309.261V120H310.281V118.62H311.241V117.72H310.281V112.92H308.961L305.841 117.76V118.62ZM306.961 117.72V117.66L309.201 114.2H309.261V117.72H306.961ZM316.019 118.3V118.68C316.009 119.47 316.519 120.15 317.459 120.14C318.379 120.15 318.889 119.47 318.879 118.68V118.3C318.889 117.5 318.389 116.83 317.459 116.82C316.529 116.83 316.009 117.5 316.019 118.3ZM312.459 114.62C312.449 115.42 312.959 116.1 313.899 116.1C314.819 116.1 315.329 115.43 315.319 114.62V114.26C315.329 113.45 314.839 112.78 313.899 112.78C312.979 112.78 312.449 113.45 312.459 114.26V114.62ZM312.779 120H313.599L318.479 112.92H317.639L312.779 120ZM313.259 114.62V114.26C313.269 113.86 313.439 113.48 313.899 113.48C314.369 113.48 314.519 113.86 314.519 114.26V114.62C314.519 115.02 314.359 115.4 313.899 115.4C313.429 115.4 313.269 115.02 313.259 114.62ZM316.819 118.68V118.3C316.819 117.91 316.999 117.52 317.459 117.52C317.929 117.52 318.079 117.91 318.079 118.3V118.68C318.079 119.07 317.909 119.45 317.459 119.46C316.979 119.45 316.819 119.07 316.819 118.68Z" fill="#82857A"/>
<path d="M288.092 120H289.212L292.372 113.88V112.92H287.612V113.86H291.252V113.9L288.092 120ZM297.148 118.3V118.68C297.138 119.47 297.648 120.15 298.588 120.14C299.508 120.15 300.018 119.47 300.008 118.68V118.3C300.018 117.5 299.518 116.83 298.588 116.82C297.658 116.83 297.138 117.5 297.148 118.3ZM293.588 114.62C293.578 115.42 294.088 116.1 295.028 116.1C295.948 116.1 296.458 115.43 296.448 114.62V114.26C296.458 113.45 295.968 112.78 295.028 112.78C294.108 112.78 293.578 113.45 293.588 114.26V114.62ZM293.908 120H294.728L299.608 112.92H298.768L293.908 120ZM294.388 114.62V114.26C294.398 113.86 294.568 113.48 295.028 113.48C295.498 113.48 295.648 113.86 295.648 114.26V114.62C295.648 115.02 295.488 115.4 295.028 115.4C294.558 115.4 294.398 115.02 294.388 114.62ZM297.948 118.68V118.3C297.948 117.91 298.128 117.52 298.588 117.52C299.058 117.52 299.208 117.91 299.208 118.3V118.68C299.208 119.07 299.038 119.45 298.588 119.46C298.108 119.45 297.948 119.07 297.948 118.68Z" fill="#9473FF"/>
<path d="M261.508 112.92H260.468L258.708 114.08V115.1L260.388 114H260.428V120H261.508V112.92ZM265.77 120.1C267.41 120.1 268.37 118.78 268.37 116.46C268.37 114.17 267.4 112.83 265.77 112.84C264.15 112.83 263.18 114.17 263.17 116.46C263.18 118.78 264.14 120.1 265.77 120.1ZM264.25 116.46C264.25 114.71 264.83 113.74 265.77 113.74C266.72 113.74 267.3 114.71 267.29 116.46C267.3 118.23 266.73 119.17 265.77 119.18C264.82 119.17 264.25 118.23 264.25 116.46ZM273.173 118.3V118.68C273.163 119.47 273.673 120.15 274.613 120.14C275.533 120.15 276.043 119.47 276.033 118.68V118.3C276.043 117.5 275.543 116.83 274.613 116.82C273.683 116.83 273.163 117.5 273.173 118.3ZM269.613 114.62C269.603 115.42 270.113 116.1 271.053 116.1C271.973 116.1 272.483 115.43 272.473 114.62V114.26C272.483 113.45 271.993 112.78 271.053 112.78C270.133 112.78 269.603 113.45 269.613 114.26V114.62ZM269.933 120H270.753L275.633 112.92H274.793L269.933 120ZM270.413 114.62V114.26C270.423 113.86 270.593 113.48 271.053 113.48C271.523 113.48 271.673 113.86 271.673 114.26V114.62C271.673 115.02 271.513 115.4 271.053 115.4C270.583 115.4 270.423 115.02 270.413 114.62ZM273.973 118.68V118.3C273.973 117.91 274.153 117.52 274.613 117.52C275.083 117.52 275.233 117.91 275.233 118.3V118.68C275.233 119.07 275.063 119.45 274.613 119.46C274.133 119.45 273.973 119.07 273.973 118.68Z" fill="#F7CC31"/>
<path d="M169.091 120H173.851V119.08H170.591V119.02L172.031 117.56C173.351 116.26 173.731 115.63 173.731 114.84C173.731 113.69 172.781 112.83 171.431 112.84C170.071 112.83 169.091 113.69 169.091 114.98H170.111C170.111 114.23 170.611 113.73 171.391 113.74C172.141 113.73 172.711 114.18 172.711 114.88C172.711 115.49 172.321 115.94 171.551 116.74L169.091 119.22V120ZM177.508 120.1C179.018 120.1 180.098 119.27 180.108 118.12C180.098 117.21 179.438 116.47 178.628 116.34V116.3C179.328 116.13 179.818 115.49 179.828 114.72C179.818 113.63 178.838 112.83 177.508 112.84C176.158 112.83 175.168 113.63 175.168 114.72C175.168 115.49 175.658 116.13 176.368 116.3V116.34C175.548 116.47 174.898 117.21 174.908 118.12C174.898 119.27 175.968 120.1 177.508 120.1ZM175.988 118.04C175.988 117.31 176.628 116.78 177.508 116.78C178.368 116.78 179.008 117.31 179.008 118.04C179.008 118.73 178.418 119.21 177.508 119.2C176.568 119.21 175.988 118.73 175.988 118.04ZM176.228 114.8C176.218 114.15 176.728 113.71 177.508 113.7C178.258 113.71 178.778 114.16 178.768 114.8C178.778 115.48 178.238 115.93 177.508 115.94C176.748 115.93 176.218 115.48 176.228 114.8ZM184.91 118.3V118.68C184.9 119.47 185.41 120.15 186.35 120.14C187.27 120.15 187.78 119.47 187.77 118.68V118.3C187.78 117.5 187.28 116.83 186.35 116.82C185.42 116.83 184.9 117.5 184.91 118.3ZM181.35 114.62C181.34 115.42 181.85 116.1 182.79 116.1C183.71 116.1 184.22 115.43 184.21 114.62V114.26C184.22 113.45 183.73 112.78 182.79 112.78C181.87 112.78 181.34 113.45 181.35 114.26V114.62ZM181.67 120H182.49L187.37 112.92H186.53L181.67 120ZM182.15 114.62V114.26C182.16 113.86 182.33 113.48 182.79 113.48C183.26 113.48 183.41 113.86 183.41 114.26V114.62C183.41 115.02 183.25 115.4 182.79 115.4C182.32 115.4 182.16 115.02 182.15 114.62ZM185.71 118.68V118.3C185.71 117.91 185.89 117.52 186.35 117.52C186.82 117.52 186.97 117.91 186.97 118.3V118.68C186.97 119.07 186.8 119.45 186.35 119.46C185.87 119.45 185.71 119.07 185.71 118.68Z" fill="#92DC2F"/>
<path d="M225.557 113.92H224.517L222.757 115.08V116.1L224.437 115H224.477V121H225.557V113.92ZM229.779 121.1C231.239 121.1 232.289 120.1 232.279 118.7C232.289 117.34 231.299 116.35 229.979 116.36C229.429 116.35 228.939 116.55 228.639 116.82H228.579L228.819 114.86H231.919V113.92H227.919L227.459 117.86H228.479C228.719 117.43 229.149 117.24 229.719 117.24C230.609 117.25 231.239 117.87 231.239 118.74C231.239 119.58 230.629 120.2 229.779 120.2C229.049 120.2 228.479 119.76 228.419 119.16H227.379C227.419 120.28 228.429 121.1 229.779 121.1ZM237.124 119.3V119.68C237.114 120.47 237.624 121.15 238.564 121.14C239.484 121.15 239.994 120.47 239.984 119.68V119.3C239.994 118.5 239.494 117.83 238.564 117.82C237.634 117.83 237.114 118.5 237.124 119.3ZM233.564 115.62C233.554 116.42 234.064 117.1 235.004 117.1C235.924 117.1 236.434 116.43 236.424 115.62V115.26C236.434 114.45 235.944 113.78 235.004 113.78C234.084 113.78 233.554 114.45 233.564 115.26V115.62ZM233.884 121H234.704L239.584 113.92H238.744L233.884 121ZM234.364 115.62V115.26C234.374 114.86 234.544 114.48 235.004 114.48C235.474 114.48 235.624 114.86 235.624 115.26V115.62C235.624 116.02 235.464 116.4 235.004 116.4C234.534 116.4 234.374 116.02 234.364 115.62ZM237.924 119.68V119.3C237.924 118.91 238.104 118.52 238.564 118.52C239.034 118.52 239.184 118.91 239.184 119.3V119.68C239.184 120.07 239.014 120.45 238.564 120.46C238.084 120.45 237.924 120.07 237.924 119.68Z" fill="#2DB8FF"/>
<path d="M72.43 120.1C73.89 120.1 74.98 119.24 74.97 118.06C74.98 117.16 74.41 116.51 73.45 116.38V116.32C74.21 116.14 74.71 115.56 74.71 114.76C74.71 113.71 73.83 112.83 72.45 112.84C71.12 112.83 70.06 113.61 70.03 114.76H71.07C71.09 114.13 71.72 113.73 72.43 113.74C73.18 113.73 73.67 114.17 73.67 114.82C73.67 115.49 73.1 115.94 72.29 115.94H71.69V116.82H72.29C73.31 116.82 73.89 117.32 73.89 118.02C73.89 118.7 73.27 119.17 72.41 119.18C71.62 119.17 71.01 118.77 70.97 118.16H69.87C69.92 119.31 70.96 120.1 72.43 120.1ZM78.7103 120.1C80.2303 120.11 81.2403 119.06 81.2503 117.68C81.2403 116.33 80.2303 115.37 78.9703 115.36C78.2003 115.37 77.5303 115.72 77.1503 116.32H77.0703C77.0703 114.72 77.7103 113.77 78.8103 113.78C79.5203 113.77 79.9703 114.19 80.1103 114.76H81.1703C81.0103 113.64 80.1003 112.83 78.8103 112.84C77.1103 112.83 76.0403 114.24 76.0503 116.7C76.0403 119.31 77.4103 120.09 78.7103 120.1ZM77.2103 117.72C77.2103 116.93 77.8703 116.24 78.7303 116.24C79.5803 116.24 80.2003 116.89 80.2103 117.7C80.2003 118.53 79.5603 119.2 78.7103 119.2C77.8303 119.2 77.2103 118.5 77.2103 117.72ZM86.0905 118.3V118.68C86.0805 119.47 86.5905 120.15 87.5305 120.14C88.4505 120.15 88.9605 119.47 88.9505 118.68V118.3C88.9605 117.5 88.4605 116.83 87.5305 116.82C86.6005 116.83 86.0805 117.5 86.0905 118.3ZM82.5305 114.62C82.5205 115.42 83.0305 116.1 83.9705 116.1C84.8905 116.1 85.4005 115.43 85.3905 114.62V114.26C85.4005 113.45 84.9105 112.78 83.9705 112.78C83.0505 112.78 82.5205 113.45 82.5305 114.26V114.62ZM82.8505 120H83.6705L88.5505 112.92H87.7105L82.8505 120ZM83.3305 114.62V114.26C83.3405 113.86 83.5105 113.48 83.9705 113.48C84.4405 113.48 84.5905 113.86 84.5905 114.26V114.62C84.5905 115.02 84.4305 115.4 83.9705 115.4C83.5005 115.4 83.3405 115.02 83.3305 114.62ZM86.8905 118.68V118.3C86.8905 117.91 87.0705 117.52 87.5305 117.52C88.0005 117.52 88.1505 117.91 88.1505 118.3V118.68C88.1505 119.07 87.9805 119.45 87.5305 119.46C87.0505 119.45 86.8905 119.07 86.8905 118.68Z" fill="#FF5B70"/>
<mask id="mask0_2008_32226" style="mask-type:alpha" maskUnits="userSpaceOnUse" x="15" y="76" width="305" height="30">
<rect x="15" y="76" width="305" height="30" rx="15" fill="#D9D9D9"/>
</mask>
<g mask="url(#mask0_2008_32226)">
<rect x="305.525" y="76" width="14.4746" height="30" fill="#BBBDB6"/>
<rect x="283.814" y="76" width="21.7119" height="30" fill="#A586FF"/>
<rect x="249.695" y="76" width="34.1186" height="30" fill="#F9D63F"/>
<rect x="136" y="76" width="79" height="30" fill="#92DC2F"/>
<rect x="214" y="76" width="36.1864" height="30" fill="#3AC5FF"/>
<rect x="15" y="76" width="120.966" height="30" fill="#FF6E83"/>
</g>
<path opacity="0.1" fill-rule="evenodd" clip-rule="evenodd" d="M30 76C29.4216 76.0011 28.8439 76.0379 28.27 76.11L15.11 89.27C15.0379 89.8439 15.0011 90.4216 15 91C15.0041 91.8077 15.0743 92.6137 15.21 93.41L32.62 76H30ZM36.38 76L16 96.37C16.3756 97.3548 16.855 98.2967 17.43 99.18L40.62 76H36.38ZM19.0996 101.28L44.3796 76H48.6196L21.3696 103.28C20.5463 102.693 19.7856 102.023 19.0996 101.28ZM52.38 76L23.75 104.62C24.7683 105.097 25.8389 105.452 26.94 105.68L56.62 76H52.38ZM30.3809 106L60.3809 76H64.6209L34.6209 106H30.3809ZM68.3809 76L38.3809 106H42.6209L72.6209 76H68.3809ZM46.3809 106L76.3809 76H80.6209L50.6209 106H46.3809ZM84.3809 76L54.3809 106H58.6209L88.6209 76H84.3809ZM62.3809 106L92.3809 76H96.6209L66.6209 106H62.3809ZM100.381 76L70.3809 106H74.6209L104.621 76H100.381ZM78.3809 106L108.381 76H112.621L82.6209 106H78.3809ZM116.381 76L86.3809 106H90.6209L120.621 76H116.381ZM94.3809 106L124.381 76H128.621L98.6209 106H94.3809ZM132.381 76L102.381 106H106.621L136.621 76H132.381ZM110.381 106L140.381 76H144.621L114.621 106H110.381ZM148.381 76L118.381 106H122.621L152.621 76H148.381ZM126.381 106L156.381 76H160.621L130.621 106H126.381ZM164.381 76L134.381 106H138.621L168.621 76H164.381ZM142.381 106L172.381 76H176.621L146.621 106H142.381ZM180.381 76L150.381 106H154.621L184.621 76H180.381ZM158.381 106L188.381 76H192.621L162.621 106H158.381ZM196.381 76L166.381 106H170.621L200.621 76H196.381ZM174.381 106L204.381 76H208.621L178.621 106H174.381ZM212.381 76L182.381 106H186.621L216.621 76H212.381ZM190.381 106L220.381 76H224.621L194.621 106H190.381ZM228.381 76L198.381 106H202.621L232.621 76H228.381ZM206.381 106L236.381 76H240.621L210.621 106H206.381ZM244.381 76L214.381 106H218.621L248.621 76H244.381ZM222.381 106L252.381 76H256.621L226.621 106H222.381ZM260.381 76L230.381 106H234.621L264.621 76H260.381ZM238.381 106L268.381 76H272.621L242.621 106H238.381ZM276.381 76L246.381 106H250.621L280.621 76H276.381ZM254.381 106L284.381 76H288.621L258.621 106H254.381ZM292.381 76L262.381 106H266.621L296.621 76H292.381ZM270.381 106L300.381 76H304.621L274.621 106H270.381ZM308.061 76.3198L278.381 106H282.621L311.251 77.3798C310.233 76.9032 309.162 76.5474 308.061 76.3198ZM286.381 106L313.631 78.75C314.453 79.3275 315.213 79.9876 315.901 80.72L290.621 106H286.381ZM317.561 82.8198L294.381 106H298.621L319.001 85.6298C318.622 84.6446 318.139 83.7027 317.561 82.8198ZM319.791 88.5898C319.927 89.3861 319.997 90.1921 320.001 90.9998C320 91.5782 319.963 92.156 319.891 92.7298L306.731 105.89C306.157 105.962 305.579 105.999 305.001 106H302.381L319.791 88.5898Z" fill="#F4F4F3"/>
<g filter="url(#filter0_b_2008_32226)">
<rect x="10" y="70" width="315" height="125" fill="white" fill-opacity="0.8"/>
</g>
<path d="M174.113 140.017C175.042 139.393 175.807 138.553 176.34 137.568C176.873 136.578 177.151 135.471 177.15 134.347C177.159 133.867 177.295 133.398 177.544 132.987C177.793 132.576 178.146 132.239 178.568 132.009C182.309 129.88 185.31 126.658 187.169 122.776C189.028 118.893 189.656 114.535 188.969 110.286C187.128 98.5226 175.309 91.1589 163.583 93.4049C154.378 95.2458 147.327 100.768 147.014 110.525C146.887 112.89 147.611 115.221 149.057 117.096C150.503 118.971 152.574 120.265 154.894 120.742C155.626 120.89 156.375 120.945 157.121 120.908C157.564 120.856 157.984 120.684 158.336 120.411C158.685 120.134 158.957 119.773 159.128 119.362C160.14 117.097 163.233 112.348 171.904 110.82C172.251 110.729 172.618 110.754 172.95 110.89C173.282 111.026 173.561 111.266 173.744 111.575C173.852 111.767 173.915 111.981 173.929 112.201C173.973 112.407 173.973 112.62 173.929 112.826C173.852 113.032 173.725 113.216 173.56 113.36C173.402 113.509 173.214 113.622 173.008 113.692H172.677C168.829 114.507 165.382 116.628 162.919 119.694C160.457 122.761 159.13 126.585 159.164 130.518V134.199C159.141 135.318 159.394 136.424 159.901 137.421C160.434 138.405 161.199 139.245 162.128 139.869C161.066 140.691 160.219 141.759 159.661 142.981C159.091 144.199 158.832 145.54 158.907 146.883C158.741 158.683 177.021 158.812 177.316 147.288V146.754C177.334 146.442 177.334 146.128 177.316 145.816C177.208 144.656 176.87 143.529 176.322 142.502C176.322 142.41 176.23 142.299 176.174 142.207L175.898 141.802L175.622 141.416L175.364 141.103C175.236 140.974 175.125 140.827 174.978 140.698L174.757 140.477L174.26 140.053L174.113 140.017Z" fill="#FF6E83"/>
<path d="M88.2195 48.4945H87.1008V58.9945H88.2195V48.4945ZM79.5925 56.1809L80.1809 57.0801C83.7858 55.3605 85.0911 52.6961 85.0994 49.6257H80.1021V50.5124H83.964C83.7444 52.9613 82.3853 54.855 79.5925 56.1809ZM99.4567 54.2251H95.2011V53.2307H98.4622V52.3564H92.1846V51.3826H98.2467V48.739H91.0533V49.6215H97.1362V50.558H91.0823V53.2307H94.1072V54.2251H89.8475V55.1326H99.4567V54.2251ZM90.9249 56.7569H97.1859V58.9116H98.3047V55.8619H90.9249V56.7569ZM106.745 49.5138H105.485L103.376 50.8978V52.1285L105.402 50.8066H105.452V58H106.745V49.5138ZM111.855 58.1367C113.819 58.1367 114.971 56.5414 114.971 53.761C114.971 51.0014 113.806 49.3978 111.855 49.3978C109.907 49.3978 108.743 50.9972 108.743 53.761C108.739 56.5414 109.895 58.1367 111.855 58.1367ZM110.027 53.761C110.027 51.6478 110.719 50.4959 111.855 50.4959C112.994 50.4959 113.686 51.6478 113.686 53.761C113.686 55.8785 113.002 57.0262 111.855 57.0262C110.711 57.0262 110.023 55.8785 110.027 53.761ZM124.942 48.4945H123.864V52.6423H122.572V48.7762H121.532V58.489H122.572V53.5497H123.864V58.9945H124.942V48.4945ZM115.909 55.9903L116.555 56.7735C119.559 55.0746 120.475 52.5925 120.483 49.8329H116.356V50.7403H119.398C119.228 52.8785 118.25 54.6644 115.909 55.9903ZM137.948 48.4945H136.83V59.0152H137.948V48.4945ZM129.611 52.9655C129.611 55.2279 130.743 56.6575 132.325 56.6575C133.892 56.6575 135.035 55.2279 135.035 52.9655C135.035 50.7155 133.892 49.2859 132.325 49.2818C130.743 49.2859 129.611 50.7155 129.611 52.9655ZM130.685 52.9655C130.685 51.3122 131.356 50.2845 132.325 50.2762C133.295 50.2845 133.958 51.3122 133.958 52.9655C133.958 54.6312 133.295 55.6588 132.325 55.6588C131.356 55.6588 130.685 54.6312 130.685 52.9655ZM143.235 50.1768V49.0414H142.133V50.0815C142.125 51.6436 141.176 53.0483 139.539 53.6326L140.14 54.5152C141.362 54.0635 142.253 53.1395 142.705 51.9627C143.165 52.9986 144.027 53.8149 145.179 54.221L145.771 53.3467C144.205 52.8329 143.235 51.5525 143.235 50.1768ZM140.956 57.0221C140.956 58.2693 142.299 58.9779 144.478 58.9779C146.641 58.9779 147.967 58.2693 147.967 57.0221C147.967 55.7997 146.641 55.0787 144.478 55.0787C142.299 55.0787 140.956 55.7997 140.956 57.0221ZM142.071 57.0221C142.063 56.355 142.962 55.9613 144.478 55.9613C145.991 55.9613 146.877 56.355 146.877 57.0221C146.877 57.7182 145.991 58.0953 144.478 58.1036C142.962 58.0953 142.063 57.7182 142.071 57.0221ZM146.757 54.8301H147.872V52.0663H149.393V51.1381H147.872V48.4945H146.757V54.8301ZM159.586 54.6685H149.976V55.5552H154.207V58.9945H155.301V55.5552H159.586V54.6685ZM151.174 53.4793H158.384V48.9213H157.273V50.2887H152.276V48.9213H151.174V53.4793ZM152.276 52.5843V51.1796H157.273V52.5843H152.276ZM169.12 48.4945H168.017V52.3771H165.925V53.2845H168.017V59.0152H169.12V48.4945ZM160.845 56.5331H161.657C163.609 56.529 164.926 56.4669 166.455 56.2224L166.335 55.3149C164.939 55.5552 163.72 55.6091 161.964 55.6133V53.2638H165.312V52.3771H161.964V50.3384H165.751V49.4268H160.845V56.5331ZM183.257 53.9931H173.648V54.8881H177.991V56.8191H179.093V54.8881H183.257V53.9931ZM174.846 58.779H182.193V57.8674H175.948V55.8992H174.846V58.779ZM174.916 53.0649H181.994V48.8301H180.887V50.0939H176.023V48.8301H174.916V53.0649ZM176.023 52.174V50.9351H180.887V52.174H176.023ZM187.736 50.1644V49.0331H186.622V50.1064C186.617 51.6644 185.669 53.0483 184.019 53.6119L184.62 54.5152C185.843 54.047 186.738 53.1354 187.193 51.9627C187.645 53.0276 188.503 53.8729 189.663 54.2914L190.264 53.4047C188.689 52.8785 187.728 51.5649 187.736 50.1644ZM185.669 56.1478H191.677V58.9945H192.787V55.2652H185.669V56.1478ZM189.464 51.5359H191.677V54.7182H192.787V48.4945H191.677V50.616H189.464V51.5359ZM202.657 48.4613H201.542V54.2334H202.657V51.8301H204.186V50.9227H202.657V48.4613ZM194.42 50.2597H200.668V49.3895H198.103V48.3992H196.997V49.3895H194.42V50.2597ZM194.991 52.3812C194.987 53.4544 196.002 54.1008 197.548 54.1008C199.085 54.1008 200.088 53.4544 200.092 52.3812C200.088 51.3246 199.085 50.6616 197.548 50.6616C196.002 50.6616 194.987 51.3246 194.991 52.3812ZM195.866 55.5552H201.551V56.3798H195.891V58.895H203.013V58.0497H196.984V57.1713H202.657V54.7348H195.866V55.5552ZM196.065 52.3812C196.056 51.8177 196.641 51.4655 197.548 51.4655C198.447 51.4655 199.031 51.8177 199.04 52.3812C199.031 52.953 198.447 53.2845 197.548 53.2887C196.641 53.2845 196.056 52.953 196.065 52.3812ZM213.078 49.4185V48.8467H211.918V49.4185C211.918 50.8315 210.219 52.1243 208.16 52.4019L208.607 53.3094C210.314 53.0359 211.818 52.1492 212.502 50.9061C213.186 52.1409 214.69 53.0359 216.405 53.3094L216.849 52.4019C214.781 52.1243 213.078 50.8149 213.078 49.4185ZM207.708 55.261H211.922V58.9945H213.016V55.261H217.28V54.3412H207.708V55.261ZM224.647 55.4309V54.9296H223.574V55.4309C223.565 56.4503 222.836 57.5401 221.489 58.029L222.045 58.8412C223.035 58.4807 223.731 57.7845 224.108 56.9558C224.431 57.8177 225.069 58.5594 226.08 58.9365C227.042 58.5387 227.672 57.7638 228.003 56.9227C228.368 57.7845 229.072 58.4848 230.108 58.8412L230.659 58.029C229.292 57.5773 228.571 56.5249 228.579 55.4309V54.9296H227.485V55.4309C227.485 56.2348 227.009 57.2376 226.047 57.8591C225.098 57.2873 224.647 56.3343 224.647 55.4309ZM221.22 51.5649C221.22 53.0193 222.405 54.0304 224.017 54.0304C225.625 54.0304 226.806 53.0193 226.806 51.5649C226.806 50.0981 225.625 49.087 224.017 49.087C222.405 49.087 221.22 50.0981 221.22 51.5649ZM222.31 51.5649C222.301 50.645 223.018 50.0235 224.017 50.0318C225.003 50.0235 225.716 50.645 225.716 51.5649C225.716 52.4807 225.003 53.1022 224.017 53.1064C223.018 53.1022 222.301 52.4807 222.31 51.5649ZM228.604 54.4779H229.719V48.5028H228.604V54.4779ZM234.226 49.2818C232.656 49.2859 231.554 50.7155 231.562 52.9655C231.554 55.2279 232.656 56.6575 234.226 56.6575C235.689 56.6575 236.75 55.3854 236.866 53.3384H239.033V59.0152H240.135V48.4945H239.033V52.4309H236.858C236.692 50.4917 235.648 49.2859 234.226 49.2818ZM232.623 52.9655C232.623 51.3122 233.273 50.2845 234.226 50.2762C235.171 50.2845 235.826 51.3122 235.826 52.9655C235.826 54.6312 235.171 55.6588 234.226 55.6588C233.273 55.6588 232.623 54.6312 232.623 52.9655ZM251.36 56.7652H249.056V53.9972C249.901 53.5207 250.411 52.779 250.411 51.8508C250.411 50.1975 248.787 49.1119 246.528 49.1036C244.278 49.1119 242.658 50.1975 242.658 51.8508C242.658 52.7914 243.185 53.5456 244.051 54.018V56.7652H241.751V57.6851H251.36V56.7652ZM243.74 51.8508C243.74 50.7155 244.883 49.9945 246.528 50.0028C248.165 49.9945 249.325 50.7155 249.325 51.8508C249.325 52.9738 248.165 53.7072 246.528 53.7072C244.883 53.7072 243.74 52.9738 243.74 51.8508ZM245.144 56.7652V54.4282C245.567 54.5235 246.031 54.5773 246.528 54.5773C247.03 54.5773 247.502 54.5235 247.933 54.424V56.7652H245.144ZM253.315 58.0787C253.763 58.0787 254.144 57.7058 254.144 57.25C254.144 56.7942 253.763 56.4213 253.315 56.4213C252.855 56.4213 252.474 56.7942 252.482 57.25C252.474 57.7058 252.855 58.0787 253.315 58.0787Z" fill="#FF6E83"/>
<path d="M131.426 23.6112H129.176V32.5615H131.426V28.9565H133.577V27.1167H131.426V23.6112ZM118.554 31.1381L119.443 32.9282C124.254 31.6602 126.933 28.7887 126.939 24.5559H119.344V26.3398H124.49C124.136 28.4717 122.147 30.2493 118.554 31.1381ZM120.953 39.4233H131.426V33.1644H120.953V39.4233ZM123.185 37.6644V34.9731H129.208V37.6644H123.185ZM146.983 23.6112H144.733V32.9157H146.983V29.2238H149.134V27.3591H146.983V23.6112ZM134.061 31.1754L134.993 32.8847C139.792 31.6789 142.471 28.7887 142.477 24.5186H134.9V26.3025H140.053C139.711 28.453 137.703 30.268 134.061 31.1754ZM136.212 35.346H144.733V39.6222H146.983V33.5622H136.212V35.346ZM163.323 23.6112H161.092V25.6561H158.145V24.3011H155.926V26.1782H152.775V24.3011H150.525V31.393H158.145V30.2493H161.092V31.8529H163.323V23.6112ZM152.676 34.1713H161.092V35.0787H152.694V39.442H163.795V37.6768H154.944V36.7258H163.323V32.4496H152.676V34.1713ZM152.775 29.634V27.8688H155.926V29.634H152.775ZM158.145 28.5525V27.328H161.092V28.5525H158.145ZM184.165 31.8218H169.534V33.587H175.93V36.1664H178.149V33.587H184.165V31.8218ZM171.25 39.3425H182.556V37.5338H173.475V34.9109H171.25V39.3425ZM171.417 30.703H182.27V24.1271H180.051V25.799H173.624V24.1271H171.417V30.703ZM173.624 28.9378V27.4648H180.051V28.9378H173.624ZM199.741 35.9675H193.482V33.0773H198.448V31.3246H196.266V26.75H198.522V24.9599H186.253V26.75H188.466V31.3246H186.321V33.0773H191.263V35.9675H185.109V37.8322H199.741V35.9675ZM190.703 31.3246V26.75H194.054V31.3246H190.703ZM213.7 30.7838H204.632V26.5325H213.588V24.7486H202.388V32.5552H206.838V35.9675H200.666V37.7949H215.297V35.9675H209.057V32.5552H213.7V30.7838Z" fill="#1B210D"/>
<defs>
<filter id="filter0_b_2008_32226" x="6" y="66" width="323" height="133" filterUnits="userSpaceOnUse" color-interpolation-filters="sRGB">
<feFlood flood-opacity="0" result="BackgroundImageFix"/>
<feGaussianBlur in="BackgroundImageFix" stdDeviation="2"/>
<feComposite in2="SourceAlpha" operator="in" result="effect1_backgroundBlur_2008_32226"/>
<feBlend mode="normal" in="SourceGraphic" in2="effect1_backgroundBlur_2008_32226" result="shape"/>
</filter>
</defs>
</svg>
