<svg width="239" height="204" viewBox="0 0 239 204" fill="none" xmlns="http://www.w3.org/2000/svg">
<path d="M42.7628 91.6937C42.9387 91.0265 42.9063 90.3196 42.7736 89.6424L40.7966 79.943C40.463 78.3107 40.4341 76.6387 40.7072 75.004C40.7481 74.7627 40.7725 74.5153 40.775 74.2672L40.8875 66.136C40.9224 63.5064 42.9826 61.3507 45.6075 61.1879L49.7409 60.9363C53.4322 60.7145 56.1147 64.4197 54.709 67.832C53.5662 70.6131 52.4846 73.8925 52.0428 77.1707C51.3208 82.4749 54.9135 87.379 54.1199 91.3075C53.4382 94.6717 52.9952 94.2105 45.0153 95.225C43.0217 95.48 39.9741 95.4085 42.1694 92.8271C42.41 92.5481 42.6243 92.2297 42.7682 91.6994L42.7628 91.6937Z" fill="#F8D53F"/>
<path d="M107.319 135.053C107.796 137.905 106.817 143.805 106.382 144.971C105.446 147.474 104.228 151.492 99.6031 152.412C94.9786 153.331 89.3321 152.131 86.3854 149.381C83.4386 146.631 80.4493 147.227 79.6061 147.712C78.763 148.198 77.5707 146.095 78.5245 143.881C79.4784 141.668 83.7111 138.075 84.6224 137.054C86.6579 134.781 87.6458 136.594 90.3711 139.318C91.8871 140.834 94.7742 141.796 93.8119 136.007C93.1816 132.201 92.8495 129.255 92.8495 129.255L107.149 128.098L107.319 135.036V135.053Z" fill="#FF6E82"/>
<path d="M114.027 28.675C111.891 4.37572 83.7668 -7.98894 66.7642 5.65166C64.9659 7.08974 62.6176 7.46335 60.4667 6.65972C40.4951 -0.7915 18.0623 18.5944 22.4911 41.9632C29.4092 94.1429 122.144 80.1216 114.034 28.675H114.027Z" fill="#F8D53F"/>
<path d="M75.4751 30.175C75.2847 29.6392 74.6641 29.3854 74.1564 29.6463C72.4921 30.4852 70.6515 31.2324 68.7333 31.6554C66.8222 32.1065 64.8405 32.2405 62.9717 32.1982C62.4005 32.1841 61.9562 32.6846 62.0126 33.2485C62.062 33.7279 62.4569 34.1015 62.9365 34.1085C64.9463 34.1438 67.0831 33.9464 69.1564 33.5094C71.2157 33.0088 73.2184 32.2546 75.0167 31.3522C75.4469 31.1337 75.6373 30.6261 75.4751 30.175Z" fill="white"/>
<path d="M32.2001 41.7504C32.2001 41.7504 14.2102 47.9045 8.25819 43.7806C7.14395 43.0052 6.06498 42.1804 4.71098 42.0465H4.68982C4.28785 42.0042 3.89293 41.9126 3.50507 41.7927C2.84217 41.5883 1.49521 41.5883 0.832316 42.4765C-0.105615 43.7383 -0.246658 45.7827 0.388032 46.9035C0.973357 47.9398 2.03823 49.2298 3.54033 50.1533C6.09319 51.7112 9.37947 52.3598 12.7151 52.536C17.9055 52.8039 25.3525 51.9439 30.0139 51.0063C34.6754 50.0687 35.7755 47.9186 35.7755 47.9186L37.2565 47.0022L32.2001 41.7434V41.7504Z" fill="#F8D53F"/>
<path d="M8.92636 44.543C8.92636 44.543 8.59491 46.2067 7.34669 46.6155C6.09847 47.0244 6.00679 44.4232 5.80933 43.7676C5.52019 42.8159 4.98423 41.6104 5.73176 41.0394C7.55825 39.6578 8.92636 44.5359 8.92636 44.5359V44.543Z" fill="#F8D53F"/>
<path d="M63.7061 23.9697C63.424 24.019 63.142 23.9626 62.881 23.7935C62.4297 23.5115 62.1123 22.9475 61.9925 22.2144C61.8514 21.4672 61.9501 20.8327 62.2675 20.4098C62.4508 20.163 62.6977 20.0079 62.9798 19.9586C63.2618 19.9092 63.5439 19.9656 63.8049 20.1348C64.2562 20.4168 64.5735 20.9808 64.6934 21.7139C64.8345 22.4611 64.7357 23.0956 64.4184 23.5185C64.235 23.7653 63.9812 23.9204 63.7061 23.9697Z" fill="white"/>
<path d="M70.7364 22.5129C70.4614 22.5904 70.1723 22.5552 69.8972 22.4142C69.4248 22.1745 69.0581 21.6388 68.8676 20.9197C68.6561 20.1937 68.6984 19.5451 68.9805 19.0939C69.1427 18.8331 69.3754 18.6569 69.6504 18.5793C69.9255 18.5018 70.2146 18.537 70.4896 18.678C70.9621 18.9177 71.3288 19.4535 71.5192 20.1725C71.7308 20.8986 71.6885 21.5471 71.4064 21.9983C71.2442 22.2591 71.0115 22.4354 70.7364 22.5129Z" fill="white"/>
<path d="M94.999 121.185C94.3958 118.041 93.4192 114.962 91.7747 112.213C86.6044 103.563 77.8364 102.816 71.869 106.319C69.7003 107.59 67.8189 107.583 66.2822 106.319C64.0489 104.482 59.9988 102.02 55.92 102.02C51.834 102.02 47.7839 104.18 44.8972 106.326C43.2671 107.54 41.041 107.611 39.4109 106.391C33.5512 101.991 22.1693 104.654 17.9038 114.625C14.5574 122.434 16.1444 129.541 17.7458 133.69C18.0833 134.573 19.0097 135.032 19.9432 134.889C22.6648 134.465 25.5013 134.501 28.3593 135.068C28.9697 135.19 29.5657 135.334 30.1617 135.499C30.1617 135.499 34.0539 136.511 37.7162 139.382C38.7574 140.193 38.8077 141.758 37.8598 142.677C37.1201 143.395 35.9568 143.531 35.1166 142.928C32.8977 141.335 30.3126 140.179 27.4545 139.612C23.2177 138.772 19.0384 139.382 15.3904 141.062C7.08921 146.18 6.47882 157.199 12.4247 166.358C17.5088 174.19 26.6933 177.061 35.1382 177.047C35.1382 177.047 54.5484 177.047 67.4383 177.047C78.8489 177.047 85.8073 171.943 90.7263 161.922C98.3453 146.403 96.8445 130.934 94.9846 121.193L94.999 121.185Z" fill="#A485FF"/>
<path d="M34.6429 192.069L35.0235 167.936L49.407 165.711C49.407 165.711 46.4413 185.236 44.2152 194.445C43.4755 197.503 40.2441 196.778 35.8708 196.491C33.2498 196.319 31.8638 195.895 33.2498 194.223C33.5514 193.857 34.4634 193.017 34.6357 192.069H34.6429Z" fill="#A485FF"/>
<path d="M79.6779 191.738L76.8989 167.239L62.3789 165.918C62.3789 165.918 66.6013 184.696 69.524 193.741C70.4934 196.749 70.8525 196.275 78.2633 196.39C80.116 196.418 82.895 196.038 80.6186 193.906C80.3745 193.676 80.1375 193.411 79.9508 192.937C79.8 192.549 79.7138 192.147 79.6636 191.738H79.6779Z" fill="#A485FF"/>
<path d="M28.6833 146.719C28.6833 146.719 10.9534 145.671 7.88713 138.313C7.39883 137.143 6.73099 136.052 5.66102 135.377L5.63948 135.363C5.32351 135.162 5.0291 134.918 4.75622 134.652C4.28945 134.2 3.16922 133.633 2.24287 134.092C0.928748 134.745 -0.0550557 136.389 0.00239228 137.595C0.0526593 138.708 0.390166 140.23 1.25907 141.636C2.72399 144.012 5.18708 145.936 7.89431 147.487C12.1024 149.899 18.6658 152.325 22.9457 153.509C27.2256 154.694 29.0423 153.366 29.0423 153.366L30.6653 153.229L28.6761 146.711L28.6833 146.719Z" fill="#A485FF"/>
<path d="M8.12883 139.223C8.12883 139.223 7.15222 140.472 5.93863 140.278C4.72504 140.084 5.75192 137.888 5.85964 137.256C6.01762 136.344 6.08224 135.11 6.95114 134.952C9.05517 134.571 8.13601 139.216 8.13601 139.216L8.12883 139.223Z" fill="#A485FF"/>
<path d="M81.4219 146.867C81.4219 146.867 96.0137 156.988 94.7929 164.87C94.599 166.126 94.599 167.397 95.1591 168.538V168.56C95.3386 168.897 95.4607 169.256 95.5541 169.622C95.7121 170.247 96.3799 171.323 97.4139 171.409C98.8789 171.531 100.566 170.648 101.148 169.586C101.687 168.61 102.189 167.131 102.182 165.487C102.168 162.695 101.069 159.766 99.5682 157.039C97.2344 152.789 92.8899 147.298 89.8524 144.06C86.8148 140.823 84.5743 141.002 84.5743 141.002L83.1166 140.277L81.4219 146.874V146.867Z" fill="#A485FF"/>
<path d="M50.4548 132.379C50.179 132.379 49.91 132.269 49.6893 132.069C49.3031 131.717 49.0962 131.124 49.11 130.394C49.1031 129.656 49.31 129.056 49.6893 128.705C49.91 128.498 50.179 128.395 50.4548 128.395C50.7307 128.395 50.9996 128.505 51.2203 128.705C51.6065 129.056 51.8065 129.649 51.7996 130.38C51.7996 131.118 51.5996 131.717 51.2203 132.069C50.9996 132.276 50.7307 132.379 50.4548 132.379Z" fill="white"/>
<path d="M57.4777 132.202C57.2018 132.229 56.926 132.146 56.6915 131.96C56.2777 131.643 56.0157 131.071 55.9605 130.34C55.8846 129.603 56.0364 128.989 56.3881 128.603C56.5881 128.382 56.8432 128.252 57.1191 128.224C57.3949 128.196 57.6708 128.279 57.9122 128.465C58.3259 128.782 58.588 129.354 58.6432 130.085C58.719 130.823 58.5673 131.436 58.2156 131.822C58.0156 132.043 57.7604 132.174 57.4846 132.202H57.4777Z" fill="white"/>
<path fill-rule="evenodd" clip-rule="evenodd" d="M67.7341 135.038C68.1437 135.285 68.2758 135.817 68.029 136.227C66.2276 139.218 63.7766 140.325 61.7666 140.658C60.7738 140.822 59.8976 140.797 59.2682 140.732C58.9526 140.699 58.6962 140.655 58.5148 140.619C58.424 140.6 58.3517 140.584 58.2998 140.571C58.2739 140.565 58.253 140.56 58.2375 140.556L58.2182 140.551L58.2116 140.549L58.2091 140.548L58.208 140.548C58.2076 140.548 58.2071 140.548 58.4403 139.714L58.2071 140.548C57.7466 140.419 57.4776 139.941 57.6064 139.481C57.735 139.021 58.211 138.752 58.6707 138.879L58.671 138.879L58.6752 138.88C58.6808 138.882 58.6915 138.884 58.707 138.888C58.7379 138.896 58.788 138.907 58.8552 138.921C58.9898 138.948 59.1924 138.982 59.4481 139.009C59.9613 139.063 60.6775 139.083 61.4836 138.949C63.0712 138.686 65.0438 137.827 66.5456 135.333C66.7923 134.924 67.3244 134.792 67.7341 135.038Z" fill="white"/>
<path fill-rule="evenodd" clip-rule="evenodd" d="M88.4549 153.014C88.8305 152.718 89.3749 152.782 89.6709 153.158C90.9741 154.811 91.9507 156.401 92.6021 157.578C92.9281 158.167 93.1737 158.655 93.3387 158.997C93.4212 159.169 93.4837 159.304 93.5261 159.398C93.5473 159.444 93.5635 159.481 93.5747 159.506L93.5878 159.536L93.5914 159.545L93.593 159.548C93.593 159.549 93.5933 159.549 92.8393 159.871L93.593 159.548C93.7807 159.988 93.5765 160.498 93.1367 160.685C92.6969 160.873 92.1884 160.669 92.0006 160.229C92.0005 160.229 92.0006 160.229 92.0006 160.229L92.7969 159.889C92.0004 160.229 92.0005 160.229 92.0006 160.229L91.9985 160.224L91.9892 160.203C91.9805 160.183 91.9669 160.152 91.9484 160.112C91.9114 160.03 91.8548 159.907 91.7786 159.749C91.6261 159.432 91.3954 158.974 91.0869 158.417C90.469 157.3 89.5427 155.793 88.3109 154.23C88.0149 153.854 88.0793 153.31 88.4549 153.014Z" fill="white"/>
<path d="M177.09 69.8402C186.868 56.7929 184.466 47.0504 183.71 44.642C183.234 43.13 181.963 42.7247 180.911 43.1923C178.86 43.9562 179.344 46.7075 179.344 46.7075C179.96 49.3107 180.373 59.8092 172.108 67.5565C171.102 68.4996 169.706 68.8971 168.358 68.6165C157.138 66.2861 146.354 53.9403 147.212 38.1808C148.085 22.2732 156.35 8.75829 172.147 3.31805C205.955 -9.25373 231.825 32.7951 222.009 64.548C214.454 88.4913 194.251 97.8831 194.251 97.8831C180.56 105.069 171.196 101.788 167.781 95.4046C164.654 89.5591 164.607 84.3449 168.124 79.3957C171.866 74.1191 173.66 73.7839 177.098 69.8324L177.09 69.8402Z" fill="#39C4FF"/>
<path fill-rule="evenodd" clip-rule="evenodd" d="M189.649 36.0178C190.093 36.2857 190.237 36.8634 189.969 37.3082C188.013 40.5556 185.352 41.7578 183.169 42.1192C182.091 42.2977 181.14 42.2707 180.456 42.1993C180.114 42.1635 179.835 42.1163 179.638 42.0768C179.54 42.057 179.461 42.0391 179.405 42.0255C179.377 42.0187 179.354 42.0129 179.337 42.0085L179.316 42.003L179.309 42.001L179.307 42.0003L179.305 41.9999C179.305 41.9998 179.304 41.9997 179.558 41.0942L179.304 41.9997C178.804 41.8598 178.512 41.3411 178.652 40.841C178.792 40.342 179.309 40.0502 179.808 40.188L179.813 40.1893C179.819 40.1909 179.83 40.1938 179.847 40.1979C179.881 40.206 179.935 40.2185 180.008 40.2331C180.154 40.2625 180.374 40.3002 180.652 40.3292C181.209 40.3874 181.987 40.4091 182.862 40.2641C184.586 39.9787 186.728 39.0452 188.358 36.338C188.626 35.8932 189.204 35.7499 189.649 36.0178Z" fill="white"/>
<path d="M221.995 100.282C221.628 99.6978 221.09 99.238 220.505 98.8717L212.077 93.6808C210.658 92.8079 209.418 91.6855 208.412 90.3684C208.264 90.1735 208.1 89.9865 207.921 89.815L202.065 84.1721C200.171 82.3483 200.007 79.371 201.683 77.3445L204.326 74.1568C206.689 71.3119 211.227 71.8887 212.755 75.2479C214.003 77.9836 215.656 81.0155 217.745 83.5798C221.121 87.734 227.156 88.4666 229.48 91.7323C231.468 94.5304 230.829 94.5382 226.111 101.054C224.934 102.683 222.798 104.857 222.416 101.49C222.377 101.124 222.291 100.75 222.002 100.282H221.995Z" fill="#39C4FF"/>
<path d="M210.82 43.0301C210.82 43.0301 227.381 33.1628 226.656 24.5348C226.539 23.1631 226.64 21.7836 227.327 20.5911L227.342 20.5677C227.545 20.2092 227.709 19.835 227.833 19.4453C228.052 18.7829 228.855 17.6683 229.978 17.6527C231.568 17.6293 233.338 18.7205 233.884 19.913C234.391 21.0119 234.827 22.6487 234.695 24.4335C234.469 27.4576 233.057 30.5441 231.225 33.3889C228.379 37.8159 223.264 43.4354 219.724 46.7167C216.192 49.998 213.775 49.6316 213.775 49.6316L212.146 50.3097L210.805 43.0379L210.82 43.0301Z" fill="#39C4FF"/>
<path d="M226.887 25.5319C226.887 25.5319 228.454 26.2489 229.53 25.4539C230.606 24.6589 228.517 23.0534 228.096 22.5C227.488 21.6972 226.809 20.5437 225.897 20.8243C223.683 21.5101 226.887 25.5241 226.887 25.5241V25.5319Z" fill="#39C4FF"/>
<path d="M174.756 32.2022C174.444 32.2022 174.14 32.0775 173.89 31.8515C173.453 31.454 173.22 30.7837 173.235 29.9575C173.227 29.1236 173.461 28.4455 173.89 28.048C174.14 27.8142 174.444 27.6973 174.756 27.6973C175.067 27.6973 175.371 27.822 175.621 28.048C176.058 28.4455 176.284 29.1158 176.276 29.942C176.276 30.7759 176.05 31.454 175.621 31.8515C175.371 32.0853 175.067 32.2022 174.756 32.2022Z" fill="white"/>
<path d="M182.69 32.0011C182.378 32.0322 182.066 31.9387 181.801 31.7283C181.333 31.3698 181.037 30.7228 180.975 29.8967C180.889 29.0627 181.06 28.369 181.458 27.9326C181.684 27.6832 181.973 27.5351 182.285 27.5039C182.597 27.4727 182.908 27.5663 183.181 27.7767C183.649 28.1352 183.945 28.7821 184.008 29.6083C184.094 30.4423 183.922 31.1359 183.524 31.5724C183.298 31.8218 183.01 31.9699 182.698 32.0011H182.69Z" fill="white"/>
<path fill-rule="evenodd" clip-rule="evenodd" d="M227.583 38.2443C227.895 37.8294 228.484 37.7459 228.899 38.0578C229.314 38.3698 229.397 38.9592 229.085 39.3742L228.334 38.8094C229.085 39.3742 229.086 39.3741 229.085 39.3742L229.084 39.3764L229.081 39.3806L229.07 39.3953L229.028 39.4489C228.993 39.4951 228.941 39.5619 228.873 39.6475C228.738 39.8185 228.539 40.0643 228.283 40.3689C227.772 40.9779 227.028 41.8236 226.095 42.778C224.235 44.6806 221.596 47.0435 218.518 48.8135C218.068 49.0724 217.494 48.9173 217.235 48.4672C216.976 48.0171 217.131 47.4424 217.581 47.1835C220.453 45.532 222.955 43.3002 224.75 41.4637C225.645 40.5485 226.357 39.7385 226.844 39.1591C227.087 38.8696 227.274 38.638 227.399 38.4803C227.461 38.4014 227.508 38.341 227.539 38.301L227.573 38.2567L227.581 38.2464L227.583 38.2443Z" fill="white"/>
<path d="M157.441 154.784C157.441 154.784 143.628 152.019 142.374 146.08C142.14 144.966 141.954 143.826 141.236 143.134L141.225 143.122C141.01 142.915 140.828 142.67 140.667 142.406C140.392 141.952 139.604 141.365 138.737 141.806C137.512 142.43 136.327 144.032 136.094 145.226C135.878 146.326 135.801 147.836 136.185 149.24C136.834 151.617 138.403 153.566 140.257 155.151C143.142 157.616 147.951 160.137 151.178 161.389C154.407 162.643 156.202 161.365 156.202 161.365L157.559 161.259L157.441 154.784Z" fill="#92DC2F"/>
<path d="M142.359 146.995C142.359 146.995 141.272 148.21 140.32 147.999C139.368 147.788 140.72 145.63 140.955 145.013C141.298 144.115 141.633 142.898 142.379 142.76C144.187 142.425 142.36 146.995 142.36 146.995L142.359 146.995Z" fill="#92DC2F"/>
<path d="M210.264 147.253C210.264 147.253 227.909 141.371 230.092 134.63C230.501 133.365 230.849 132.082 231.824 131.179L231.841 131.164C232.13 130.894 232.385 130.59 232.615 130.267C233.007 129.716 234.057 128.911 235.101 129.212C236.577 129.638 237.903 131.141 238.074 132.397C238.232 133.553 238.174 135.187 237.549 136.798C236.49 139.527 234.317 141.98 231.826 144.095C227.949 147.383 221.645 151.132 217.46 153.169C213.275 155.206 211.149 154.184 211.149 154.184L209.453 154.349L210.264 147.255V147.253Z" fill="#92DC2F"/>
<path d="M230.016 135.623C230.016 135.623 231.259 136.725 232.477 136.297C233.696 135.87 232.218 133.794 231.985 133.169C231.645 132.259 231.349 131.001 230.426 131.004C228.188 131.012 230.016 135.623 230.016 135.623Z" fill="#92DC2F"/>
<path d="M178.331 175.054C179.494 177.154 181.072 181.496 181.489 183.735C181.889 185.884 182.245 188.734 180.052 191.901C177.763 195.207 173.855 197.563 170.56 197.618C167.263 197.673 165.847 199.725 165.626 200.482C165.406 201.239 163.509 200.689 162.817 198.845C162.127 197.001 162.569 192.485 162.526 191.37C162.429 188.879 164.082 189.964 167.192 189.441C169.352 189.079 170.706 188.054 169.267 184.461C168.102 181.556 165.779 178.159 165.779 178.159L177.03 172.207L178.331 175.054Z" fill="#92DC2F"/>
<path d="M174.721 136.023C175.663 136.524 176.568 137.094 177.425 137.73L178.58 138.587C179.522 139.286 179.856 140.54 179.389 141.615C178.741 143.103 176.908 143.561 175.581 142.626C170.746 139.214 167.256 137.197 158.329 138.5L156.641 138.747C156.641 138.747 156.641 138.718 156.641 138.747C147.732 140.046 141.209 151.303 140.489 162.283C139.349 179.65 156.174 187.792 167.279 186.171C177.037 184.747 180.996 180.422 187.582 179.46C193.564 178.587 196.821 181.862 208.328 180.183C221.984 178.191 226.066 168.571 225.768 155.993C225.693 152.831 224.828 147.751 223.91 144.724C216.194 119.284 206.123 106.175 198.194 98.3058L198.164 98.3092C189.396 90.5182 173.639 92.1805 166.7 101.694H166.689C160.533 109.866 158.755 121.554 157.43 130.615C157.225 132.009 158.32 133.232 159.73 133.176C163.218 133.034 169.506 133.254 174.723 136.023H174.721Z" fill="#92DC2F"/>
<path d="M183.98 130.4C179.728 129.693 177.377 126.498 177.344 126.453C177.116 126.135 177.189 125.694 177.507 125.466C177.824 125.24 178.265 125.311 178.492 125.627C178.65 125.847 182.452 130.956 189.303 128.433C189.669 128.297 190.077 128.485 190.212 128.852C190.346 129.218 190.158 129.626 189.792 129.761C187.582 130.575 185.635 130.678 183.978 130.402L183.98 130.4Z" fill="white"/>
<path d="M207.92 199.363C207.689 198.732 207.656 198.045 207.727 197.376L208.771 187.791C208.946 186.182 208.824 184.555 208.41 182.992C208.348 182.761 208.3 182.525 208.275 182.287L207.436 174.412C207.165 171.865 204.973 169.956 202.413 170.038L198.381 170.166C194.785 170.281 192.512 174.115 194.186 177.299C195.548 179.894 196.89 182.979 197.613 186.114C198.787 191.194 195.75 196.269 196.875 200.012C197.838 203.21 198.226 202.722 206.06 202.994C208.015 203.062 210.964 202.719 208.604 200.418C208.35 200.17 208.109 199.882 207.922 199.376L207.917 199.364L207.92 199.363Z" fill="#92DC2F"/>
<path d="M180.861 120.139C179.961 119.989 179.362 119.491 179.282 119.421C178.988 119.165 178.956 118.718 179.212 118.423C179.467 118.13 179.911 118.097 180.206 118.35C180.226 118.366 180.8 118.831 181.535 118.759C182.1 118.704 182.652 118.346 183.174 117.697C183.419 117.393 183.863 117.345 184.17 117.591C184.474 117.836 184.522 118.282 184.276 118.586C183.497 119.553 182.612 120.085 181.645 120.17C181.366 120.195 181.103 120.18 180.861 120.14V120.139Z" fill="white"/>
<path d="M188.643 118.562C187.742 118.413 187.143 117.915 187.064 117.845C186.769 117.589 186.737 117.141 186.994 116.847C187.248 116.554 187.693 116.522 187.987 116.774C188.005 116.79 188.583 117.253 189.317 117.183C189.881 117.128 190.433 116.77 190.956 116.121C191.2 115.817 191.645 115.769 191.951 116.015C192.255 116.259 192.304 116.705 192.057 117.01C191.279 117.977 190.393 118.509 189.426 118.594C189.147 118.619 188.884 118.604 188.643 118.564V118.562Z" fill="white"/>
<path d="M59.2689 94.0279C59.2689 94.0279 58.1192 95.986 56.3477 95.9434C54.5763 95.9008 55.6238 92.5806 55.6664 91.6697C55.726 90.3416 55.5813 88.5794 56.7821 88.1963C59.7033 87.2598 59.2689 94.0364 59.2689 94.0364V94.0279Z" fill="#FF6E82"/>
<path d="M157.333 147.156C156.711 146.594 156.285 145.853 155.979 145.078L151.618 133.917C150.886 132.044 149.813 130.325 148.458 128.835C148.254 128.613 148.067 128.384 147.905 128.137L142.454 119.947C140.691 117.299 137.174 116.456 134.397 118.014L130.028 120.475C126.128 122.671 125.83 128.196 129.509 130.742C132.507 132.819 135.76 135.441 138.358 138.48C142.573 143.401 142.148 150.74 145.537 154.213C148.441 157.184 148.586 156.427 157.375 152.212C159.573 151.165 162.621 149.088 158.695 147.913C158.27 147.786 157.844 147.607 157.341 147.156H157.333Z" fill="#FF6E82"/>
<path d="M107.474 46.6607C118.938 43.8428 120.99 44.8303 131.21 40.3949C137.53 37.6536 140.596 34.9633 149.708 36.334C156.948 37.4152 162.551 43.4937 162.381 50.8067C162.211 58.2303 157.271 63.8577 152.911 66.8373C149.734 68.821 143.679 72.1667 135.98 74.3632C134.608 74.7548 133.791 76.151 134.046 77.5471C134.344 79.1562 135.946 80.0841 137.538 79.718C140.246 79.0966 142.018 78.4666 142.018 78.4666C146.438 76.8746 150.168 75.0442 152.996 73.4692C154.886 72.4136 157.356 72.967 158.421 74.8484C159.153 76.1424 159.877 77.5386 160.567 79.0114C162.637 83.4469 164.374 88.6911 164.868 94.6419C166.597 115.695 154.197 134.178 129.907 140.384C100.218 147.978 71.3385 128.304 68.545 98.4219C66.2285 74.0567 83.415 51.1983 107.474 46.6437V46.6607Z" fill="#FF6E82"/>
<path d="M89.8966 100.816C89.8966 100.816 64.4489 100.62 58.7598 92.7709C57.6952 91.2981 56.6988 89.7742 55.0466 89.0165L55.021 88.9995C54.5271 88.7696 54.0672 88.4801 53.6328 88.1566C52.8919 87.6033 51.18 86.9988 49.9536 87.8331C48.2162 89.008 47.1176 91.5279 47.4327 93.2306C47.7138 94.8056 48.4803 96.8998 49.9792 98.7302C52.5086 101.829 56.3752 104.111 60.5142 105.805C66.9528 108.444 76.7384 110.657 83.0407 111.543C89.3515 112.428 91.6851 110.198 91.6851 110.198L93.959 109.695L89.9051 100.807L89.8966 100.816Z" fill="#FF6E82"/>
<path d="M127.797 94.8863C127.43 94.98 127.039 94.9374 126.672 94.7416C126.042 94.4096 125.557 93.6944 125.31 92.7239C125.037 91.7449 125.105 90.885 125.489 90.2891C125.71 89.9401 126.025 89.7102 126.391 89.608C126.758 89.5059 127.149 89.5569 127.516 89.7528C128.146 90.0848 128.631 90.7999 128.878 91.7704C129.151 92.7495 129.083 93.6093 128.699 94.2053C128.478 94.5543 128.163 94.7841 127.797 94.8863Z" fill="white"/>
<path d="M136.054 93.4C135.688 93.4936 135.296 93.4511 134.93 93.2553C134.3 92.9232 133.815 92.2081 133.568 91.2376C133.295 90.2585 133.363 89.3987 133.746 88.8028C133.968 88.4537 134.283 88.2239 134.649 88.1217C135.015 88.0196 135.407 88.0706 135.773 88.2664C136.404 88.5984 136.889 89.3136 137.136 90.2841C137.409 91.2631 137.34 92.123 136.957 92.7189C136.736 93.068 136.421 93.2978 136.054 93.4Z" fill="white"/>
<path fill-rule="evenodd" clip-rule="evenodd" d="M119.3 101.254C119.714 100.947 120.299 101.034 120.606 101.448L119.856 102.004C120.606 101.448 120.606 101.448 120.605 101.447L120.605 101.447L120.604 101.446C120.604 101.446 120.604 101.446 120.604 101.446C120.604 101.446 120.604 101.446 120.604 101.446L120.609 101.453C120.615 101.46 120.624 101.472 120.638 101.489C120.666 101.524 120.71 101.578 120.771 101.649C120.893 101.79 121.079 101.994 121.328 102.232C121.828 102.711 122.57 103.321 123.534 103.842C125.438 104.872 128.242 105.579 131.876 104.173C132.357 103.986 132.898 104.225 133.084 104.706C133.27 105.187 133.031 105.728 132.55 105.914C128.332 107.547 124.957 106.735 122.646 105.485C121.502 104.866 120.627 104.147 120.036 103.581C119.74 103.297 119.514 103.05 119.358 102.87C119.28 102.78 119.22 102.707 119.178 102.654C119.157 102.627 119.14 102.606 119.128 102.59L119.114 102.571L119.109 102.564L119.107 102.562L119.106 102.561C119.106 102.561 119.106 102.56 119.856 102.004L119.106 102.56C118.798 102.146 118.885 101.561 119.3 101.254Z" fill="white"/>
<path fill-rule="evenodd" clip-rule="evenodd" d="M67.2743 109.016C67.423 108.522 67.9439 108.243 68.4377 108.391C71.9148 109.439 75.5749 109.758 78.3855 109.81C79.7865 109.836 80.9666 109.796 81.7943 109.749C82.2079 109.726 82.533 109.701 82.7529 109.682C82.8629 109.673 82.9465 109.665 83.0018 109.66L83.0631 109.653L83.0773 109.652L83.0802 109.652C83.0803 109.652 83.0802 109.652 83.0802 109.652M83.0802 109.652C83.5927 109.595 84.0544 109.964 84.1112 110.477C84.168 110.989 83.7986 111.451 83.286 111.508L83.1938 110.675C83.286 111.508 83.2862 111.508 83.286 111.508L83.285 111.508L83.2776 111.509L83.2578 111.511L83.1851 111.518C83.122 111.524 83.0303 111.533 82.912 111.543C82.6754 111.563 82.3323 111.589 81.8992 111.614C81.0333 111.662 79.8059 111.704 78.3507 111.677C75.4487 111.623 71.6014 111.295 67.8991 110.18C67.4053 110.031 67.1256 109.51 67.2743 109.016" fill="#A485FF"/>
<path fill-rule="evenodd" clip-rule="evenodd" d="M141.835 32.6276C141.672 32.6656 141.549 32.6944 141.471 32.7103C140.835 32.8396 140.216 32.4293 140.086 31.7939C139.957 31.1585 140.367 30.5386 141.003 30.4094C141.049 30.4 141.135 30.3796 141.256 30.3508C142.313 30.0993 146.059 29.2086 149.58 29.4294C151.543 29.5524 153.637 30.0269 155.183 31.3223C156.806 32.6815 157.625 34.7707 157.331 37.6456C157.265 38.2906 156.689 38.7601 156.044 38.6942C155.399 38.6282 154.929 38.0519 154.995 37.4068C155.227 35.1378 154.581 33.8812 153.675 33.1222C152.693 32.2996 151.197 31.8835 149.434 31.7729C146.331 31.5783 143.027 32.3494 141.835 32.6276Z" fill="white"/>
<path d="M142.462 33.2186C140.69 34.1335 139.687 36.0995 140.194 38.0267C140.515 39.2336 141.352 40.5573 143.309 41.5987C148.041 44.1196 155.987 41.3554 156.123 36.5667C156.259 31.7781 150.164 31.8559 148.071 31.817C146.639 31.7975 144.303 32.2647 142.453 33.2186H142.462Z" fill="#39C4FF"/>
<path d="M142.355 146.991C142.355 146.991 141.268 148.206 140.316 147.995C139.365 147.784 140.716 145.626 140.951 145.009C141.294 144.111 141.629 142.894 142.375 142.756C144.183 142.421 142.356 146.991 142.356 146.991L142.355 146.991Z" fill="#92DC2F"/>
</svg>
