<svg width="44" height="44" viewBox="0 0 44 44" fill="none" xmlns="http://www.w3.org/2000/svg">
<rect x="8" y="8" width="28" height="28" fill="#F4F4F3"/>
<path fill-rule="evenodd" clip-rule="evenodd" d="M24.9588 17.3824C26.4451 17.3824 27.65 16.1775 27.65 14.6912C27.65 13.2049 26.4451 12 24.9588 12C23.4725 12 22.2676 13.2049 22.2676 14.6912C22.2676 15.0751 22.348 15.4402 22.4928 15.7707L18.2152 19.4524C17.8 19.1904 17.3082 19.0388 16.7811 19.0388C15.2947 19.0388 14.0898 20.2437 14.0898 21.73C14.0898 23.2163 15.2947 24.4212 16.7811 24.4212C18.2674 24.4212 19.4723 23.2163 19.4723 21.73C19.4723 21.3465 19.3921 20.9818 19.2475 20.6516L23.5256 16.9695C23.9406 17.2311 24.432 17.3824 24.9588 17.3824ZM24.9588 31.4601C26.4451 31.4601 27.65 30.2552 27.65 28.7688C27.65 27.2825 26.4451 26.0776 24.9588 26.0776C24.3605 26.0776 23.8078 26.2729 23.361 26.6031L21.0565 24.899C20.7052 24.6392 20.2098 24.7134 19.95 25.0648C19.6902 25.4161 19.7644 25.9115 20.1157 26.1713L22.4196 27.8749C22.3211 28.1546 22.2676 28.4555 22.2676 28.7688C22.2676 30.2552 23.4725 31.4601 24.9588 31.4601Z" fill="#FF6E83"/>
</svg>
