<svg width="105" height="71" viewBox="0 0 105 71" fill="none" xmlns="http://www.w3.org/2000/svg">
<path d="M26.0703 55.6547C23.4646 55.6595 21.5551 56.9503 21.5551 58.9081C21.5551 60.7403 23.1553 61.9586 25.4274 62.1471V64.5594H20.4964V65.6326H31.707V64.5594H26.7133V62.1519C28.995 61.9586 30.6 60.7403 30.6 58.9081C30.6 56.9503 28.6905 55.6595 26.0703 55.6547ZM22.8169 58.9081C22.8169 57.5787 24.1849 56.7037 26.0703 56.7086C27.9702 56.7037 29.3334 57.5787 29.3334 58.9081C29.3334 60.2811 27.9702 61.1319 26.0703 61.1416C24.1849 61.1319 22.8169 60.2811 22.8169 58.9081ZM42.221 54.9102H40.9206V61.8329H42.221V58.8743H43.9952V57.8011H42.221V54.9102ZM32.5428 60.9675L33.0601 62.0021C36.7051 61.0256 38.8322 58.8163 38.8419 55.6837H33.1085V56.7376H37.4351C37.1934 58.6568 35.4676 60.1989 32.5428 60.9675ZM34.3702 66.9959H42.221V62.355H34.3702V66.9959ZM35.6609 65.9565V63.4233H40.9351V65.9565H35.6609ZM58.6426 54.9102H57.3857V59.7831H55.8774V55.2003H54.6592V66.5704H55.8774V60.8467H57.3857V67.1602H58.6426V54.9102ZM48.1571 63.7569L48.9161 64.6802C52.6288 62.616 53.557 59.6478 53.5666 56.375H48.8097V57.4337H52.2904C52.2517 58.0331 52.1599 58.6084 52.0148 59.1644L48.1861 59.4012L48.365 60.5276L51.6571 60.1796C51.0528 61.5525 49.9651 62.7562 48.1571 63.7569ZM70.3748 54.9199H69.0744V62.4081H70.3748V54.9199ZM60.832 56.6844H65.1732V58.125H60.8562V61.7797H61.8762C64.1966 61.7797 65.8645 61.7169 67.8658 61.3978L67.7015 60.3488C65.8403 60.634 64.2691 60.7017 62.1227 60.7065V59.1354H66.4591V55.6354H60.832V56.6844ZM62.0696 64.0953H69.0744V67.1602H70.3748V63.0318H62.0696V64.0953ZM82.5276 54.9102H81.2417V59.4399H78.8004V60.4986H81.2417V67.1844H82.5276V54.9102ZM72.8736 64.2887H73.8211C76.098 64.2838 77.6353 64.2113 79.4192 63.9261L79.279 62.8674C77.6498 63.1478 76.2286 63.2106 74.1788 63.2155V60.4744H78.0849V59.4399H74.1788V57.0615H78.5973V55.9979H72.8736V64.2887Z" fill="#D1D3CF"/>
<rect width="105" height="50" fill="white"/>
<path d="M28.5579 12.0229C31.5009 11.8047 31.9675 12.1339 34.6701 11.4654C36.3426 11.0513 37.2092 10.518 39.4007 11.2331C41.1399 11.8027 42.269 13.5317 41.9216 15.3294C41.5701 17.1534 40.1178 18.3371 38.918 18.8885C38.0515 19.246 36.4214 19.8176 34.4298 20.0398C34.0763 20.0782 33.8157 20.3893 33.8218 20.7448C33.8299 21.1548 34.1833 21.4497 34.5934 21.4255C35.2882 21.3851 35.7488 21.3043 35.7488 21.3043C36.9042 21.0962 37.902 20.7993 38.6615 20.5307C39.1725 20.3489 39.7583 20.5872 39.9421 21.0962C40.0673 21.4457 40.1905 21.8194 40.2976 22.2132C40.6228 23.3929 40.8329 24.7583 40.7056 26.249C40.2552 31.5149 36.4275 35.5567 30.1799 36.0758C22.5447 36.7121 16.2446 30.6564 16.8001 23.1707C17.2445 17.0645 22.4336 12.142 28.5559 12.0229H28.5579Z" fill="#BBBDB6"/>
<path d="M21.4284 22.8164C21.4284 22.8164 17.734 27.9974 15.3101 28.0358C14.8556 28.0439 14.4011 28.0277 14.0072 28.256L14.0012 28.26C13.884 28.3287 13.7588 28.3792 13.6295 28.4236C13.4094 28.4964 13.0417 28.7589 13.0357 29.1306C13.0276 29.6558 13.3851 30.2415 13.779 30.4233C14.1406 30.591 14.6819 30.7364 15.2717 30.692C16.2695 30.6193 17.2916 30.1547 18.2329 29.5528C19.6973 28.6155 21.5556 26.9289 22.6423 25.7634C23.729 24.598 23.6078 23.8001 23.6078 23.8001L23.832 23.2628L21.4304 22.8164H21.4284Z" fill="#BBBDB6"/>
<path d="M15.6406 28.1142C15.6406 28.1142 15.8769 28.6313 15.6144 28.9868C15.3518 29.3423 14.8226 28.6515 14.6408 28.5122C14.3782 28.3102 13.9944 28.086 14.0893 27.785C14.3156 27.0538 15.6406 28.1142 15.6406 28.1142Z" fill="#BBBDB6"/>
<path d="M27.7127 33.4941C28.2156 34.0152 28.8539 35.3665 28.9287 35.6675C29.0923 36.3159 29.4114 37.3157 28.5913 38.1641C27.7369 39.0488 26.4401 39.5659 25.4423 39.4185C24.4445 39.271 23.9153 39.8204 23.8102 40.0386C23.7052 40.2567 23.1598 39.9961 23.0447 39.4043C22.9296 38.8125 23.2871 37.4713 23.3295 37.1339C23.4244 36.3765 23.885 36.6088 24.8343 36.7845C25.3615 36.8815 26.0927 36.6674 25.0727 35.615C24.4021 34.9222 23.9153 34.3627 23.9153 34.3627L26.6926 32.0923L27.7147 33.4961L27.7127 33.4941Z" fill="#BBBDB6"/>
<path d="M33.0878 32.7216C33.6473 33.1983 34.5684 34.2688 34.9299 34.8647C35.2753 35.4363 35.6854 36.214 35.4006 37.3573C35.1016 38.551 34.2391 39.6478 33.2999 40.0195C32.3626 40.3911 32.1788 41.1324 32.197 41.3728C32.2152 41.6132 31.6133 41.6596 31.2153 41.2072C30.8174 40.7547 30.4579 39.4135 30.3246 39.0984C30.0276 38.3955 30.6174 38.5288 31.4517 38.042C32.0314 37.7047 32.3081 37.2664 31.5082 36.3917C30.8619 35.6848 29.8297 34.9637 29.8297 34.9637L32.4071 32.0449L33.0878 32.7196V32.7216Z" fill="#BBBDB6"/>
<path d="M31.5584 24.764C31.4635 24.7721 31.3706 24.7438 31.2877 24.6832C31.1464 24.5761 31.0555 24.3782 31.0353 24.1297C31.009 23.8773 31.0615 23.6672 31.1807 23.5359C31.2494 23.4591 31.3362 23.4147 31.4312 23.4066C31.5261 23.3985 31.619 23.4268 31.7018 23.4874C31.8432 23.5945 31.9321 23.7924 31.9543 24.0409C31.9806 24.2934 31.9281 24.5034 31.8089 24.6347C31.7402 24.7115 31.6533 24.7559 31.5584 24.764Z" fill="white"/>
<path d="M33.66 24.7396C33.565 24.7477 33.4721 24.7194 33.3893 24.6588C33.2479 24.5517 33.157 24.3538 33.1368 24.1053C33.1106 23.8528 33.1631 23.6428 33.2823 23.5115C33.3509 23.4347 33.4378 23.3903 33.5327 23.3822C33.6277 23.3741 33.7206 23.4024 33.8034 23.463C33.9448 23.5701 34.0337 23.768 34.0559 24.0165C34.0821 24.2689 34.0296 24.479 33.9104 24.6103C33.8418 24.6871 33.7549 24.7315 33.66 24.7396Z" fill="white"/>
<path d="M29.3097 26.188C29.3097 26.188 30.1661 27.8746 32.2305 27.4524" stroke="white" stroke-width="0.435907" stroke-linecap="round" stroke-linejoin="round"/>
<path d="M53.7479 31.9761C54.281 32.4887 55.1381 33.6226 55.4621 34.2439C55.7738 34.8406 56.1367 35.6464 55.7779 36.7762C55.4047 37.9552 54.4676 39.003 53.5039 39.3188C52.5402 39.6346 52.3085 40.3645 52.3126 40.6085C52.3167 40.8525 51.7077 40.8607 51.3386 40.3809C50.9675 39.9011 50.6907 38.5314 50.5758 38.2074C50.3216 37.4836 50.906 37.6538 51.7733 37.2171C52.3762 36.9136 52.6817 36.4912 51.9333 35.5644C51.3284 34.8139 50.3359 34.0265 50.3359 34.0265L53.1061 31.2563L53.7459 31.9761H53.7479Z" fill="#D1D3CF"/>
<path d="M49.5846 21.4576C49.8778 21.556 50.1628 21.677 50.4396 21.8164L50.8107 22.0071C51.1122 22.1629 51.268 22.5053 51.186 22.8334C51.0711 23.2886 50.5688 23.508 50.1464 23.303C48.6024 22.5566 47.5074 22.1465 45.0161 22.9441L44.5445 23.0938C44.5445 23.0938 44.5445 23.0856 44.5445 23.0938C42.0593 23.8894 40.7286 27.4183 41.0464 30.5924C41.5467 35.6119 46.7447 37.1395 49.8429 36.1492C52.5659 35.2777 53.4907 33.8526 55.3279 33.2641C56.997 32.731 58.0837 33.5102 61.2948 32.4829C65.1045 31.2629 65.814 28.3184 65.1312 24.7362C64.959 23.8361 64.4709 22.4233 64.0629 21.6031C60.6468 14.6951 57.1426 11.4267 54.5016 9.55459H54.4934C51.6166 7.74607 47.1896 8.97225 45.6579 12.0213H45.6538C44.282 14.652 44.3292 18.0784 44.3825 20.7317C44.3907 21.1397 44.7619 21.437 45.1617 21.355C46.1521 21.1479 47.9606 20.9121 49.5846 21.4555V21.4576Z" fill="#D1D3CF"/>
<path d="M50.0234 18.4517C50.0234 18.4517 51.4895 19.9136 53.4949 18.7715" stroke="white" stroke-width="0.604688" stroke-linecap="round" stroke-linejoin="round"/>
<path d="M60.6288 40.1441C60.557 39.9493 60.5467 39.7381 60.5693 39.533L60.8912 36.5824C60.9445 36.0862 60.9076 35.5859 60.7805 35.1061C60.762 35.0343 60.7477 34.9626 60.7395 34.8887L60.4811 32.4651C60.3971 31.6798 59.7225 31.0933 58.9351 31.1179L57.6945 31.1569C56.5873 31.1917 55.8881 32.3728 56.4028 33.3529C56.8231 34.1506 57.2352 35.102 57.4587 36.0657C57.8196 37.6302 56.8846 39.1927 57.2311 40.343C57.5285 41.3272 57.6474 41.1775 60.0587 41.2616C60.6595 41.2821 61.5679 41.1775 60.842 40.4681C60.7641 40.3922 60.6903 40.304 60.6308 40.1482V40.1441H60.6288Z" fill="#D1D3CF"/>
<path d="M50.207 16.3174C50.207 16.3174 50.857 16.7173 51.3102 15.9155" stroke="white" stroke-width="0.604688" stroke-linecap="round" stroke-linejoin="round"/>
<path d="M52.3594 15.4961C52.3594 15.4961 53.0094 15.896 53.4625 15.0942" stroke="white" stroke-width="0.604688" stroke-linecap="round" stroke-linejoin="round"/>
<path d="M46.8892 27.5128C46.8892 27.5128 40.9531 27.3529 39.5629 29.1389C39.3025 29.4731 39.0585 29.8196 38.6668 29.9857H38.6607C38.5438 30.037 38.4351 30.1026 38.3306 30.1743C38.1522 30.2974 37.7503 30.4245 37.4694 30.2195C37.0736 29.9303 36.8378 29.3357 36.9239 28.94C37.0019 28.575 37.1987 28.0911 37.5616 27.6769C38.1768 26.9736 39.0954 26.4732 40.0755 26.1124C41.597 25.5485 43.8976 25.1097 45.376 24.9559C46.8544 24.8021 47.3813 25.3393 47.3813 25.3393L47.9083 25.4747L46.8913 27.5149L46.8892 27.5128Z" fill="#D1D3CF"/>
<path d="M39.6935 28.8499C39.6935 28.8499 39.4413 28.3845 39.0292 28.3804C38.617 28.3763 38.8344 29.1596 38.8364 29.3728C38.8385 29.6824 38.7913 30.0925 39.0681 30.193C39.7407 30.435 39.6956 28.852 39.6956 28.852L39.6935 28.8499Z" fill="#D1D3CF"/>
<path d="M90.5501 17.0009C90.3574 15.9965 90.0458 15.0147 89.5211 14.1374C87.871 11.3763 85.0751 11.1385 83.1709 12.2557C82.4801 12.6615 81.8795 12.6595 81.3896 12.2557C80.6763 11.6694 79.3849 10.8823 78.0833 10.8823C76.7796 10.8823 75.4862 11.571 74.5679 12.2557C74.0473 12.6431 73.3381 12.6656 72.8174 12.2762C70.948 10.8721 67.3178 11.7227 65.9568 14.9019C64.8909 17.3945 65.3952 19.6615 65.9076 20.9877C66.0162 21.2686 66.3094 21.4182 66.6086 21.3711C67.4777 21.2358 68.3817 21.2481 69.2918 21.4284C69.4865 21.4674 69.6771 21.5125 69.8678 21.5658C69.8678 21.5658 71.1099 21.8896 72.2783 22.8059C72.6104 23.0642 72.6247 23.5643 72.3234 23.8574C72.0877 24.087 71.7167 24.1301 71.4482 23.9374C70.741 23.429 69.9149 23.058 69.0048 22.8776C67.652 22.6091 66.3196 22.8038 65.1574 23.3409C62.5091 24.9746 62.3143 28.492 64.2124 31.415C65.8338 33.9137 68.765 34.832 71.4584 34.8258C71.4584 34.8258 77.6528 34.8258 81.7627 34.8258C85.4031 34.8258 87.623 33.1983 89.1931 29.9986C91.6242 25.0443 91.1445 20.1084 90.5521 17.0009H90.5501Z" fill="#BBBDB6"/>
<path d="M77.0056 20.2983C76.9134 20.2983 76.8252 20.2634 76.7514 20.1958C76.6244 20.079 76.5547 19.8801 76.5588 19.6382C76.5567 19.3923 76.6244 19.1934 76.7514 19.0766C76.8252 19.009 76.9134 18.9741 77.0056 18.9741C77.0979 18.9741 77.186 19.009 77.2598 19.0766C77.3869 19.1934 77.4566 19.3923 77.4525 19.6342C77.4545 19.8801 77.3869 20.079 77.2598 20.1958C77.186 20.2634 77.0979 20.2983 77.0056 20.2983Z" fill="white"/>
<path d="M79.3367 20.2369C79.2445 20.2451 79.1543 20.2185 79.0743 20.157C78.937 20.0525 78.8509 19.8618 78.8304 19.6199C78.8058 19.376 78.855 19.171 78.9718 19.044C79.0395 18.9702 79.1235 18.9271 79.2158 18.9189C79.308 18.9107 79.3982 18.9374 79.4781 18.9989C79.6155 19.1034 79.7016 19.294 79.7221 19.5359C79.7467 19.7798 79.6975 19.9848 79.5806 20.1119C79.513 20.1857 79.4289 20.2287 79.3367 20.2369Z" fill="white"/>
<path d="M78.8828 22.9132C78.8828 22.9132 80.6497 23.4092 81.7054 21.6587" stroke="white" stroke-width="0.604486" stroke-linecap="round" stroke-linejoin="round"/>
<path d="M86.707 25.6773C86.707 25.6773 90.9558 28.6241 90.6003 30.9189C90.5439 31.2846 90.5439 31.6545 90.707 31.9868V31.9931C90.7592 32.0913 90.7948 32.1958 90.8219 32.3024C90.8679 32.4842 91.0624 32.7977 91.3635 32.8228C91.79 32.8583 92.2814 32.6013 92.4508 32.2919C92.6076 32.0077 92.754 31.5772 92.7519 31.0986C92.7477 30.2856 92.4278 29.4329 91.9908 28.6388C91.3112 27.4015 90.0462 25.8027 89.1618 24.8602C88.2773 23.9176 87.6249 23.9699 87.6249 23.9699L87.2005 23.7588L86.707 25.6794V25.6773Z" fill="#BBBDB6"/>
<path d="M90.8302 30.7607C90.8302 30.7607 91.2264 30.6106 91.4753 30.8243C91.7261 31.038 91.1862 31.3981 91.0733 31.5271C90.9106 31.7139 90.7249 31.9873 90.5067 31.9026C89.9745 31.6965 90.8283 30.7607 90.8283 30.7607H90.8302Z" fill="#BBBDB6"/>
<path d="M90.0278 29.5019C90.0278 29.5019 89.725 28.6299 89.1211 27.6885" stroke="white" stroke-width="0.604486" stroke-miterlimit="10" stroke-linecap="round"/>
<path d="M73.3882 31.1536C72.711 31.4421 71.5103 32.1994 70.9867 32.664C70.4632 33.1285 69.8588 33.7384 69.788 34.9295C69.7172 36.1206 70.2085 37.496 70.9928 38.1406C71.7751 38.7853 71.7286 39.5569 71.6397 39.784C71.5507 40.0112 72.1107 40.2404 72.6261 39.9232C73.1416 39.606 73.8895 38.421 74.1099 38.157C74.6051 37.5676 74.0007 37.5164 73.3518 36.794C72.901 36.2926 72.7676 35.783 73.7945 35.1833C74.6254 34.6983 75.8261 34.3156 75.8261 34.3156L74.2433 30.7095L73.3923 31.1536H73.3882Z" fill="#BBBDB6"/>
<path d="M83.6301 40.1998C83.6014 39.9948 83.6383 39.7857 83.7039 39.591L84.6509 36.7787C84.8108 36.3073 84.8804 35.8092 84.86 35.3131C84.8559 35.2393 84.8579 35.1655 84.8661 35.0917L85.1346 32.6689C85.2207 31.8859 84.6898 31.1664 83.913 31.0229L82.6933 30.7954C81.6049 30.5925 80.6682 31.5948 80.9613 32.6627C81.199 33.5318 81.3979 34.5485 81.4102 35.5386C81.4266 37.1436 80.1783 38.4677 80.2705 39.6668C80.3484 40.6917 80.498 40.5708 82.8348 41.1693C83.4169 41.319 84.327 41.4112 83.7695 40.5626C83.71 40.4704 83.6567 40.3679 83.6321 40.2039V40.1998H83.6301Z" fill="#BBBDB6"/>
</svg>
