<svg width="335" height="50" viewBox="0 0 335 50" fill="none" xmlns="http://www.w3.org/2000/svg">
<rect width="335" height="50" rx="12" fill="#D1D3CF"/>
<g opacity="0.3">
<mask id="mask0_1324_27485" style="mask-type:alpha" maskUnits="userSpaceOnUse" x="0" y="0" width="335" height="50">
<rect width="335" height="50" rx="12" fill="#E8E0FF"/>
</mask>
<g mask="url(#mask0_1324_27485)">
<path d="M295.465 70.6432C297.129 69.5262 298.497 68.0222 299.452 66.2603C300.405 64.4875 300.904 62.5059 300.902 60.4932C300.919 59.6339 301.162 58.7942 301.608 58.0593C302.054 57.3243 302.685 56.7201 303.44 56.308C310.137 52.4968 315.509 46.7299 318.837 39.7798C322.165 32.8297 323.289 25.0285 322.059 17.4216C318.764 -3.63633 297.607 -16.8181 276.615 -12.7977C260.137 -9.50224 247.516 0.384126 246.956 17.85C246.727 22.0825 248.024 26.2566 250.613 29.6131C253.201 32.9697 256.908 35.2856 261.06 36.1398C262.372 36.4035 263.711 36.5031 265.048 36.4364C265.84 36.3433 266.592 36.0357 267.223 35.5466C267.847 35.0514 268.335 34.4048 268.64 33.6682C270.452 29.6148 275.989 21.1125 291.51 18.3773C292.132 18.2153 292.789 18.2595 293.383 18.5031C293.978 18.7468 294.477 19.1768 294.806 19.7284C294.999 20.0721 295.112 20.4553 295.135 20.8489C295.215 21.2181 295.215 21.6002 295.135 21.9694C294.998 22.3376 294.771 22.666 294.476 22.925C294.192 23.1908 293.855 23.393 293.487 23.5182H292.894C286.007 24.9778 279.835 28.7741 275.427 34.2637C271.018 39.7532 268.644 46.5983 268.706 53.6387V60.2296C268.664 62.2311 269.116 64.2121 270.024 65.9966C270.979 67.7586 272.347 69.2626 274.011 70.3796C272.11 71.8506 270.594 73.7619 269.595 75.9489C268.574 78.1302 268.11 80.5306 268.244 82.9353C267.948 104.059 300.671 104.29 301.199 83.6603V82.7046C301.232 82.1448 301.232 81.5836 301.199 81.0239C301.006 78.948 300.401 76.9314 299.419 75.0921C299.419 74.9273 299.254 74.7296 299.156 74.5648L298.661 73.8398L298.167 73.1478L297.706 72.5875C297.475 72.3568 297.277 72.0932 297.014 71.8625L296.618 71.4671L295.728 70.7091L295.465 70.6432Z" fill="#BBBDB6"/>
<path opacity="0.5" d="M320.116 10.2046C309.288 31.7101 290.985 48.5251 268.641 57.4944V60.2296C268.619 62.2367 269.095 64.218 270.025 65.9966C270.98 67.7586 272.348 69.2626 274.012 70.3796C272.111 71.8506 270.595 73.762 269.596 75.9489C268.575 78.1302 268.111 80.5306 268.245 82.9353C268.057 86.6172 269.229 90.2399 271.538 93.114C273.847 95.9881 277.132 97.9131 280.768 98.5228H288.776C292.276 97.9164 295.45 96.0922 297.735 93.3725C300.021 90.6528 301.271 87.2128 301.266 83.6603V82.7046C301.299 82.1448 301.299 81.5836 301.266 81.0239C301.073 78.948 300.468 76.9314 299.486 75.0921C299.486 74.9273 299.321 74.7296 299.223 74.5648L298.728 73.8398L298.234 73.1478L297.773 72.5875C297.542 72.3569 297.344 72.0932 297.08 71.8625L296.685 71.4671L295.795 70.7091H295.466C297.13 69.5921 298.498 68.0881 299.453 66.3262C300.406 64.5535 300.905 62.5719 300.903 60.5591C300.92 59.6998 301.163 58.8601 301.609 58.1252C302.055 57.3902 302.686 56.7861 303.441 56.3739C310.138 52.5628 315.51 46.7958 318.838 39.8457C322.166 32.8956 323.29 25.0944 322.06 17.4875C321.682 14.9957 321.03 12.5532 320.116 10.2046Z" fill="#BBBDB6"/>
</g>
</g>
</svg>
