<svg width="59" height="24" viewBox="0 0 59 24" fill="none" xmlns="http://www.w3.org/2000/svg">
<path d="M9.19025 12.7907C9.93608 12.2017 10.4767 12.4903 10.777 12.7306C11.2486 13.1121 11.8391 13.3158 12.4455 13.3063C13.0345 13.3063 13.5151 12.9942 13.5151 12.4536C13.5151 11.913 13.0145 11.601 12.4339 11.601C11.7247 11.601 11.4594 11.7679 11.039 11.8897C10.2464 12.1049 9.12852 11.541 9.09348 10.8318C9.04509 9.78733 9.1769 8.00869 9.33374 7.34795C9.56233 6.39856 10.198 6.1099 11.0757 6.03815C12.242 5.95361 13.4127 5.94971 14.5796 6.02647C15.4456 6.07486 15.9144 6.50701 15.9144 7.29956C15.9144 8.15217 15.4139 8.47754 14.5446 8.56096C13.6935 8.63614 12.8383 8.65232 11.985 8.60936C11.98 8.97665 11.9398 9.34263 11.8649 9.70224C12.3118 9.54432 12.7844 9.47131 13.2581 9.48699C14.5729 9.48699 16.2848 10.4197 16.2848 12.5738C16.2848 14.8096 14.6747 15.8775 12.4038 15.8775C10.8304 15.8775 9.49726 15.3619 8.78814 14.269C8.45777 13.7568 8.58958 13.2712 9.19025 12.7907Z" fill="#82857A"/>
<path d="M24.4629 9.53443C24.3661 9.60784 24.2593 9.66791 24.1625 9.72797C24.2857 10.0332 24.3469 10.3599 24.3427 10.689C24.3427 12.2024 23.2248 13.2719 20.7137 13.2719C20.4267 13.2719 20.1497 13.2602 19.8978 13.2352C19.8564 13.2506 19.8211 13.2788 19.7971 13.3158C19.773 13.3527 19.7615 13.3964 19.7643 13.4405C19.7643 13.644 19.9695 13.7408 20.7137 13.7408C23.1164 13.7408 24.4629 14.6168 24.4629 16.2603C24.4629 17.6418 23.2365 18.6513 20.7137 18.6513C18.1909 18.6513 16.9545 17.6335 16.9545 16.2603C16.9422 15.9426 17.0126 15.6272 17.1589 15.345C17.3051 15.0627 17.5222 14.8233 17.7888 14.6501C17.6492 14.5072 17.5392 14.3381 17.4651 14.1525C17.3909 13.967 17.3541 13.7687 17.3566 13.5689C17.3607 13.3635 17.4127 13.162 17.5086 12.9803C17.6045 12.7987 17.7416 12.642 17.9089 12.5228C17.638 12.3039 17.4216 12.0251 17.2769 11.7083C17.1321 11.3915 17.0629 11.0455 17.0746 10.6974C17.0746 9.19572 18.1909 8.14955 20.7137 8.14955C21.2685 8.14397 21.8218 8.20844 22.3605 8.34143C22.5972 8.09257 22.8807 7.89297 23.1948 7.75411C23.8789 7.44043 24.4312 7.5005 24.7682 7.92097C25.1603 8.41819 25.0752 9.0856 24.4629 9.53443ZM20.7137 15.6145C20.4484 15.6127 20.1836 15.5927 19.9211 15.5545C19.8236 15.686 19.7768 15.8484 19.7893 16.0117C19.7893 16.3353 20.053 16.5639 20.7137 16.5639C21.3744 16.5639 21.628 16.3971 21.628 16.0634C21.6264 15.7714 21.3627 15.6262 20.7137 15.6145ZM21.4946 10.609C21.4946 10.3337 21.3027 10.1084 20.7137 10.1084C20.1247 10.1084 19.9211 10.3253 19.9211 10.609C19.9211 10.8926 20.1731 11.1095 20.7137 11.1095C21.3027 11.1095 21.4946 10.8693 21.4946 10.604V10.609Z" fill="#82857A"/>
<path d="M32.5446 14.581C32.4845 15.4453 31.9422 15.8774 31.0662 15.8774C30.4539 15.8774 29.985 15.6622 29.7565 15.2417C29.3844 15.6138 28.8071 15.8774 27.9544 15.8774C26.321 15.8774 25.1797 15.0849 25.1797 13.68C25.1797 12.2751 26.2008 11.4692 27.9628 11.4692C28.6302 11.4692 29.1308 11.5893 29.4878 11.8179C29.4278 11.2406 29.0924 10.7834 28.3599 10.7834C27.7919 10.7791 27.2275 10.8728 26.6914 11.0604C25.5851 11.3841 24.9361 9.55872 25.9222 8.89131C26.5712 8.45916 27.7125 8.13379 28.9739 8.13379C30.9194 8.13379 32.5779 9.32345 32.6146 11.3173C32.6347 12.839 32.6046 13.715 32.5446 14.581ZM29.5162 13.1861C28.9756 12.7906 28.1463 12.8624 28.1463 13.5715C28.1463 13.8602 28.3265 14.1488 28.8321 14.1488C29.2642 14.1488 29.5162 13.9319 29.5162 13.5231V13.1861Z" fill="#82857A"/>
<path d="M40.8239 14.581C40.7638 15.4453 40.2232 15.8774 39.3472 15.8774C38.7332 15.8774 38.266 15.6622 38.0374 15.2417C37.6653 15.6138 37.088 15.8774 36.2354 15.8774C34.6003 15.8774 33.459 15.0849 33.459 13.68C33.459 12.2751 34.4801 11.4692 36.2354 11.4692C36.9028 11.4692 37.4034 11.5893 37.7604 11.8179C37.7004 11.2406 37.365 10.7834 36.6309 10.7834C36.0629 10.7794 35.4985 10.8731 34.9623 11.0604C33.8578 11.3841 33.2087 9.55872 34.1948 8.89131C34.8422 8.45916 35.9835 8.13379 37.2449 8.13379C39.192 8.13379 40.8506 9.32345 40.8856 11.3173C40.909 12.839 40.8839 13.715 40.8239 14.581ZM37.7972 13.1861C37.2566 12.7906 36.4273 12.8624 36.4273 13.5715C36.4273 13.8602 36.6075 14.1488 37.1114 14.1488C37.5452 14.1488 37.7972 13.9319 37.7972 13.5231V13.1861Z" fill="#82857A"/>
<path d="M53.2324 14.462C53.124 15.3263 52.6318 15.8786 51.7541 15.8786C50.8765 15.8786 50.3726 15.3863 50.3259 14.522C50.2775 13.561 50.2658 12.66 50.2658 11.5788C50.2658 11.1449 50.1807 10.4959 49.6518 10.4959C49.5383 10.5051 49.429 10.5432 49.3344 10.6066C49.2397 10.67 49.1629 10.7565 49.1112 10.858C49.1475 12.0606 49.1074 13.2644 48.991 14.462C48.9076 15.3263 48.4621 15.8786 47.5861 15.8786C46.7102 15.8786 46.2647 15.3863 46.2046 14.522C46.1329 13.5209 46.1078 12.5398 46.1078 11.5788C46.1078 11.1449 46.0244 10.4959 45.4955 10.4959C45.3853 10.5056 45.2793 10.5426 45.187 10.6035C45.0947 10.6644 45.0189 10.7472 44.9665 10.8446C44.9798 12.052 44.9319 13.2594 44.8231 14.462C44.7496 15.3263 44.2574 15.8786 43.3814 15.8786C42.5055 15.8786 42.0717 15.3263 41.9749 14.462C41.8082 12.7833 41.816 11.0918 41.9982 9.41468C42.1067 8.47863 42.7808 8.1416 43.4415 8.1416C44.0422 8.1416 44.6429 8.41858 44.8231 9.17442C45.1568 8.62214 45.7591 8.1416 46.9137 8.1416C47.8982 8.1416 48.5589 8.65884 48.8709 9.36796C49.1829 8.73059 49.7836 8.1416 51.07 8.1416C52.4749 8.1416 53.3159 9.19944 53.3642 10.3774C53.4199 11.7403 53.3759 13.1055 53.2324 14.462Z" fill="#82857A"/>
</svg>
