<svg width="38" height="38" viewBox="0 0 38 38" fill="none" xmlns="http://www.w3.org/2000/svg">
<rect width="38" height="38" fill="white"/>
<path fill-rule="evenodd" clip-rule="evenodd" d="M5.77002 21.6766C5.59076 20.7874 5.50033 19.8827 5.50003 18.9756V18.9866C5.49817 18.0765 5.58863 17.1685 5.77002 16.2766C5.86911 15.7911 6.14493 15.3596 6.544 15.0659C6.94308 14.7721 7.43698 14.637 7.93002 14.6866C8.21332 14.7193 8.49979 14.6634 8.75003 14.5266C8.9999 14.3915 9.20494 14.1865 9.34002 13.9366C9.47354 13.6817 9.52588 13.3921 9.49002 13.1066C9.45991 12.8244 9.34879 12.557 9.17004 12.3366C8.85195 11.9599 8.68418 11.4791 8.69894 10.9863C8.71371 10.4935 8.90996 10.0235 9.25003 9.6666C10.8613 7.99428 12.876 6.76484 15.1 6.0966C15.6013 5.94904 16.1404 6.00349 16.602 6.24831C17.0636 6.49313 17.411 6.90887 17.57 7.4066C17.6677 7.69581 17.8529 7.94745 18.1 8.1266C18.3427 8.30771 18.6372 8.40589 18.94 8.4066C19.2459 8.40592 19.5436 8.30785 19.79 8.1266C20.0316 7.94416 20.2128 7.6933 20.31 7.4066C20.465 6.90744 20.8092 6.48876 21.2689 6.24018C21.7287 5.99161 22.2675 5.93289 22.77 6.0766C24.9941 6.74484 27.0087 7.97427 28.62 9.6466C28.9643 10.0028 29.1641 10.4742 29.1807 10.9693C29.1973 11.4644 29.0296 11.9481 28.71 12.3266C28.5225 12.5387 28.407 12.8048 28.38 13.0866C28.349 13.3719 28.4011 13.6602 28.53 13.9166C28.6654 14.1669 28.871 14.3722 29.1215 14.5072C29.372 14.6423 29.6565 14.7011 29.94 14.6766C30.4331 14.6269 30.927 14.7621 31.326 15.0559C31.7251 15.3496 32.0009 15.7811 32.1 16.2666C32.2832 17.155 32.377 18.0595 32.38 18.9666C32.3819 19.8767 32.2914 20.7847 32.11 21.6766C32.011 22.1621 31.7351 22.5936 31.3361 22.8873C30.937 23.1811 30.4431 23.3163 29.95 23.2666C29.667 23.2389 29.3819 23.2945 29.13 23.4266C28.8795 23.5653 28.6745 23.7737 28.54 24.0266C28.4109 24.2794 28.3587 24.5645 28.39 24.8466C28.4189 25.1309 28.534 25.3996 28.72 25.6166C29.0368 25.9945 29.2028 26.476 29.1862 26.9688C29.1696 27.4616 28.9715 27.9309 28.63 28.2866C27.0216 29.9625 25.0059 31.1925 22.78 31.8566C22.2788 32.0042 21.7397 31.9497 21.2781 31.7049C20.8165 31.4601 20.469 31.0443 20.31 30.5466C20.2128 30.2599 20.0316 30.009 19.79 29.8266C19.5416 29.6505 19.2446 29.5559 18.94 29.5559C18.6355 29.5559 18.3385 29.6505 18.09 29.8266C17.8484 30.009 17.6673 30.2599 17.57 30.5466C17.411 31.0443 17.0636 31.4601 16.602 31.7049C16.1404 31.9497 15.6013 32.0042 15.1 31.8566C12.8741 31.1925 10.8585 29.9625 9.25003 28.2866C8.90854 27.9309 8.71049 27.4616 8.69388 26.9688C8.67726 26.476 8.84327 25.9945 9.16003 25.6166C9.34605 25.3996 9.46119 25.1309 9.49002 24.8466C9.52196 24.5645 9.46978 24.2792 9.34002 24.0266C9.20556 23.7737 9.00061 23.5653 8.75003 23.4266C8.49812 23.2945 8.2131 23.2389 7.93002 23.2666C7.43698 23.3163 6.94308 23.1811 6.544 22.8873C6.14493 22.5936 5.86911 22.1621 5.77002 21.6766ZM23.12 18.9566C23.12 21.2652 21.2486 23.1366 18.94 23.1366C16.6315 23.1366 14.76 21.2652 14.76 18.9566C14.76 16.6481 16.6315 14.7766 18.94 14.7766C21.2486 14.7766 23.12 16.6481 23.12 18.9566Z" fill="#82857A"/>
</svg>
