<svg width="61" height="10" viewBox="0 0 61 10" fill="none" xmlns="http://www.w3.org/2000/svg">
<path d="M2.57028 4.752C2.57028 6.12 3.66228 7.212 5.01828 7.2C6.20628 7.212 7.10628 6.384 7.27428 5.28H6.24228C6.13428 5.844 5.65428 6.24 5.01828 6.24C4.20228 6.24 3.54228 5.58 3.53028 4.752C3.54228 3.936 4.20228 3.276 5.01828 3.264C5.65428 3.276 6.21828 3.672 6.33828 4.224H7.34628C7.19028 3.132 6.20628 2.304 5.01828 2.304C3.66228 2.304 2.57028 3.396 2.57028 4.752ZM0.602281 4.752C0.602281 7.164 2.58228 9.132 4.99428 9.144C7.41828 9.132 9.36228 7.164 9.36228 4.752C9.35028 2.34 7.41828 0.383999 4.99428 0.383999C2.58228 0.383999 0.614281 2.34 0.602281 4.752ZM1.58628 4.752C1.59828 2.88 3.12228 1.356 4.99428 1.368C6.85428 1.356 8.37828 2.88 8.37828 4.752C8.39028 6.624 6.86628 8.16 4.99428 8.16C3.11028 8.16 1.57428 6.624 1.58628 4.752ZM11.1626 0.504V9H12.1466V2.592H12.2426L14.8586 9H15.7946L18.4346 2.592H18.5306V9H19.5146V0.504H18.2426L15.3866 7.488H15.2906L12.4346 0.504H11.1626ZM21.7653 9L22.6053 6.624H26.0373L26.8773 9H27.9813L24.8613 0.504H23.7573L20.6613 9H21.7653ZM22.9413 5.688L24.2853 1.872H24.3573L25.7013 5.688H22.9413ZM35.8831 0.504H34.8511V7.128H34.7551L30.1471 0.504H29.1391V9H30.1951V2.4H30.2671L34.8751 9H35.8831V0.504ZM43.5364 3.168H44.6404C44.3164 1.524 42.9364 0.396 41.1364 0.408C38.9644 0.396 37.4164 2.076 37.4164 4.752C37.4164 7.44 38.9404 9.12 41.2084 9.12C43.2364 9.12 44.6764 7.764 44.6884 5.664V4.752H41.4244V5.688H43.6564C43.6204 7.188 42.6364 8.124 41.2084 8.136C39.6364 8.124 38.4484 6.948 38.4484 4.752C38.4484 2.568 39.6364 1.38 41.1364 1.392C42.3484 1.38 43.1764 2.076 43.5364 3.168ZM46.2485 9H47.3045V5.928H49.1525C51.1205 5.916 52.0205 4.716 52.0325 3.216C52.0205 1.704 51.1205 0.516 49.1285 0.504H46.2485V9ZM47.3045 4.992V1.44H49.0805C50.4485 1.452 50.9765 2.196 50.9765 3.216C50.9765 4.224 50.4485 4.98 49.1045 4.992H47.3045ZM60.6667 4.752C60.6667 2.076 59.0827 0.396 56.9227 0.408C54.7387 0.396 53.1547 2.076 53.1547 4.752C53.1547 7.44 54.7387 9.12 56.9227 9.12C59.0827 9.12 60.6667 7.44 60.6667 4.752ZM54.1867 4.752C54.1867 2.568 55.3747 1.38 56.9227 1.392C58.4467 1.38 59.6347 2.568 59.6347 4.752C59.6347 6.948 58.4467 8.124 56.9227 8.136C55.3747 8.124 54.1867 6.948 54.1867 4.752Z" fill="#BBBDB6"/>
</svg>
