<svg width="375" height="386" viewBox="0 0 375 386" fill="none" xmlns="http://www.w3.org/2000/svg">
<path d="M168.375 88.7719C165.696 58.2525 130.38 42.725 109.034 59.8514C106.784 61.6564 103.833 62.1262 101.122 61.1207C76.0501 51.7662 47.8879 76.1043 53.4429 105.462C62.1297 170.992 178.553 153.388 168.367 88.7719H168.375Z" fill="#F8D53F"/>
<path d="M119.969 90.6593C119.73 89.9834 118.955 89.6702 118.312 89.9917C116.227 91.0466 113.911 91.9779 111.504 92.5137C109.106 93.0741 106.617 93.2472 104.276 93.1977C103.559 93.1812 102.999 93.8076 103.073 94.5164C103.131 95.1181 103.625 95.5879 104.227 95.5961C106.749 95.6373 109.436 95.3983 112.032 94.8378C114.612 94.2032 117.134 93.2637 119.392 92.1263C119.927 91.8543 120.167 91.2197 119.96 90.651L119.969 90.6593Z" fill="white"/>
<path d="M71.3444 111.47C71.3444 111.47 50.8306 123.684 49.9487 132.734C49.7839 134.432 49.6932 136.138 48.7207 137.539L48.7042 137.564C48.4157 137.984 48.1767 138.437 47.9789 138.899C47.641 139.698 46.5448 140.992 45.152 140.901C43.1822 140.77 41.1135 139.253 40.553 137.728C40.0338 136.319 39.6629 134.259 40.0008 132.066C40.5778 128.357 42.63 124.682 45.1767 121.352C49.1328 116.168 56.0064 109.739 60.696 106.039C65.3856 102.338 68.3279 103.039 68.3279 103.039L70.4049 102.363L71.3362 111.478L71.3444 111.47Z" fill="#F8D53F"/>
<path d="M71.3444 111.47C71.3444 111.47 50.8306 123.684 49.9487 132.734C49.7839 134.432 49.6932 136.138 48.7207 137.539L48.7042 137.564C48.4157 137.984 48.1767 138.437 47.9789 138.899C47.641 139.698 46.5448 140.992 45.152 140.901C43.1822 140.77 41.1135 139.253 40.553 137.728C40.0338 136.319 39.6629 134.259 40.0008 132.066C40.5778 128.357 42.63 124.682 45.1767 121.352C49.1328 116.168 56.0064 109.739 60.696 106.039C65.3856 102.338 68.3279 103.039 68.3279 103.039L70.4049 102.363L71.3362 111.478L71.3444 111.47Z" fill="#F8D53F"/>
<path d="M49.7699 131.472C49.7699 131.472 47.9072 130.433 46.4979 131.298C45.0885 132.172 47.5116 134.364 47.9732 135.081C48.649 136.128 49.366 137.628 50.5199 137.373C53.3221 136.746 49.7699 131.472 49.7699 131.472Z" fill="#F8D53F"/>
<path d="M156.473 86.2292C156.473 86.2292 179.752 80.9309 186.631 86.8771C187.921 87.9931 189.163 89.1662 190.833 89.5104L190.862 89.5169C191.361 89.6225 191.847 89.786 192.308 89.9838C193.104 90.3299 194.79 90.5112 195.737 89.4851C197.072 88.0314 197.525 85.5067 196.88 84.0159C196.284 82.6372 195.132 80.8891 193.375 79.5343C190.4 77.2459 186.379 75.9987 182.239 75.3431C175.799 74.3163 166.388 74.3998 160.44 74.9532C154.492 75.5065 152.844 78.0427 152.844 78.0427L150.874 78.9853L156.484 86.2295L156.473 86.2292Z" fill="#F8D53F"/>
<path d="M185.894 85.8369C185.894 85.8369 186.527 83.8004 188.145 83.4554C189.768 83.1163 189.525 86.3749 189.685 87.2125C189.917 88.4366 190.432 90.0174 189.42 90.628C186.959 92.1065 185.894 85.8369 185.894 85.8369Z" fill="#F8D53F"/>
<path d="M104.665 144.057C105.333 146.439 105.877 151.178 105.761 153.519C105.646 155.769 105.324 158.711 102.366 161.365C99.2833 164.134 94.7997 165.568 91.4783 164.835C88.1568 164.101 86.2447 165.824 85.8409 166.533C85.437 167.242 83.665 166.236 83.4178 164.217C83.1705 162.198 84.687 157.772 84.9095 156.651C85.4041 154.129 86.8052 155.612 90.0524 155.827C92.3107 155.975 93.9096 155.274 93.3244 151.327C92.8464 148.129 91.3299 144.173 91.3299 144.173L104.039 140.884L104.665 144.049V144.057Z" fill="#F8D53F"/>
<path d="M105.19 82.8702C104.836 82.9361 104.481 82.8619 104.152 82.6559C103.591 82.3015 103.187 81.5927 103.031 80.6696C102.849 79.7383 102.973 78.9388 103.377 78.4031C103.608 78.0982 103.921 77.9003 104.275 77.8344C104.63 77.7685 104.984 77.8427 105.314 78.0487C105.874 78.4031 106.278 79.1119 106.435 80.035C106.616 80.9663 106.492 81.7658 106.088 82.3015C105.858 82.6064 105.544 82.8042 105.19 82.8702Z" fill="white"/>
<path d="M114.02 81.0407C113.674 81.1396 113.311 81.0902 112.965 80.9171C112.372 80.6121 111.91 79.9446 111.671 79.038C111.407 78.1231 111.457 77.3154 111.811 76.7467C112.017 76.4171 112.306 76.1945 112.652 76.1039C112.998 76.0132 113.361 76.0462 113.707 76.2275C114.3 76.5325 114.762 77.2 115.001 78.1066C115.265 79.0215 115.215 79.8292 114.861 80.3979C114.655 80.7275 114.366 80.9501 114.02 81.0407Z" fill="white"/>
<path d="M137.464 141.98C139.088 143.851 142.739 146.909 144.758 148.104C146.695 149.249 149.332 150.601 153.181 149.595C157.03 148.59 160.854 145.59 162.074 142.417C163.294 139.244 165.783 138.593 166.59 138.65C167.398 138.708 167.538 136.672 165.997 135.354C164.456 134.035 159.923 132.865 158.86 132.436C156.478 131.463 156.948 133.45 155.34 136.277C154.228 138.238 152.753 139.194 149.777 136.532C147.371 134.381 144.898 130.928 144.898 130.928L135.156 139.73L137.456 141.996L137.464 141.98Z" fill="#F8D53F"/>
<path d="M263.644 151.948C261.892 154.439 260.132 160.492 260.022 161.785C259.775 164.59 259.104 168.96 263.066 171.936C267.206 175.048 272.937 176.34 276.984 175.073C281.031 173.807 283.598 175.737 284.176 176.57C284.754 177.403 286.846 175.966 286.948 173.432C287.05 170.899 284.669 165.56 284.27 164.182C283.377 161.096 281.617 162.371 277.783 163.723C275.657 164.471 272.469 164.072 276.023 159.013C278.361 155.689 280.01 153.044 280.01 153.044L266.968 145.435L263.644 151.948Z" fill="#39C4FF"/>
<path d="M240.707 126.493C259.029 119.564 262.88 108.137 263.663 105.212C264.156 103.367 263.127 102.143 261.758 101.939C259.182 101.386 257.898 104.489 257.898 104.489C256.844 107.533 250.493 118.433 237.119 120.966C235.487 121.272 233.82 120.779 232.63 119.623C222.759 110.033 219.792 90.5544 230.828 75.1401C241.974 59.5727 259.063 51.2067 278.575 55.8743C320.95 64.9206 320.049 124.231 289.62 150.095C266.519 169.496 239.993 166.002 239.993 166.002C221.475 164.455 214.104 155.102 214.759 146.422C215.354 138.481 218.678 133.167 225.429 130.412C232.622 127.479 234.654 128.295 240.69 126.501L240.707 126.493Z" fill="#39C4FF"/>
<path d="M273.473 106.878C273.473 106.878 279.679 111.095 286.047 105.688" stroke="white" stroke-width="2.50729" stroke-linecap="round" stroke-linejoin="round"/>
<path d="M232.247 178.687C232.749 178.024 233.038 177.225 233.191 176.417L235.427 164.735C235.801 162.771 236.532 160.901 237.587 159.209C237.74 158.954 237.884 158.698 238.003 158.426L241.838 149.448C243.079 146.54 246.352 145.087 249.345 146.107L254.055 147.714C258.255 149.151 259.548 154.49 256.419 157.644C253.877 160.212 251.173 163.366 249.183 166.801C245.961 172.37 247.704 179.452 245.026 183.457C242.73 186.883 242.45 186.169 233.115 183.652C230.785 183.023 227.435 181.552 231.049 179.69C231.44 179.486 231.831 179.24 232.23 178.712V178.695L232.247 178.687Z" fill="#39C4FF"/>
<path d="M284.598 122.097C284.598 122.097 306.278 130.242 313.837 123.092C315.036 121.953 316.404 121.009 318.045 120.771H318.071C318.555 120.695 319.032 120.559 319.499 120.389C320.29 120.099 321.931 120.014 322.789 121.06C324.005 122.54 324.311 125.014 323.597 126.425C322.943 127.726 321.735 129.358 319.958 130.574C316.949 132.632 312.995 133.618 308.948 134.034C302.657 134.681 293.542 134.094 287.812 133.235C282.081 132.376 280.619 129.834 280.619 129.834L278.766 128.814L284.59 122.106L284.598 122.097Z" fill="#39C4FF"/>
<path d="M313.066 124.061C313.066 124.061 313.568 126.067 315.115 126.484C316.663 126.9 316.612 123.729 316.816 122.93C317.105 121.757 317.692 120.26 316.739 119.614C314.435 118.05 313.066 124.069 313.066 124.069V124.061Z" fill="#39C4FF"/>
<path d="M272.074 94.4993C271.759 94.2952 271.53 93.9807 271.428 93.5896C271.249 92.9094 271.445 92.0762 271.98 91.243C272.507 90.3843 273.179 89.8571 273.876 89.7296C274.276 89.6616 274.658 89.7296 274.982 89.9337C275.305 90.1377 275.526 90.4523 275.636 90.8434C275.815 91.5236 275.619 92.3568 275.084 93.19C274.548 94.0402 273.885 94.5758 273.188 94.7033C272.788 94.7714 272.405 94.7033 272.082 94.4993H272.074Z" fill="white"/>
<path d="M279.872 97.3467C279.541 97.1767 279.286 96.8791 279.141 96.4965C278.894 95.8334 279.013 94.9832 279.481 94.1074C279.932 93.2062 280.552 92.6196 281.233 92.4325C281.624 92.322 282.015 92.356 282.346 92.5346C282.678 92.7131 282.933 93.0022 283.077 93.3848C283.324 94.0479 283.196 94.8981 282.737 95.7739C282.287 96.6751 281.666 97.2617 280.986 97.4488C280.595 97.5593 280.204 97.5168 279.872 97.3467Z" fill="white"/>
<path d="M98.3975 282.263C100.608 284.389 104.162 289.09 105.505 291.666C106.798 294.14 108.302 297.482 106.815 302.166C105.267 307.055 101.382 311.4 97.3857 312.709C93.3898 314.018 92.429 317.045 92.446 318.057C92.463 319.069 89.9379 319.103 88.4075 317.113C86.8686 315.124 85.7209 309.444 85.2448 308.101C84.1905 305.1 86.6136 305.805 90.21 303.994C92.7096 302.736 93.9764 300.985 90.8731 297.142C88.365 294.03 84.25 290.765 84.25 290.765L95.7363 279.279L98.389 282.263H98.3975Z" fill="#A3E23D"/>
<path d="M81.1498 238.656C82.3656 239.064 83.5474 239.565 84.6952 240.143L86.2341 240.934C87.4839 241.58 88.1301 243 87.79 244.36C87.3139 246.248 85.2309 247.158 83.4794 246.307C77.0773 243.213 72.5372 241.512 62.2072 244.82L60.2517 245.44C60.2517 245.44 60.2517 245.406 60.2517 245.44C49.9471 248.739 44.4293 263.371 45.7471 276.532C47.8216 297.346 69.3744 303.68 82.2211 299.573C93.5119 295.96 97.3463 290.051 104.964 287.611C111.885 285.4 116.391 288.631 129.705 284.371C145.502 279.313 148.444 267.104 145.613 252.25C144.899 248.518 142.875 242.66 141.183 239.259C127.019 210.616 112.489 197.063 101.538 189.301H101.504C89.5754 181.802 71.2194 186.886 64.8683 199.529H64.8513C59.1634 210.437 59.359 224.644 59.58 235.646C59.614 237.338 61.1529 238.571 62.8108 238.23C66.9173 237.372 74.4162 236.394 81.1498 238.647V238.656Z" fill="#A3E23D"/>
<path d="M82.9766 226.191C82.9766 226.191 89.0556 232.253 97.3706 227.517" stroke="white" stroke-width="2.50729" stroke-linecap="round" stroke-linejoin="round"/>
<path d="M126.944 316.152C126.647 315.344 126.604 314.469 126.698 313.618L128.032 301.384C128.254 299.326 128.101 297.252 127.573 295.262C127.497 294.965 127.437 294.667 127.403 294.361L126.332 284.312C125.983 281.055 123.186 278.624 119.921 278.726L114.778 278.887C110.187 279.032 107.287 283.929 109.421 287.993C111.164 291.3 112.873 295.245 113.8 299.241C115.296 305.728 111.419 312.207 112.856 316.977C114.089 321.058 114.582 320.437 124.581 320.786C127.072 320.871 130.838 320.437 127.828 317.495C127.505 317.181 127.199 316.815 126.953 316.169V316.152H126.944Z" fill="#A3E23D"/>
<path d="M83.7305 217.34C83.7305 217.34 86.4256 218.998 88.3046 215.674" stroke="white" stroke-width="2.50729" stroke-linecap="round" stroke-linejoin="round"/>
<path d="M92.6523 213.939C92.6523 213.939 95.3475 215.597 97.2265 212.273" stroke="white" stroke-width="2.50729" stroke-linecap="round" stroke-linejoin="round"/>
<path d="M69.9795 263.754C69.9795 263.754 45.3659 263.091 39.6015 270.496C38.5217 271.882 37.51 273.319 35.8861 274.008H35.8606C35.3759 274.22 34.9253 274.492 34.4917 274.79C33.752 275.3 32.0856 275.827 30.9208 274.977C29.2799 273.778 28.3022 271.312 28.6593 269.671C28.9824 268.158 29.7986 266.152 31.3034 264.434C33.8541 261.518 37.663 259.443 41.727 257.947C48.0356 255.609 57.5749 253.79 63.7049 253.152C69.8349 252.514 72.02 254.742 72.02 254.742L74.205 255.303L69.988 263.762L69.9795 263.754Z" fill="#A3E23D"/>
<path d="M40.1387 269.297C40.1387 269.297 39.093 267.367 37.384 267.35C35.6751 267.333 36.5763 270.581 36.5848 271.465C36.5933 272.749 36.3978 274.449 37.5456 274.866C40.3343 275.869 40.1472 269.306 40.1472 269.306L40.1387 269.297Z" fill="#A3E23D"/>
<path d="M185.876 115.165C168.948 113.91 166.264 115.804 150.719 111.958C141.099 109.576 136.115 106.509 123.509 110.622C113.506 113.898 107.011 123.844 109.01 134.184C111.031 144.675 119.385 151.483 126.286 154.655C131.27 156.711 140.646 159.999 152.102 161.277C154.135 161.498 155.634 163.287 155.599 165.332C155.552 167.691 153.519 169.387 151.161 169.248C147.164 169.015 144.515 168.55 144.515 168.55C137.869 167.354 132.13 165.646 127.761 164.101C124.822 163.055 121.453 164.426 120.396 167.354C119.675 169.364 118.966 171.513 118.351 173.779C116.48 180.564 115.272 188.418 116.004 196.992C118.595 227.281 140.611 250.529 176.546 253.515C220.463 257.174 256.701 222.343 253.506 179.286C250.949 144.164 221.102 115.85 185.887 115.165H185.876Z" fill="#FF6E82"/>
<path d="M226.888 177.252C226.888 177.252 248.138 207.053 262.08 207.274C264.694 207.32 267.308 207.227 269.574 208.54L269.608 208.564C270.282 208.959 271.003 209.249 271.746 209.505C273.013 209.923 275.127 211.433 275.162 213.571C275.208 216.592 273.152 219.961 270.886 221.007C268.807 221.971 265.693 222.808 262.301 222.552C256.561 222.134 250.682 219.461 245.268 215.999C236.845 210.608 226.156 200.907 219.906 194.203C213.655 187.5 214.352 182.911 214.352 182.911L213.062 179.82L226.877 177.252H226.888Z" fill="#FF6E82"/>
<path d="M260.171 207.715C260.171 207.715 258.812 210.689 260.322 212.734C261.833 214.779 264.877 210.806 265.922 210.004C267.433 208.842 269.64 207.553 269.094 205.821C267.793 201.616 260.171 207.715 260.171 207.715Z" fill="#FF6E82"/>
<path d="M190.736 238.666C187.843 241.664 184.172 249.436 183.742 251.167C182.801 254.897 180.965 260.648 185.682 265.527C190.596 270.616 198.055 273.59 203.795 272.742C209.534 271.894 212.578 275.054 213.182 276.309C213.786 277.564 216.923 276.065 217.586 272.661C218.248 269.257 216.191 261.542 215.947 259.602C215.401 255.245 212.752 256.581 207.292 257.592C204.259 258.15 200.054 256.918 205.921 250.865C209.778 246.88 212.578 243.662 212.578 243.662L196.603 230.603L190.724 238.678L190.736 238.666Z" fill="#FF6E82"/>
<path d="M159.825 234.216C156.607 236.958 151.309 243.116 149.229 246.543C147.242 249.831 144.884 254.304 146.522 260.88C148.242 267.747 153.203 274.055 158.605 276.193C163.996 278.331 165.053 282.595 164.949 283.977C164.844 285.36 168.306 285.627 170.595 283.024C172.884 280.422 174.952 272.707 175.719 270.895C177.427 266.852 174.034 267.619 169.236 264.819C165.901 262.878 164.31 260.357 168.91 255.327C172.628 251.26 178.565 247.113 178.565 247.113L163.74 230.324L159.825 234.205V234.216Z" fill="#FF6E82"/>
<path d="M168.612 188.452C169.158 188.499 169.693 188.336 170.169 187.988C170.982 187.372 171.505 186.233 171.621 184.804C171.772 183.352 171.47 182.144 170.785 181.389C170.39 180.947 169.89 180.691 169.344 180.645C168.798 180.599 168.264 180.761 167.787 181.11C166.974 181.725 166.463 182.864 166.335 184.293C166.184 185.745 166.486 186.954 167.171 187.709C167.566 188.15 168.066 188.406 168.612 188.452Z" fill="white"/>
<path d="M156.542 188.313C157.088 188.359 157.622 188.197 158.099 187.848C158.912 187.232 159.435 186.094 159.551 184.665C159.702 183.212 159.4 182.004 158.714 181.249C158.319 180.807 157.82 180.552 157.274 180.505C156.728 180.459 156.193 180.622 155.717 180.97C154.904 181.586 154.392 182.724 154.265 184.153C154.114 185.606 154.416 186.814 155.101 187.569C155.496 188.011 155.996 188.266 156.542 188.313Z" fill="white"/>
<path d="M181.566 196.643C181.566 196.643 176.639 206.344 164.766 203.916" stroke="white" stroke-width="2.50729" stroke-linecap="round" stroke-linejoin="round"/>
<path d="M339.873 217.45C339.074 213.284 337.782 209.211 335.605 205.572C328.761 194.12 317.164 193.134 309.266 197.767C306.4 199.451 303.909 199.442 301.877 197.767C298.918 195.336 293.562 192.071 288.163 192.071C282.756 192.071 277.391 194.928 273.582 197.767C271.423 199.374 268.481 199.468 266.321 197.852C258.567 192.028 243.51 195.557 237.865 208.743C233.444 219.082 235.535 228.485 237.661 233.986C238.111 235.151 239.327 235.772 240.569 235.576C244.173 235.015 247.923 235.066 251.698 235.814C252.505 235.976 253.296 236.163 254.087 236.384C254.087 236.384 259.239 237.727 264.085 241.528C265.463 242.599 265.522 244.673 264.272 245.889C263.295 246.841 261.756 247.02 260.642 246.221C257.709 244.112 254.282 242.573 250.508 241.825C244.896 240.711 239.37 241.519 234.549 243.747C223.564 250.523 222.757 265.112 230.63 277.236C237.355 287.6 249.513 291.409 260.685 291.384C260.685 291.384 286.378 291.384 303.425 291.384C318.524 291.384 327.732 284.633 334.245 271.361C344.328 250.812 342.339 230.339 339.882 217.45H339.873Z" fill="#A485FF"/>
<path d="M283.69 231.13C283.308 231.13 282.942 230.985 282.636 230.704C282.109 230.22 281.82 229.395 281.837 228.392C281.828 227.372 282.109 226.547 282.636 226.062C282.942 225.782 283.308 225.637 283.69 225.637C284.073 225.637 284.438 225.782 284.744 226.062C285.272 226.547 285.561 227.372 285.544 228.375C285.552 229.395 285.272 230.22 284.744 230.704C284.438 230.985 284.073 231.13 283.69 231.13Z" fill="white"/>
<path d="M293.368 230.874C292.985 230.908 292.611 230.798 292.28 230.543C291.71 230.109 291.353 229.318 291.268 228.315C291.166 227.303 291.37 226.453 291.854 225.926C292.135 225.62 292.484 225.441 292.866 225.407C293.249 225.373 293.623 225.484 293.954 225.739C294.524 226.173 294.881 226.963 294.966 227.966C295.068 228.978 294.864 229.828 294.38 230.356C294.099 230.662 293.75 230.84 293.368 230.874Z" fill="white"/>
<path d="M291.496 241.97C291.496 241.97 298.825 244.027 303.203 236.767" stroke="white" stroke-width="2.50729" stroke-linecap="round" stroke-linejoin="round"/>
<path d="M323.926 253.436C323.926 253.436 341.549 265.659 340.074 275.177C339.84 276.694 339.84 278.228 340.517 279.606V279.632C340.733 280.04 340.881 280.473 340.994 280.915C341.184 281.669 341.991 282.97 343.24 283.074C345.009 283.221 347.047 282.155 347.75 280.872C348.4 279.693 349.007 277.907 348.999 275.922C348.981 272.55 347.654 269.013 345.842 265.719C343.023 260.587 337.776 253.956 334.108 250.046C330.439 246.137 327.733 246.354 327.733 246.354L325.973 245.478L323.926 253.444V253.436Z" fill="#A485FF"/>
<path d="M341.035 274.525C341.035 274.525 342.679 273.902 343.711 274.789C344.751 275.675 342.512 277.169 342.043 277.704C341.368 278.479 340.598 279.613 339.693 279.261C337.486 278.407 341.027 274.525 341.027 274.525H341.035Z" fill="#A485FF"/>
<path d="M337.714 269.297C337.714 269.297 336.458 265.68 333.953 261.775" stroke="white" stroke-width="2.50729" stroke-miterlimit="10" stroke-linecap="round"/>
<path d="M268.684 276.155C265.875 277.351 260.894 280.492 258.723 282.419C256.551 284.346 254.044 286.876 253.751 291.817C253.457 296.757 255.495 302.462 258.748 305.136C261.993 307.81 261.8 311.01 261.431 311.952C261.062 312.894 263.385 313.845 265.523 312.529C267.661 311.214 270.763 306.298 271.677 305.203C273.731 302.759 271.224 302.546 268.533 299.55C266.663 297.47 266.11 295.356 270.369 292.869C273.815 290.857 278.796 289.27 278.796 289.27L272.23 274.312L268.7 276.155H268.684Z" fill="#A485FF"/>
<path d="M311.17 313.676C311.051 312.826 311.204 311.959 311.476 311.151L315.404 299.486C316.067 297.531 316.356 295.465 316.271 293.407C316.254 293.101 316.263 292.795 316.297 292.489L317.411 282.44C317.768 279.192 315.566 276.208 312.343 275.613L307.285 274.669C302.77 273.827 298.884 277.985 300.1 282.414C301.086 286.019 301.911 290.236 301.962 294.343C302.03 301 296.852 306.492 297.235 311.466C297.558 315.717 298.179 315.215 307.871 317.698C310.286 318.319 314.061 318.701 311.748 315.181C311.502 314.799 311.281 314.374 311.178 313.693V313.676H311.17Z" fill="#A485FF"/>
</svg>
