<svg width="40" height="40" viewBox="0 0 40 40" fill="none" xmlns="http://www.w3.org/2000/svg">
<path d="M22.4729 27.7638C22.932 27.4556 23.3095 27.0408 23.5729 26.5547C23.8359 26.0657 23.9733 25.519 23.9729 24.9638C23.9775 24.7267 24.0447 24.4951 24.1676 24.2923C24.2906 24.0896 24.4649 23.9229 24.6729 23.8092C26.5205 22.7579 28.0025 21.167 28.9205 19.2497C29.8385 17.3325 30.1487 15.1804 29.8093 13.082C28.9002 7.27287 23.0638 3.63651 17.2729 4.7456C12.7275 5.65469 9.24567 8.38196 9.09112 13.2001C9.02794 14.3677 9.38593 15.5192 10.1 16.4451C10.814 17.3711 11.8367 18.01 12.982 18.2456C13.3439 18.3183 13.7134 18.3458 14.082 18.3274C14.3006 18.3017 14.5081 18.2169 14.682 18.082C14.8543 17.9453 14.9889 17.767 15.0729 17.5638C15.5729 16.4456 17.1002 14.1001 21.382 13.3456C21.5535 13.3009 21.7348 13.3131 21.8988 13.3803C22.0627 13.4475 22.2004 13.5661 22.2911 13.7183C22.3444 13.8131 22.3755 13.9188 22.382 14.0274C22.4042 14.1293 22.4042 14.2347 22.382 14.3365C22.3442 14.4381 22.2817 14.5287 22.2002 14.6001C22.122 14.6734 22.029 14.7292 21.9275 14.7638H21.7638C19.8638 15.1664 18.1614 16.2137 16.9453 17.728C15.7292 19.2424 15.0741 21.1307 15.0911 23.0729V24.8911C15.0795 25.4432 15.2044 25.9897 15.4548 26.482C15.7182 26.968 16.0957 27.3829 16.5548 27.6911C16.0302 28.0969 15.6121 28.6241 15.3366 29.2274C15.0549 29.8292 14.9268 30.4913 14.9638 31.1547C14.882 36.982 23.9093 37.0456 24.0548 31.3547V31.0911C24.0638 30.9366 24.0638 30.7818 24.0548 30.6274C24.0015 30.0548 23.8346 29.4985 23.5638 28.9911C23.5638 28.9456 23.5184 28.8911 23.4911 28.8456L23.3548 28.6456L23.2184 28.4547L23.0911 28.3001C23.0275 28.2365 22.9729 28.1638 22.9002 28.1001L22.7911 27.9911L22.5457 27.782L22.4729 27.7638Z" fill="#D1D3CF"/>
<path opacity="0.5" d="M29.2724 11.0908C26.2855 17.0234 21.2363 21.662 15.0724 24.1363V24.8908C15.0664 25.4445 15.1976 25.9911 15.4542 26.4817C15.7177 26.9678 16.0951 27.3827 16.5542 27.6908C16.0296 28.0966 15.6115 28.6239 15.336 29.2272C15.0543 29.8289 14.9263 30.4911 14.9633 31.1545C14.9114 32.1702 15.2346 33.1695 15.8716 33.9624C16.5086 34.7552 17.4148 35.2863 18.4178 35.4545H20.6269C21.5925 35.2872 22.4679 34.784 23.0984 34.0337C23.7289 33.2834 24.0739 32.3345 24.0724 31.3545V31.0908C24.0814 30.9364 24.0814 30.7816 24.0724 30.6272C24.0191 30.0545 23.8522 29.4982 23.5815 28.9908C23.5815 28.9454 23.536 28.8908 23.5087 28.8454L23.3724 28.6454L23.236 28.4545L23.1087 28.2999C23.0451 28.2363 22.9905 28.1635 22.9178 28.0999L22.8087 27.9908L22.5633 27.7817H22.4724C22.9314 27.4736 23.3089 27.0587 23.5724 26.5726C23.8353 26.0836 23.9727 25.537 23.9724 24.9817C23.977 24.7447 24.0441 24.513 24.1671 24.3103C24.29 24.1075 24.4643 23.9409 24.6724 23.8272C26.5199 22.7758 28.0019 21.1849 28.92 19.2677C29.838 17.3504 30.1481 15.1984 29.8087 13.0999C29.7045 12.4125 29.5246 11.7387 29.2724 11.0908Z" fill="#BBBDB6"/>
</svg>
