<svg width="28" height="28" viewBox="0 0 28 28" fill="none" xmlns="http://www.w3.org/2000/svg">
<rect width="28" height="28" fill="#1B210D"/>
<path fill-rule="evenodd" clip-rule="evenodd" d="M16.9588 9.38242C18.4451 9.38242 19.65 8.17753 19.65 6.69121C19.65 5.2049 18.4451 4 16.9588 4C15.4725 4 14.2676 5.2049 14.2676 6.69121C14.2676 7.07511 14.348 7.44023 14.4928 7.77066L10.2152 11.4524C9.80003 11.1904 9.30824 11.0388 8.78106 11.0388C7.29474 11.0388 6.08984 12.2437 6.08984 13.73C6.08984 15.2163 7.29474 16.4212 8.78106 16.4212C10.2674 16.4212 11.4723 15.2163 11.4723 13.73C11.4723 13.3465 11.3921 12.9818 11.2475 12.6516L15.5256 8.96946C15.9406 9.23106 16.432 9.38242 16.9588 9.38242ZM16.9588 23.4601C18.4451 23.4601 19.65 22.2552 19.65 20.7688C19.65 19.2825 18.4451 18.0776 16.9588 18.0776C16.3605 18.0776 15.8078 18.2729 15.361 18.6031L13.0565 16.899C12.7052 16.6392 12.2098 16.7134 11.95 17.0648C11.6902 17.4161 11.7644 17.9115 12.1157 18.1713L14.4196 19.8749C14.3211 20.1546 14.2676 20.4555 14.2676 20.7688C14.2676 22.2552 15.4725 23.4601 16.9588 23.4601Z" fill="white"/>
</svg>
