<svg width="79" height="79" viewBox="0 0 79 79" fill="none" xmlns="http://www.w3.org/2000/svg">
<circle cx="39.5" cy="39.5" r="39.5" fill="#F9D63F"/>
<path fill-rule="evenodd" clip-rule="evenodd" d="M41.4857 20.1046C52.8744 13.6682 68.3733 23.6154 67.3315 38.2295C67.2458 69.5128 10.9017 69.0276 11.7437 37.4018C11.4012 23.1302 26.5291 13.7823 37.7322 20.1046C38.3162 20.4328 38.9748 20.6048 39.6446 20.6041C40.2904 20.594 40.9233 20.4222 41.4857 20.1046ZM49.4495 36.9454C49.5492 37.1161 49.6124 37.3056 49.635 37.502C49.6857 37.8454 49.6096 38.1955 49.4209 38.4868C49.2268 38.7718 48.9304 38.9711 48.5932 39.0433C42.6487 40.6131 36.3985 40.6131 30.454 39.0433C30.1168 38.9711 29.8204 38.7718 29.6262 38.4868C29.4375 38.1955 29.3614 37.8454 29.4122 37.502C29.4391 37.3066 29.5021 37.1179 29.5977 36.9454C29.6957 36.7735 29.8326 36.6269 29.9973 36.5173C30.1603 36.4043 30.345 36.3266 30.5396 36.2889C30.7331 36.2536 30.9313 36.2536 31.1248 36.2889C36.6275 37.7591 42.4197 37.7591 47.9224 36.2889C48.1158 36.2536 48.3141 36.2536 48.5075 36.2889C48.7022 36.3266 48.8869 36.4043 49.0498 36.5173C49.2146 36.6269 49.3514 36.7735 49.4495 36.9454ZM36.9898 31.8223C36.8905 31.8204 36.7929 31.796 36.7044 31.7509C36.6153 31.7205 36.5364 31.6662 36.4761 31.5939C36.3298 31.4214 36.2192 31.2215 36.1506 31.006C36.082 30.7904 36.0568 30.5634 36.0765 30.338C36.0544 30.1125 36.0784 29.8849 36.1471 29.669C36.2158 29.4531 36.3277 29.2534 36.4761 29.0821C36.5355 29.0057 36.6144 28.9466 36.7044 28.9109C36.7929 28.8658 36.8905 28.8414 36.9898 28.8395C37.089 28.8428 37.1863 28.8671 37.2753 28.9109C37.3653 28.9466 37.4442 29.0057 37.5036 29.0821C37.653 29.2499 37.7657 29.4469 37.8345 29.6608C37.9034 29.8746 37.9267 30.1004 37.9032 30.3238C37.9227 30.5499 37.8984 30.7776 37.8319 30.9945C37.7567 31.2113 37.6457 31.4139 37.5036 31.5939C37.4433 31.6662 37.3643 31.7205 37.2753 31.7509C37.1863 31.7947 37.089 31.819 36.9898 31.8223ZM41.8848 31.7509C41.9738 31.7947 42.0711 31.819 42.1702 31.8223C42.2893 31.8102 42.4028 31.7658 42.4984 31.6938C42.5665 31.6737 42.6297 31.6397 42.684 31.5939C42.8313 31.4192 42.9425 31.217 43.0111 30.9989C43.0797 30.7809 43.1043 30.5514 43.0836 30.3238C43.1054 30.1005 43.0811 29.8751 43.0124 29.6616C42.9437 29.448 42.8319 29.2508 42.684 29.0821C42.6245 29.0057 42.5457 28.9466 42.4556 28.9109C42.3671 28.8658 42.2695 28.8414 42.1702 28.8395C42.0711 28.8428 41.9738 28.8671 41.8848 28.9109C41.7947 28.9466 41.7159 29.0057 41.6564 29.0821C41.5115 29.2551 41.4002 29.4535 41.3282 29.6673C41.2616 29.8842 41.2374 30.1119 41.2568 30.338C41.2381 30.5594 41.2624 30.7823 41.3282 30.9945C41.4034 31.2113 41.5143 31.4139 41.6564 31.5939C41.7167 31.6662 41.7957 31.7205 41.8848 31.7509Z" fill="white"/>
<path d="M26.8014 56.9962L23.3477 57.3815C39.6458 66.4582 67.2755 60.1359 67.3326 38.2291C67.6927 33.5056 66.2324 28.8233 63.2509 25.142L61.1388 30.4225C58.3042 37.511 53.6259 43.7126 47.5885 48.3849C41.5511 53.0572 34.3742 56.0303 26.8014 56.9962Z" fill="white"/>
<mask id="mask0_982_39738" style="mask-type:alpha" maskUnits="userSpaceOnUse" x="0" y="0" width="79" height="79">
<circle cx="39.5" cy="39.5" r="39.5" fill="#FF6E83"/>
</mask>
<g mask="url(#mask0_982_39738)">
<path d="M3 65.5L9.4395 63.7495C37.1853 56.2069 58.5347 34.0164 65 6L79 8V79H26.5L3 65.5Z" fill="#D9D9D9" style="mix-blend-mode:color-burn"/>
</g>
</svg>
