<svg width="14" height="14" viewBox="0 0 14 14" fill="none" xmlns="http://www.w3.org/2000/svg">
<rect x="3.5" y="1.1665" width="1.75" height="4.08333" rx="0.583333" fill="#BBBDB6"/>
<rect x="8.75" y="1.1665" width="1.75" height="4.08333" rx="0.583333" fill="#BBBDB6"/>
<path fill-rule="evenodd" clip-rule="evenodd" d="M2.33464 2.33301C1.6903 2.33301 1.16797 2.85534 1.16797 3.49968V11.083C1.16797 11.7273 1.6903 12.2497 2.33464 12.2497H11.668C12.3123 12.2497 12.8346 11.7273 12.8346 11.083V3.49967C12.8346 2.85534 12.3123 2.33301 11.668 2.33301H2.33464ZM3.5013 6.99967C2.85697 6.99967 2.33464 7.52201 2.33464 8.16634V9.91634C2.33464 10.5607 2.85697 11.083 3.5013 11.083H10.5013C11.1456 11.083 11.668 10.5607 11.668 9.91634V8.16634C11.668 7.52201 11.1456 6.99967 10.5013 6.99967H3.5013Z" fill="#BBBDB6"/>
</svg>
