<svg width="246" height="134" viewBox="0 0 246 134" fill="none" xmlns="http://www.w3.org/2000/svg">
<rect width="246" height="134" fill="white"/>
<path d="M34.4062 66.324L41.4562 61.624L44.9812 66.324L38.5187 69.849L34.4062 66.324Z" fill="#FF6E83"/>
<path d="M62.0386 86.0848L61.2649 77.6471L67.0765 76.7869L67.0971 84.1482L62.0386 86.0848Z" fill="#3AC5FF"/>
<path d="M186.634 103.404L184.422 97.5137L189.582 97.9635L190.913 102.986L186.634 103.404Z" fill="#FFDAE2"/>
<path d="M207.684 84.874L215.153 85.8507L213.082 91.2521L206.881 89.8109L207.684 84.874Z" fill="#9473FF"/>
<path d="M202.282 31.4522L194.747 27.5784L197.139 22.2124L203.362 26.1444L202.282 31.4522Z" fill="#A4E33D"/>
<path d="M57.1627 35.5692L55.8728 43.9434L50.0256 43.3725L51.786 36.2247L57.1627 35.5692Z" fill="#E8E0FF"/>
<path d="M208.645 54.6033L207.355 62.9776L201.508 62.4067L203.268 55.2589L208.645 54.6033Z" fill="#FEF6CD"/>
<path d="M60.8253 106.113L55.5058 112.708L50.7354 109.279L55.8461 103.981L60.8253 106.113Z" fill="#E1FED2"/>
<path d="M92.5397 74.8104C92.5397 74.8104 72.288 69.8384 66.1854 74.9279C65.0418 75.8831 63.9429 76.8906 62.4784 77.1667L62.4541 77.1723C62.0176 77.2544 61.5941 77.3924 61.1836 77.5604C60.4821 77.8495 59.0045 77.9839 58.1948 77.0734C57.0493 75.7861 56.6911 73.5679 57.2788 72.275C57.8198 71.0828 58.8515 69.5698 60.4094 68.4149C63.0455 66.4597 66.5716 65.4317 70.2003 64.9168C75.8439 64.1164 84.064 64.3291 89.2505 64.9C94.4389 65.4709 95.8437 67.7116 95.8437 67.7116L97.5508 68.5679L92.5397 74.8104Z" fill="#92DC2F"/>
<path d="M66.8465 74.0329C66.8465 74.0329 66.326 72.2456 64.9156 71.9228C63.5051 71.6001 63.6656 74.4526 63.5126 75.184C63.2906 76.2493 62.8186 77.6205 63.6973 78.169C65.826 79.4992 66.8484 74.0329 66.8484 74.0329H66.8465Z" fill="#92DC2F"/>
<path d="M150.053 66.4102C150.053 66.4102 169.837 59.8151 172.284 52.2573C172.743 50.8394 173.133 49.401 174.226 48.3879L174.245 48.3712C174.57 48.0689 174.855 47.7275 175.113 47.3656C175.553 46.748 176.73 45.8451 177.9 46.1827C179.555 46.6603 181.042 48.345 181.234 49.7536C181.411 51.0502 181.346 52.8823 180.644 54.6883C179.458 57.7479 177.021 60.4979 174.228 62.8692C169.881 66.5557 162.814 70.759 158.122 73.0426C153.43 75.3261 151.046 74.1806 151.046 74.1806L149.145 74.3653L150.053 66.412V66.4102Z" fill="#92DC2F"/>
<path d="M172.205 53.3685C172.205 53.3685 173.599 54.6036 174.964 54.1241C176.33 53.6446 174.673 51.3182 174.412 50.6167C174.032 49.5962 173.7 48.1857 172.664 48.1895C170.155 48.1988 172.205 53.3685 172.205 53.3685Z" fill="#92DC2F"/>
<path d="M114.252 97.573C115.556 99.9275 117.325 104.795 117.793 107.306C118.241 109.715 118.64 112.911 116.181 116.461C113.616 120.168 109.234 122.81 105.54 122.871C101.844 122.933 100.256 125.233 100.008 126.082C99.7617 126.931 97.6349 126.313 96.8587 124.246C96.0845 122.179 96.5808 117.116 96.5323 115.866C96.424 113.073 98.2766 114.289 101.764 113.703C104.185 113.297 105.704 112.147 104.09 108.12C102.784 104.862 100.18 101.054 100.18 101.054L112.793 94.3809L114.252 97.573Z" fill="#92DC2F"/>
<path d="M110.202 53.8152C111.258 54.3768 112.273 55.0167 113.233 55.7294L114.528 56.6902C115.584 57.4738 115.959 58.8805 115.435 60.0857C114.709 61.7536 112.653 62.2666 111.166 61.2181C105.745 57.3935 101.832 55.1324 91.8231 56.5932L89.9314 56.8693C89.9314 56.8693 89.9314 56.8376 89.9314 56.8693C79.9426 58.3264 72.6293 70.9475 71.8215 83.2571C70.5435 102.729 89.4071 111.858 101.858 110.04C112.799 108.443 117.237 103.595 124.621 102.516C131.328 101.537 134.979 105.208 147.88 103.326C163.192 101.093 167.768 90.3074 167.434 76.2049C167.35 72.6602 166.38 66.9644 165.35 63.5707C156.699 35.0486 145.408 20.351 136.519 11.5283L136.485 11.532C126.655 2.79702 108.989 4.66081 101.209 15.3268H101.196C94.2951 24.489 92.3008 37.5933 90.8157 47.7518C90.5862 49.3153 91.8138 50.6865 93.394 50.6231C97.3044 50.4645 104.355 50.7108 110.204 53.8152H110.202Z" fill="#92DC2F"/>
<path d="M120.583 47.5156C115.816 46.7227 113.18 43.1407 113.143 43.0903C112.887 42.734 112.969 42.2396 113.326 41.984C113.682 41.7302 114.176 41.8105 114.43 42.1649C114.607 42.4112 118.87 48.1388 126.551 45.3104C126.962 45.1575 127.419 45.3683 127.57 45.7806C127.721 46.191 127.51 46.6481 127.1 46.7992C124.622 47.7115 122.439 47.8272 120.581 47.5175L120.583 47.5156Z" fill="white"/>
<path d="M147.426 124.829C147.167 124.122 147.129 123.352 147.21 122.602L148.379 111.856C148.575 110.052 148.439 108.227 147.975 106.475C147.906 106.216 147.851 105.951 147.823 105.684L146.883 96.8559C146.579 93.9995 144.122 91.8596 141.251 91.9511L136.73 92.0947C132.699 92.2234 130.15 96.5219 132.027 100.093C133.555 103.001 135.059 106.46 135.87 109.975C137.185 115.671 133.781 121.361 135.042 125.557C136.122 129.143 136.557 128.596 145.34 128.9C147.532 128.977 150.838 128.593 148.193 126.012C147.907 125.734 147.637 125.412 147.428 124.844L147.422 124.831L147.426 124.829Z" fill="#92DC2F"/>
<path d="M117.088 36.0074C116.079 35.8394 115.407 35.2816 115.318 35.2033C114.987 34.9159 114.952 34.4141 115.239 34.0839C115.525 33.7555 116.023 33.7182 116.353 34.0018C116.375 34.0204 117.019 34.5409 117.844 34.4607C118.476 34.3992 119.096 33.998 119.681 33.2704C119.956 32.929 120.454 32.8749 120.797 33.151C121.138 33.4253 121.193 33.9253 120.916 34.2667C120.043 35.3506 119.051 35.9477 117.967 36.0428C117.653 36.0708 117.359 36.054 117.088 36.0092V36.0074Z" fill="white"/>
<path d="M125.815 34.2359C124.805 34.068 124.134 33.5101 124.044 33.4318C123.714 33.1445 123.679 32.6426 123.966 32.3124C124.251 31.984 124.749 31.9486 125.08 32.2303C125.1 32.2489 125.748 32.7676 126.57 32.6892C127.203 32.6277 127.822 32.2266 128.408 31.499C128.682 31.1575 129.18 31.1034 129.524 31.3796C129.865 31.6538 129.919 32.1538 129.643 32.4952C128.77 33.5792 127.777 34.1762 126.693 34.2713C126.38 34.2993 126.085 34.2825 125.815 34.2377V34.2359Z" fill="white"/>
<path d="M67.7968 36.6177C68.3975 42.5542 70.6811 48.2837 74.3863 52.9665C74.7016 53.3657 75.2333 53.5429 75.6904 53.2482C76.0859 52.9926 76.2892 52.3452 75.9721 51.9441C72.4628 47.5076 70.2501 42.1363 69.6811 36.5039C69.5598 35.2987 67.6737 35.4032 67.7968 36.6159V36.6177Z" fill="#6A8B37" style="mix-blend-mode:multiply"/>
<path d="M65.0877 34.0373C64.0672 32.1418 63.8881 29.8116 64.6082 27.7817C64.7071 27.5056 64.8227 27.2295 65.0168 27.0112C65.4104 26.5672 66.0858 26.4329 66.6492 26.6194C67.2108 26.806 67.6529 27.2761 67.8843 27.8228C67.9514 27.237 68.1529 26.653 68.5466 26.2127C68.9402 25.7743 69.5447 25.5019 70.1249 25.5971C70.7313 25.6959 71.2294 26.181 71.457 26.75C71.6865 27.3209 71.6772 27.9627 71.554 28.5635C71.9365 27.8209 72.8133 27.3694 73.6398 27.4888C74.4663 27.6082 75.179 28.2911 75.3357 29.1101C75.457 29.75 75.2648 30.4049 75.0316 31.0112C74.3264 32.847 73.1827 34.5559 71.6081 35.7537C70.929 36.2686 70.0055 36.9048 69.1138 36.9011C68.513 36.8973 67.75 36.4869 67.2257 36.2257C66.3022 35.763 65.5727 34.9365 65.0877 34.0354V34.0373Z" fill="#F9D63F"/>
<path d="M64.4886 39.7075C64.3748 39.7001 64.2572 39.6963 64.1453 39.7243C63.6826 39.8381 63.5147 40.4127 63.5259 40.8885C63.5576 42.2206 64.3972 43.5023 65.608 44.062C66.7628 44.5955 68.9233 44.5134 69.6676 43.2747C70.3747 42.0956 67.9363 40.7691 67.1341 40.3922C66.3039 40.0023 65.4028 39.7654 64.4867 39.7094L64.4886 39.7075Z" fill="#6A8B37" style="mix-blend-mode:multiply"/>
<path d="M73.5315 37.4527C73.6304 37.393 73.7311 37.3351 73.8412 37.3072C74.3039 37.1915 74.7199 37.6225 74.9326 38.0478C75.5277 39.2418 75.3804 40.7679 74.5707 41.8258C73.7964 42.8351 71.8487 43.7717 70.6117 43.0217C69.4364 42.309 70.9737 39.9974 71.5091 39.2903C72.0614 38.559 72.7479 37.9284 73.5315 37.4508V37.4527Z" fill="#6A8B37" style="mix-blend-mode:multiply"/>
<path d="M184.272 83.9458C183.583 90.7554 180.964 97.3244 176.716 102.696C176.354 103.155 175.744 103.356 175.22 103.018C174.764 102.725 174.531 101.983 174.897 101.522C178.921 96.4345 181.458 90.2741 182.113 83.8152C182.253 82.4346 184.414 82.5522 184.274 83.9439L184.272 83.9458Z" fill="#6A8B37" style="mix-blend-mode:multiply"/>
<path d="M187.379 80.9885C188.551 78.8151 188.756 76.1416 187.929 73.8151C187.818 73.4979 187.683 73.1826 187.459 72.9308C187.008 72.4215 186.234 72.2666 185.588 72.4812C184.943 72.6957 184.437 73.2349 184.172 73.8617C184.094 73.1901 183.864 72.5203 183.413 72.0166C182.961 71.5129 182.269 71.2013 181.601 71.3095C180.905 71.4233 180.334 71.9793 180.073 72.6323C179.81 73.2852 179.821 74.0222 179.961 74.7125C179.523 73.8617 178.515 73.3431 177.569 73.4793C176.622 73.6155 175.805 74.399 175.625 75.3393C175.486 76.0725 175.706 76.8244 175.974 77.5203C176.784 79.6247 178.094 81.5855 179.902 82.9587C180.68 83.5501 181.741 84.2796 182.762 84.274C183.45 84.2702 184.325 83.8001 184.928 83.4997C185.987 82.9699 186.823 82.0202 187.379 80.9885Z" fill="#F9D63F"/>
<path d="M188.065 87.4921C188.196 87.4847 188.33 87.4791 188.459 87.5108C188.989 87.6414 189.183 88.3 189.17 88.8466C189.134 90.3746 188.17 91.8447 186.782 92.4846C185.457 93.0965 182.98 93.0033 182.125 91.5816C181.271 90.16 184.11 88.7067 185.03 88.2757C185.981 87.8298 187.015 87.5556 188.065 87.4921Z" fill="#6A8B37" style="mix-blend-mode:multiply"/>
<path d="M177.696 84.9067C177.584 84.8376 177.468 84.7723 177.339 84.7406C176.809 84.6082 176.33 85.1007 176.087 85.5914C175.406 86.9607 175.574 88.7107 176.503 89.9234C177.39 91.082 179.627 92.1547 181.044 91.2965C182.391 90.4794 180.628 87.8283 180.016 87.0167C179.382 86.1772 178.595 85.4533 177.697 84.9085L177.696 84.9067Z" fill="#6A8B37" style="mix-blend-mode:multiply"/>
</svg>
