<svg width="246" height="134" viewBox="0 0 246 134" fill="none" xmlns="http://www.w3.org/2000/svg">
<rect width="246" height="134" fill="white"/>
<path d="M34.4062 66.324L41.4562 61.624L44.9812 66.324L38.5187 69.849L34.4062 66.324Z" fill="#FF6E83"/>
<path d="M62.0386 86.0848L61.2649 77.6471L67.0765 76.7869L67.0971 84.1482L62.0386 86.0848Z" fill="#3AC5FF"/>
<path d="M186.634 103.404L184.422 97.5137L189.582 97.9635L190.913 102.986L186.634 103.404Z" fill="#FFDAE2"/>
<path d="M207.684 84.874L215.153 85.8507L213.082 91.2521L206.881 89.8109L207.684 84.874Z" fill="#9473FF"/>
<path d="M202.282 31.4522L194.747 27.5784L197.139 22.2124L203.362 26.1444L202.282 31.4522Z" fill="#A4E33D"/>
<path d="M57.1627 35.5692L55.8728 43.9434L50.0256 43.3725L51.786 36.2247L57.1627 35.5692Z" fill="#E8E0FF"/>
<path d="M208.645 54.6033L207.355 62.9776L201.508 62.4067L203.268 55.2589L208.645 54.6033Z" fill="#FEF6CD"/>
<path d="M60.8253 106.113L55.5058 112.708L50.7354 109.279L55.8461 103.981L60.8253 106.113Z" fill="#E1FED2"/>
<path d="M186.81 53.542C188.893 22.5677 155.969 1.50779 131.924 15.3222C129.385 16.781 126.36 16.7894 123.807 15.3538C100.171 2.07066 68.1726 22.0407 69.1508 52.2961C67.6119 119.258 186.915 119.818 186.812 53.5399L186.81 53.542Z" fill="#F9D63F"/>
<path d="M124.156 37.4825C123.796 37.4678 123.457 37.316 123.178 37.0419C122.698 36.5655 122.457 35.7813 122.504 34.8327C122.531 33.8693 122.828 33.104 123.345 32.6655C123.644 32.4126 123.992 32.2861 124.355 32.2987C124.717 32.3114 125.054 32.4653 125.335 32.7393C125.816 33.2157 126.054 34 126.009 34.9486C125.982 35.912 125.685 36.6772 125.168 37.1157C124.869 37.3687 124.519 37.4952 124.159 37.4825H124.156Z" fill="white"/>
<path d="M133.289 37.5948C132.929 37.6137 132.577 37.4936 132.275 37.2448C131.752 36.8148 131.442 36.0538 131.402 35.1051C131.341 34.1438 131.569 33.3554 132.041 32.8705C132.315 32.5902 132.65 32.4342 133.013 32.4131C133.373 32.3941 133.725 32.5143 134.029 32.763C134.552 33.1931 134.86 33.9541 134.902 34.9027C134.963 35.864 134.735 36.6525 134.263 37.1373C133.989 37.4177 133.652 37.5737 133.291 37.5948H133.289Z" fill="white"/>
<path d="M103.154 116.737L103.597 86.0351L120.196 83.2061C120.196 83.2061 116.777 108.046 114.203 119.765C113.349 123.656 109.618 122.731 104.575 122.364C101.552 122.145 99.9498 121.609 101.552 119.476C101.902 119.01 102.95 117.941 103.154 116.74V116.737Z" fill="#F9D63F"/>
<path d="M158.034 116.529L154.825 85.3628L138.072 83.6826C138.072 83.6826 142.948 107.572 146.321 119.086C147.441 122.91 147.854 122.313 156.411 122.453C158.546 122.486 161.757 122.006 159.132 119.293C158.85 119 158.58 118.66 158.365 118.057C158.19 117.564 158.091 117.047 158.036 116.529H158.034Z" fill="#F9D63F"/>
<path d="M130.117 46.5235C130.117 46.5235 131.888 41.6348 134.491 41.0024C137.095 40.372 137.938 43.5342 136.463 45.8531L130.117 46.5235Z" fill="#FF6E83"/>
<path d="M184.287 82.4608C184.287 82.4608 186.123 81.508 187.464 82.3934C188.805 83.2788 186.391 85.3384 185.919 86.0235C185.234 87.0206 184.492 88.4499 183.379 88.1674C180.676 87.4781 184.287 82.4608 184.287 82.4608Z" fill="#F9D63F"/>
<path d="M88.4715 57.3727C88.4715 57.3727 65.3309 56.0045 61.3255 46.3916C60.6889 44.8632 59.8204 43.4424 58.4227 42.5548L58.3995 42.5401C57.9821 42.2766 57.6026 41.9583 57.2485 41.6146C56.6435 41.0286 55.1762 40.2802 53.9641 40.8852C52.2523 41.7411 50.9663 43.883 51.0401 45.4598C51.1076 46.9123 51.5482 48.9002 52.6781 50.7322C54.5923 53.8353 57.8092 56.3502 61.3403 58.3761C66.834 61.5277 75.4034 64.6941 80.992 66.2435C86.5805 67.793 88.9543 66.0601 88.9543 66.0601L91.0687 65.8788L88.4715 57.3727Z" fill="#F9D63F"/>
<path d="M68.636 20.4758C68.0457 20.0289 67.7126 20.9333 67.5629 21.4413C67.5503 21.4856 64.8034 30.639 64.8034 30.639C64.6474 31.1575 64.249 31.1259 63.7663 31.0606C63.2835 30.9931 62.7417 30.9025 62.8977 30.3839L65.6256 21.2853C65.7858 20.7478 65.965 19.8139 65.2988 19.7211C65.0058 19.6811 64.8983 19.5904 64.5884 19.7064C64.1584 19.8687 64.0002 20.4147 63.8843 20.8047C63.8695 20.8511 61.0869 30.1393 61.0869 30.1393C60.9288 30.6579 60.4165 30.6052 59.9316 30.5399C59.4489 30.4745 59.0631 30.4007 59.217 29.8821L62.0482 20.4442C62.1283 20.1722 62.3623 19.6621 62.0629 19.5272C61.8479 19.4302 61.4705 19.5714 61.2555 19.7085C60.798 19.9973 60.6104 20.4294 60.4291 20.9038C60.4144 20.9396 56.2909 31.6677 56.2909 31.6677C56.0928 32.5552 56.3373 33.3668 56.9592 34.0351C57.2986 34.4019 57.735 34.6464 58.1503 34.9142C59.1664 35.5677 59.0483 36.4552 58.7722 37.5261C58.5487 38.3946 58.2409 39.4213 57.9374 40.2666C57.404 41.7402 56.8686 43.2138 56.3331 44.6873C55.7218 46.3759 55.1083 48.0666 54.4948 49.7573C53.8624 51.5028 53.639 52.3566 53.0044 54.1021C52.4099 55.7401 52.1696 56.3915 51.5751 58.0295C51.0797 59.3997 50.8921 59.8382 50.3946 61.2106C50.0531 62.1508 49.7116 63.0931 49.3701 64.0333C49.2436 64.3833 49.1171 64.7332 48.9906 65.0832C48.6048 66.1499 48.0715 67.2482 48.004 68.4097C47.9281 69.683 48.94 70.7476 50.2386 70.1004C52.1127 69.1623 52.7451 65.5006 53.3143 63.7972C53.4366 63.3756 53.5588 62.9519 53.679 62.5324C54.0015 61.4151 54.0121 61.2296 54.3346 60.1102C54.7921 58.5228 54.8975 57.922 55.3549 56.3303C55.8841 54.4921 56.0042 53.5434 56.5355 51.7031C57.073 49.8374 57.6106 47.9696 58.1482 46.1019C58.6288 44.4301 59.1116 42.7605 59.5922 41.0888C59.7419 40.5702 60.0813 39.7881 60.231 39.2695C60.4818 38.3989 60.7348 37.7749 61.1501 36.9654C61.5 36.2802 62.1725 35.6162 62.9588 35.5171C63.4627 35.4539 63.956 35.3042 64.4177 35.0955C65.2988 34.6949 66.1863 34.014 66.4752 33.0506L68.9711 22.0653C69.1609 21.4287 69.104 20.8342 68.636 20.4779V20.4758Z" fill="#82857A"/>
<path d="M198.468 64.5767C197.972 64.1298 197.249 64.2773 196.712 64.564C196.031 64.9266 195.734 65.7277 195.358 66.3496C195.133 66.7227 194.956 67.1275 194.753 67.5112C194.65 67.7093 194.54 67.9033 194.437 68.0993C193.813 69.2841 193.107 70.4309 192.426 71.5861C191.119 73.8038 189.81 76.0237 188.501 78.2435C187.527 79.8941 186.553 81.5448 185.579 83.1975C184.607 84.846 183.747 86.7096 182.415 88.1115C181.822 88.7334 181.093 89.1698 180.344 89.5935C179.636 89.994 178.78 90.0172 178.068 90.3735C177.252 90.7803 176.259 91.4254 175.557 92.0051C174.707 92.7071 173.953 93.5166 173.312 94.402C170.879 97.7624 171.037 102.046 173.666 103.971C176.295 105.893 180.393 104.73 182.826 101.371C184.485 99.0799 185.237 95.8861 184.664 93.1351C184.297 91.3769 184.409 89.9771 184.997 88.2591C185.707 86.1847 187.046 84.2073 188.243 82.3732C189.981 79.7128 191.72 77.0524 193.457 74.3899C195.847 70.7281 196.21 70.239 198.556 66.552C198.942 65.9617 199.022 65.0742 198.472 64.5767H198.468Z" fill="#82857A"/>
<path d="M182.259 91.5057C184.45 93.11 183.971 97.7984 181.943 100.6C179.915 103.4 176.633 104.492 174.442 102.889C172.252 101.285 172.119 97.7141 174.147 94.9145C176.175 92.1128 180.069 89.9036 182.259 91.5078V91.5057Z" fill="#BBBDB6"/>
<path d="M171.131 55.6282C171.131 55.6282 186.332 73.1149 184.403 81.7307C184.041 83.3476 183.602 84.9434 184.075 86.5308L184.083 86.5582C184.224 87.0304 184.302 87.5195 184.344 88.0107C184.416 88.8497 185.032 90.3781 186.343 90.7175C188.196 91.196 190.572 90.4245 191.55 89.1849C192.452 88.0444 193.424 86.2546 193.774 84.1318C194.366 80.5333 193.591 76.5258 192.256 72.6806C190.182 66.6978 185.795 58.6828 182.595 53.8469C179.395 49.0109 176.469 48.76 176.469 48.76L174.755 47.5078L171.131 55.6303V55.6282Z" fill="#F9D63F"/>
<path d="M61.4158 46.5766C61.4158 46.5766 60.5346 48.4486 58.9303 48.5582C57.326 48.6679 57.9943 45.5668 57.9543 44.7363C57.8931 43.5283 57.6149 41.9409 58.6731 41.4898C61.2387 40.3978 61.4158 46.5745 61.4158 46.5745V46.5766Z" fill="#F9D63F"/>
<path d="M138.056 46.2247C137.957 45.5079 137.255 45.0294 136.555 45.2149C134.263 45.8242 131.771 46.2605 129.275 46.2837C126.779 46.3385 124.275 45.9823 121.965 45.4447C121.258 45.2803 120.573 45.7799 120.497 46.5009C120.432 47.108 120.822 47.6793 121.416 47.8163C123.91 48.3897 126.617 48.7101 129.313 48.708C132.008 48.6237 134.702 48.219 137.179 47.5676C137.769 47.4116 138.14 46.8276 138.056 46.2226V46.2247Z" fill="white"/>
</svg>
