<svg width="246" height="134" viewBox="0 0 246 134" fill="none" xmlns="http://www.w3.org/2000/svg">
<rect width="246" height="134" fill="white"/>
<path d="M34.4062 66.324L41.4562 61.624L44.9812 66.324L38.5187 69.849L34.4062 66.324Z" fill="#FF6E83"/>
<path d="M62.0386 86.0848L61.2649 77.6471L67.0765 76.7869L67.0971 84.1482L62.0386 86.0848Z" fill="#3AC5FF"/>
<path d="M186.634 103.404L184.422 97.5137L189.582 97.9635L190.913 102.986L186.634 103.404Z" fill="#FFDAE2"/>
<path d="M207.684 84.874L215.153 85.8507L213.082 91.2521L206.881 89.8109L207.684 84.874Z" fill="#9473FF"/>
<path d="M202.282 31.4522L194.747 27.5784L197.139 22.2124L203.362 26.1444L202.282 31.4522Z" fill="#A4E33D"/>
<path d="M57.1627 35.5692L55.8728 43.9434L50.0256 43.3725L51.786 36.2247L57.1627 35.5692Z" fill="#E8E0FF"/>
<path d="M208.645 54.6033L207.355 62.9776L201.508 62.4067L203.268 55.2589L208.645 54.6033Z" fill="#FEF6CD"/>
<path d="M60.8253 106.113L55.5058 112.708L50.7354 109.279L55.8461 103.981L60.8253 106.113Z" fill="#E1FED2"/>
<path d="M161.104 51.9184C166.194 51.9184 170.32 47.4324 170.32 41.8986C170.32 36.3649 166.194 31.8789 161.104 31.8789C156.015 31.8789 151.889 36.3649 151.889 41.8986C151.889 47.4324 156.015 51.9184 161.104 51.9184Z" fill="#3B749F" style="mix-blend-mode:multiply"/>
<path d="M156.387 55.417C162.939 55.417 168.25 49.6419 168.25 42.5181C168.25 35.3942 162.939 29.6191 156.387 29.6191C149.835 29.6191 144.523 35.3942 144.523 42.5181C144.523 49.6419 149.835 55.417 156.387 55.417Z" fill="#F4F4F3"/>
<path d="M66.22 28.5931L65.9806 28.8959C65.6505 29.3137 65.7215 29.92 66.1392 30.2502L71.0914 34.1639C71.5091 34.4941 72.1154 34.4231 72.4456 34.0053L72.6849 33.7025C73.0151 33.2847 72.9441 32.6784 72.5263 32.3482L67.5742 28.4345C67.1564 28.1043 66.5501 28.1753 66.22 28.5931Z" fill="#3B749F" style="mix-blend-mode:multiply"/>
<path d="M64.2061 39.9557L64.1472 40.3372C64.0659 40.8634 64.4266 41.3559 64.9528 41.4372L71.2076 42.4033C71.7338 42.4845 72.2263 42.1238 72.3076 41.5976L72.3665 41.2161C72.4478 40.6899 72.0871 40.1974 71.5609 40.1161L65.3061 39.1501C64.7798 39.0688 64.2874 39.4295 64.2061 39.9557Z" fill="#3B749F" style="mix-blend-mode:multiply"/>
<path d="M149.668 90.605C152.095 91.507 156.243 94.889 156.951 95.7439C158.478 97.5836 161.054 100.32 159.717 104.319C158.322 108.492 154.934 112.164 151.487 113.23C148.039 114.296 147.176 116.885 147.176 117.747C147.176 118.61 145.015 118.61 143.725 116.885C142.435 115.158 141.522 110.275 141.135 109.117C140.273 106.528 142.118 106.568 145.451 105.666C147.299 105.165 149.334 103.348 144.412 101.523C141.175 100.323 138.74 99.269 138.74 99.269L144.203 87.6543L149.669 90.6088L149.668 90.605Z" fill="#3AC5FF"/>
<path d="M100.965 78.0292C117.509 68.4897 119.417 56.892 119.712 53.9469C119.897 52.0958 118.714 51.079 117.368 51.0922C114.805 50.9679 114.058 54.1502 114.058 54.1502C113.521 57.2403 109.12 68.727 96.6525 73.2632C95.131 73.8168 93.4513 73.6022 92.1238 72.6757C81.1192 64.9948 75.214 46.7235 83.409 30.1602C91.6869 13.4311 106.817 2.69959 126.329 4.12694C168.517 6.18324 176.961 63.3885 151.745 93.0522C132.564 115.349 106.493 116.142 106.493 116.142L106.49 116.135C88.433 117.56 79.8745 109.713 79.1401 101.264C78.4679 93.5305 80.8292 87.8946 86.8908 84.1868C93.3515 80.2343 95.4342 80.7013 100.963 78.0292H100.965Z" fill="#3AC5FF"/>
<path d="M142.396 52.5513C139.159 51.4855 137.335 49.175 137.305 49.1355C137.026 48.772 137.094 48.2523 137.455 47.9736C137.817 47.6949 138.338 47.7627 138.615 48.1224C138.783 48.3389 142.809 53.3761 149.655 50.5892C150.079 50.4159 150.563 50.6212 150.734 51.0449C150.908 51.4686 150.704 51.9525 150.279 52.1239C147.136 53.4043 144.471 53.2349 142.393 52.5513H142.396Z" fill="white"/>
<path d="M104.569 126.142C104.471 125.421 104.595 124.686 104.827 123.995L108.162 114.096C108.721 112.433 108.969 110.684 108.896 108.935C108.885 108.675 108.888 108.415 108.917 108.155L109.862 99.6287C110.167 96.87 108.293 94.3411 105.565 93.8308L101.27 93.0286C97.4376 92.313 94.1423 95.8419 95.1723 99.6023C96.0121 102.664 96.7126 106.242 96.7484 109.726C96.8087 115.373 92.4136 120.039 92.7356 124.259C93.0105 127.867 93.534 127.441 101.761 129.55C103.814 130.076 107.015 130.402 105.053 127.415C104.842 127.093 104.653 126.733 104.572 126.153V126.138L104.569 126.142Z" fill="#3AC5FF"/>
<path d="M144.355 64.4609C144.355 64.4609 166.255 66.1199 171.236 57.6047C172.029 56.2508 173.023 55.0268 174.449 54.3715L174.473 54.3602C174.899 54.1644 175.294 53.9158 175.671 53.639C176.313 53.1645 177.787 52.6486 178.847 53.3716C180.346 54.3941 181.28 56.5653 181.011 58.0378C180.762 59.3936 180.096 61.2033 178.802 62.7794C176.61 65.4495 173.272 67.4004 169.699 68.8541C164.143 71.1157 155.693 72.9987 150.251 73.7406C144.807 74.4844 142.8 72.5562 142.8 72.5562L140.838 72.1174L144.359 64.4609H144.355Z" fill="#3AC5FF"/>
<path d="M170.791 58.6907C170.791 58.6907 171.779 60.3835 173.303 60.3515C174.824 60.3195 173.933 57.4497 173.901 56.6626C173.856 55.5177 173.986 53.9962 172.95 53.661C170.437 52.8457 170.791 58.6907 170.791 58.6907Z" fill="#3AC5FF"/>
<path d="M103.715 55.3545C103.715 55.3545 84.4855 67.1895 75.9232 61.755C74.5618 60.8907 73.0761 60.2429 71.4642 60.3145H71.4359C70.9557 60.337 70.4756 60.2975 70.001 60.2203C69.1913 60.0904 67.602 60.3126 66.9731 61.4725C66.0843 63.1127 66.2556 65.538 67.1953 66.7545C68.0615 67.8749 69.5227 69.2156 71.4491 70.0461C74.7106 71.4527 78.68 71.6636 82.6288 71.3077C88.7732 70.7541 97.3787 68.4944 102.702 66.6095C108.026 64.7246 108.952 62.0167 108.952 62.0167L110.539 60.6911L103.715 55.3545Z" fill="#3AC5FF"/>
<path d="M76.8377 62.5391C76.8377 62.5391 76.7322 64.5521 75.3256 65.2413C73.9189 65.9305 73.3823 62.8875 73.0395 62.1531C72.5405 61.0854 71.7063 59.7579 72.4935 58.9613C74.4066 57.0331 76.8377 62.5391 76.8377 62.5391Z" fill="#3AC5FF"/>
<path d="M146.643 41.0965C146.349 41.1323 146.056 41.0551 145.794 40.8687C145.342 40.5467 145.044 39.9422 144.956 39.1683C144.851 38.3849 144.992 37.7259 145.351 37.3041C145.56 37.0593 145.826 36.9105 146.12 36.8747C146.413 36.8389 146.709 36.9161 146.971 37.1026C147.423 37.4246 147.72 38.029 147.809 38.803C147.914 39.5863 147.773 40.2454 147.413 40.6672C147.204 40.912 146.939 41.0608 146.643 41.0965Z" fill="white"/>
<path d="M153.688 40.6039C153.393 40.6284 153.103 40.538 152.848 40.3422C152.41 40.0032 152.135 39.3875 152.078 38.6098C152.003 37.8227 152.17 37.1711 152.545 36.7625C152.764 36.5271 153.035 36.3878 153.33 36.3633C153.626 36.3388 153.918 36.4292 154.172 36.625C154.611 36.964 154.884 37.5798 154.942 38.3575C155.016 39.1446 154.85 39.7961 154.475 40.2047C154.257 40.4401 153.986 40.5795 153.69 40.6039H153.688Z" fill="white"/>
<path d="M116.842 56.9258C123.394 56.9258 128.705 51.1507 128.705 44.0268C128.705 36.903 123.394 31.1279 116.842 31.1279C110.29 31.1279 104.979 36.903 104.979 44.0268C104.979 51.1507 110.29 56.9258 116.842 56.9258Z" fill="#F4F4F3"/>
<path d="M113.829 54.8553C119.328 54.8553 123.786 50.0076 123.786 44.0277C123.786 38.0479 119.328 33.2002 113.829 33.2002C108.329 33.2002 103.871 38.0479 103.871 44.0277C103.871 50.0076 108.329 54.8553 113.829 54.8553Z" fill="#3B749F" style="mix-blend-mode:multiply"/>
<path d="M118.713 33.6839C118.713 33.6839 121.04 17.9736 132.971 14.0135C145.542 9.84254 156.809 15.4051 162.599 32.2565L164.105 33.0097C164.105 33.0097 158.315 11.1362 140.174 10.6767C121.558 10.206 116.961 28.8407 116.236 32.8196L118.713 33.682V33.6839Z" fill="#F4F4F3"/>
</svg>
