<svg width="79" height="79" viewBox="0 0 79 79" fill="none" xmlns="http://www.w3.org/2000/svg">
<circle cx="39.5" cy="39.5" r="39.5" fill="#3AC5FF"/>
<mask id="mask0_982_39696" style="mask-type:alpha" maskUnits="userSpaceOnUse" x="0" y="0" width="79" height="79">
<circle cx="39.5" cy="39.5" r="39.5" fill="#FF6E83"/>
</mask>
<g mask="url(#mask0_982_39696)">
<path d="M3 65.5L9.4395 63.7495C37.1853 56.2069 58.5347 34.0164 65 6L79 8V79H26.5L3 65.5Z" fill="#2DB8FF"/>
</g>
<path fill-rule="evenodd" clip-rule="evenodd" d="M28.5817 45.7511C37.0019 43.0252 38.9857 37.9303 39.3995 36.6173C39.4486 36.4899 39.4728 36.3542 39.4709 36.2177C39.4586 36.0539 39.415 35.8941 39.3425 35.7467C39.2664 35.6014 39.1592 35.4747 39.0285 35.3757C38.8988 35.2752 38.7472 35.2067 38.5861 35.1759C37.4301 34.8619 36.7879 36.2462 36.7879 36.2462C35.8429 38.1026 34.4653 39.7044 32.7713 40.9165C31.0773 42.1286 29.1166 42.9155 27.0546 43.2108C26.6893 43.2663 26.3158 43.227 25.97 43.0966C25.6246 42.9743 25.3121 42.7741 25.0566 42.5115C20.7752 37.9588 19.8761 29.1105 25.1993 22.3886C30.5226 15.6666 38.4576 12.1844 47.1775 14.6962C66.1159 19.6912 64.4319 46.4647 50.146 57.5109C43.6556 62.4523 35.4968 64.6737 27.3972 63.7047C19.0626 62.6201 15.9799 58.253 16.4794 54.3283C16.9361 50.7461 18.5345 48.4342 21.6315 47.321C23.5509 46.631 24.6973 46.4509 25.9508 46.254L25.9509 46.254C26.7198 46.1332 27.5291 46.0061 28.5817 45.7511ZM48.0343 31.4087C47.9371 31.411 47.8406 31.3918 47.7518 31.3523C47.6629 31.3128 47.5839 31.2541 47.5205 31.1803C47.2345 30.8267 47.0918 30.3784 47.1209 29.9244C47.086 29.4698 47.2293 29.0194 47.5205 28.6685C47.5839 28.5948 47.6629 28.5361 47.7518 28.4966C47.8406 28.4571 47.9371 28.4378 48.0343 28.4402C48.1283 28.4188 48.2258 28.4188 48.3198 28.4402C48.4071 28.4806 48.4849 28.539 48.5481 28.6114C48.698 28.7808 48.81 28.9803 48.8764 29.1966C48.9274 29.4124 48.9274 29.6372 48.8764 29.8531C48.8971 30.0807 48.8725 30.3102 48.8039 30.5282C48.7353 30.7463 48.6241 30.9485 48.4767 31.1232C48.4135 31.1957 48.3357 31.2541 48.2484 31.2945C48.1545 31.3159 48.0569 31.3159 47.963 31.2945L48.0343 31.4087ZM52.9575 31.4088C53.0467 31.429 53.1394 31.429 53.2286 31.4088V31.4659C53.3274 31.4649 53.425 31.4442 53.5157 31.4049C53.6063 31.3657 53.6883 31.3088 53.7567 31.2375C54.045 30.8802 54.1832 30.4247 54.142 29.9673C54.1817 29.5189 54.0433 29.0729 53.7567 28.7257C53.6881 28.6529 53.6056 28.5946 53.514 28.5545C53.4201 28.5331 53.3225 28.5331 53.2286 28.5545C53.1344 28.5356 53.0374 28.5356 52.9432 28.5545C52.8582 28.5986 52.781 28.6565 52.7148 28.7257C52.57 28.8986 52.4586 29.0971 52.3866 29.3109C52.327 29.5292 52.3029 29.7557 52.3152 29.9816C52.2861 30.4356 52.4288 30.8839 52.7148 31.2375C52.7833 31.3104 52.8659 31.3686 52.9575 31.4088Z" fill="white"/>
<path d="M36.2881 53.001L19.0195 60.3224C21.4361 62.2223 24.3609 63.3644 27.4255 63.6048C35.5251 64.5738 43.6839 62.3524 50.1744 57.411C59.1226 50.5178 63.1187 37.4308 60.1644 27.4407L58.9942 30.1951C54.6792 40.4606 46.5346 48.6411 36.2881 53.001V53.001Z" fill="white"/>
</svg>
