<svg width="69" height="69" viewBox="0 0 69 69" fill="none" xmlns="http://www.w3.org/2000/svg">
<path d="M34.5 69C53.5538 69 69 53.5538 69 34.5C69 15.4462 53.5538 0 34.5 0C15.4462 0 0 15.4462 0 34.5C0 53.5538 15.4462 69 34.5 69Z" fill="#1B210D"/>
<path d="M37.3705 34.5003L44.646 27.2147C44.9785 26.8265 45.1522 26.3271 45.1325 25.8163C45.1127 25.3056 44.901 24.8211 44.5396 24.4596C44.1781 24.0982 43.6936 23.8865 43.1829 23.8667C42.6721 23.847 42.1727 24.0208 41.7845 24.3532L34.4989 31.6287L27.2133 24.3532C26.8251 24.0208 26.3257 23.847 25.815 23.8667C25.3042 23.8865 24.8197 24.0982 24.4583 24.4596C24.0968 24.8211 23.8851 25.3056 23.8654 25.8163C23.8457 26.3271 24.0194 26.8265 24.3519 27.2147L31.6273 34.5003L24.3519 41.7859C24.0692 42.0703 23.877 42.432 23.7998 42.8255C23.7225 43.219 23.7635 43.6266 23.9177 43.9968C24.0718 44.3669 24.3322 44.6832 24.6659 44.9055C24.9996 45.1278 25.3917 45.2463 25.7927 45.246C26.3266 45.2411 26.837 45.026 27.2133 44.6473L34.4989 37.3719L41.7845 44.6473C42.165 45.0247 42.6793 45.2363 43.2152 45.2359C43.6133 45.2322 44.0015 45.1116 44.3316 44.889C44.6616 44.6664 44.9189 44.3517 45.0714 43.984C45.2239 43.6162 45.2649 43.2118 45.1892 42.8209C45.1136 42.4301 44.9247 42.0701 44.646 41.7859L37.3705 34.5003Z" fill="white"/>
</svg>
