<svg width="335" height="50" viewBox="0 0 335 50" fill="none" xmlns="http://www.w3.org/2000/svg">
<rect width="335" height="50" rx="12" fill="#E1FED2"/>
<g opacity="0.4">
<mask id="mask0_1324_27487" style="mask-type:alpha" maskUnits="userSpaceOnUse" x="0" y="0" width="335" height="50">
<rect width="335" height="50" rx="12" fill="#E1FED2"/>
</mask>
<g mask="url(#mask0_1324_27487)">
<path fill-rule="evenodd" clip-rule="evenodd" d="M277.426 27.0262C276.66 26.2791 275.842 25.5877 274.977 24.9575C270.677 22.1189 265.734 20.4015 260.599 19.9626C260.271 19.9338 259.954 19.8312 259.672 19.6626C259.379 19.5022 259.135 19.2669 258.963 18.9808C258.778 18.7115 258.657 18.4038 258.608 18.0808C258.527 17.7585 258.527 17.4213 258.608 17.099C261.226 8.26261 264.69 -3.11011 271.999 -10.3374C276.378 -14.3889 282.186 -16.5379 288.147 -16.3129C294.109 -16.088 299.738 -13.5074 303.799 -9.13739C310.563 -0.110115 318.663 14.3717 322.645 40.799C323.154 44.6055 323.227 48.4577 322.863 52.2808C321.363 64.8262 315.881 73.8262 301.999 73.8262C295.201 73.8262 291.423 72.5647 288.257 71.5077C285.975 70.7456 284.011 70.0899 281.463 70.0899C278.436 70.0899 275.875 70.8394 273.064 71.662C269.645 72.6627 265.857 73.7717 260.408 73.7717C249.117 73.7717 233.545 63.2172 237.226 46.1172C239.517 35.2626 247.672 25.0353 256.699 25.0353H258.281C261.369 24.7585 264.478 25.2116 267.359 26.3581C270.239 27.5046 272.81 29.3123 274.863 31.6353C275.362 31.9373 275.945 32.0712 276.526 32.0172C277.114 31.9383 277.66 31.6702 278.081 31.2535C278.482 30.8356 278.74 30.3006 278.817 29.7262C278.877 29.1361 278.743 28.5424 278.436 28.0353L277.426 27.0262ZM281.572 13.0634C281.382 13.0598 281.196 13.0132 281.027 12.927C280.856 12.8689 280.706 12.7651 280.59 12.627C280.048 11.9487 279.776 11.0938 279.827 10.227C279.784 9.7961 279.83 9.36109 279.962 8.94849C280.093 8.53589 280.307 8.15432 280.59 7.82702C280.704 7.68092 280.855 7.56792 281.027 7.49975C281.194 7.40904 281.382 7.36154 281.572 7.36154C281.763 7.36154 281.95 7.40904 282.118 7.49975C282.29 7.56792 282.44 7.68092 282.554 7.82702C282.831 8.15267 283.042 8.52995 283.173 8.93715C283.304 9.34435 283.353 9.77344 283.318 10.1997C283.357 10.6347 283.31 11.0733 283.179 11.4899C283.048 11.9066 282.835 12.2931 282.554 12.627C282.439 12.7651 282.288 12.8689 282.118 12.927C281.948 13.0132 281.762 13.0598 281.572 13.0634ZM290.927 12.9252C291.097 13.0088 291.283 13.0553 291.472 13.0615C291.848 13.0325 292.203 12.879 292.481 12.6252C292.745 12.28 292.947 11.8927 293.081 11.4797C293.222 11.068 293.268 10.63 293.218 10.1979C293.268 9.76581 293.222 9.32785 293.081 8.91608C292.953 8.5174 292.749 8.14707 292.481 7.82518C292.353 7.6835 292.194 7.57178 292.018 7.4979C291.849 7.41177 291.662 7.36514 291.472 7.36154C291.283 7.3678 291.097 7.41428 290.927 7.4979C290.755 7.56607 290.604 7.67908 290.49 7.82518C289.941 8.49971 289.668 9.35736 289.727 10.2252C289.677 11.092 289.949 11.9468 290.49 12.6252C290.611 12.7579 290.76 12.8606 290.927 12.9252Z" fill="#A4E33D"/>
<path d="M260.326 62.8898L244.508 67.6353C248.911 71.4148 254.472 73.5794 260.271 73.7717C270.335 73.7717 274.753 70.0898 281.462 70.0898C287.544 70.0898 290.299 73.8262 301.999 73.8262C315.881 73.8262 321.362 64.8262 322.862 52.2808C323.226 48.4576 323.153 44.6055 322.644 40.7989C321.201 30.2804 318.509 19.9714 314.626 10.0898L313.971 11.8898C309.667 24.0086 302.566 34.9421 293.246 43.8031C283.925 52.6642 272.647 59.2033 260.326 62.8898Z" fill="#92DC2F"/>
</g>
</g>
</svg>
