<svg width="335" height="50" viewBox="0 0 335 50" fill="none" xmlns="http://www.w3.org/2000/svg">
<rect width="335" height="50" rx="12" fill="#DCF5FF"/>
<g opacity="0.2">
<mask id="mask0_1324_27477" style="mask-type:alpha" maskUnits="userSpaceOnUse" x="0" y="0" width="335" height="50">
<rect width="335" height="50" rx="12" fill="#DCF5FF"/>
</mask>
<g mask="url(#mask0_1324_27477)">
<path fill-rule="evenodd" clip-rule="evenodd" d="M258.132 41.9459C274.223 36.7368 278.014 27.0004 278.805 24.4913C278.899 24.2478 278.945 23.9886 278.941 23.7277C278.918 23.4147 278.835 23.1092 278.696 22.8277C278.551 22.55 278.346 22.3079 278.096 22.1186C277.848 21.9265 277.558 21.7957 277.25 21.7368C275.041 21.1368 273.814 23.7822 273.814 23.7822C272.008 27.3297 269.376 30.3907 266.139 32.7071C262.901 35.0234 259.155 36.5271 255.214 37.0913C254.516 37.1975 253.802 37.1224 253.141 36.8731C252.481 36.6395 251.884 36.2569 251.396 35.755C243.214 27.055 241.496 10.1459 251.669 -2.69959C261.841 -15.545 277.005 -22.1996 293.669 -17.3996C329.86 -7.85413 326.641 43.3095 299.341 64.4186C286.938 73.8616 271.347 78.1067 255.869 76.255C239.941 74.1822 234.05 65.8368 235.005 58.3368C235.878 51.4913 238.932 47.0731 244.85 44.9459C248.518 43.6274 250.709 43.2833 253.105 42.907H253.105C254.574 42.6762 256.121 42.4332 258.132 41.9459ZM295.306 14.5377C295.12 14.5422 294.936 14.5054 294.766 14.4299C294.596 14.3545 294.445 14.2422 294.324 14.1013C293.777 13.4255 293.505 12.5688 293.56 11.7013C293.494 10.8325 293.768 9.9718 294.324 9.30134C294.445 9.16044 294.596 9.0482 294.766 8.97274C294.936 8.89727 295.12 8.86047 295.306 8.86498C295.485 8.82406 295.672 8.82406 295.851 8.86498C296.018 8.94222 296.167 9.05373 296.288 9.19225C296.574 9.51592 296.788 9.8972 296.915 10.3104C297.013 10.7229 297.013 11.1525 296.915 11.565C296.955 12 296.908 12.4385 296.777 12.8552C296.645 13.2718 296.433 13.6583 296.151 13.9923C296.031 14.1308 295.882 14.2423 295.715 14.3195C295.536 14.3604 295.349 14.3604 295.17 14.3195L295.306 14.5377ZM304.714 14.5379C304.885 14.5766 305.062 14.5766 305.232 14.5379V14.647C305.421 14.6451 305.607 14.6055 305.781 14.5306C305.954 14.4557 306.111 14.3469 306.241 14.2106C306.792 13.5277 307.056 12.6574 306.978 11.7834C307.054 10.9264 306.789 10.074 306.241 9.41065C306.11 9.27143 305.953 9.16011 305.778 9.08338C305.598 9.04246 305.412 9.04246 305.232 9.08338C305.052 9.04737 304.867 9.04737 304.687 9.08338C304.524 9.16772 304.377 9.27829 304.25 9.41065C303.973 9.74109 303.761 10.1203 303.623 10.5288C303.509 10.946 303.463 11.3788 303.487 11.8106C303.431 12.6781 303.704 13.5348 304.25 14.2106C304.381 14.3499 304.539 14.4612 304.714 14.5379Z" fill="#3AC5FF"/>
<path d="M272.859 55.8004L239.859 69.7913C244.477 73.4221 250.067 75.6047 255.923 76.064C271.401 77.9158 286.993 73.6707 299.396 64.2277C316.496 51.055 324.132 26.0459 318.487 6.95496L316.25 12.2186C308.004 31.8358 292.44 47.4686 272.859 55.8004Z" fill="#2DB8FF"/>
</g>
</g>
</svg>
