<svg width="63" height="76" viewBox="0 0 63 76" fill="none" xmlns="http://www.w3.org/2000/svg">
<rect width="63" height="76" rx="8" fill="#A586FF"/>
<path fill-rule="evenodd" clip-rule="evenodd" d="M51.4341 21.3857C51.1738 19.9031 50.6586 18.4767 49.9113 17.1698C47.4909 13.113 43.4 12.7607 40.5704 14.3971C40.1955 14.6846 39.7361 14.8404 39.2636 14.8404C38.7911 14.8404 38.3318 14.6846 37.9568 14.3971C36.5909 13.2263 34.8871 12.5216 33.0932 12.3857C31.1997 12.5145 29.3913 13.2205 27.9113 14.4085C27.5394 14.6878 27.0868 14.8389 26.6216 14.8389C26.1564 14.8389 25.7038 14.6878 25.3318 14.4085C22.5818 12.3517 17.2409 13.6017 15.2409 18.2835C14.0444 21.1431 14.0159 24.3576 15.1613 27.238C15.2472 27.4349 15.3948 27.5984 15.5818 27.7039C15.7692 27.8056 15.9852 27.8416 16.1954 27.8062C17.5083 27.5975 18.8481 27.6283 20.15 27.8971C20.4375 27.9452 20.7221 28.0097 21.0022 28.0903C22.2809 28.4767 23.4785 29.0929 24.5363 29.9085C24.6484 30.0034 24.741 30.1192 24.8091 30.2494C24.8796 30.3786 24.9186 30.5227 24.9227 30.6698C24.9335 30.8162 24.9104 30.9631 24.8552 31.0991C24.8001 31.2351 24.7143 31.3565 24.6045 31.4539C24.4374 31.6228 24.2161 31.7274 23.9795 31.7494C23.747 31.7677 23.515 31.7077 23.3204 31.5789C21.9926 30.6262 20.4361 30.0423 18.8093 29.8866C17.1825 29.7309 15.5435 30.009 14.0591 30.6926C10.1727 33.113 9.87725 38.2948 12.6613 42.5789C15.0704 46.3176 19.3432 47.613 23.3091 47.6017H38.5136C43.8772 47.6017 47.1386 45.2039 49.4568 40.4994C52.9909 33.2267 52.275 25.9653 51.4341 21.3857ZM30.9112 23.6934C30.8322 23.6908 30.7548 23.6714 30.6839 23.6366C30.6144 23.6097 30.5521 23.5669 30.5021 23.5116C30.268 23.2334 30.1536 22.8738 30.1839 22.5116C30.1684 22.3315 30.1877 22.1502 30.2407 21.9775C30.2981 21.8072 30.3867 21.6492 30.5021 21.5116C30.5459 21.4473 30.6099 21.3993 30.6839 21.3752C30.7548 21.3403 30.8322 21.321 30.9112 21.3184C30.9902 21.3199 31.068 21.3393 31.1384 21.3752C31.212 21.406 31.278 21.4525 31.3316 21.5116C31.4457 21.6478 31.5316 21.8054 31.5843 21.9751C31.6369 22.1448 31.6554 22.3233 31.6384 22.5002C31.6713 22.8644 31.5612 23.227 31.3316 23.5116C31.2156 23.6173 31.0677 23.6813 30.9112 23.6934ZM34.604 23.5116C34.72 23.6173 34.868 23.6813 35.0245 23.6934C35.0998 23.6906 35.1735 23.6712 35.2404 23.6366C35.3147 23.6126 35.3813 23.5695 35.4336 23.5116C35.6611 23.2254 35.7745 22.8651 35.7518 22.5002C35.7766 22.142 35.6627 21.788 35.4336 21.5116C35.382 21.4502 35.3154 21.4033 35.2404 21.3752C35.1735 21.3406 35.0998 21.3212 35.0245 21.3184C34.9454 21.3199 34.8677 21.3393 34.7972 21.3752C34.7222 21.4033 34.6556 21.4502 34.604 21.5116C34.374 21.7915 34.2638 22.1508 34.2972 22.5116C34.2662 22.872 34.3762 23.2305 34.604 23.5116Z" fill="white"/>
<path d="M18.31 42.7384L12.8555 42.852C15.2759 46.2611 19.4464 47.6134 23.31 47.602H38.5146C43.8782 47.602 47.1396 45.2043 49.4577 40.4997C52.9918 33.227 52.2759 25.9656 51.4123 21.3861C51.2173 20.2672 50.8773 19.1785 50.4009 18.1475L49.9577 19.4656C47.7274 26.1355 43.4888 31.9523 37.823 36.1187C32.1572 40.2852 25.3414 42.5974 18.31 42.7384Z" fill="white"/>
<path opacity="0.08" fill-rule="evenodd" clip-rule="evenodd" d="M0.300262 5.82128C1.05335 3.15453 3.15453 1.05335 5.82128 0.300262L0.300262 5.82128ZM0 15.1215V10.8789L10.8789 0H15.1215L0 15.1215ZM0 24.1215V19.8789L19.8789 0H24.1215L0 24.1215ZM0 33.1215V28.8789L28.8789 0H33.1215L0 33.1215ZM0 42.1215V37.8789L37.8789 0H42.1215L0 42.1215ZM0 51.1215V46.8789L46.8789 0H51.1215L0 51.1215ZM0 60.1215V55.8789L55.8358 0.0431332C56.9923 0.163195 58.0757 0.529658 59.0324 1.08912L0 60.1215ZM0.0686661 69.0529C0.023371 68.7083 0 68.3569 0 68V64.8789L61.5182 3.3607C62.1369 4.2284 62.5866 5.22486 62.8195 6.30209L0.0686661 69.0529ZM3.5037 74.6178C2.67033 74.0505 1.94969 73.3299 1.38234 72.4966L63 10.8789V15.1215L3.5037 74.6178ZM11.1215 76H8C7.64324 76 7.29193 75.9766 6.94753 75.9314L63 19.8789V24.1215L11.1215 76ZM20.1215 76H15.8789L63 28.8789V33.1215L20.1215 76ZM29.1215 76H24.8789L63 37.8789V42.1215L29.1215 76ZM38.1215 76H33.8789L63 46.8789V51.1215L38.1215 76ZM47.1215 76H42.8789L63 55.8789V60.1215L47.1215 76ZM56.2129 75.9087C55.8174 75.9688 55.4123 76 55 76H51.8789L63 64.8789V68C63 68.4123 62.9688 68.8174 62.9086 69.2129L56.2129 75.9087Z" fill="white"/>
<path d="M31.1574 62.68H27.6174V61.64H26.6974V62.68H23.1774V63.42H31.1574V62.68ZM23.6174 61.34L23.8974 62.06C25.3974 61.91 26.6274 61.4 27.1574 60.57C27.7074 61.4 28.9174 61.91 30.4174 62.06L30.7174 61.34C28.9574 61.2 27.7574 60.54 27.6774 59.66H30.3574V58.92H27.6174V58.06H26.6974V58.92H23.9774V59.66H26.6474C26.5574 60.54 25.3574 61.2 23.6174 61.34ZM24.0574 64.92H29.2374V66.82H30.1774V64.18H24.0574V64.92ZM38.7 58.08H37.78V63.2H38.7V61.02H39.96V60.24H38.7V58.08ZM31.78 62.42L32.16 63.12C34.75 62.45 36.27 60.87 36.28 58.62H32.18V59.36H35.28C35.13 60.74 33.88 61.86 31.78 62.42ZM32.92 64.32H37.78V66.82H38.7V63.58H32.92V64.32Z" fill="white"/>
</svg>
