<svg width="375" height="326" viewBox="0 0 375 326" fill="none" xmlns="http://www.w3.org/2000/svg">
<path d="M248.83 289.14C285.375 289.14 315 284.184 315 278.07C315 271.956 285.375 267 248.83 267C212.285 267 182.66 271.956 182.66 278.07C182.66 284.184 212.285 289.14 248.83 289.14Z" fill="#F4F4F3"/>
<path d="M273.32 73.1303C253.24 66.1803 249.4 67.6303 231.82 57.9903C220.95 52.0303 215.9 46.7103 199.34 47.6603C186.19 48.4103 175.15 58.3803 174.25 71.5203C173.34 84.8603 181.26 95.7703 188.59 101.81C193.96 105.89 204.25 112.88 217.69 118.09C220.08 119.02 221.33 121.65 220.62 124.12C219.81 126.95 216.8 128.36 214 127.44C209.25 125.88 206.18 124.47 206.18 124.47C198.52 120.89 192.13 116.99 187.34 113.71C184.12 111.51 179.6 112.08 177.39 115.29C175.87 117.5 174.33 119.87 172.85 122.41C168.41 130.02 164.43 139.13 162.57 149.73C156 187.19 175.19 222.37 217.69 237.5C269.64 255.99 324.64 225.48 334.56 172.36C342.72 129.06 315.69 85.2503 273.31 73.1303H273.32Z" fill="#FF6E83"/>
<path d="M214 267.871L214.83 210.361L245.92 205.061C245.92 205.061 239.51 251.591 234.69 273.541C233.09 280.831 226.1 279.101 216.65 278.411C210.99 278.001 207.99 277.001 210.99 273.001C211.64 272.131 213.61 270.121 213.99 267.871H214Z" fill="#FF6E83"/>
<path d="M296.441 267.091L290.431 208.711L259.051 205.561C259.051 205.561 268.181 250.311 274.501 271.881C276.601 279.041 277.371 277.931 293.401 278.191C297.401 278.261 303.411 277.351 298.501 272.271C297.971 271.721 297.471 271.081 297.061 269.951C296.731 269.031 296.551 268.061 296.451 267.091H296.441Z" fill="#FF6E83"/>
<path d="M312.951 171.45C312.951 171.45 336.001 202 331.831 215.98C331.051 218.6 330.141 221.18 330.741 223.85V223.9C330.931 224.7 331.001 225.51 331.011 226.32C331.031 227.71 331.871 230.3 333.991 231.01C336.991 232.01 340.991 231.01 342.751 229.08C344.371 227.3 346.171 224.47 346.991 221.01C348.381 215.15 347.561 208.46 345.801 201.97C343.071 191.87 336.761 178.17 332.041 169.83C327.321 161.49 322.531 160.75 322.531 160.75L319.851 158.49L312.951 171.46V171.45Z" fill="#FF6E83"/>
<path d="M332.871 214.21C332.871 214.21 336.261 213.79 337.831 215.94C339.401 218.09 334.471 219.88 333.351 220.67C331.711 221.82 329.741 223.6 328.181 222.52C324.391 219.89 332.881 214.21 332.881 214.21H332.871Z" fill="#FF6E83"/>
<path d="M200.461 154.21C199.931 154.12 199.461 153.84 199.101 153.38C198.481 152.59 198.271 151.39 198.511 150C198.721 148.59 199.301 147.51 200.141 146.96C200.631 146.64 201.161 146.52 201.691 146.6C202.221 146.68 202.691 146.97 203.051 147.43C203.671 148.22 203.881 149.42 203.651 150.81C203.441 152.22 202.861 153.3 202.021 153.85C201.531 154.17 201.001 154.29 200.471 154.21H200.461Z" fill="white"/>
<path d="M215.012 156.54C214.482 156.45 214.012 156.17 213.652 155.71C213.032 154.92 212.822 153.72 213.052 152.33C213.262 150.92 213.842 149.84 214.682 149.29C215.172 148.97 215.702 148.85 216.232 148.93C216.762 149.01 217.232 149.3 217.592 149.76C218.212 150.55 218.422 151.75 218.192 153.14C217.982 154.55 217.402 155.63 216.562 156.18C216.072 156.5 215.542 156.62 215.012 156.54Z" fill="white"/>
<path d="M206.33 172.27C206.33 172.27 218.74 178.01 228.57 166.38" stroke="white" stroke-width="3" stroke-linecap="round" stroke-linejoin="round"/>
<path d="M71.8128 229.645C72.9246 226.231 71.0587 222.563 67.6453 221.451C64.2319 220.34 60.5636 222.206 59.4519 225.619L45.2066 269.358C44.0949 272.771 45.9608 276.439 49.3741 277.551C52.7875 278.663 56.4558 276.797 57.5675 273.383L71.8128 229.645Z" fill="#D1D3CF"/>
<path d="M129.452 273.371C130.564 276.784 134.232 278.65 137.646 277.538C141.059 276.427 142.925 272.758 141.813 269.345L127.568 225.606C126.456 222.193 122.788 220.327 119.375 221.439C115.961 222.55 114.095 226.219 115.207 229.632L129.452 273.371Z" fill="#D1D3CF"/>
<path d="M87 105.5C87 109.09 89.9101 112 93.5 112C97.0899 112 100 109.09 100 105.5V88.5C100 84.9101 97.0899 82 93.5 82C89.9101 82 87 84.9101 87 88.5V105.5Z" fill="#D1D3CF"/>
<path d="M329.502 204.5C329.502 204.5 325.892 192.42 317.512 178.87" stroke="white" stroke-width="3" stroke-miterlimit="10" stroke-linecap="round"/>
<path d="M141.69 93H44.31C39.7205 93 36 96.7205 36 101.31V239.69C36 244.279 39.7205 248 44.31 248H141.69C146.279 248 150 244.279 150 239.69V101.31C150 96.7205 146.279 93 141.69 93Z" fill="#F4F4F3"/>
<path d="M141.69 93H44.31C39.7205 93 36 96.7205 36 101.31V239.69C36 244.279 39.7205 248 44.31 248H141.69C146.279 248 150 244.279 150 239.69V101.31C150 96.7205 146.279 93 141.69 93Z" fill="#0E4E37"/>
<path d="M119.951 133.55C112.301 125.6 102.201 122.22 91.3806 124.37C89.1406 124.82 83.5506 126.43 79.8406 126.84C68.8506 128.06 63.1706 125.89 59.2406 131.78C56.6306 135.69 58.6706 140.12 62.4906 142.21C63.9206 142.99 65.5506 143.32 67.1806 143.32H73.2506C79.4906 143.5 80.4906 144.5 79.4906 147.5C79.1706 148.45 77.4206 148.86 74.2506 148.79H70.1306C70.1306 148.79 58.0606 167.75 74.9006 181.22C91.3806 194.4 112.481 185.14 117.741 180.4C125.981 172.98 130.921 167.22 127.631 148.27C126.551 142.05 123.451 137.21 119.941 133.56L119.951 133.55Z" stroke="#FF6E83" stroke-width="3" stroke-miterlimit="10"/>
<path d="M185.221 176.261C185.221 176.261 147.001 174.001 140.381 158.121C139.331 155.601 137.891 153.251 135.591 151.781L135.551 151.761C134.861 151.321 134.241 150.801 133.651 150.231C132.651 149.261 130.231 148.031 128.231 149.031C125.401 150.441 123.281 153.981 123.401 156.581C123.511 158.981 124.241 162.261 126.111 165.291C129.271 170.421 134.581 174.571 140.421 177.911C149.491 183.121 163.651 188.351 172.881 190.901C182.111 193.461 186.031 190.601 186.031 190.601L189.521 190.301L185.231 176.251L185.221 176.261Z" fill="#FF6E83"/>
<path d="M165.96 194.091C165.96 194.091 161.25 181.501 159.07 165.721" stroke="white" stroke-width="3" stroke-miterlimit="10" stroke-linecap="round"/>
<path d="M140.901 160.1C140.901 160.1 138.791 162.79 136.171 162.38C133.551 161.97 135.761 157.22 136.001 155.87C136.351 153.9 136.481 151.24 138.351 150.91C142.881 150.09 140.901 160.11 140.901 160.11V160.1Z" fill="#FF6E83"/>
<path d="M86.8012 152.551L86.2012 154.451" stroke="#FF6E83" stroke-width="3" stroke-linecap="round" stroke-linejoin="round"/>
<path d="M95.5 162.5L89.5 167.5" stroke="#FF6E83" stroke-width="3" stroke-linecap="round" stroke-linejoin="round"/>
<path d="M84.9902 165.051L89.3502 167.531" stroke="#FF6E83" stroke-width="3" stroke-linecap="round" stroke-linejoin="round"/>
<path d="M93.8012 152.551L93.2012 154.451" stroke="#FF6E83" stroke-width="3" stroke-linecap="round" stroke-linejoin="round"/>
<path d="M68.8911 215.53C68.8211 215.53 68.7611 215.51 68.6911 215.5C66.3711 215 64.7011 213.27 63.9711 210.63C63.7011 209.66 63.5811 208.62 63.5811 207.58C59.4611 206.22 56.5811 204.07 55.0211 201.19C52.8711 197.23 54.1011 193.38 54.1511 193.22C54.4411 192.34 55.3911 191.86 56.2811 192.15C57.1611 192.44 57.6411 193.39 57.3611 194.27C57.3211 194.4 56.5511 196.98 58.0111 199.63C59.0911 201.58 61.1111 203.1 64.0411 204.17C64.5311 202.36 65.4011 200.73 66.5711 199.64C68.3311 198 69.8911 197.88 70.8911 198.07C73.1311 198.5 74.2311 200.7 74.3511 200.95C74.4311 201.11 74.4811 201.28 74.5011 201.46C74.8111 203.92 73.8811 205.42 73.0511 206.24C71.3511 207.92 68.6811 208.21 66.9711 208.2C67.0011 208.73 67.0911 209.25 67.2211 209.73C67.6111 211.14 68.3511 211.98 69.4111 212.21C70.3211 212.41 70.9011 213.3 70.7011 214.21C70.5211 215.05 69.7311 215.61 68.8911 215.53ZM70.2111 201.37C69.8811 201.34 69.4011 201.6 68.8711 202.1C68.2111 202.72 67.6911 203.7 67.3611 204.82C68.5211 204.79 69.9611 204.57 70.6911 203.84C70.9411 203.59 71.2511 203.16 71.1911 202.18C70.9911 201.87 70.6211 201.44 70.2611 201.37C70.2511 201.37 70.2311 201.37 70.2211 201.37H70.2111Z" fill="#A4E33D"/>
<path d="M104.571 229.27C104.571 229.27 98.5406 207.33 109.211 205.91C109.211 205.91 115.631 205.11 115.271 214.84C115.271 214.84 122.231 209.89 124.961 214.84C124.961 214.84 126.991 217.83 124.501 221.74" stroke="#3AC5FF" stroke-width="3" stroke-linecap="round" stroke-linejoin="round"/>
</svg>
