<svg width="40" height="40" viewBox="0 0 40 40" fill="none" xmlns="http://www.w3.org/2000/svg">
<path d="M13.0447 23.982C18.4084 22.2457 19.672 19.0002 19.9357 18.1639C19.9669 18.0827 19.9823 17.9963 19.9811 17.9093C19.9733 17.805 19.9455 17.7032 19.8993 17.6093C19.8509 17.5168 19.7826 17.436 19.6993 17.3729C19.6167 17.3089 19.5201 17.2653 19.4175 17.2457C18.6811 17.0457 18.272 17.9275 18.272 17.9275C17.6701 19.11 16.7926 20.1303 15.7135 20.9024C14.6344 21.6746 13.3855 22.1758 12.072 22.3639C11.8393 22.3993 11.6014 22.3742 11.3811 22.2911C11.1611 22.2133 10.962 22.0857 10.7993 21.9184C8.07202 19.0184 7.49929 13.382 10.8902 9.10022C14.2811 4.8184 19.3357 2.60022 24.8902 4.20022C36.9538 7.38204 35.8811 24.4366 26.7811 31.4729C22.6468 34.6206 17.4496 36.0356 12.2902 35.4184C6.98111 34.7275 5.01748 31.9457 5.33566 29.4457C5.62657 27.1639 6.64475 25.6911 8.61748 24.982C10.5902 24.2729 11.2811 24.4093 13.0447 23.982Z" fill="#3AC5FF"/>
<path d="M17.9531 28.6002L6.95312 33.2638C8.49244 34.4741 10.3556 35.2016 12.3077 35.3547C17.4671 35.972 22.6642 34.5569 26.7986 31.4093C32.4986 27.0184 35.044 18.682 33.1622 12.3184L32.4168 14.0729C29.6682 20.612 24.4801 25.8229 17.9531 28.6002Z" fill="#2DB8FF"/>
</svg>
