<svg width="335" height="50" viewBox="0 0 335 50" fill="none" xmlns="http://www.w3.org/2000/svg">
<rect width="335" height="50" rx="12" fill="#FEF6CD"/>
<g opacity="0.4">
<mask id="mask0_1324_27481" style="mask-type:alpha" maskUnits="userSpaceOnUse" x="0" y="0" width="335" height="50">
<rect width="335" height="50" rx="12" fill="#FEF6CD"/>
</mask>
<g mask="url(#mask0_1324_27481)">
<path fill-rule="evenodd" clip-rule="evenodd" d="M278.134 8.98009C298.991 -2.80741 327.375 15.4096 325.467 42.1733C325.31 99.4642 222.124 98.5755 223.666 40.6574C223.038 14.521 250.743 -2.59831 271.26 8.98009C272.329 9.58099 273.535 9.89606 274.762 9.89486C275.945 9.87623 277.104 9.56174 278.134 8.98009ZM292.718 39.8216C292.901 40.1342 293.017 40.4813 293.058 40.8409C293.151 41.4697 293.012 42.1109 292.666 42.6444C292.311 43.1663 291.768 43.5314 291.15 43.6637C280.264 46.5385 268.817 46.5385 257.931 43.6637C257.313 43.5314 256.77 43.1663 256.415 42.6444C256.069 42.1109 255.93 41.4697 256.023 40.8409C256.072 40.4831 256.187 40.1375 256.363 39.8216C256.542 39.5068 256.793 39.2383 257.094 39.0375C257.393 38.8307 257.731 38.6882 258.088 38.6193C258.442 38.5546 258.805 38.5546 259.159 38.6193C269.237 41.3117 279.844 41.3117 289.922 38.6193C290.276 38.5546 290.639 38.5546 290.993 38.6193C291.35 38.6882 291.688 38.8307 291.986 39.0375C292.288 39.2383 292.539 39.5068 292.718 39.8216ZM269.9 30.4393C269.718 30.4359 269.54 30.3912 269.378 30.3086C269.214 30.2529 269.07 30.1535 268.959 30.0211C268.692 29.7051 268.489 29.3391 268.363 28.9443C268.238 28.5496 268.192 28.1338 268.228 27.7211C268.187 27.3082 268.231 26.8913 268.357 26.4959C268.483 26.1005 268.688 25.7348 268.959 25.4211C269.068 25.2811 269.213 25.1728 269.378 25.1075C269.54 25.0249 269.718 24.9803 269.9 24.9768C270.082 24.9828 270.26 25.0274 270.423 25.1075C270.588 25.1728 270.732 25.2811 270.841 25.4211C271.115 25.7283 271.321 26.0892 271.447 26.4808C271.573 26.8723 271.616 27.2859 271.573 27.695C271.609 28.1091 271.564 28.5261 271.442 28.9234C271.305 29.3203 271.101 29.6913 270.841 30.0211C270.731 30.1535 270.586 30.2529 270.423 30.3086C270.26 30.3888 270.082 30.4333 269.9 30.4393ZM278.865 30.3086C279.028 30.3888 279.206 30.4333 279.387 30.4393C279.605 30.4172 279.813 30.3358 279.989 30.2041C280.113 30.1672 280.229 30.1049 280.328 30.0211C280.598 29.7011 280.802 29.3307 280.927 28.9314C281.053 28.5321 281.098 28.1119 281.06 27.695C281.1 27.2861 281.056 26.8733 280.93 26.4822C280.804 26.0911 280.599 25.73 280.328 25.4211C280.219 25.2811 280.075 25.1728 279.91 25.1075C279.748 25.0249 279.569 24.9803 279.387 24.9768C279.206 24.9828 279.028 25.0274 278.865 25.1075C278.7 25.1728 278.555 25.2811 278.446 25.4211C278.181 25.7378 277.977 26.1012 277.845 26.4927C277.723 26.89 277.679 27.3071 277.715 27.7211C277.68 28.1266 277.725 28.5348 277.845 28.9234C277.983 29.3203 278.186 29.6913 278.446 30.0211C278.557 30.1535 278.702 30.2529 278.865 30.3086Z" fill="#F9D63F"/>
<path d="M251.239 76.5417L244.914 77.2474C274.762 93.8701 325.362 82.2917 325.466 42.1724C326.126 33.522 323.451 24.9471 317.991 18.2053L314.123 27.8758C308.932 40.8573 300.364 52.2147 289.308 60.7714C278.251 69.3281 265.108 74.7729 251.239 76.5417Z" fill="#F7CC31"/>
</g>
</g>
</svg>
