<svg width="69" height="69" viewBox="0 0 69 69" fill="none" xmlns="http://www.w3.org/2000/svg">
<path d="M34.5 69C53.5538 69 69 53.5538 69 34.5C69 15.4462 53.5538 0 34.5 0C15.4462 0 0 15.4462 0 34.5C0 53.5538 15.4462 69 34.5 69Z" fill="#1B210D"/>
<path d="M31.2323 45.3678C30.8459 45.3668 30.4643 45.2819 30.1139 45.119C29.7635 44.9561 29.4527 44.719 29.2029 44.4241L20.7403 34.409C20.4131 34.0392 20.2266 33.566 20.2136 33.0724C20.2006 32.5788 20.3619 32.0964 20.6693 31.7099C20.8597 31.4836 21.0974 31.3017 21.3656 31.1769C21.6338 31.0521 21.926 30.9875 22.2218 30.9875C22.5175 30.9875 22.8097 31.0521 23.0779 31.1769C23.3461 31.3017 23.5838 31.4836 23.7743 31.7099L30.9381 40.203C30.9752 40.2459 31.0212 40.2804 31.0728 40.304C31.1245 40.3276 31.1806 40.3398 31.2374 40.3398C31.2942 40.3398 31.3503 40.3276 31.402 40.304C31.4536 40.2804 31.4996 40.2459 31.5368 40.203L45.144 24.0691C45.4541 23.6855 45.8889 23.4227 46.3727 23.3263C46.8565 23.2299 47.3588 23.3061 47.7923 23.5415C48.0452 23.691 48.2626 23.8937 48.4295 24.1354C48.5964 24.3772 48.7088 24.6523 48.7589 24.9417C48.8091 25.2312 48.7959 25.5281 48.7201 25.8119C48.6443 26.0957 48.5078 26.3597 48.32 26.5856L33.2719 44.4241C33.021 44.7203 32.7086 44.9581 32.3563 45.1211C32.004 45.2841 31.6205 45.3683 31.2323 45.3678Z" fill="white"/>
</svg>
