<svg width="44" height="44" viewBox="0 0 44 44" fill="none" xmlns="http://www.w3.org/2000/svg">
<rect width="44" height="44" fill="white"/>
<path d="M32.1834 33.9955C31.9445 33.9964 31.7077 33.9502 31.4868 33.8595C31.2658 33.7689 31.0651 33.6356 30.8961 33.4673L26.0928 28.681C25.3638 27.9522 24.8952 27.0049 24.7592 25.9849C24.6232 24.9648 24.8273 23.9285 25.3401 23.0353C25.8878 22.0807 26.1749 20.9996 26.1726 19.9C26.1704 18.8004 25.8789 17.7205 25.3273 16.7681C24.7757 15.8157 23.9831 15.0241 23.0287 14.472C22.0743 13.92 20.9914 13.6269 19.8878 13.622H19.859C19.0245 13.6128 18.1964 13.7688 17.4228 14.0807C16.6491 14.3926 15.9452 14.8544 15.3519 15.4392C14.7585 16.024 14.2874 16.7203 13.966 17.4877C13.6445 18.2552 13.4789 19.0786 13.4789 19.9102C13.4789 20.7418 13.6445 21.5652 13.966 22.3327C14.2874 23.1001 14.7585 23.7964 15.3519 24.3812C15.9452 24.966 16.6491 25.4278 17.4228 25.7397C18.1964 26.0516 19.0245 26.2076 19.859 26.1984C20.341 26.1984 20.8033 26.3892 21.1441 26.7289C21.485 27.0685 21.6765 27.5291 21.6765 28.0094C21.6765 28.4897 21.485 28.9504 21.1441 29.29C20.8033 29.6296 20.341 29.8204 19.859 29.8204C17.2364 29.7976 14.7289 28.7434 12.8825 26.8874C11.036 25.0314 10 22.5237 10 19.9102C10 17.2967 11.036 14.7891 12.8825 12.933C14.7289 11.077 17.2364 10.0228 19.859 10H19.9045C21.6437 10.0079 23.3505 10.47 24.8546 11.3403C26.3587 12.2106 27.6074 13.4587 28.4764 14.96C29.3453 16.4613 29.804 18.1634 29.8067 19.8966C29.8094 21.6297 29.356 23.3332 28.4918 24.8372C28.3754 25.0401 28.329 25.2755 28.3597 25.5072C28.3905 25.739 28.4968 25.9542 28.6622 26.12L33.4655 30.9062C33.7205 31.1595 33.8943 31.4826 33.9648 31.8345C34.0353 32.1864 33.9993 32.5512 33.8614 32.8827C33.7235 33.2141 33.4898 33.4973 33.1902 33.6962C32.8905 33.8951 32.5382 34.0009 32.1781 34L32.1834 33.9955Z" fill="#BBBDB6"/>
</svg>
