<svg width="40" height="40" viewBox="0 0 40 40" fill="none" xmlns="http://www.w3.org/2000/svg">
<path d="M36.3012 13.1092C36.0929 11.923 35.6808 10.7819 35.083 9.73645C33.1466 6.491 29.8739 6.20918 27.6103 7.51827C27.3103 7.74828 26.9428 7.87294 26.5648 7.87294C26.1868 7.87294 25.8193 7.74828 25.5194 7.51827C24.4266 6.58159 23.0636 6.0179 21.6284 5.90918C20.1137 6.0122 18.6669 6.57695 17.483 7.52736C17.1854 7.75085 16.8233 7.87168 16.4512 7.87168C16.079 7.87168 15.7169 7.75085 15.4193 7.52736C13.2193 5.88191 8.94662 6.88191 7.34662 10.6274C6.38944 12.915 6.36659 15.4867 7.28298 17.791C7.35164 17.9485 7.46972 18.0793 7.61934 18.1637C7.76925 18.2451 7.94207 18.2739 8.11025 18.2455C9.16054 18.0786 10.2324 18.1033 11.2739 18.3183C11.5039 18.3568 11.7316 18.4084 11.9557 18.4728C12.9786 18.782 13.9367 19.2749 14.783 19.9274C14.8727 20.0033 14.9467 20.0959 15.0012 20.2001C15.0576 20.3035 15.0888 20.4187 15.0921 20.5365C15.1007 20.6535 15.0823 20.7711 15.0381 20.8798C14.994 20.9886 14.9253 21.0858 14.8375 21.1637C14.7038 21.2988 14.5268 21.3825 14.3375 21.4001C14.1515 21.4147 13.9659 21.3667 13.8103 21.2637C12.748 20.5016 11.5028 20.0344 10.2013 19.9099C8.8999 19.7853 7.58869 20.0078 6.40116 20.5546C3.29207 22.491 3.05571 26.6365 5.28298 30.0637C7.21025 33.0546 10.6284 34.091 13.8012 34.0819H25.9648C30.2557 34.0819 32.8648 32.1637 34.7194 28.4001C37.5466 22.5819 36.9739 16.7728 36.3012 13.1092Z" fill="#A586FF"/>
<path d="M9.80114 30.1913L5.4375 30.2822C7.37386 33.0095 10.7102 34.0913 13.8011 34.0822H25.9648C30.2557 34.0822 32.8648 32.164 34.7193 28.4004C37.5466 22.5822 36.9739 16.7731 36.283 13.1095C36.127 12.2143 35.855 11.3434 35.4739 10.5186L35.1193 11.5731C33.3351 16.909 29.9442 21.5624 25.4115 24.8956C20.8789 28.2287 15.4263 30.0785 9.80114 30.1913Z" fill="#9473FF"/>
</svg>
