<svg width="79" height="79" viewBox="0 0 79 79" fill="none" xmlns="http://www.w3.org/2000/svg">
<circle cx="39.5" cy="39.5" r="39.5" fill="#A4E33D"/>
<mask id="mask0_1540_28808" style="mask-type:alpha" maskUnits="userSpaceOnUse" x="0" y="0" width="79" height="79">
<circle cx="39.5" cy="39.5" r="39.5" fill="#FF6E83"/>
</mask>
<g mask="url(#mask0_1540_28808)">
<path d="M3 65.5L9.4395 63.7495C37.1853 56.2069 58.5347 34.0164 65 6L79 8V79H26.5L3 65.5Z" fill="#92DC2F"/>
</g>
<path fill-rule="evenodd" clip-rule="evenodd" d="M37.6311 37.9439C37.2302 37.5529 36.8019 37.1911 36.3494 36.8613C34.0991 35.3759 31.5126 34.4772 28.8255 34.2475C28.654 34.2324 28.4881 34.1788 28.3403 34.0905C28.1871 34.0066 28.0591 33.8835 27.9692 33.7337C27.8725 33.5928 27.809 33.4318 27.7837 33.2628C27.7414 33.0941 27.7414 32.9177 27.7837 32.749C29.1538 28.125 30.9662 22.1738 34.791 18.3918C37.0826 16.2717 40.1215 15.1471 43.2412 15.2649C46.3608 15.3826 49.3064 16.733 51.4317 19.0198C54.971 23.7436 59.2097 31.3218 61.2933 45.151C61.5597 47.1429 61.598 49.1587 61.4075 51.1593C60.6226 57.7242 57.754 62.4338 50.4897 62.4338C46.9322 62.4338 44.9551 61.7737 43.2986 61.2206C42.1043 60.8218 41.0765 60.4786 39.7433 60.4786C38.1593 60.4786 36.8193 60.8708 35.3485 61.3013C33.5594 61.825 31.5767 62.4053 28.7256 62.4053C22.8172 62.4053 14.6681 56.8822 16.5948 47.9339C17.7936 42.2539 22.0608 36.902 26.7847 36.902H27.6124C29.2283 36.7572 30.8555 36.9943 32.3628 37.5942C33.8701 38.1941 35.2152 39.1401 36.2895 40.3557C36.5509 40.5138 36.856 40.5838 37.1601 40.5555C37.4675 40.5143 37.753 40.374 37.9736 40.1559C38.1837 39.9373 38.3187 39.6573 38.3589 39.3567C38.3903 39.0479 38.3202 38.7373 38.1591 38.4719L37.6311 37.9439ZM39.8005 30.6372C39.7011 30.6353 39.6035 30.6109 39.515 30.5659C39.426 30.5354 39.347 30.4811 39.2867 30.4089C39.0031 30.0539 38.8607 29.6066 38.8871 29.153C38.865 28.9275 38.889 28.6998 38.9577 28.4839C39.0264 28.268 39.1383 28.0684 39.2867 27.8971C39.3461 27.8206 39.425 27.7615 39.515 27.7258C39.6027 27.6784 39.7008 27.6535 39.8005 27.6535C39.9001 27.6535 39.9982 27.6784 40.0859 27.7258C40.1759 27.7615 40.2548 27.8206 40.3142 27.8971C40.4594 28.0675 40.5694 28.2649 40.638 28.478C40.7066 28.6911 40.7323 28.9156 40.7138 29.1387C40.7346 29.3663 40.71 29.5958 40.6414 29.8139C40.5728 30.0319 40.4616 30.2341 40.3142 30.4089C40.2539 30.4811 40.1749 30.5354 40.0859 30.5659C39.9974 30.6109 39.8998 30.6353 39.8005 30.6372ZM44.6957 30.5649C44.7847 30.6087 44.882 30.633 44.9811 30.6363C45.1777 30.6211 45.3635 30.5407 45.5092 30.4079C45.6469 30.2273 45.7531 30.0246 45.8232 29.8085C45.8967 29.593 45.921 29.3638 45.8945 29.1377C45.921 28.9116 45.8967 28.6824 45.8232 28.467C45.756 28.2583 45.6494 28.0646 45.5092 27.8961C45.4418 27.822 45.359 27.7635 45.2666 27.7249C45.1781 27.6798 45.0805 27.6554 44.9811 27.6535C44.882 27.6568 44.7847 27.6811 44.6957 27.7249C44.6057 27.7605 44.5268 27.8197 44.4674 27.8961C44.18 28.2491 44.0372 28.6979 44.0678 29.152C44.0414 29.6056 44.1838 30.0529 44.4674 30.4079C44.5302 30.4774 44.6084 30.5311 44.6957 30.5649Z" fill="white"/>
<path d="M28.6838 56.7109L20.4062 59.1942C22.7104 61.1719 25.6203 62.3047 28.6552 62.4053C33.9214 62.4053 36.2334 60.4786 39.7442 60.4786C42.9268 60.4786 44.3682 62.4338 50.4907 62.4338C57.7549 62.4338 60.6235 57.7242 61.4084 51.1593C61.5989 49.1587 61.5606 47.1429 61.2943 45.151C60.539 39.6467 59.1304 34.2521 57.0984 29.0812L56.7559 30.0231C54.5035 36.3648 50.7878 42.0861 45.9104 46.723C41.0329 51.3599 35.1311 54.7818 28.6838 56.7109V56.7109Z" fill="white"/>
</svg>
