<svg width="24" height="24" viewBox="0 0 24 24" fill="none" xmlns="http://www.w3.org/2000/svg">
<path d="M8.11712 6.21476L10.4314 1.89624C10.5894 1.59954 10.8257 1.34687 11.1171 1.16291C11.4517 1.06899 11.7971 1.01427 12.1457 0.999945C12.3178 0.991424 12.49 1.01589 12.6519 1.07188C12.8139 1.12787 12.9624 1.21424 13.0885 1.32587C13.38 1.50984 13.6162 1.76251 13.7743 2.0592L15.9171 6.4592C16.0922 6.69614 16.2933 6.91466 16.5171 7.11106C16.7606 7.30123 17.06 7.41509 17.3743 7.43698L22.3457 8.2518C22.6936 8.30212 23.0199 8.44314 23.2885 8.6592C23.5386 8.87834 23.7171 9.16117 23.8028 9.47402C23.8885 9.79486 23.8885 10.131 23.8028 10.4518C23.7378 10.7726 23.5557 11.0611 23.2885 11.2666L19.6028 14.5259C19.339 14.6987 19.1549 14.9612 19.0885 15.2592C18.9758 15.5168 18.946 15.8003 19.0028 16.074L19.7743 20.8814C19.8443 21.2163 19.7834 21.564 19.6028 21.8592C19.4721 22.1727 19.2293 22.4323 18.9171 22.5925C18.6704 22.8396 18.3323 22.9857 17.9743 22.9999C17.616 22.9964 17.2636 22.9127 16.9457 22.7555L12.4885 20.3925C12.2319 20.2377 11.9353 20.1532 11.6314 20.1481C11.338 20.1555 11.0481 20.2106 10.7743 20.3111L6.2314 22.674C6.11711 22.801 5.97024 22.8977 5.80504 22.9548C5.63984 23.0119 5.46193 23.0275 5.28855 22.9999C4.94812 22.9784 4.62113 22.8654 4.34569 22.674C4.05349 22.4757 3.8417 22.1881 3.74569 21.8592C3.63235 21.5451 3.6029 21.2091 3.65997 20.8814L4.60283 15.9111C4.69096 15.6182 4.69096 15.3077 4.60283 15.0148C4.5124 14.7458 4.36673 14.4965 4.17426 14.2814L0.659974 10.9407C0.407407 10.691 0.229824 10.3815 0.145689 10.0444C-0.00979876 9.73994 -0.0403585 9.39133 0.0599745 9.06661C0.17874 8.7484 0.386107 8.46679 0.659974 8.2518C0.940533 8.02877 1.28276 7.88732 1.64569 7.84439L6.70283 7.19254C7.0171 7.17064 7.31652 7.05679 7.55997 6.86661C7.8069 6.70389 8.00012 6.47783 8.11712 6.21476Z" fill="#FF6E83"/>
<path d="M10.7735 20.311C11.0473 20.2105 11.3372 20.1554 11.6306 20.148C11.9345 20.1531 12.2311 20.2377 12.4878 20.3924L16.9449 22.7554C17.2628 22.9126 17.6152 22.9963 17.9735 22.9999C18.3315 22.9856 18.6696 22.8395 18.9163 22.5924C19.2285 22.4322 19.4713 22.1726 19.6021 21.8591C19.7826 21.5639 19.8435 21.2162 19.7735 20.8813L19.0021 16.0739C18.9452 15.8002 18.975 15.5167 19.0878 15.2591C19.1541 14.9611 19.3382 14.6986 19.6021 14.5258L23.2878 11.2665C23.5549 11.0611 23.737 10.7725 23.8021 10.4517C23.8877 10.1309 23.8877 9.79477 23.8021 9.47393C23.7619 9.34907 23.7072 9.22883 23.6392 9.11541L23.5449 8.96059C23.4671 8.85425 23.3811 8.75349 23.2878 8.65911C23.0191 8.44305 22.6928 8.30202 22.3449 8.2517L17.3735 7.43689C17.1209 7.42727 16.8767 7.348 16.6706 7.20874C14.6814 10.002 12.0861 12.358 9.05919 14.1184L4.42205 16.8399L3.65919 20.9139C3.60211 21.2416 3.63157 21.5776 3.74491 21.8917C3.84092 22.2206 4.0527 22.5082 4.34491 22.7065C4.62035 22.8979 4.94734 23.0109 5.28776 23.0324C5.46115 23.06 5.63906 23.0444 5.80426 22.9873C5.96946 22.9302 6.11633 22.8335 6.23062 22.7065L10.7735 20.311Z" fill="#FF5B70"/>
</svg>
