<svg width="40" height="40" viewBox="0 0 40 40" fill="none" xmlns="http://www.w3.org/2000/svg">
<path d="M21.5359 6.19947C17.8995 5.86311 17.354 6.25402 14.0359 5.29038C11.9995 4.78129 10.9449 4.14493 8.24495 4.93584C7.19698 5.22801 6.29291 5.89508 5.7046 6.81023C5.11629 7.72537 4.88477 8.82479 5.05404 9.89947C5.26927 10.8736 5.71053 11.7835 6.34219 12.5558C6.97386 13.328 7.77824 13.9409 8.6904 14.3449C10.4305 15.1 12.2657 15.6139 14.1449 15.8722C14.3499 15.9089 14.536 16.0148 14.6722 16.1722C14.8025 16.3346 14.8731 16.5368 14.8722 16.7449C14.8639 16.8619 14.833 16.9761 14.7813 17.0813C14.7325 17.189 14.6575 17.2827 14.5631 17.354C14.4777 17.4338 14.375 17.4929 14.2631 17.5267C14.1465 17.5539 14.0252 17.5539 13.9086 17.5267C13.4326 17.5006 12.9588 17.4429 12.4904 17.354C11.2801 17.1106 10.0914 16.7701 8.93586 16.3358C8.63781 16.2146 8.30408 16.2153 8.00652 16.3377C7.70897 16.4601 7.47139 16.6945 7.34495 16.9904C6.52986 18.9993 6.16075 21.1612 6.26313 23.3267C6.6904 29.8086 11.2904 34.8722 18.9904 35.6631C20.9791 35.9265 23.0004 35.7905 24.9359 35.2631C28.3315 34.3126 31.2771 32.183 33.2443 29.2566C35.2114 26.3302 36.0713 22.7985 35.6695 19.2953C35.2678 15.7922 33.6307 12.5468 31.0521 10.1418C28.4735 7.7367 25.1221 6.32932 21.5995 6.1722L21.5359 6.19947Z" fill="#FF6E83"/>
<path d="M18.9632 30.154L12.5996 33.6904C14.5581 34.789 16.7267 35.4612 18.9632 35.6631C20.9519 35.9265 22.9732 35.7905 24.9087 35.2631C26.8433 34.7305 28.6495 33.8105 30.2179 32.559C31.7863 31.3074 33.0842 29.7504 34.0328 27.9823C34.9815 26.2142 35.5612 24.2718 35.7368 22.273C35.9123 20.2741 35.6801 18.2604 35.0542 16.354C34.7061 15.3044 34.2394 14.2979 33.6632 13.354L31.7632 16.9904C28.8828 22.5407 24.4307 27.1193 18.9632 30.154V30.154Z" fill="#FF5B70"/>
</svg>
