<svg width="44" height="44" viewBox="0 0 44 44" fill="none" xmlns="http://www.w3.org/2000/svg">
<path fill-rule="evenodd" clip-rule="evenodd" d="M14.3499 18.1205H11.0399C10.4236 18.1097 9.82822 18.3437 9.38403 18.771C8.93983 19.1983 8.68306 19.7842 8.66992 20.4005V29.3005C8.6842 30.0726 8.85096 30.8344 9.16063 31.5419C9.4703 32.2494 9.91676 32.8887 10.4744 33.423C11.0319 33.9574 11.6897 34.3762 12.4097 34.6555C13.1297 34.9348 13.8979 35.0691 14.6699 35.0505C15.2103 35.0427 15.7261 34.8239 16.1073 34.4408C16.4885 34.0578 16.7048 33.5408 16.7099 33.0005V20.4005C16.7047 20.0958 16.6395 19.7951 16.5181 19.5156C16.3967 19.2361 16.2214 18.9833 16.0022 18.7716C15.7831 18.5599 15.5244 18.3934 15.2408 18.2817C14.9573 18.1699 14.6546 18.1152 14.3499 18.1205Z" fill="#D1D3CF"/>
<path fill-rule="evenodd" clip-rule="evenodd" d="M23.6505 21.9095H20.3405C20.0358 21.9042 19.7331 21.959 19.4495 22.0707C19.166 22.1825 18.9073 22.3489 18.6882 22.5607C18.469 22.7724 18.2937 23.0252 18.1723 23.3047C18.0509 23.5842 17.9857 23.8849 17.9805 24.1895V32.9995C17.9805 33.5485 18.1986 34.075 18.5868 34.4632C18.975 34.8514 19.5015 35.0695 20.0505 35.0695H23.9405C24.2131 35.0708 24.4834 35.0183 24.7357 34.9148C24.988 34.8114 25.2174 34.6591 25.4107 34.4668C25.6039 34.2744 25.7573 34.0458 25.8619 33.794C25.9666 33.5422 26.0205 33.2722 26.0205 32.9995V24.1895C26.0073 23.5733 25.7506 22.9874 25.3064 22.56C24.8622 22.1327 24.2667 21.8988 23.6505 21.9095Z" fill="#D1D3CF"/>
<path fill-rule="evenodd" clip-rule="evenodd" d="M32.9591 16.24H29.6491C29.3449 16.2334 29.0424 16.2869 28.7589 16.3975C28.4755 16.5081 28.2167 16.6737 27.9974 16.8846C27.7781 17.0955 27.6026 17.3477 27.4811 17.6266C27.3595 17.9056 27.2943 18.2058 27.2891 18.51V33C27.2903 33.2748 27.3465 33.5466 27.4543 33.7993C27.5622 34.0521 27.7195 34.2807 27.9171 34.4718C28.1146 34.6628 28.3484 34.8124 28.6046 34.9117C28.8609 35.011 29.1344 35.058 29.4091 35.05C30.1811 35.0686 30.9493 34.9344 31.6693 34.6551C32.3893 34.3758 33.047 33.9569 33.6046 33.4225C34.1622 32.8882 34.6087 32.2489 34.9184 31.5414C35.228 30.8339 35.3948 30.0722 35.4091 29.3V18.51C35.4028 18.1983 35.3339 17.8911 35.2062 17.6066C35.0786 17.3222 34.895 17.0664 34.6663 16.8545C34.4376 16.6426 34.1686 16.479 33.8753 16.3734C33.5819 16.2679 33.2703 16.2225 32.9591 16.24Z" fill="#D1D3CF"/>
<path fill-rule="evenodd" clip-rule="evenodd" d="M12.6889 16.2298C13.1518 16.2205 13.5971 16.0508 13.9489 15.7498L20.0789 18.8598C20.1282 19.3597 20.3695 19.821 20.7519 20.1466C21.1344 20.4722 21.6283 20.6368 22.1296 20.6057C22.631 20.5746 23.1007 20.3503 23.44 19.9799C23.7793 19.6095 23.9618 19.122 23.9489 18.6198C23.9543 18.5199 23.9543 18.4197 23.9489 18.3198L30.4089 12.6298C30.6716 12.7661 30.9629 12.8381 31.2589 12.8398C31.6482 12.8598 32.0346 12.7627 32.3681 12.5609C32.7017 12.3591 32.9671 12.062 33.1302 11.7079C33.2932 11.3539 33.3464 10.959 33.2828 10.5744C33.2192 10.1898 33.0419 9.83308 32.7736 9.55028C32.5053 9.26747 32.1584 9.07157 31.7776 8.98787C31.3969 8.90416 30.9998 8.93649 30.6376 9.08068C30.2754 9.22487 29.9648 9.47431 29.7458 9.79679C29.5268 10.1193 29.4094 10.5 29.4089 10.8898C29.4104 11.0971 29.4442 11.3029 29.5089 11.4998L23.1189 16.9998C22.7112 16.729 22.2183 16.6171 21.7336 16.6852C21.2489 16.7534 20.8061 16.997 20.4889 17.3698L14.6289 14.3698C14.6289 14.3198 14.6289 14.2798 14.6289 14.2298C14.6289 13.8343 14.5116 13.4476 14.2918 13.1187C14.0721 12.7898 13.7597 12.5334 13.3943 12.3821C13.0288 12.2307 12.6267 12.1911 12.2387 12.2682C11.8508 12.3454 11.4944 12.5359 11.2147 12.8156C10.935 13.0953 10.7445 13.4517 10.6673 13.8396C10.5902 14.2276 10.6298 14.6297 10.7811 14.9952C10.9325 15.3606 11.1889 15.673 11.5178 15.8928C11.8467 16.1125 12.2333 16.2298 12.6289 16.2298H12.6889Z" fill="#D1D3CF"/>
</svg>
