<svg width="44" height="44" viewBox="0 0 44 44" fill="none" xmlns="http://www.w3.org/2000/svg">
<rect width="44" height="44" fill="white"/>
<path d="M31.545 14.546C32.1308 13.9602 32.1308 13.0105 31.545 12.4247C30.9592 11.8389 30.0095 11.8389 29.4237 12.4247L31.545 14.546ZM12.4532 29.3953C11.8674 29.981 11.8674 30.9308 12.4532 31.5166C13.0389 32.1024 13.9887 32.1024 14.5745 31.5166L12.4532 29.3953ZM29.4237 12.4247L12.4532 29.3953L14.5745 31.5166L31.545 14.546L29.4237 12.4247Z" fill="#1B210D"/>
<path d="M29.4237 31.5167C30.0095 32.1025 30.9592 32.1025 31.545 31.5167C32.1308 30.9309 32.1308 29.9812 31.545 29.3954L29.4237 31.5167ZM14.5745 12.4248C13.9887 11.839 13.0389 11.839 12.4532 12.4248C11.8674 13.0106 11.8674 13.9604 12.4532 14.5462L14.5745 12.4248ZM31.545 29.3954L14.5745 12.4248L12.4532 14.5462L29.4237 31.5167L31.545 29.3954Z" fill="#1B210D"/>
</svg>
