<svg width="78" height="78" viewBox="0 0 78 78" fill="none" xmlns="http://www.w3.org/2000/svg">
<path fill-rule="evenodd" clip-rule="evenodd" d="M36.6774 37.0671C36.1795 36.5815 35.6475 36.1321 35.0855 35.7224C32.2902 33.8774 29.0774 32.7611 25.7396 32.4758C25.5266 32.457 25.3206 32.3904 25.1369 32.2808C24.9467 32.1765 24.7876 32.0236 24.676 31.8376C24.5558 31.6626 24.477 31.4625 24.4456 31.2526C24.393 31.0431 24.393 30.8239 24.4456 30.6144C26.1474 24.8708 28.3987 17.4785 33.1496 12.7808C35.9961 10.1473 39.7709 8.75043 43.6459 8.89666C47.521 9.04288 51.1798 10.7203 53.8196 13.5608C58.216 19.4285 63.481 28.8417 66.0692 46.0194C66.4 48.4936 66.4476 50.9976 66.211 53.4826C65.236 61.6371 61.6728 67.4871 52.6496 67.4871C48.2307 67.4871 45.7749 66.6671 43.7172 65.9801C42.2337 65.4847 40.9571 65.0585 39.301 65.0585C37.3335 65.0585 35.669 65.5457 33.8421 66.0804C31.6198 66.7308 29.1569 67.4517 25.6156 67.4517C18.2765 67.4517 8.15419 60.5912 10.5474 49.4762C12.0365 42.4208 17.3369 35.773 23.2046 35.773H24.2328C26.2399 35.5931 28.2612 35.8876 30.1335 36.6328C32.0058 37.378 33.6766 38.5531 35.011 40.063C35.3356 40.2593 35.7146 40.3463 36.0924 40.3112C36.4742 40.26 36.8289 40.0857 37.1028 39.8149C37.3638 39.5432 37.5314 39.1955 37.5815 38.8221C37.6205 38.4385 37.5333 38.0527 37.3333 37.723L36.6774 37.0671ZM39.3721 27.9913C39.2487 27.9889 39.1275 27.9586 39.0175 27.9026C38.9069 27.8648 38.8088 27.7974 38.7339 27.7076C38.3816 27.2667 38.2048 26.7111 38.2375 26.1476C38.2101 25.8675 38.2399 25.5848 38.3253 25.3166C38.4106 25.0484 38.5496 24.8004 38.7339 24.5876C38.8077 24.4927 38.9057 24.4192 39.0175 24.3749C39.1264 24.3159 39.2482 24.2851 39.3721 24.2851C39.4959 24.2851 39.6177 24.3159 39.7266 24.3749C39.8384 24.4192 39.9364 24.4927 40.0102 24.5876C40.1905 24.7993 40.3272 25.0445 40.4124 25.3092C40.4976 25.5739 40.5296 25.8528 40.5066 26.1299C40.5324 26.4126 40.5018 26.6977 40.4166 26.9685C40.3314 27.2394 40.1933 27.4906 40.0102 27.7076C39.9353 27.7974 39.8372 27.8648 39.7266 27.9026C39.6166 27.9586 39.4954 27.9889 39.3721 27.9913ZM45.4526 27.9014C45.5632 27.9558 45.6841 27.986 45.8072 27.9901C46.0513 27.9712 46.2822 27.8714 46.4631 27.7064C46.6342 27.482 46.7661 27.2303 46.8531 26.9619C46.9444 26.6942 46.9747 26.4096 46.9417 26.1287C46.9747 25.8478 46.9444 25.5632 46.8531 25.2955C46.7697 25.0364 46.6373 24.7957 46.4631 24.5864C46.3794 24.4943 46.2765 24.4217 46.1617 24.3737C46.0518 24.3177 45.9306 24.2874 45.8072 24.2851C45.6841 24.2891 45.5632 24.3194 45.4526 24.3737C45.3408 24.418 45.2429 24.4915 45.169 24.5864C44.8121 25.0249 44.6347 25.5824 44.6726 26.1464C44.6399 26.7099 44.8167 27.2655 45.169 27.7064C45.247 27.7927 45.3442 27.8595 45.4526 27.9014Z" fill="#A4E33D"/>
<path d="M25.5631 60.3786L15.2812 63.4631C18.1434 65.9198 21.7578 67.3268 25.5276 67.4518C32.069 67.4518 34.9408 65.0586 39.3017 65.0586C43.2549 65.0586 45.0453 67.4872 52.6503 67.4872C61.6735 67.4872 65.2367 61.6372 66.2117 53.4827C66.4483 50.9977 66.4007 48.4937 66.0699 46.0195C65.1317 39.1825 63.3821 32.4816 60.8581 26.0586L60.4326 27.2286C57.6347 35.1058 53.0194 42.2126 46.9609 47.9722C40.9025 53.7319 33.5716 57.9823 25.5631 60.3786Z" fill="#92DC2F"/>
</svg>
