<svg width="72" height="28" viewBox="0 0 72 28" fill="none" xmlns="http://www.w3.org/2000/svg">
<path d="M10.6723 14.9188C11.5384 14.2348 12.1662 14.5701 12.515 14.8491C13.0626 15.2921 13.7484 15.5287 14.4526 15.5176C15.1366 15.5176 15.6947 15.1552 15.6947 14.5274C15.6947 13.8996 15.1134 13.5373 14.4391 13.5373C13.6156 13.5373 13.3075 13.7311 12.8192 13.8725C11.8988 14.1225 10.6006 13.4675 10.5599 12.644C10.5037 11.4311 10.6568 9.36556 10.8389 8.59825C11.1044 7.49573 11.8426 7.16051 12.8618 7.07719C14.2163 6.97902 15.5758 6.97448 16.9309 7.06363C17.9365 7.11982 18.481 7.62167 18.481 8.54205C18.481 9.53219 17.8997 9.91003 16.8902 10.0069C15.9019 10.0942 14.9087 10.113 13.9179 10.0631C13.9121 10.4896 13.8653 10.9146 13.7783 11.3323C14.2974 11.1489 14.8461 11.0641 15.3963 11.0823C16.9231 11.0823 18.9112 12.1654 18.9112 14.6669C18.9112 17.2634 17.0413 18.5035 14.4042 18.5035C12.577 18.5035 11.0288 17.9047 10.2053 16.6356C9.82167 16.0407 9.97474 15.4769 10.6723 14.9188Z" fill="#3AC5FF"/>
<path d="M28.4065 11.1375C28.2942 11.2228 28.1701 11.2925 28.0578 11.3623C28.2008 11.7168 28.2719 12.0961 28.267 12.4784C28.267 14.2358 26.9688 15.4778 24.0527 15.4778C23.7194 15.4778 23.3977 15.4643 23.1051 15.4352C23.0571 15.453 23.0161 15.4858 22.9882 15.5287C22.9603 15.5717 22.9469 15.6224 22.9501 15.6735C22.9501 15.9099 23.1885 16.0223 24.0527 16.0223C26.8429 16.0223 28.4065 17.0396 28.4065 18.9482C28.4065 20.5525 26.9824 21.7248 24.0527 21.7248C21.1229 21.7248 19.6871 20.5428 19.6871 18.9482C19.6729 18.5793 19.7547 18.213 19.9245 17.8852C20.0943 17.5575 20.3464 17.2794 20.656 17.0783C20.4939 16.9123 20.3662 16.7159 20.28 16.5005C20.1939 16.2851 20.1511 16.0547 20.1541 15.8227C20.1588 15.5842 20.2193 15.3501 20.3306 15.1392C20.442 14.9282 20.6012 14.7463 20.7955 14.6078C20.4809 14.3536 20.2296 14.0299 20.0615 13.662C19.8934 13.2942 19.813 12.8923 19.8266 12.4881C19.8266 10.7442 21.1229 9.52928 24.0527 9.52928C24.697 9.5228 25.3395 9.59766 25.9651 9.7521C26.2399 9.4631 26.5692 9.23131 26.9339 9.07006C27.7284 8.70578 28.3697 8.77554 28.7611 9.26382C29.2165 9.84124 29.1177 10.6163 28.4065 11.1375ZM24.0527 18.1983C23.7446 18.1962 23.4371 18.1729 23.1323 18.1285C23.019 18.2813 22.9647 18.4698 22.9792 18.6595C22.9792 19.0354 23.2853 19.3008 24.0527 19.3008C24.82 19.3008 25.1145 19.1071 25.1145 18.7195C25.1125 18.3804 24.8064 18.2119 24.0527 18.1983ZM24.9595 12.3854C24.9595 12.0657 24.7366 11.8041 24.0527 11.8041C23.3687 11.8041 23.1323 12.056 23.1323 12.3854C23.1323 12.7148 23.4249 12.9667 24.0527 12.9667C24.7366 12.9667 24.9595 12.6876 24.9595 12.3796V12.3854Z" fill="#3AC5FF"/>
<path d="M37.793 16.9976C37.7232 18.0013 37.0935 18.5031 36.0762 18.5031C35.3651 18.5031 34.8206 18.2531 34.5552 17.7649C34.1231 18.197 33.4527 18.5031 32.4625 18.5031C30.5656 18.5031 29.2402 17.5827 29.2402 15.9512C29.2402 14.3197 30.4261 13.3839 32.4722 13.3839C33.2473 13.3839 33.8286 13.5234 34.2432 13.7888C34.1735 13.1184 33.784 12.5875 32.9334 12.5875C32.2738 12.5825 31.6183 12.6913 30.9957 12.9091C29.7111 13.285 28.9573 11.1653 30.1025 10.3902C30.8562 9.88835 32.1816 9.5105 33.6464 9.5105C35.9057 9.5105 37.8317 10.892 37.8744 13.2075C37.8976 14.9747 37.8628 15.9919 37.793 16.9976ZM34.2762 15.3777C33.6484 14.9185 32.6854 15.0018 32.6854 15.8253C32.6854 16.1605 32.8946 16.4957 33.4817 16.4957C33.9836 16.4957 34.2762 16.2438 34.2762 15.7691V15.3777Z" fill="#3AC5FF"/>
<path d="M47.4063 16.9976C47.3365 18.0013 46.7087 18.5031 45.6915 18.5031C44.9784 18.5031 44.4359 18.2531 44.1704 17.7649C43.7383 18.197 43.0679 18.5031 42.0778 18.5031C40.1789 18.5031 38.8535 17.5827 38.8535 15.9512C38.8535 14.3197 40.0394 13.3839 42.0778 13.3839C42.8528 13.3839 43.4341 13.5234 43.8488 13.7888C43.779 13.1184 43.3895 12.5875 42.537 12.5875C41.8774 12.5829 41.222 12.6917 40.5993 12.9091C39.3166 13.285 38.5629 11.1653 39.708 10.3902C40.4598 9.88835 41.7852 9.5105 43.25 9.5105C45.5113 9.5105 47.4373 10.892 47.478 13.2075C47.5051 14.9747 47.476 15.9919 47.4063 16.9976ZM43.8914 15.3777C43.2636 14.9185 42.3006 15.0018 42.3006 15.8253C42.3006 16.1605 42.5099 16.4957 43.095 16.4957C43.5988 16.4957 43.8914 16.2438 43.8914 15.7691V15.3777Z" fill="#3AC5FF"/>
<path d="M61.8194 16.8603C61.6934 17.864 61.1218 18.5054 60.1026 18.5054C59.0834 18.5054 58.4983 17.9338 58.444 16.9301C58.3878 15.814 58.3742 14.7676 58.3742 13.5121C58.3742 13.0083 58.2754 12.2545 57.6612 12.2545C57.5294 12.2652 57.4025 12.3095 57.2926 12.3831C57.1827 12.4567 57.0935 12.5572 57.0334 12.675C57.0756 14.0716 57.029 15.4696 56.8939 16.8603C56.797 17.864 56.2797 18.5054 55.2624 18.5054C54.2451 18.5054 53.7278 17.9338 53.658 16.9301C53.5747 15.7675 53.5456 14.6281 53.5456 13.5121C53.5456 13.0083 53.4488 12.2545 52.8345 12.2545C52.7066 12.2659 52.5835 12.3088 52.4763 12.3795C52.3691 12.4502 52.2811 12.5464 52.2203 12.6595C52.2357 14.0617 52.1801 15.4637 52.0537 16.8603C51.9684 17.864 51.3968 18.5054 50.3795 18.5054C49.3623 18.5054 48.8585 17.864 48.7461 16.8603C48.5525 14.9108 48.5616 12.9465 48.7732 10.9989C48.8992 9.9119 49.682 9.52051 50.4493 9.52051C51.1468 9.52051 51.8444 9.84216 52.0537 10.7199C52.4412 10.0785 53.1407 9.52051 54.4815 9.52051C55.6247 9.52051 56.392 10.1212 56.7544 10.9447C57.1167 10.2045 57.8143 9.52051 59.3082 9.52051C60.9397 9.52051 61.9163 10.749 61.9725 12.1169C62.0371 13.6997 61.986 15.285 61.8194 16.8603Z" fill="#3AC5FF"/>
</svg>
