<svg width="14" height="14" viewBox="0 0 14 14" fill="none" xmlns="http://www.w3.org/2000/svg">
<path d="M11.5709 2.82977H2.42034C2.04762 2.82977 1.69016 2.97783 1.4266 3.24139C1.16305 3.50494 1.01498 3.8624 1.01498 4.23513V9.99125C1.0036 10.3618 1.06647 10.731 1.19991 11.0769C1.33335 11.4228 1.53465 11.7385 1.79197 12.0055C2.04928 12.2724 2.35741 12.4852 2.69819 12.6312C3.03898 12.7772 3.40555 12.8536 3.77631 12.8558H10.1386C10.8975 12.8547 11.625 12.5523 12.1612 12.0152C12.6975 11.4782 12.9987 10.7502 12.9987 9.99125V4.23513C12.9987 4.04867 12.9616 3.86407 12.8896 3.69208C12.8176 3.5201 12.712 3.36416 12.5792 3.23337C12.4463 3.10257 12.2887 2.99952 12.1156 2.93023C11.9425 2.86094 11.7573 2.82679 11.5709 2.82977V2.82977ZM8.38749 5.64946H5.60372C5.48464 5.64946 5.37043 5.60216 5.28623 5.51795C5.20203 5.43375 5.15472 5.31955 5.15472 5.20047C5.15472 5.08138 5.20203 4.96718 5.28623 4.88298C5.37043 4.79877 5.48464 4.75147 5.60372 4.75147H8.38749C8.50657 4.75147 8.62077 4.79877 8.70498 4.88298C8.78918 4.96718 8.83649 5.08138 8.83649 5.20047C8.83649 5.31955 8.78918 5.43375 8.70498 5.51795C8.62077 5.60216 8.50657 5.64946 8.38749 5.64946V5.64946Z" fill="#BBBDB6"/>
<path d="M9.90703 2.05717H4.07009C3.95101 2.05717 3.8368 2.00987 3.7526 1.92566C3.6684 1.84146 3.62109 1.72726 3.62109 1.60818C3.62109 1.48909 3.6684 1.37489 3.7526 1.29069C3.8368 1.20648 3.95101 1.15918 4.07009 1.15918H9.90703C10.0261 1.15918 10.1403 1.20648 10.2245 1.29069C10.3087 1.37489 10.356 1.48909 10.356 1.60818C10.356 1.72726 10.3087 1.84146 10.2245 1.92566C10.1403 2.00987 10.0261 2.05717 9.90703 2.05717Z" fill="#BBBDB6"/>
</svg>
