<svg width="335" height="335" viewBox="0 0 335 335" fill="none" xmlns="http://www.w3.org/2000/svg">
<path d="M99.3569 254.556H92.0103V256.34H96.9516C96.5911 258.497 94.6083 260.262 91.1401 261.194L92.0289 262.941C96.7154 261.635 99.3569 258.739 99.3569 254.556ZM93.9371 269.423H104.547V263.22H93.9371V269.423ZM96.1373 267.664V264.979H102.322V267.664H96.1373ZM99.4626 259.267H102.309V262.58H104.547V253.636H102.309V257.434H99.4626V259.267ZM111.737 256.396V254.55H109.556V256.396C109.55 258.204 108.648 260.2 106.386 261.169L107.586 262.897C109.071 262.276 110.078 261.126 110.668 259.746C111.24 260.958 112.179 261.934 113.534 262.481L114.733 260.765C112.614 259.914 111.731 258.18 111.737 256.396ZM109.307 265.825H118.133V269.622H120.365V264.028H109.307V265.825ZM114.814 263.239H116.896V259.36H118.239V263.32H120.365V253.636H118.239V257.527H116.896V253.891H114.814V263.239ZM139.809 253.611H137.571V255.631H134.55C134.612 255.19 134.65 254.73 134.65 254.245H127.421V256.041H132.17C131.878 257.962 130.187 259.485 126.52 260.212L127.278 262.033C130.815 261.269 133.096 259.733 134.084 257.334H137.571V258.733H133.916V260.436H137.571V261.679H139.809V253.611ZM129.168 264.01H137.559V264.973H129.193V269.461H140.163V267.683H131.436V266.633H139.809V262.251H129.168V264.01ZM150.871 255.215H142.58V257.005H148.64C148.634 258.422 148.597 260.137 148.23 262.462L150.436 262.636C150.865 259.976 150.865 258.006 150.871 256.501V255.215ZM141.741 264.563L141.952 266.353C144.755 266.365 148.379 266.309 151.661 265.75L151.53 264.09C150.057 264.277 148.46 264.389 146.887 264.457V259.802H144.681V264.526C143.637 264.55 142.642 264.557 141.741 264.563ZM152.282 269.622H154.545V261.921H156.726V260.044H154.545V253.611H152.282V269.622ZM170.058 253.611H167.814V269.585H170.058V261.598H172.32V259.746H170.058V253.611ZM157.266 265.104L158.528 266.819C163.905 264.177 165.775 260.038 165.788 255.252H158.168V257.086H163.501C163.078 260.653 161.045 263.202 157.266 265.104ZM180.993 262.978H178.911V269.442H184.784V268.193L185.704 269.573C186.997 269.075 187.88 268.155 188.414 267.043C188.918 268.193 189.806 269.1 191.186 269.573L192.336 267.907C190.347 267.267 189.558 265.713 189.57 264.078V262.847H187.327V264.078C187.32 265.532 186.568 267.03 184.784 267.826V262.978H182.708V264.563H180.993V262.978ZM177.344 257.987C177.332 260.218 179.141 261.778 181.602 261.778C183.653 261.778 185.294 260.628 185.723 258.888H188.389V262.089H190.627V253.611H188.389V257.055H185.717C185.269 255.358 183.635 254.227 181.602 254.227C179.141 254.227 177.332 255.787 177.344 257.987ZM179.47 257.987C179.47 256.8 180.353 256.073 181.602 256.073C182.82 256.073 183.69 256.8 183.703 257.987C183.69 259.193 182.82 259.939 181.602 259.951C180.353 259.939 179.47 259.193 179.47 257.987ZM180.993 267.745V266.216H182.708V267.745H180.993ZM196.624 263.214H194.405V269.442H205.444V263.214H203.213V264.575H196.624V263.214ZM192.702 262.406H207.296V260.604H192.702V262.406ZM193.411 258.142L194.231 259.895C196.954 259.547 198.961 258.403 199.999 256.856C201.019 258.397 203.02 259.547 205.773 259.895L206.563 258.142C202.995 257.732 201.149 255.923 201.155 254.32V253.779H198.843V254.32C198.837 255.967 196.991 257.713 193.411 258.142ZM196.624 267.677V266.272H203.213V267.677H196.624ZM221.709 253.611H219.478V269.622H221.709V253.611ZM209.117 265.669H210.528C212.995 265.675 215.643 265.495 218.446 264.911L218.166 263.059C215.817 263.519 213.492 263.718 211.336 263.755V255.146H209.117V265.669ZM236.433 253.611H234.189V269.66H236.433V261.393H238.795V259.559H236.433V253.611ZM224.449 265.769H225.792C228.62 265.775 230.802 265.713 233.282 265.29L233.033 263.413C230.92 263.78 228.999 263.904 226.681 263.923V256.912H231.952V255.103H224.449V265.769ZM243.014 255.271H240.292L240.528 264.19H242.778L243.014 255.271ZM240.18 266.682C240.168 267.497 240.845 268.155 241.659 268.155C242.443 268.155 243.126 267.497 243.133 266.682C243.126 265.874 242.443 265.215 241.659 265.215C240.845 265.215 240.168 265.874 240.18 266.682Z" fill="#BBBDB6"/>
<path d="M192.88 58.5C171.9 55.16 168.36 57.26 149.38 50.84C137.64 46.87 131.73 42.51 115.59 46.34C102.77 49.37 93.6398 61.11 95.0498 74.21C96.4798 87.51 106.18 96.86 114.46 101.54C120.46 104.62 131.81 109.71 145.96 112.49C148.47 112.98 150.16 115.36 149.9 117.91C149.6 120.84 146.88 122.75 143.96 122.34C139.01 121.64 135.74 120.78 135.74 120.78C127.58 118.59 120.6 115.87 115.31 113.48C111.76 111.88 107.41 113.23 105.79 116.77C104.68 119.21 103.58 121.81 102.56 124.57C99.5098 132.84 97.1898 142.51 97.2098 153.26C97.2798 191.29 122.31 222.58 166.8 230.06C221.18 239.2 270.01 199.56 270.51 145.52C270.99 101.46 236.72 63.04 192.89 58.5H192.88Z" fill="#F4F4F3"/>
<path d="M150.919 146.38C150.239 146.36 149.599 146.08 149.069 145.57C148.149 144.69 147.689 143.22 147.749 141.43C147.779 139.62 148.319 138.17 149.279 137.34C149.839 136.86 150.489 136.61 151.169 136.63C151.849 136.65 152.489 136.92 153.019 137.44C153.939 138.32 154.409 139.79 154.339 141.58C154.309 143.39 153.769 144.84 152.809 145.67C152.249 146.15 151.599 146.4 150.919 146.38Z" fill="white"/>
<path d="M169.981 151.78C169.161 151.84 168.371 151.57 167.671 150.99C166.471 149.99 165.741 148.2 165.611 145.95C165.431 143.67 165.921 141.79 166.971 140.63C167.581 139.96 168.331 139.57 169.151 139.51C169.971 139.45 170.771 139.72 171.461 140.3C172.661 141.3 173.391 143.09 173.521 145.34C173.691 147.62 173.211 149.5 172.161 150.66C171.551 151.33 170.791 151.72 169.981 151.78Z" fill="white"/>
<path d="M119 192C141.644 192 160 173.644 160 151C160 128.356 141.644 110 119 110C96.3563 110 78 128.356 78 151C78 173.644 96.3563 192 119 192Z" fill="#D1D3CF"/>
<path d="M119 185C137.778 185 153 169.778 153 151C153 132.222 137.778 117 119 117C100.222 117 85 132.222 85 151C85 169.778 100.222 185 119 185Z" fill="#F4F4F3"/>
<path d="M136.821 161.93C135.001 162.14 133.191 161.56 131.591 160.24C128.821 157.96 127.011 153.77 126.501 148.44C125.881 143.04 126.791 138.54 129.021 135.68C130.321 134.03 131.961 133.05 133.781 132.84C135.601 132.63 137.411 133.21 139.021 134.53C141.791 136.81 143.601 141 144.111 146.33C144.721 151.73 143.821 156.23 141.591 159.09C140.291 160.74 138.641 161.72 136.821 161.93Z" fill="white"/>
<path d="M96.8081 179.014L91.4219 173.738L80.3372 185.053L85.7234 190.329L96.8081 179.014Z" fill="#D1D3CF"/>
<path d="M82.3599 182.486L88.3176 188.323C89.3605 189.344 89.3777 191.013 88.356 192.056L64.8291 216.072C62.1979 218.758 57.8918 218.796 55.213 216.171C52.527 213.54 52.4898 209.234 55.114 206.555L78.6408 182.539C79.6625 181.496 81.3312 181.479 82.3742 182.5L82.3599 182.486Z" fill="#D1D3CF"/>
<path d="M85 151C85 161 89.32 169.99 96.2 176.22C92.96 170.52 86.85 156.01 90.62 132.29C87.07 137.66 85 144.09 85 151.01V151Z" fill="white"/>
</svg>
