<svg width="23" height="24" viewBox="0 0 23 24" fill="none" xmlns="http://www.w3.org/2000/svg">
<path d="M10.8864 2.35321L10.8875 2.35098C10.9398 2.24855 11.011 2.15659 11.0975 2.07983C11.2893 2.03465 11.4852 2.00761 11.6825 1.99915L11.6825 1.99919L11.6913 1.99874C11.7235 1.99707 11.7556 2.00187 11.7855 2.01267C11.8155 2.02348 11.8424 2.03995 11.8649 2.06071L11.9249 2.11615L11.9932 2.1611C12.1244 2.24756 12.2307 2.36473 12.3031 2.50115L14.3478 6.88225L14.3859 6.96378L14.4379 7.03721C14.6468 7.33231 14.8868 7.60432 15.1536 7.84868L15.1749 7.86811L15.1972 7.88629C15.5761 8.19515 16.038 8.38382 16.5234 8.42991L21.2461 9.23761L21.2558 9.23926L21.2654 9.24072C21.4102 9.26257 21.5457 9.32183 21.6585 9.41151C21.748 9.4984 21.8115 9.60691 21.8431 9.72521C21.8828 9.88249 21.8825 10.047 21.8423 10.2041L21.8351 10.2325L21.8295 10.2613C21.8125 10.3485 21.7647 10.4288 21.6923 10.4869L21.6655 10.5084L21.6401 10.5318L18.1535 13.749C17.7517 14.0468 17.463 14.473 17.3372 14.9579C17.1832 15.3682 17.1443 15.8133 17.2256 16.245L17.962 21.0335L17.9655 21.0559L17.9699 21.0781C17.9887 21.172 17.9726 21.2698 17.9234 21.3537L17.8854 21.4184L17.8576 21.4881C17.8201 21.5818 17.7498 21.6614 17.6569 21.7111L17.5166 21.7862L17.4066 21.9012C17.3543 21.9558 17.2828 21.9912 17.2047 21.9994C17.032 21.9932 16.8629 21.9498 16.7092 21.8725L12.474 19.5296C12.0794 19.288 11.6271 19.1564 11.1643 19.1484L11.1424 19.148L11.1205 19.1486C10.7261 19.159 10.3364 19.2363 9.96801 19.3772L9.90638 19.4008L9.84838 19.4323L5.49481 21.7953L5.33413 21.8825L5.2224 22.012L5.1831 22.0055L5.13404 22.0022C4.99525 21.9931 4.86268 21.945 4.7517 21.8646L4.75174 21.8645L4.74266 21.8581C4.64893 21.7917 4.58258 21.6966 4.55272 21.5899L4.54462 21.561L4.5348 21.5326C4.48136 21.378 4.46706 21.2131 4.49294 21.0521L5.38705 16.1338C5.50843 15.6759 5.50341 15.1936 5.37198 14.7378L5.36769 14.723L5.36295 14.7082C5.23544 14.3125 5.0302 13.9462 4.75952 13.6306L4.73328 13.6L4.70466 13.5716L1.34502 10.239C1.23038 10.1187 1.15039 9.97124 1.11226 9.81187L1.08652 9.70427L1.03789 9.60491C1.00247 9.53253 0.993083 9.45124 1.0104 9.37378C1.06427 9.23917 1.15192 9.11916 1.26626 9.0255L1.26627 9.02551L1.271 9.02158C1.39223 8.92103 1.541 8.85657 1.6997 8.83698L1.69971 8.83704L1.7105 8.83559L6.53053 8.18729C7.00973 8.14573 7.46687 7.96529 7.84494 7.66744C8.21046 7.40732 8.50011 7.05414 8.68281 6.64393L10.8864 2.35321Z" stroke="#82857A" stroke-width="2"/>
</svg>
