<svg width="31" height="31" viewBox="0 0 31 31" fill="none" xmlns="http://www.w3.org/2000/svg">
<rect width="31" height="31" fill="white"/>
<path fill-rule="evenodd" clip-rule="evenodd" d="M19.1871 7.54853C19.196 7.79966 19.3006 8.03787 19.4794 8.21444L22.6957 11.4307C22.872 11.6094 23.11 11.714 23.3609 11.7231C23.481 11.7271 23.6006 11.7065 23.7125 11.6627C23.8244 11.6188 23.9261 11.5526 24.0114 11.468C24.0963 11.3828 24.1627 11.2811 24.2066 11.1692C24.2505 11.0573 24.2709 10.9375 24.2665 10.8174C24.2577 10.5665 24.153 10.3284 23.9741 10.1522L20.7579 6.93598C20.5816 6.75722 20.3436 6.65261 20.0927 6.6436C19.9727 6.63944 19.853 6.65985 19.7412 6.7036C19.6293 6.74734 19.5276 6.81348 19.4422 6.89797C19.3577 6.9834 19.2915 7.08514 19.2476 7.19699C19.2038 7.30884 19.1832 7.42845 19.1871 7.54853ZM6.67634 23.2007L7.04182 21.9632C7.47559 20.4899 8.27175 19.1489 9.35752 18.0627L17.7366 9.68586C17.8285 9.59394 17.9376 9.52102 18.0577 9.47128C18.1778 9.42153 18.3065 9.39592 18.4365 9.39592C18.5665 9.39592 18.6952 9.42153 18.8153 9.47128C18.9354 9.52102 19.0445 9.59394 19.1364 9.68586L21.2204 11.7698C21.3123 11.8617 21.3852 11.9709 21.4349 12.091C21.4847 12.211 21.5103 12.3398 21.5103 12.4697C21.5103 12.5997 21.4847 12.7284 21.4349 12.8485C21.3852 12.9686 21.3123 13.0777 21.2204 13.1696L12.8413 21.5472C11.7557 22.6331 10.4152 23.4295 8.94233 23.8637L7.7048 24.2292C7.56203 24.2712 7.41055 24.274 7.26631 24.2373C7.12207 24.2005 6.9904 24.1256 6.88515 24.0203C6.7799 23.9151 6.70496 23.7834 6.66821 23.6392C6.63147 23.4949 6.63427 23.3435 6.67634 23.2007Z" fill="#BBBDB6"/>
</svg>
