<svg width="28" height="28" viewBox="0 0 28 28" fill="none" xmlns="http://www.w3.org/2000/svg">
<rect width="28" height="28" fill="#1B210D"/>
<path fill-rule="evenodd" clip-rule="evenodd" d="M17.3305 6.81783C17.3386 7.04466 17.4331 7.25983 17.5946 7.4193L20.4996 10.3243C20.6589 10.4857 20.8738 10.5802 21.1004 10.5884C21.2089 10.592 21.3169 10.5735 21.418 10.5338C21.519 10.4942 21.6109 10.4344 21.688 10.358C21.7646 10.281 21.8246 10.1892 21.8642 10.0881C21.9039 9.98703 21.9223 9.87888 21.9184 9.77037C21.9104 9.54371 21.8159 9.32873 21.6543 9.16957L18.7493 6.26457C18.5901 6.1031 18.3751 6.00862 18.1485 6.00048C18.0401 5.99672 17.932 6.01516 17.831 6.05467C17.7299 6.09418 17.638 6.15393 17.5609 6.23024C17.4846 6.30739 17.4248 6.39929 17.3852 6.50031C17.3456 6.60134 17.327 6.70938 17.3305 6.81783ZM6.03049 20.9553L6.3606 19.8375C6.7524 18.5068 7.47151 17.2956 8.4522 16.3145L16.0204 8.74833C16.1034 8.66531 16.202 8.59945 16.3104 8.55451C16.4189 8.50958 16.5351 8.48645 16.6526 8.48645C16.77 8.48645 16.8862 8.50958 16.9947 8.55451C17.1032 8.59945 17.2017 8.66531 17.2847 8.74833L19.167 10.6306C19.2501 10.7136 19.3159 10.8122 19.3608 10.9207C19.4058 11.0291 19.4289 11.1454 19.4289 11.2628C19.4289 11.3802 19.4058 11.4965 19.3608 11.6049C19.3159 11.7134 19.2501 11.812 19.167 11.895L11.5988 19.4618C10.6183 20.4426 9.40749 21.162 8.07719 21.5541L6.95943 21.8842C6.83047 21.9222 6.69365 21.9247 6.56337 21.8915C6.43309 21.8584 6.31416 21.7907 6.2191 21.6956C6.12403 21.6005 6.05634 21.4816 6.02315 21.3513C5.98996 21.221 5.9925 21.0842 6.03049 20.9553Z" fill="white"/>
</svg>
