<svg width="99" height="26" viewBox="0 0 99 26" fill="none" xmlns="http://www.w3.org/2000/svg">
<path d="M14.1911 6.78964C12.5548 6.63828 12.3093 6.81419 10.8161 6.38055C9.89977 6.15146 9.42523 5.8651 8.21023 6.221C7.73864 6.35248 7.33181 6.65266 7.06707 7.06448C6.80233 7.4763 6.69815 7.97103 6.77432 8.45464C6.87117 8.89301 7.06974 9.30247 7.35399 9.64997C7.63824 9.99747 8.00021 10.2733 8.41068 10.4551C9.19375 10.7949 10.0196 11.0261 10.8652 11.1424C10.9574 11.1589 11.0412 11.2065 11.1025 11.2774C11.1611 11.3504 11.1929 11.4414 11.1925 11.5351C11.1887 11.5877 11.1749 11.6391 11.1516 11.6865C11.1296 11.7349 11.0959 11.7771 11.0534 11.8092C11.015 11.8451 10.9688 11.8717 10.9184 11.8869C10.8659 11.8991 10.8113 11.8991 10.7589 11.8869C10.5447 11.8751 10.3315 11.8492 10.1207 11.8092C9.57606 11.6997 9.04115 11.5464 8.52114 11.351C8.38701 11.2965 8.23684 11.2968 8.10294 11.3518C7.96904 11.4069 7.86213 11.5124 7.80523 11.6456C7.43844 12.5496 7.27234 13.5224 7.31841 14.4969C7.51068 17.4137 9.58068 19.6924 13.0457 20.0483C13.9406 20.1668 14.8502 20.1056 15.7211 19.8683C17.2492 19.4405 18.5747 18.4822 19.4599 17.1653C20.3451 15.8485 20.7321 14.2592 20.5513 12.6828C20.3705 11.1063 19.6338 9.64595 18.4734 8.56367C17.3131 7.48139 15.805 6.84807 14.2198 6.77737L14.1911 6.78964Z" fill="#FF6E83"/>
<path d="M13.0336 17.5693L10.1699 19.1606C11.0513 19.655 12.0271 19.9575 13.0336 20.0484C13.9285 20.1669 14.838 20.1057 15.709 19.8684C16.5796 19.6287 17.3924 19.2147 18.0982 18.6515C18.8039 18.0883 19.388 17.3877 19.8149 16.592C20.2418 15.7964 20.5026 14.9223 20.5816 14.0228C20.6606 13.1233 20.5561 12.2172 20.2745 11.3593C20.1178 10.8869 19.9078 10.434 19.6486 10.0093L18.7936 11.6456C17.4974 14.1433 15.4939 16.2036 13.0336 17.5693Z" fill="#FF5B70"/>
<g opacity="0.3">
<path d="M48.596 12.2432C48.726 12.3379 48.849 12.4418 48.9642 12.5541L49.1155 12.7054C49.1617 12.7815 49.1818 12.8705 49.1728 12.9591C49.1613 13.0452 49.1226 13.1255 49.0623 13.1882C48.9991 13.2507 48.9173 13.2909 48.8292 13.3027C48.742 13.3108 48.6545 13.2907 48.5796 13.2454C48.2717 12.897 47.8861 12.6258 47.454 12.4538C47.022 12.2819 46.5555 12.2139 46.0923 12.2554H45.8551C44.501 12.2554 43.2778 13.7895 42.9342 15.4177C42.3819 17.9827 44.7178 19.5659 46.4114 19.5659C47.9005 19.5659 48.5632 19.0136 49.5696 19.0136C50.4819 19.0136 50.8951 19.5741 52.6501 19.5741C54.7323 19.5741 55.5546 18.2241 55.7796 16.3422C55.8342 15.7688 55.8232 15.191 55.7469 14.62C55.1496 10.6559 53.9346 8.48361 52.9201 7.12952C52.3109 6.47402 51.4665 6.08693 50.5723 6.05319C49.678 6.01944 48.8069 6.34179 48.1501 6.94952C47.0537 8.03361 46.5342 9.73952 46.1414 11.065C46.1293 11.1133 46.1293 11.1639 46.1414 11.2122C46.1487 11.2607 46.1669 11.3069 46.1946 11.3472C46.2204 11.3902 46.2571 11.4255 46.301 11.4495C46.3434 11.4748 46.3909 11.4902 46.4401 11.4945C47.2149 11.5607 47.9605 11.821 48.6082 12.2513L48.596 12.2432Z" fill="#A4E33D"/>
<path d="M46.4001 17.9337L44.0273 18.6455C44.6878 19.2124 45.5219 19.5371 46.3919 19.5659C47.9014 19.5659 48.5642 19.0137 49.5705 19.0137C50.4828 19.0137 50.896 19.5741 52.651 19.5741C54.7333 19.5741 55.5555 18.2241 55.7805 16.3423C55.8351 15.7688 55.8241 15.191 55.7478 14.62C55.5313 13.0423 55.1275 11.4959 54.5451 10.0137L54.4469 10.2837C53.8012 12.1015 52.7361 13.7415 51.338 15.0707C49.9399 16.3998 48.2482 17.3807 46.4001 17.9337Z" fill="#92DC2F"/>
</g>
<g opacity="0.2">
<path d="M92.8365 9.89918C92.7428 9.36541 92.5573 8.85191 92.2883 8.38145C91.417 6.921 89.9442 6.79418 88.9256 7.38327C88.7906 7.48677 88.6252 7.54287 88.4551 7.54287C88.285 7.54287 88.1197 7.48677 87.9847 7.38327C87.4929 6.96176 86.8796 6.70811 86.2338 6.65918C85.5521 6.70554 84.9011 6.95968 84.3683 7.38736C84.2344 7.48793 84.0715 7.54231 83.904 7.54231C83.7365 7.54231 83.5736 7.48793 83.4397 7.38736C82.4497 6.64691 80.527 7.09691 79.807 8.78236C79.3762 9.81182 79.3659 10.9691 79.7783 12.006C79.8092 12.0769 79.8623 12.1357 79.9297 12.1737C79.9971 12.2103 80.0749 12.2233 80.1506 12.2105C80.6232 12.1354 81.1055 12.1465 81.5742 12.2433C81.6777 12.2606 81.7802 12.2838 81.881 12.3128C82.3414 12.4519 82.7725 12.6737 83.1533 12.9674C83.1937 13.0015 83.227 13.0432 83.2515 13.0901C83.2769 13.1366 83.2909 13.1885 83.2924 13.2415C83.2963 13.2941 83.288 13.347 83.2681 13.396C83.2483 13.4449 83.2174 13.4886 83.1779 13.5237C83.1177 13.5845 83.038 13.6222 82.9529 13.6301C82.8691 13.6367 82.7856 13.6151 82.7156 13.5687C82.2376 13.2258 81.6772 13.0156 81.0916 12.9595C80.5059 12.9035 79.9159 13.0036 79.3815 13.2496C77.9824 14.121 77.876 15.9865 78.8783 17.5287C79.7456 18.8746 81.2838 19.341 82.7115 19.3369H88.1851C90.116 19.3369 91.2901 18.4737 92.1247 16.7801C93.397 14.1619 93.1392 11.5478 92.8365 9.89918Z" fill="#A586FF"/>
<path d="M80.9109 17.5861L78.9473 17.627C79.8186 18.8543 81.32 19.3411 82.7109 19.337H88.1845C90.1154 19.337 91.2895 18.4739 92.1241 16.7802C93.3964 14.162 93.1386 11.5479 92.8277 9.89931C92.7575 9.4965 92.6351 9.10456 92.4636 8.7334L92.3041 9.20794C91.5012 11.6091 89.9753 13.7031 87.9356 15.2031C85.8959 16.703 83.4422 17.5354 80.9109 17.5861Z" fill="#9473FF"/>
</g>
<circle cx="70.5" cy="13" r="2" transform="rotate(-180 70.5 13)" fill="#DCF5FF"/>
<circle cx="63.5" cy="13" r="2" transform="rotate(-180 63.5 13)" fill="#DCF5FF"/>
<circle cx="35.5" cy="13" r="2" transform="rotate(-180 35.5 13)" fill="#FEF6CD"/>
<circle cx="28.5" cy="13" r="2" transform="rotate(-180 28.5 13)" fill="#FEF6CD"/>
</svg>
