<svg width="11" height="11" viewBox="0 0 11 11" fill="none" xmlns="http://www.w3.org/2000/svg">
<path d="M10.2226 4.72261H6.27738V0.777385C6.27738 0.57121 6.19548 0.373479 6.04969 0.227691C5.90391 0.081903 5.70617 0 5.5 0C5.29382 0 5.09609 0.081903 4.9503 0.227691C4.80452 0.373479 4.72261 0.57121 4.72261 0.777385V4.72261H0.777385C0.57121 4.72261 0.373479 4.80452 0.227691 4.9503C0.081903 5.09609 0 5.29382 0 5.5C0 5.70617 0.081903 5.90391 0.227691 6.04969C0.373479 6.19548 0.57121 6.27738 0.777385 6.27738H4.72261V10.2226C4.72261 10.4288 4.80452 10.6265 4.9503 10.7723C5.09609 10.9181 5.29382 11 5.5 11C5.70617 11 5.90391 10.9181 6.04969 10.7723C6.19548 10.6265 6.27738 10.4288 6.27738 10.2226V6.27738H10.2226C10.4288 6.27738 10.6265 6.19548 10.7723 6.04969C10.9181 5.90391 11 5.70617 11 5.5C11 5.29382 10.9181 5.09609 10.7723 4.9503C10.6265 4.80452 10.4288 4.72261 10.2226 4.72261Z" fill="#82857A"/>
</svg>
