<svg width="79" height="79" viewBox="0 0 79 79" fill="none" xmlns="http://www.w3.org/2000/svg">
<circle cx="39.5" cy="39.5" r="39.5" fill="#A586FF"/>
<mask id="mask0_982_39763" style="mask-type:alpha" maskUnits="userSpaceOnUse" x="0" y="0" width="79" height="79">
<circle cx="39.5" cy="39.5" r="39.5" fill="#FF6E83"/>
</mask>
<g mask="url(#mask0_982_39763)">
<path d="M3 65.5L9.4395 63.7495C37.1853 56.2069 58.5347 34.0164 65 6L79 8V79H26.5L3 65.5Z" fill="#9473FF"/>
</g>
<path fill-rule="evenodd" clip-rule="evenodd" d="M64.5365 28.6821C64.2096 26.82 63.5626 25.0286 62.6241 23.3874C59.5843 18.2924 54.4465 17.85 50.8929 19.9051C50.422 20.2662 49.8451 20.4619 49.2517 20.4619C48.6582 20.4619 48.0814 20.2662 47.6104 19.9051C45.895 18.4346 43.7552 17.5497 41.5022 17.379C39.1243 17.5408 36.853 18.4273 34.9944 19.9194C34.5272 20.2702 33.9588 20.4599 33.3746 20.4599C32.7903 20.4599 32.2219 20.2702 31.7547 19.9194C28.301 17.3362 21.5934 18.9061 19.0816 24.786C17.5789 28.3773 17.5431 32.4145 18.9817 36.032C19.0895 36.2792 19.2748 36.4846 19.5097 36.6171C19.7451 36.7448 20.0164 36.79 20.2804 36.7455C21.9292 36.4835 23.6119 36.5222 25.2469 36.8597C25.608 36.9202 25.9654 37.0012 26.3173 37.1023C27.9231 37.5877 29.4272 38.3615 30.7557 39.3858C30.8965 39.505 31.0128 39.6504 31.0982 39.8139C31.1869 39.9762 31.2358 40.1572 31.241 40.342C31.2545 40.5258 31.2255 40.7103 31.1562 40.881C31.0869 41.0518 30.9792 41.2043 30.8414 41.3267C30.6314 41.5388 30.3535 41.6701 30.0564 41.6978C29.7643 41.7208 29.473 41.6454 29.2287 41.4837C27.5611 40.2872 25.6062 39.5539 23.5631 39.3584C21.52 39.1628 19.4616 39.5121 17.5973 40.3705C12.7165 43.4104 12.3454 49.9182 15.8419 55.2986C18.8675 59.9939 24.2336 61.6209 29.2144 61.6066H48.3097C55.0459 61.6066 59.1419 58.5953 62.0533 52.6869C66.4917 43.5531 65.5926 34.4336 64.5365 28.6821ZM38.7618 31.5797C38.6627 31.5765 38.5654 31.5521 38.4764 31.5084C38.3891 31.4746 38.3109 31.4208 38.2481 31.3514C37.9541 31.0021 37.8104 30.5505 37.8485 30.0955C37.829 29.8694 37.8533 29.6417 37.9198 29.4247C37.9919 29.211 38.1032 29.0125 38.2481 28.8396C38.3032 28.7589 38.3835 28.6986 38.4764 28.6683C38.5654 28.6246 38.6627 28.6003 38.7618 28.597C38.8612 28.5989 38.9588 28.6233 39.0473 28.6683C39.1397 28.707 39.2225 28.7655 39.2899 28.8396C39.4332 29.0107 39.5411 29.2086 39.6072 29.4217C39.6734 29.6349 39.6965 29.8591 39.6752 30.0812C39.7164 30.5386 39.5783 30.994 39.2899 31.3514C39.1442 31.4842 38.9584 31.5646 38.7618 31.5797ZM43.3998 31.3514C43.5454 31.4842 43.7313 31.5646 43.9278 31.5797C44.0223 31.5762 44.1149 31.5519 44.199 31.5084C44.2922 31.4783 44.3759 31.4242 44.4416 31.3514C44.7274 30.992 44.8697 30.5395 44.8412 30.0812C44.8724 29.6314 44.7293 29.1868 44.4416 28.8396C44.3768 28.7626 44.2932 28.7036 44.199 28.6683C44.1149 28.6249 44.0223 28.6005 43.9278 28.597C43.8285 28.5989 43.7309 28.6233 43.6424 28.6683C43.5481 28.7036 43.4646 28.7626 43.3998 28.8396C43.1109 29.1911 42.9724 29.6424 43.0144 30.0955C42.9755 30.5482 43.1136 30.9984 43.3998 31.3514Z" fill="white"/>
<path d="M22.9343 55.4988L16.084 55.6416C19.1238 59.923 24.3615 61.6213 29.2138 61.6071H48.3092C55.0453 61.6071 59.1413 58.5958 62.0527 52.6873C66.4911 43.5535 65.592 34.434 64.5074 28.6826C64.2626 27.2773 63.8356 25.91 63.2372 24.6152L62.6806 26.2707C59.8796 34.6473 54.5563 41.9526 47.4407 47.1852C40.325 52.4179 31.7651 55.3218 22.9343 55.4988V55.4988Z" fill="white"/>
</svg>
