<svg width="63" height="76" viewBox="0 0 63 76" fill="none" xmlns="http://www.w3.org/2000/svg">
<rect width="63" height="76" rx="8" fill="#3AC5FF"/>
<path fill-rule="evenodd" clip-rule="evenodd" d="M22.8064 34.9782C29.511 32.8078 31.0905 28.7509 31.4201 27.7055C31.4591 27.604 31.4784 27.496 31.4769 27.3873C31.4671 27.2569 31.4324 27.1296 31.3746 27.0123C31.3141 26.8966 31.2287 26.7957 31.1246 26.7169C31.0213 26.6368 30.9006 26.5823 30.7723 26.5578C29.8519 26.3078 29.3405 27.41 29.3405 27.41C28.5881 28.8881 27.4912 30.1636 26.1424 31.1287C24.7935 32.0939 23.2323 32.7204 21.5905 32.9555C21.2996 32.9997 21.0022 32.9684 20.7269 32.8646C20.4519 32.7672 20.203 32.6078 19.9996 32.3987C16.5905 28.7737 15.8746 21.7282 20.1132 16.3759C24.3519 11.0237 30.6701 8.25095 37.6132 10.2509C52.6928 14.2282 51.3519 35.5464 39.9769 44.3419C34.8089 48.2764 28.3125 50.0452 21.8632 49.2737C15.2269 48.41 12.7723 44.9328 13.1701 41.8078C13.5337 38.9555 14.8064 37.1146 17.2723 36.2282C18.8007 35.6789 19.7135 35.5355 20.7116 35.3787L20.7116 35.3787C21.3239 35.2825 21.9682 35.1813 22.8064 34.9782ZM38.2954 23.5584C38.218 23.5603 38.1412 23.545 38.0704 23.5135C37.9997 23.4821 37.9368 23.4353 37.8863 23.3766C37.6585 23.095 37.5449 22.738 37.5681 22.3766C37.5403 22.0146 37.6544 21.6559 37.8863 21.3766C37.9368 21.3179 37.9997 21.2711 38.0704 21.2397C38.1412 21.2082 38.218 21.1929 38.2954 21.1948C38.3702 21.1777 38.4479 21.1777 38.5227 21.1948C38.5922 21.227 38.6541 21.2734 38.7045 21.3311C38.8239 21.466 38.913 21.6249 38.9659 21.797C39.0065 21.9689 39.0065 22.1479 38.9659 22.3198C38.9824 22.501 38.9628 22.6837 38.9082 22.8574C38.8535 23.031 38.765 23.192 38.6477 23.3311C38.5973 23.3889 38.5354 23.4353 38.4659 23.4675C38.3911 23.4846 38.3134 23.4846 38.2386 23.4675L38.2954 23.5584ZM42.2155 23.5582C42.2865 23.5743 42.3603 23.5743 42.4314 23.5582V23.6037C42.51 23.6029 42.5877 23.5864 42.6599 23.5552C42.7321 23.5239 42.7974 23.4786 42.8518 23.4218C43.0814 23.1373 43.1915 22.7746 43.1586 22.4105C43.1903 22.0534 43.0801 21.6983 42.8518 21.4218C42.7973 21.3638 42.7316 21.3175 42.6586 21.2855C42.5838 21.2684 42.5062 21.2684 42.4314 21.2855C42.3563 21.2705 42.2791 21.2705 42.2041 21.2855C42.1364 21.3206 42.075 21.3667 42.0223 21.4218C41.9069 21.5595 41.8183 21.7175 41.7609 21.8878C41.7135 22.0616 41.6943 22.2419 41.7041 22.4218C41.6809 22.7833 41.7945 23.1402 42.0223 23.4218C42.0768 23.4798 42.1425 23.5262 42.2155 23.5582Z" fill="white"/>
<path d="M28.9434 40.7507L15.1934 46.5803C17.1175 48.0931 19.4464 49.0025 21.8865 49.1939C28.3358 49.9654 34.8322 48.1966 40.0002 44.2621C47.1252 38.7734 50.307 28.353 47.9547 20.3984L47.0229 22.5916C43.5872 30.7654 37.102 37.2791 28.9434 40.7507Z" fill="white"/>
<path opacity="0.08" fill-rule="evenodd" clip-rule="evenodd" d="M0.300262 5.82128C1.05335 3.15453 3.15453 1.05335 5.82128 0.300262L0.300262 5.82128ZM0 15.1215V10.8789L10.8789 0H15.1215L0 15.1215ZM0 24.1215V19.8789L19.8789 0H24.1215L0 24.1215ZM0 33.1215V28.8789L28.8789 0H33.1215L0 33.1215ZM0 42.1215V37.8789L37.8789 0H42.1215L0 42.1215ZM0 51.1215V46.8789L46.8789 0H51.1215L0 51.1215ZM0 60.1215V55.8789L55.8358 0.0431332C56.9923 0.163195 58.0757 0.529658 59.0324 1.08912L0 60.1215ZM0.0686661 69.0529C0.023371 68.7083 0 68.3569 0 68V64.8789L61.5182 3.3607C62.1369 4.2284 62.5866 5.22486 62.8195 6.30209L0.0686661 69.0529ZM3.5037 74.6178C2.67033 74.0505 1.94969 73.3299 1.38234 72.4966L63 10.8789V15.1215L3.5037 74.6178ZM11.1215 76H8C7.64324 76 7.29193 75.9766 6.94753 75.9314L63 19.8789V24.1215L11.1215 76ZM20.1215 76H15.8789L63 28.8789V33.1215L20.1215 76ZM29.1215 76H24.8789L63 37.8789V42.1215L29.1215 76ZM38.1215 76H33.8789L63 46.8789V51.1215L38.1215 76ZM47.1215 76H42.8789L63 55.8789V60.1215L47.1215 76ZM56.2129 75.9087C55.8174 75.9688 55.4123 76 55 76H51.8789L63 64.8789V68C63 68.4123 62.9688 68.8174 62.9086 69.2129L56.2129 75.9087Z" fill="white"/>
<path d="M26.2374 59.94V59.84H28.1374V59.1H26.2574V58.04H25.3174V59.1H23.4174V59.84H25.3174V59.94C25.3274 61.07 24.5074 62.12 23.1774 62.54L23.6174 63.26C24.6574 62.93 25.4274 62.21 25.8074 61.31C26.1974 62.12 26.9674 62.75 27.9774 63.04L28.4374 62.3C27.0874 61.94 26.2474 60.97 26.2374 59.94ZM24.5774 65.2C24.5774 66.22 25.7074 66.82 27.5374 66.82C29.3774 66.82 30.4974 66.22 30.4974 65.2C30.4974 64.16 29.3774 63.58 27.5374 63.58C25.7074 63.58 24.5774 64.16 24.5774 65.2ZM25.4974 65.2C25.4974 64.62 26.2574 64.3 27.5374 64.3C28.8274 64.3 29.5774 64.62 29.5774 65.2C29.5774 65.76 28.8274 66.09 27.5374 66.1C26.2574 66.09 25.4974 65.76 25.4974 65.2ZM27.8774 61.28H29.5574V63.38H30.4774V58.08H29.5574V60.54H27.8774V61.28ZM38.7 58.08H37.78V63.2H38.7V61.02H39.96V60.24H38.7V58.08ZM31.78 62.42L32.16 63.12C34.75 62.45 36.27 60.87 36.28 58.62H32.18V59.36H35.28C35.13 60.74 33.88 61.86 31.78 62.42ZM32.92 64.32H37.78V66.82H38.7V63.58H32.92V64.32Z" fill="white"/>
</svg>
