<svg width="63" height="76" viewBox="0 0 63 76" fill="none" xmlns="http://www.w3.org/2000/svg">
<rect width="63" height="76" rx="8" fill="#F7CC31"/>
<path fill-rule="evenodd" clip-rule="evenodd" d="M33.0799 14.5561C42.1481 9.43114 54.489 17.3516 53.6594 28.988C53.5913 53.897 8.72761 53.5107 9.39807 28.3289C9.12534 16.9652 21.1708 9.52205 30.0912 14.5561C30.5562 14.8174 31.0806 14.9544 31.614 14.9539C32.1282 14.9458 32.6321 14.809 33.0799 14.5561ZM39.4209 27.9653C39.5003 28.1012 39.5506 28.2522 39.5686 28.4085C39.6091 28.6819 39.5485 28.9607 39.3982 29.1926C39.2436 29.4196 39.0076 29.5783 38.7391 29.6358C34.0058 30.8857 29.0292 30.8857 24.2959 29.6358C24.0274 29.5783 23.7914 29.4196 23.6368 29.1926C23.4865 28.9607 23.4259 28.6819 23.4664 28.4085C23.4878 28.2529 23.5379 28.1027 23.6141 27.9653C23.6921 27.8285 23.8011 27.7117 23.9323 27.6244C24.062 27.5345 24.2091 27.4726 24.3641 27.4426C24.5181 27.4145 24.676 27.4145 24.83 27.4426C29.2115 28.6132 33.8235 28.6132 38.205 27.4426C38.359 27.4145 38.5169 27.4145 38.6709 27.4426C38.8259 27.4726 38.973 27.5345 39.1027 27.6244C39.2339 27.7117 39.3429 27.8285 39.4209 27.9653ZM29.5 23.8862C29.421 23.8847 29.3433 23.8653 29.2728 23.8294C29.2019 23.8052 29.139 23.7619 29.0909 23.7044C28.9745 23.567 28.8864 23.4079 28.8318 23.2362C28.7772 23.0646 28.7571 22.8839 28.7728 22.7044C28.7552 22.5249 28.7743 22.3436 28.829 22.1717C28.8837 21.9998 28.9728 21.8408 29.0909 21.7044C29.1383 21.6435 29.2011 21.5965 29.2728 21.5681C29.3433 21.5322 29.421 21.5127 29.5 21.5112C29.579 21.5138 29.6564 21.5332 29.7273 21.5681C29.799 21.5965 29.8618 21.6435 29.9091 21.7044C30.0281 21.838 30.1178 21.9949 30.1726 22.1651C30.2274 22.3354 30.246 22.5152 30.2273 22.6931C30.2428 22.8731 30.2235 23.0544 30.1705 23.2271C30.1106 23.3997 30.0223 23.561 29.9091 23.7044C29.8611 23.7619 29.7982 23.8052 29.7273 23.8294C29.6564 23.8643 29.579 23.8836 29.5 23.8862ZM33.3976 23.8294C33.4685 23.8643 33.546 23.8836 33.6249 23.8862C33.7197 23.8766 33.8101 23.8412 33.8863 23.784C33.9405 23.7679 33.9908 23.7409 34.034 23.7044C34.1513 23.5653 34.2399 23.4042 34.2945 23.2306C34.3491 23.057 34.3687 22.8743 34.3522 22.6931C34.3695 22.5153 34.3502 22.3358 34.2955 22.1658C34.2408 21.9957 34.1518 21.8387 34.034 21.7044C33.9867 21.6435 33.9239 21.5965 33.8522 21.5681C33.7817 21.5322 33.704 21.5127 33.6249 21.5112C33.546 21.5138 33.4685 21.5332 33.3976 21.5681C33.3259 21.5965 33.2632 21.6435 33.2158 21.7044C33.1005 21.8421 33.0118 22.0001 32.9545 22.1703C32.9014 22.3431 32.8822 22.5244 32.8976 22.7044C32.8828 22.8807 32.9021 23.0582 32.9545 23.2271C33.0143 23.3997 33.1027 23.561 33.2158 23.7044C33.2638 23.7619 33.3267 23.8052 33.3976 23.8294Z" fill="white"/>
<path d="M21.3867 43.931L18.6367 44.2378C31.614 51.4651 53.614 46.431 53.6594 28.9878C53.9462 25.2268 52.7834 21.4986 50.4094 18.5674L48.7276 22.7719C46.4706 28.4161 42.7456 33.3541 37.9383 37.0744C33.1311 40.7947 27.4165 43.162 21.3867 43.931Z" fill="white"/>
<path opacity="0.08" fill-rule="evenodd" clip-rule="evenodd" d="M0.300262 5.82128C1.05335 3.15453 3.15453 1.05335 5.82128 0.300262L0.300262 5.82128ZM0 15.1215V10.8789L10.8789 0H15.1215L0 15.1215ZM0 24.1215V19.8789L19.8789 0H24.1215L0 24.1215ZM0 33.1215V28.8789L28.8789 0H33.1215L0 33.1215ZM0 42.1215V37.8789L37.8789 0H42.1215L0 42.1215ZM0 51.1215V46.8789L46.8789 0H51.1215L0 51.1215ZM0 60.1215V55.8789L55.8358 0.0431332C56.9923 0.163195 58.0757 0.529658 59.0324 1.08912L0 60.1215ZM0.0686661 69.0529C0.023371 68.7083 0 68.3569 0 68V64.8789L61.5182 3.3607C62.1369 4.2284 62.5866 5.22486 62.8195 6.30209L0.0686661 69.0529ZM3.5037 74.6178C2.67033 74.0505 1.94969 73.3299 1.38234 72.4966L63 10.8789V15.1215L3.5037 74.6178ZM11.1215 76H8C7.64324 76 7.29193 75.9766 6.94753 75.9314L63 19.8789V24.1215L11.1215 76ZM20.1215 76H15.8789L63 28.8789V33.1215L20.1215 76ZM29.1215 76H24.8789L63 37.8789V42.1215L29.1215 76ZM38.1215 76H33.8789L63 46.8789V51.1215L38.1215 76ZM47.1215 76H42.8789L63 55.8789V60.1215L47.1215 76ZM56.2129 75.9087C55.8174 75.9688 55.4123 76 55 76H51.8789L63 64.8789V68C63 68.4123 62.9688 68.8174 62.9086 69.2129L56.2129 75.9087Z" fill="white"/>
<path d="M27.7774 58.92H23.6574V64.66H27.7774V58.92ZM24.5774 63.92V59.66H26.8774V63.92H24.5774ZM29.4974 66.84H30.4374V58.08H29.4974V66.84ZM38.7 58.08H37.78V63.2H38.7V61.02H39.96V60.24H38.7V58.08ZM31.78 62.42L32.16 63.12C34.75 62.45 36.27 60.87 36.28 58.62H32.18V59.36H35.28C35.13 60.74 33.88 61.86 31.78 62.42ZM32.92 64.32H37.78V66.82H38.7V63.58H32.92V64.32Z" fill="white"/>
</svg>
