<svg width="120" height="120" viewBox="0 0 120 120" fill="none" xmlns="http://www.w3.org/2000/svg">
<g clip-path="url(#clip0_2015_34594)">
<path d="M35.9982 12.0005V4.99951C31.7411 6.85954 27.7146 9.20823 24 11.9983H35.9982V12.0005Z" fill="#F4F4F3"/>
<path d="M48.0005 12.0002V1.20166C43.8774 2.03992 39.8547 3.31288 36 4.99921V12.0002H48.0005Z" fill="white"/>
<path d="M60.0005 12.0005V2.12973e-06C55.9702 -0.00106854 51.95 0.401554 48 1.20186V12.0005H60.0005Z" fill="#F4F4F3"/>
<path d="M72.0005 12.0005V1.20186C68.0505 0.401554 64.0302 -0.00106854 60 2.12973e-06V12.0005H72.0005Z" fill="white"/>
<path d="M83.9982 12.0002V4.99921C80.1444 3.31257 76.1224 2.03959 72 1.20166V12.0002H83.9982Z" fill="#F4F4F3"/>
<path d="M95.9985 12.0007C92.2834 9.21017 88.2561 6.86146 83.998 5.00195V12.003L95.9985 12.0007Z" fill="white"/>
<path d="M24.0017 24.001V12.0005C19.4587 15.4148 15.4202 19.4533 12.0059 23.9964V23.9964L24.0017 24.001Z" fill="#F4F4F3"/>
<path d="M36.0005 12.0005H24V24.0009H36.0005V12.0005Z" fill="white"/>
<path d="M48.0005 12.0005H36V24.0009H48.0005V12.0005Z" fill="#F4F4F3"/>
<path d="M60.0005 12.0005H48V24.0009H60.0005V12.0005Z" fill="white"/>
<path d="M72.0005 12.0005H60V24.0009H72.0005V12.0005Z" fill="#F4F4F3"/>
<path d="M84.0005 12.0005H72V24.0009H84.0005V12.0005Z" fill="white"/>
<path d="M95.9985 12.0005H83.998V24.0009H95.9985V12.0005Z" fill="#F4F4F3"/>
<path d="M96 24.0008H108C104.586 19.4577 100.548 15.4192 96.0046 12.0049V12.0049L96 24.0008Z" fill="white"/>
<path d="M12.001 24.001C9.20978 27.716 6.8603 31.7433 5 36.0014H12.0033L12.001 24.001Z" fill="#F4F4F3"/>
<path d="M24.0005 24.001H12V36.0014H24.0005V24.001Z" fill="white"/>
<path d="M36.0005 24.001H24V36.0014H36.0005V24.001Z" fill="#F4F4F3"/>
<path d="M48.0005 24.001H36V36.0014H48.0005V24.001Z" fill="white"/>
<path d="M60.0005 24.001H48V36.0014H60.0005V24.001Z" fill="#F4F4F3"/>
<path d="M72.0005 24.001H60V36.0014H72.0005V24.001Z" fill="white"/>
<path d="M84.0005 24.001H72V36.0014H84.0005V24.001Z" fill="#F4F4F3"/>
<path d="M95.9985 24.001H83.998V36.0014H95.9985V24.001Z" fill="white"/>
<path d="M108 24.001H96V36.0014H108V24.001Z" fill="#F4F4F3"/>
<path d="M108 36.0014H115.015C113.154 31.7437 110.804 27.7166 108.014 24.001V24.001L108 36.0014Z" fill="white"/>
<path d="M11.9998 36.0015H4.99644C3.31188 39.8559 2.03971 43.8776 1.20117 47.9996H11.9998V36.0015Z" fill="white"/>
<path d="M24.0005 35.999H12V47.9995H24.0005V35.999Z" fill="#F4F4F3"/>
<path d="M36.0005 35.999H24V47.9995H36.0005V35.999Z" fill="white"/>
<path d="M48.0005 35.999H36V47.9995H48.0005V35.999Z" fill="#F4F4F3"/>
<path d="M60.0005 35.999H48V47.9995H60.0005V35.999Z" fill="white"/>
<path d="M72.0005 35.999H60V47.9995H72.0005V35.999Z" fill="#F4F4F3"/>
<path d="M84.0005 35.999H72V47.9995H84.0005V35.999Z" fill="white"/>
<path d="M95.9985 35.999H83.998V47.9995H95.9985V35.999Z" fill="#F4F4F3"/>
<path d="M108 35.999H96V47.9995H108V35.999Z" fill="white"/>
<path d="M108 47.9996H118.799C117.964 43.878 116.695 39.8563 115.015 36.0015H108V47.9996Z" fill="#F4F4F3"/>
<path d="M12.0005 47.9995H1.20188C0.400553 51.9493 -0.00209178 55.9697 8.1715e-06 60H12.0005V47.9995Z" fill="#F4F4F3"/>
<path d="M24.0005 47.9995H12V60H24.0005V47.9995Z" fill="white"/>
<path d="M36.0005 47.9995H24V60H36.0005V47.9995Z" fill="#F4F4F3"/>
<path d="M48.0005 47.9995H36V60H48.0005V47.9995Z" fill="white"/>
<path d="M60.0005 47.9995H48V60H60.0005V47.9995Z" fill="#F4F4F3"/>
<path d="M72.0005 47.9995H60V60H72.0005V47.9995Z" fill="white"/>
<path d="M84.0005 47.9995H72V60H84.0005V47.9995Z" fill="#F4F4F3"/>
<path d="M95.9985 47.9995H83.998V60H95.9985V47.9995Z" fill="white"/>
<path d="M108 47.9995H96V60H108V47.9995Z" fill="#F4F4F3"/>
<path d="M108 47.9995V60H120C120.001 55.9697 119.599 51.9495 118.799 47.9995H108Z" fill="white"/>
<path d="M12.0005 60H9.02992e-06C-0.00219876 64.0303 0.400448 68.0506 1.20188 72.0005H12.0005V60Z" fill="white"/>
<path d="M24.0005 60H12V72.0005H24.0005V60Z" fill="#F4F4F3"/>
<path d="M36.0005 60H24V72.0005H36.0005V60Z" fill="white"/>
<path d="M48.0005 60H36V72.0005H48.0005V60Z" fill="#F4F4F3"/>
<path d="M60.0005 60H48V72.0005H60.0005V60Z" fill="white"/>
<path d="M72.0005 60H60V72.0005H72.0005V60Z" fill="#F4F4F3"/>
<path d="M84.0005 60H72V72.0005H84.0005V60Z" fill="white"/>
<path d="M95.9985 60H83.998V72.0005H95.9985V60Z" fill="#F4F4F3"/>
<path d="M108 60H96V72.0005H108V60Z" fill="white"/>
<path d="M108 72.0005H118.799C119.599 68.0505 120.002 64.0302 120 60H108V72.0005Z" fill="#F4F4F3"/>
<path d="M11.9998 72.0005H1.20117C2.0397 76.1232 3.31187 80.1458 4.99644 84.0009H11.9998V72.0005Z" fill="#F4F4F3"/>
<path d="M24.0005 72.0005H12V84.0009H24.0005V72.0005Z" fill="white"/>
<path d="M36.0005 72.0005H24V84.0009H36.0005V72.0005Z" fill="#F4F4F3"/>
<path d="M48.0005 72.0005H36V84.0009H48.0005V72.0005Z" fill="white"/>
<path d="M60.0005 72.0005H48V84.0009H60.0005V72.0005Z" fill="#F4F4F3"/>
<path d="M72.0005 72.0005H60V84.0009H72.0005V72.0005Z" fill="white"/>
<path d="M84.0005 72.0005H72V84.0009H84.0005V72.0005Z" fill="#F4F4F3"/>
<path d="M95.9985 72.0005H83.998V84.0009H95.9985V72.0005Z" fill="white"/>
<path d="M108 72.0005H96V84.0009H108V72.0005Z" fill="#F4F4F3"/>
<path d="M108 84.0009H115.015C116.699 80.1458 117.971 76.1232 118.81 72.0005H108V84.0009Z" fill="white"/>
<path d="M12.0014 84.001H4.99805C6.85836 88.2584 9.20784 92.2849 11.9991 95.9992V95.9992L12.0014 84.001Z" fill="white"/>
<path d="M24.0005 83.9985H12V95.999H24.0005V83.9985Z" fill="#F4F4F3"/>
<path d="M36.0005 83.9985H24V95.999H36.0005V83.9985Z" fill="white"/>
<path d="M48.0005 83.9985H36V95.999H48.0005V83.9985Z" fill="#F4F4F3"/>
<path d="M60.0005 83.9985H48V95.999H60.0005V83.9985Z" fill="white"/>
<path d="M72.0005 83.9985H60V95.999H72.0005V83.9985Z" fill="#F4F4F3"/>
<path d="M84.0005 83.9985H72V95.999H84.0005V83.9985Z" fill="white"/>
<path d="M95.9985 83.9985H83.998V95.999H95.9985V83.9985Z" fill="#F4F4F3"/>
<path d="M108 83.9985H96V95.999H108V83.9985Z" fill="white"/>
<path d="M108 95.9992C110.795 92.285 113.149 88.2586 115.015 84.001H108V95.9992Z" fill="#F4F4F3"/>
<path d="M24.0005 95.999H12C15.4131 100.543 19.4517 104.582 23.9959 107.995V107.995L24.0005 95.999Z" fill="white"/>
<path d="M36.0005 95.999H24V107.999H36.0005V95.999Z" fill="#F4F4F3"/>
<path d="M48.0005 95.999H36V107.999H48.0005V95.999Z" fill="white"/>
<path d="M60.0005 95.999H48V107.999H60.0005V95.999Z" fill="#F4F4F3"/>
<path d="M72.0005 95.999H60V107.999H72.0005V95.999Z" fill="white"/>
<path d="M84.0005 95.999H72V107.999H84.0005V95.999Z" fill="#F4F4F3"/>
<path d="M95.9985 95.999H83.998V107.999H95.9985V95.999Z" fill="white"/>
<path d="M96 95.999V107.999C100.544 104.586 104.583 100.548 107.996 96.0036V96.0036L96 95.999Z" fill="#F4F4F3"/>
<path d="M24 107.999C27.7146 110.79 31.741 113.14 35.9982 115V107.997L24 107.999Z" fill="white"/>
<path d="M36 108V115.003C39.8548 116.688 43.8774 117.961 48.0005 118.798V108H36Z" fill="#F4F4F3"/>
<path d="M48 108V118.798C51.9498 119.6 55.9702 120.002 60.0005 120V108H48Z" fill="white"/>
<path d="M60 108V120C64.0303 120.002 68.0506 119.6 72.0005 118.798V108H60Z" fill="#F4F4F3"/>
<path d="M72 108V118.798C76.1224 117.961 80.1443 116.689 83.9982 115.003V108H72Z" fill="white"/>
<path d="M83.998 108V115.003C88.2562 113.143 92.2834 110.793 95.9985 108.002H83.998V108Z" fill="#F4F4F3"/>
<path d="M99.7734 84.7592L123.085 89.2537L123.192 89.326H123.246L140.741 80.1226C141.165 79.8997 141.506 79.5471 141.714 79.1163C141.923 78.6856 141.988 78.1995 141.9 77.7291C141.812 77.2586 141.576 76.8287 141.226 76.5023C140.876 76.1758 140.431 75.97 139.956 75.9149L120.94 73.7119L99.897 84.5518L99.9786 84.7406L99.7734 84.7592Z" fill="#BBBDB6"/>
<path d="M122.849 89.2611L99.486 84.7783H99.507L56.6348 86.0488L63.183 90.6784L122.849 89.2611Z" fill="#D1D3CF"/>
<path d="M91.4435 25.7488C81.697 22.378 79.8321 23.0773 71.3024 18.401C66.0223 15.5104 63.5723 12.9275 55.5321 13.3867C49.1471 13.7527 43.7901 18.5899 43.3542 24.9679C42.9113 31.4438 46.7553 36.7355 50.3127 39.6728C54.6399 42.9378 59.3927 45.5966 64.4395 47.5754C64.9978 47.7992 65.4528 48.2226 65.7161 48.7634C65.9794 49.3042 66.032 49.9235 65.8638 50.501C65.4722 51.8764 63.9989 52.5571 62.6515 52.1118C61.3613 51.6976 60.0937 51.216 58.854 50.6688C55.6686 49.1773 52.6087 47.431 49.7043 45.4471C48.1447 44.3794 45.9511 44.6591 44.8764 46.214C44.1375 47.284 43.3938 48.4356 42.6735 49.6688C40.5172 53.3636 38.587 57.7858 37.6848 62.9284C34.4958 81.1113 43.8088 98.1847 64.4371 105.528C89.6532 114.505 116.347 99.7 121.163 73.9104C125.126 52.8928 112.002 31.6303 91.4342 25.7465L91.4435 25.7488Z" fill="#D1D3CF"/>
<path d="M66.751 65.9848C66.4664 65.934 66.2116 65.7775 66.0377 65.5466C65.7113 65.1316 65.5994 64.5022 65.7276 63.7702C65.8558 63.0382 66.1449 62.4648 66.5855 62.1734C66.8247 62.0115 67.1154 61.9442 67.4014 61.9846C67.6878 62.0338 67.9447 62.1905 68.1194 62.4228C68.4458 62.8378 68.5553 63.4672 68.4294 64.1992C68.3036 64.9311 68.0122 65.5046 67.5716 65.796C67.3311 65.959 67.0385 66.0263 66.751 65.9848Z" fill="white"/>
<path d="M60.2881 64.914C60.0035 64.8632 59.7487 64.7067 59.5748 64.4757C59.2484 64.0608 59.1365 63.4314 59.2647 62.6994C59.3929 61.9674 59.682 61.3939 60.1226 61.1026C60.3609 60.9388 60.6524 60.8713 60.9385 60.9137C61.2245 60.9626 61.4812 61.1184 61.6565 61.3497C61.9805 61.7669 62.0924 62.3963 61.9665 63.1283C61.8407 63.8603 61.5493 64.4338 61.1063 64.7252C60.8665 64.8876 60.5748 64.9549 60.2881 64.914V64.914Z" fill="white"/>
<path d="M66.8657 73.043C66.0591 73.0522 65.2545 72.9638 64.4692 72.7796C64.2677 72.7225 64.0969 72.588 63.9943 72.4054C63.8916 72.2228 63.8654 72.007 63.9214 71.8052C63.9491 71.705 63.9964 71.6113 64.0604 71.5294C64.1244 71.4475 64.204 71.379 64.2945 71.3279C64.385 71.2768 64.4847 71.2441 64.5879 71.2316C64.6911 71.2191 64.7957 71.227 64.8958 71.255C65.1523 71.3273 71.2039 72.9055 74.9058 66.7652C74.9594 66.6762 75.0301 66.5986 75.1138 66.537C75.1974 66.4753 75.2924 66.4307 75.3933 66.4058C75.4942 66.3809 75.5991 66.3762 75.7018 66.3918C75.8046 66.4075 75.9032 66.4433 75.9921 66.4971C76.1714 66.6059 76.3003 66.7813 76.3506 66.9849C76.4008 67.1885 76.3683 67.4038 76.2602 67.5835C73.4628 72.2108 69.4183 73.0453 66.8633 73.0453L66.8657 73.043Z" fill="white"/>
<path d="M99.7756 84.7591H99.983L99.9015 84.5703L99.5938 84.7288L99.7756 84.7591Z" fill="#D1D3CF"/>
<path d="M99.7716 84.759L99.5898 84.7217L99.5059 84.7636L99.7716 84.759Z" fill="#D1D3CF"/>
<path d="M82.996 99.7603L64.6546 91.3682L63.489 91.4101L63.2559 91.3682V140.493C67.4914 141.215 71.7805 141.577 76.0772 141.577C93.1507 141.603 109.726 135.826 123.085 125.193V98.0469L82.9891 99.7603H82.996Z" fill="#D1D3CF"/>
<path d="M63.1816 90.6761L63.2376 90.7134H63.2609L122.843 89.2378L63.1816 90.6761Z" fill="#D1D3CF"/>
<path d="M63.2617 90.7339V91.3703L63.4948 91.4123L64.6604 91.3703L63.2617 90.7362V90.7339Z" fill="#D1D3CF"/>
<path d="M61.4215 91.056L38.5762 87.1327L35.4548 86.6665H35.1704L35.1448 86.6129L33.9652 86.4404L33.8906 86.3867V128.706C42.6461 134.609 52.5471 138.6 62.9484 140.42L61.4145 91.0351L61.4215 91.056Z" fill="#BBBDB6"/>
<path d="M62.9049 90.6808L38.584 87.1328L61.4293 91.0561V90.7181L62.9049 90.6808Z" fill="#BBBDB6"/>
<path d="M35.1756 86.6873H35.4601L35.1523 86.6431L35.1756 86.6873Z" fill="#BBBDB6"/>
<path d="M62.9558 140.441L63.2611 140.493V91.3707L61.4219 91.0537L62.9558 140.439V140.441Z" fill="#BBBDB6"/>
<path d="M63.2607 90.7114H63.2383L63.2607 90.7271V90.7114Z" fill="#BBBDB6"/>
<path d="M62.9044 90.6807L61.4102 90.718V91.056L63.2494 91.3707V90.7343L62.9044 90.6807Z" fill="#BBBDB6"/>
<path d="M122.859 89.2607L64.6523 91.3588L78.6089 97.7438C81.4909 99.0615 84.6439 99.6782 87.81 99.5434L123.087 98.0352V89.312L122.859 89.2607Z" fill="#BBBDB6"/>
<path d="M122.849 89.2607L63.2676 90.7364L64.6663 91.3704L122.873 89.2724L122.849 89.2607Z" fill="#BBBDB6"/>
<path d="M35.0016 86.3014L27.6678 70.2164L16.5505 69.0672C14.2567 68.8341 13.1447 71.797 15.0306 73.1257L33.8966 86.4133V86.334L35.0016 86.3014Z" fill="#BBBDB6"/>
<path d="M35.0014 86.2998L33.8965 86.3278L35.0947 86.5049L35.0014 86.2998Z" fill="#BBBDB6"/>
<path d="M56.634 86.0483L36.1035 86.6591L63.0073 90.6827H63.1822L56.634 86.0483Z" fill="#BBBDB6"/>
<path d="M56.2526 85.7738L35.3794 71.0199L27.668 70.2227L35.0018 86.3076L56.2526 85.7738Z" fill="#BBBDB6"/>
<path d="M36.1046 86.6575L56.635 86.0468L56.2527 85.7764L35.002 86.3009L35.0975 86.506L36.1046 86.6575Z" fill="#BBBDB6"/>
<path d="M63.1826 90.6753H63.0078L63.2409 90.7079L63.1826 90.6753Z" fill="#BBBDB6"/>
<path d="M35.4609 86.6787L38.5847 87.1449L35.8619 86.6787H35.4609Z" fill="#BBBDB6"/>
<path d="M35.153 86.6317L35.1064 86.5361L33.8965 86.3286V86.4079L33.9711 86.4592L35.153 86.6317Z" fill="#BBBDB6"/>
<path d="M63.0061 90.6803L36.1023 86.6567H35.8691L38.5919 87.123L62.9128 90.671L63.0061 90.6803Z" fill="#BBBDB6"/>
<path d="M33.8965 86.3286L35.1064 86.5361V86.5058L33.8965 86.3286Z" fill="#BBBDB6"/>
<path d="M35.1094 86.5356L35.1537 86.6336L35.4614 86.6778H35.8623L35.1094 86.5356Z" fill="#BBBDB6"/>
<path d="M36.1047 86.6569L35.0977 86.5054V86.5357L35.8506 86.6662L36.1047 86.6569Z" fill="#BBBDB6"/>
<path d="M63.238 90.7109L63.0049 90.6782H62.9023L63.259 90.7318L63.238 90.7109Z" fill="#BBBDB6"/>
</g>
<defs>
<clipPath id="clip0_2015_34594">
<rect width="120" height="120" rx="60" fill="white"/>
</clipPath>
</defs>
</svg>
