<svg width="30" height="30" viewBox="0 0 30 30" fill="none" xmlns="http://www.w3.org/2000/svg">
<rect width="30" height="30" fill="#F4F4F3"/>
<path d="M21.4923 9.90163C21.8828 9.5111 21.8828 8.87794 21.4923 8.48741C21.1017 8.09689 20.4686 8.09689 20.078 8.48741L21.4923 9.90163ZM8.50721 20.0583C8.11669 20.4488 8.11669 21.0819 8.50721 21.4725C8.89773 21.863 9.5309 21.863 9.92142 21.4725L8.50721 20.0583ZM20.078 8.48741L8.50721 20.0583L9.92142 21.4725L21.4923 9.90163L20.078 8.48741Z" fill="#BBBDB6"/>
<path d="M20.078 21.4725C20.4686 21.863 21.1017 21.863 21.4923 21.4725C21.8828 21.0819 21.8828 20.4488 21.4923 20.0582L20.078 21.4725ZM9.92143 8.48741C9.5309 8.09688 8.89774 8.09688 8.50721 8.48741C8.11669 8.87793 8.11669 9.5111 8.50721 9.90162L9.92143 8.48741ZM21.4923 20.0582L9.92143 8.48741L8.50721 9.90162L20.078 21.4725L21.4923 20.0582Z" fill="#BBBDB6"/>
</svg>
