<svg width="40" height="40" viewBox="0 0 40 40" fill="none" xmlns="http://www.w3.org/2000/svg">
<path fill-rule="evenodd" clip-rule="evenodd" d="M21.2639 7.64515C28.5184 3.54515 38.3912 9.88152 37.7275 19.1906C37.673 39.1179 1.78209 38.8088 2.31845 18.6633C2.10027 9.57243 11.7366 3.61788 18.873 7.64515C19.245 7.85416 19.6645 7.96375 20.0912 7.96334C20.5025 7.95685 20.9057 7.84747 21.2639 7.64515ZM26.3368 18.3726C26.4003 18.4814 26.4406 18.6021 26.455 18.7272C26.4873 18.9459 26.4388 19.1689 26.3186 19.3545C26.195 19.536 26.0061 19.663 25.7913 19.709C22.0047 20.709 18.0234 20.709 14.2368 19.709C14.022 19.663 13.8332 19.536 13.7095 19.3545C13.5893 19.1689 13.5408 18.9459 13.5732 18.7272C13.5903 18.6027 13.6304 18.4825 13.6913 18.3726C13.7538 18.2631 13.841 18.1698 13.9459 18.0999C14.0497 18.028 14.1673 17.9784 14.2913 17.9545C14.4146 17.9319 14.5409 17.9319 14.6641 17.9545C18.1693 18.8909 21.8589 18.8909 25.3641 17.9545C25.4873 17.9319 25.6136 17.9319 25.7368 17.9545C25.8608 17.9784 25.9785 18.028 26.0823 18.0999C26.1872 18.1698 26.2744 18.2631 26.3368 18.3726Z" fill="#F9D63F"/>
<path d="M11.909 31.1449L9.70898 31.3904C20.0908 37.1722 37.6908 33.1449 37.7272 19.1904C37.9565 16.1816 37.0263 13.199 35.1272 10.854L33.7817 14.2176C31.9761 18.7329 28.9961 22.6833 25.1503 25.6596C21.3045 28.6358 16.7328 30.5297 11.909 31.1449Z" fill="#F7CC31"/>
</svg>
