<svg width="63" height="76" viewBox="0 0 63 76" fill="none" xmlns="http://www.w3.org/2000/svg">
<rect width="63" height="76" rx="8" fill="#92DC2F"/>
<path d="M30.7174 59.04H27.6174V58.04H26.6974V59.04H23.5774V59.8H30.7174V59.04ZM23.1774 64.5H26.6974V66.84H27.6174V64.5H31.1974V63.74H23.1774V64.5ZM24.2574 61.72C24.2474 62.67 25.3374 63.19 27.1574 63.2C28.9774 63.19 30.0674 62.67 30.0774 61.72C30.0674 60.78 28.9774 60.25 27.1574 60.26C25.3374 60.25 24.2474 60.78 24.2574 61.72ZM25.2174 61.72C25.2074 61.23 25.9074 60.95 27.1574 60.96C28.4174 60.95 29.1074 61.23 29.1174 61.72C29.1074 62.22 28.4174 62.5 27.1574 62.5C25.9074 62.5 25.2074 62.22 25.2174 61.72ZM38.7 58.08H37.78V63.2H38.7V61.02H39.96V60.24H38.7V58.08ZM31.78 62.42L32.16 63.12C34.75 62.45 36.27 60.87 36.28 58.62H32.18V59.36H35.28C35.13 60.74 33.88 61.86 31.78 62.42ZM32.92 64.32H37.78V66.82H38.7V63.58H32.92V64.32Z" fill="white"/>
<path fill-rule="evenodd" clip-rule="evenodd" d="M30.0107 28.761C29.6915 28.4497 29.3505 28.1616 28.9902 27.899C27.1984 26.7162 25.1389 26.0007 22.9993 25.8178C22.8628 25.8058 22.7307 25.7631 22.613 25.6928C22.491 25.626 22.3891 25.5279 22.3175 25.4087C22.2405 25.2965 22.19 25.1683 22.1698 25.0337C22.1361 24.8994 22.1361 24.7589 22.1698 24.6246C23.2607 20.9428 24.7039 16.2042 27.7493 13.1928C29.574 11.5047 31.9937 10.6092 34.4777 10.703C36.9617 10.7967 39.3071 11.8719 40.9993 13.6928C43.8175 17.4541 47.1925 23.4882 48.8516 34.4996C49.0637 36.0857 49.0942 37.6907 48.9425 39.2837C48.3175 44.511 46.0334 48.261 40.2493 48.261C37.4166 48.261 35.8424 47.7353 34.5234 47.2949C33.5724 46.9774 32.7541 46.7041 31.6925 46.7041C30.4313 46.7041 29.3643 47.0164 28.1932 47.3592C26.7686 47.7762 25.1899 48.2382 22.9198 48.2382C18.2152 48.2382 11.7266 43.8405 13.2607 36.7155C14.2152 32.1928 17.613 27.9314 21.3743 27.9314H22.0334C23.32 27.8161 24.6157 28.0049 25.8159 28.4826C27.0161 28.9603 28.0871 29.7135 28.9425 30.6814C29.1506 30.8073 29.3936 30.863 29.6357 30.8405C29.8804 30.8076 30.1078 30.696 30.2834 30.5223C30.4507 30.3482 30.5582 30.1253 30.5902 29.886C30.6152 29.6401 30.5594 29.3927 30.4311 29.1814L30.0107 28.761ZM31.738 22.9428C31.6589 22.9413 31.5812 22.9219 31.5108 22.886C31.4398 22.8617 31.3769 22.8185 31.3289 22.761C31.1031 22.4783 30.9898 22.1222 31.0107 21.761C30.9932 21.5814 31.0123 21.4002 31.067 21.2283C31.1217 21.0563 31.2108 20.8974 31.3289 20.761C31.3763 20.7001 31.4391 20.653 31.5108 20.6246C31.5805 20.5868 31.6587 20.567 31.738 20.567C31.8174 20.567 31.8955 20.5868 31.9653 20.6246C32.037 20.653 32.0998 20.7001 32.1471 20.761C32.2627 20.8967 32.3503 21.0539 32.4049 21.2235C32.4595 21.3932 32.48 21.572 32.4653 21.7496C32.4818 21.9309 32.4622 22.1136 32.4076 22.2872C32.353 22.4608 32.2644 22.6218 32.1471 22.761C32.0991 22.8185 32.0362 22.8617 31.9653 22.886C31.8948 22.9219 31.8171 22.9413 31.738 22.9428ZM35.6359 22.8852C35.7068 22.9201 35.7842 22.9394 35.8632 22.942C36.0197 22.9299 36.1676 22.866 36.2836 22.7602C36.3933 22.6164 36.4778 22.455 36.5336 22.2829C36.5921 22.1114 36.6115 21.9289 36.5904 21.7488C36.6115 21.5688 36.5921 21.3863 36.5336 21.2148C36.4801 21.0486 36.3953 20.8943 36.2836 20.7602C36.23 20.7012 36.164 20.6546 36.0904 20.6238C36.02 20.588 35.9422 20.5685 35.8632 20.567C35.7842 20.5696 35.7068 20.589 35.6359 20.6238C35.5642 20.6522 35.5014 20.6993 35.4541 20.7602C35.2253 21.0413 35.1116 21.3986 35.1359 21.7602C35.1149 22.1214 35.2282 22.4776 35.4541 22.7602C35.5041 22.8155 35.5664 22.8583 35.6359 22.8852Z" fill="white"/>
<path d="M22.8858 43.7041L16.2949 45.6814C18.1296 47.2562 20.4466 48.1581 22.8631 48.2382C27.0563 48.2382 28.8972 46.7041 31.6926 46.7041C34.2267 46.7041 35.3745 48.2609 40.2495 48.2609C46.0336 48.2609 48.3176 44.5109 48.9426 39.2836C49.0943 37.6907 49.0638 36.0856 48.8517 34.4996C48.2503 30.1168 47.1288 25.8214 45.5108 21.7041L45.2381 22.4541C43.4446 27.5036 40.486 32.0592 36.6024 35.7513C32.7188 39.4434 28.0195 42.168 22.8858 43.7041Z" fill="white"/>
<path opacity="0.08" fill-rule="evenodd" clip-rule="evenodd" d="M0.300262 5.82128C1.05335 3.15453 3.15453 1.05335 5.82128 0.300262L0.300262 5.82128ZM0 15.1215V10.8789L10.8789 0H15.1215L0 15.1215ZM0 24.1215V19.8789L19.8789 0H24.1215L0 24.1215ZM0 33.1215V28.8789L28.8789 0H33.1215L0 33.1215ZM0 42.1215V37.8789L37.8789 0H42.1215L0 42.1215ZM0 51.1215V46.8789L46.8789 0H51.1215L0 51.1215ZM0 60.1215V55.8789L55.8358 0.0431332C56.9923 0.163195 58.0757 0.529658 59.0324 1.08912L0 60.1215ZM0.0686661 69.0529C0.023371 68.7083 0 68.3569 0 68V64.8789L61.5182 3.3607C62.1369 4.2284 62.5866 5.22486 62.8195 6.30209L0.0686661 69.0529ZM3.5037 74.6178C2.67033 74.0505 1.94969 73.3299 1.38234 72.4966L63 10.8789V15.1215L3.5037 74.6178ZM11.1215 76H8C7.64324 76 7.29193 75.9766 6.94753 75.9314L63 19.8789V24.1215L11.1215 76ZM20.1215 76H15.8789L63 28.8789V33.1215L20.1215 76ZM29.1215 76H24.8789L63 37.8789V42.1215L29.1215 76ZM38.1215 76H33.8789L63 46.8789V51.1215L38.1215 76ZM47.1215 76H42.8789L63 55.8789V60.1215L47.1215 76ZM56.2129 75.9087C55.8174 75.9688 55.4123 76 55 76H51.8789L63 64.8789V68C63 68.4123 62.9688 68.8174 62.9086 69.2129L56.2129 75.9087Z" fill="white"/>
</svg>
