<svg width="30" height="30" viewBox="0 0 30 30" fill="none" xmlns="http://www.w3.org/2000/svg">
<path d="M10.1002 20.5C13.193 20.5 15.7003 18.0376 15.7003 15C15.7003 11.9624 13.193 9.5 10.1002 9.5C7.00728 9.5 4.5 11.9624 4.5 15C4.5 18.0376 7.00728 20.5 10.1002 20.5Z" stroke="#82857A" stroke-width="1.5" stroke-linecap="round" stroke-linejoin="round"/>
<path d="M7.65001 18.3002C9.3897 18.3002 10.8 16.8228 10.8 15.0002C10.8 13.1777 9.3897 11.7002 7.65001 11.7002C5.91031 11.7002 4.5 13.1777 4.5 15.0002C4.5 16.8228 5.91031 18.3002 7.65001 18.3002Z" fill="#82857A"/>
<path d="M19.899 20.5C22.9919 20.5 25.4992 18.0376 25.4992 15C25.4992 11.9624 22.9919 9.5 19.899 9.5C16.8061 9.5 14.2988 11.9624 14.2988 15C14.2988 18.0376 16.8061 20.5 19.899 20.5Z" stroke="#82857A" stroke-width="1.5" stroke-linecap="round" stroke-linejoin="round"/>
<path d="M17.0992 18.3002C18.8389 18.3002 20.2492 16.8228 20.2492 15.0002C20.2492 13.1777 18.8389 11.7002 17.0992 11.7002C15.3595 11.7002 13.9492 13.1777 13.9492 15.0002C13.9492 16.8228 15.3595 18.3002 17.0992 18.3002Z" fill="#82857A"/>
</svg>
