<svg width="69" height="69" viewBox="0 0 69 69" fill="none" xmlns="http://www.w3.org/2000/svg">
<path d="M34.5 69C53.5538 69 69 53.5538 69 34.5C69 15.4462 53.5538 0 34.5 0C15.4462 0 0 15.4462 0 34.5C0 53.5538 15.4462 69 34.5 69Z" fill="#1B210D"/>
<path d="M46.8274 32.4702H36.5281V22.171C36.5281 21.6327 36.3143 21.1165 35.9337 20.7359C35.5531 20.3554 35.0369 20.1415 34.4987 20.1415C33.9605 20.1415 33.4443 20.3554 33.0637 20.7359C32.6831 21.1165 32.4693 21.6327 32.4693 22.171V32.4702H22.17C21.6318 32.4702 21.1156 32.684 20.735 33.0646C20.3544 33.4452 20.1406 33.9614 20.1406 34.4996C20.1406 35.0379 20.3544 35.5541 20.735 35.9346C21.1156 36.3152 21.6318 36.529 22.17 36.529H32.4693V46.8283C32.4693 47.3665 32.6831 47.8827 33.0637 48.2633C33.4443 48.6439 33.9605 48.8577 34.4987 48.8577C35.0369 48.8577 35.5531 48.6439 35.9337 48.2633C36.3143 47.8827 36.5281 47.3665 36.5281 46.8283V36.529H46.8274C47.3656 36.529 47.8818 36.3152 48.2624 35.9346C48.643 35.5541 48.8568 35.0379 48.8568 34.4996C48.8568 33.9614 48.643 33.4452 48.2624 33.0646C47.8818 32.684 47.3656 32.4702 46.8274 32.4702Z" fill="white"/>
</svg>
