<svg width="246" height="134" viewBox="0 0 246 134" fill="none" xmlns="http://www.w3.org/2000/svg">
<rect width="246" height="134" fill="white"/>
<path d="M34.4062 66.324L41.4562 61.624L44.9812 66.324L38.5187 69.849L34.4062 66.324Z" fill="#FF6E83"/>
<path d="M62.0386 86.0848L61.2649 77.6471L67.0765 76.7869L67.0971 84.1482L62.0386 86.0848Z" fill="#3AC5FF"/>
<path d="M186.634 103.404L184.422 97.5137L189.582 97.9635L190.913 102.986L186.634 103.404Z" fill="#FFDAE2"/>
<path d="M207.684 84.874L215.153 85.8507L213.082 91.2521L206.881 89.8109L207.684 84.874Z" fill="#9473FF"/>
<path d="M202.282 31.4522L194.747 27.5784L197.139 22.2124L203.362 26.1444L202.282 31.4522Z" fill="#A4E33D"/>
<path d="M57.1627 35.5692L55.8728 43.9434L50.0256 43.3725L51.786 36.2247L57.1627 35.5692Z" fill="#E8E0FF"/>
<path d="M208.645 54.6033L207.355 62.9776L201.508 62.4067L203.268 55.2589L208.645 54.6033Z" fill="#FEF6CD"/>
<path d="M60.8253 106.113L55.5058 112.708L50.7354 109.279L55.8461 103.981L60.8253 106.113Z" fill="#E1FED2"/>
<g opacity="0.5">
<path d="M61.5747 36.541C63.9707 36.541 65.913 34.5986 65.913 32.2026C65.913 29.8066 63.9707 27.8643 61.5747 27.8643C59.1787 27.8643 57.2363 29.8066 57.2363 32.2026C57.2363 34.5986 59.1787 36.541 61.5747 36.541Z" fill="#E8E0FF"/>
</g>
<path d="M82.3957 84.2777C98.7178 84.2777 111.95 71.0459 111.95 54.7238C111.95 38.4016 98.7178 25.1699 82.3957 25.1699C66.0735 25.1699 52.8418 38.4016 52.8418 54.7238C52.8418 71.0459 66.0735 84.2777 82.3957 84.2777Z" fill="#E8E0FF"/>
<path d="M157.607 112.319C174.661 112.319 188.487 98.4932 188.487 81.4386C188.487 64.384 174.661 50.5586 157.607 50.5586C140.552 50.5586 126.727 64.384 126.727 81.4386C126.727 98.4932 140.552 112.319 157.607 112.319Z" fill="#E8E0FF"/>
<path d="M70.934 98.1102C82.4955 98.1102 91.868 88.7377 91.868 77.1762C91.868 65.6147 82.4955 56.2422 70.934 56.2422C59.3725 56.2422 50 65.6147 50 77.1762C50 88.7377 59.3725 98.1102 70.934 98.1102Z" fill="#E8E0FF"/>
<path d="M134.02 128.421C147.988 128.421 159.311 117.098 159.311 103.13C159.311 89.1622 147.988 77.8389 134.02 77.8389C120.052 77.8389 108.729 89.1622 108.729 103.13C108.729 117.098 120.052 128.421 134.02 128.421Z" fill="#E8E0FF"/>
<path d="M149.555 85.9869C163.523 85.9869 174.846 74.6636 174.846 60.6956C174.846 46.7276 163.523 35.4043 149.555 35.4043C135.587 35.4043 124.264 46.7276 124.264 60.6956C124.264 74.6636 135.587 85.9869 149.555 85.9869Z" fill="#E8E0FF"/>
<path d="M100.015 128.422C120.627 128.422 137.336 111.712 137.336 91.1005C137.336 70.4886 120.627 53.7793 100.015 53.7793C79.4026 53.7793 62.6934 70.4886 62.6934 91.1005C62.6934 111.712 79.4026 128.422 100.015 128.422Z" fill="#E8E0FF"/>
<path d="M161.732 95.7526C161.31 95.2354 161.054 94.6026 160.906 93.9528L158.765 84.6301C158.405 83.0652 157.761 81.58 156.865 80.25C156.733 80.053 156.61 79.8484 156.509 79.6324L153.162 72.5262C152.078 70.2263 149.403 69.1503 147.029 70.0615L143.293 71.4938C139.959 72.7706 139.078 77.1052 141.683 79.5453C143.805 81.5326 146.067 83.9878 147.764 86.6913C150.517 91.0713 149.323 96.8173 151.595 99.9564C153.539 102.641 153.743 102.057 161.175 99.7613C163.03 99.1891 165.682 97.9085 162.721 96.5179C162.401 96.3683 162.083 96.1769 161.742 95.7639L161.734 95.7545L161.732 95.7526Z" fill="#9473FF"/>
<path d="M142.549 13.958C140.135 11.3114 137.4 8.9509 134.223 7.29133C124.231 2.07204 115.448 6.48997 111.811 13.3139C110.491 15.7919 108.697 16.885 106.491 16.58C103.288 16.1367 97.9909 16.1537 94.1034 18.5426C90.214 20.9335 87.6148 25.3609 86.1238 29.0911C85.2808 31.2034 83.2026 32.5732 80.9368 32.361C72.7791 31.5956 63.4981 40.7933 65.2656 52.7835C66.6505 62.1801 72.315 68.0245 76.2745 71.0481C77.1137 71.6885 78.2637 71.5938 79.0688 70.9098C81.4142 68.9169 84.1403 67.2914 87.1904 66.1623C87.8402 65.9217 88.4957 65.7057 89.1588 65.5163C89.1588 65.5163 93.4593 64.2091 98.6312 64.7983C100.096 64.965 101.06 66.4275 100.692 67.854C100.406 68.9718 99.3776 69.7788 98.2258 69.6955C95.1795 69.4719 92.0365 69.883 88.9864 71.014C84.4567 72.6926 80.8307 75.7161 78.3451 79.452C73.4289 89.184 79.298 100.043 90.3258 105.295C99.7527 109.785 110.182 107.151 118.214 102.195C118.214 102.195 136.71 90.8398 148.986 83.3035C159.859 76.6274 163.5 67.6968 162.324 55.2652C160.501 36.0154 150.019 22.1497 142.549 13.9618V13.958Z" fill="#9473FF"/>
<path d="M120.54 50.4835C119.447 51.156 118.587 51.4099 118.563 51.4175C118.182 51.5255 117.784 51.3038 117.676 50.923C117.568 50.5422 117.788 50.1463 118.168 50.0364C118.4 49.9701 123.831 48.3162 123.778 41.8087C123.774 41.4127 124.093 41.0888 124.49 41.085C124.886 41.0812 125.21 41.4014 125.214 41.7973C125.254 46.7021 122.514 49.271 120.538 50.4835H120.54Z" fill="#E8E0FF"/>
<path d="M118.179 87.7704C116.781 89.7255 114.712 93.8593 114.039 96.0379C113.395 98.1275 112.711 100.92 114.528 104.322C116.423 107.873 120.037 110.667 123.309 111.101C126.579 111.535 127.753 113.738 127.884 114.517C128.015 115.295 129.966 114.966 130.866 113.211C131.766 111.459 131.844 106.916 132.016 105.812C132.399 103.345 130.631 104.235 127.598 103.356C125.491 102.746 124.264 101.572 126.109 98.1654C127.602 95.4108 130.303 92.3001 130.303 92.3001L119.802 85.0859L118.181 87.7666L118.179 87.7704Z" fill="#9473FF"/>
<path d="M155.312 50.9679C155.312 50.9679 168.314 38.9437 165.548 29.2553C163.519 22.1453 158.019 21.1564 153.232 21.4046C148.445 21.6527 148.126 21.0787 147.175 22.0411C146.16 23.0698 147.533 26.0839 150.707 27.4385C153.88 28.793 156.095 27.9102 157.58 30.8959C159.065 33.8835 154.312 38.1196 154.312 38.1196L153.971 51.8943L155.312 50.9679Z" fill="#9473FF"/>
<g opacity="0.29">
<path d="M176.845 23.2797C177.93 23.2797 178.81 22.4002 178.81 21.3152C178.81 20.2302 177.93 19.3506 176.845 19.3506C175.76 19.3506 174.881 20.2302 174.881 21.3152C174.881 22.4002 175.76 23.2797 176.845 23.2797Z" fill="#E8E0FF"/>
</g>
<g opacity="0.65">
<path d="M186.817 53.8953C188.029 53.8953 189.012 52.9123 189.012 51.6996C189.012 50.487 188.029 49.5039 186.817 49.5039C185.604 49.5039 184.621 50.487 184.621 51.6996C184.621 52.9123 185.604 53.8953 186.817 53.8953Z" fill="#E8E0FF"/>
</g>
<g opacity="0.63">
<path d="M191.974 42.3562C193.893 42.3562 195.449 40.8006 195.449 38.8817C195.449 36.9628 193.893 35.4072 191.974 35.4072C190.056 35.4072 188.5 36.9628 188.5 38.8817C188.5 40.8006 190.056 42.3562 191.974 42.3562Z" fill="#E8E0FF"/>
</g>
<g opacity="0.68">
<path d="M68.2056 23.2786C69.4507 23.2786 70.46 22.2989 70.46 21.0905C70.46 19.882 69.4507 18.9023 68.2056 18.9023C66.9605 18.9023 65.9512 19.882 65.9512 21.0905C65.9512 22.2989 66.9605 23.2786 68.2056 23.2786Z" fill="#E8E0FF"/>
</g>
<path d="M107.563 45.1612C106.547 45.3791 105.704 45.1025 105.59 45.0627C105.17 44.9149 104.95 44.4545 105.1 44.034C105.247 43.6172 105.704 43.3974 106.121 43.5414C106.149 43.5509 106.951 43.8028 107.699 43.4183C108.273 43.1227 108.709 42.5146 108.991 41.6071C109.122 41.1828 109.573 40.9441 109.999 41.0767C110.423 41.2093 110.66 41.6602 110.529 42.0846C110.109 43.4334 109.396 44.3693 108.407 44.8638C108.121 45.0077 107.837 45.1006 107.564 45.1593L107.563 45.1612Z" fill="#E8E0FF"/>
<path d="M115.147 40.2374C114.131 40.4552 113.288 40.1786 113.174 40.1389C112.754 39.9911 112.534 39.5307 112.684 39.1102C112.831 38.6934 113.288 38.4736 113.705 38.6176C113.731 38.6271 114.537 38.8752 115.283 38.4944C115.857 38.2008 116.293 37.5908 116.575 36.6833C116.706 36.259 117.157 36.0203 117.583 36.1529C118.007 36.2855 118.244 36.7364 118.113 37.1607C117.693 38.5096 116.978 39.4436 115.991 39.9399C115.705 40.0839 115.421 40.1767 115.148 40.2355L115.147 40.2374Z" fill="#E8E0FF"/>
</svg>
