<svg width="375" height="386" viewBox="0 0 375 386" fill="none" xmlns="http://www.w3.org/2000/svg">
<path d="M126.671 197.041L126.411 196.711C124.359 194.109 120.586 193.663 117.984 195.715L108.711 203.029C106.109 205.08 105.663 208.853 107.715 211.455L107.975 211.785C110.027 214.387 113.8 214.833 116.402 212.781L125.675 205.468C128.277 203.416 128.723 199.643 126.671 197.041Z" fill="#3B5490"/>
<path d="M166.784 31.0625C163.124 31.4525 160.104 34.4725 160.794 37.6925C161.484 40.9125 164.594 42.2825 168.264 42.0225C171.954 41.7525 173.674 39.7725 174.204 36.8625C174.794 33.6225 170.444 30.6825 166.794 31.0625H166.784Z" fill="#3B749F" style="mix-blend-mode:multiply"/>
<path d="M163.581 35.0923C145.501 40.0123 134.411 57.1123 138.811 73.2923C143.211 89.4723 158.271 88.7323 176.351 83.8223C194.431 78.9023 207.321 72.8723 205.571 58.2423C203.581 41.5823 181.661 30.1823 163.581 35.1023V35.0923Z" fill="#3B5490"/>
<path d="M178.82 89.5626L234.55 116.003L247.28 76.4426L200.39 53.4526L178.82 89.5626Z" fill="#9AC4E3"/>
<path d="M263.845 179.203C284.315 136.209 276.744 89.8508 246.935 75.658C217.126 61.4652 176.366 84.8129 155.896 127.807C135.426 170.8 142.997 217.159 172.807 231.352C202.616 245.544 243.375 222.197 263.845 179.203Z" fill="#9AC4E3"/>
<path d="M194.731 195.342L137.351 172.702L126.891 211.752L176.791 232.552L194.731 195.342Z" fill="#9AC4E3"/>
<path d="M205.1 152.322C186.72 190.942 151.22 212.452 125.83 200.362C100.43 188.272 94.7497 147.162 113.13 108.542C131.51 69.9224 167.01 48.4124 192.4 60.5024C200.04 64.1424 205.9 70.4024 209.85 78.4424C219.04 97.1124 217.95 125.322 205.1 152.322Z" fill="white"/>
<path d="M260.691 148.744C274.62 147.88 284.854 130.123 283.549 109.083C282.243 88.0423 269.893 71.6864 255.964 72.5505C242.034 73.4147 231.8 91.1717 233.106 112.212C234.411 133.252 246.761 149.608 260.691 148.744Z" fill="#3B5490"/>
<path d="M296.084 108.702C297.404 129.972 283.044 148.172 264.004 149.352C244.964 150.532 240.254 134.052 238.934 112.772C237.614 91.5023 239.394 75.4123 255.794 71.9423C274.464 67.9823 294.764 87.4223 296.084 108.692V108.702Z" fill="#3B5490"/>
<path d="M185.549 71.9425L185.421 71.8856C184.397 71.4294 183.197 71.8898 182.74 72.9139L157.025 130.646C156.568 131.67 157.029 132.87 158.053 133.326L158.181 133.383C159.205 133.839 160.405 133.379 160.861 132.354L186.577 74.6229C187.033 73.5988 186.573 72.3987 185.549 71.9425Z" fill="#333333"/>
<path d="M142.954 100.039L142.775 100.128C141.327 100.85 140.737 102.609 141.459 104.057L155.696 132.637C156.417 134.086 158.177 134.675 159.625 133.954L159.804 133.864C161.252 133.143 161.842 131.384 161.12 129.935L146.883 101.355C146.162 99.9067 144.402 99.3174 142.954 100.039Z" fill="#333333"/>
<path d="M111 190.65L221.17 107C221.17 107 223.76 176.77 168.77 199.55C113.78 222.33 111 190.65 111 190.65Z" fill="#FBFBFB"/>
<path fill-rule="evenodd" clip-rule="evenodd" d="M198.66 52.1757C229.023 66.632 236.735 113.851 215.885 157.643C195.035 201.434 153.519 225.215 123.156 210.759C92.7931 196.302 85.0814 149.083 105.931 105.292C126.781 61.5003 168.297 37.7194 198.66 52.1757ZM125.831 200.363C151.221 212.453 186.721 190.943 205.101 152.323C217.951 125.323 219.041 97.1125 209.851 78.4425C205.901 70.4025 200.041 64.1425 192.401 60.5025C167.011 48.4125 131.511 69.9225 113.131 108.543C94.7511 147.163 100.431 188.273 125.831 200.363Z" fill="#7BA7CF"/>
<path d="M298.882 100.652C299.522 104.272 297.462 108.022 294.172 108.252C290.882 108.482 288.702 105.872 287.942 102.272C287.182 98.6725 288.602 96.4525 291.252 95.1325C294.202 93.6625 298.232 97.0225 298.882 100.652Z" fill="#3B749F" style="mix-blend-mode:multiply"/>
<path d="M224.561 253.112C224.561 253.112 223.431 227.172 231.131 220.962C232.571 219.802 234.071 218.702 234.771 216.982V216.952C234.991 216.442 235.261 215.952 235.571 215.492C236.091 214.702 236.621 212.932 235.711 211.722C234.421 210.012 231.801 209.032 230.081 209.432C228.491 209.802 226.391 210.692 224.601 212.312C221.571 215.052 219.451 219.112 217.941 223.412C215.591 230.102 213.841 240.192 213.271 246.662C212.701 253.132 215.091 255.392 215.091 255.392L215.721 257.682L224.561 253.092V253.112Z" fill="#FF6E82"/>
<path d="M177.933 221.303C164.153 220.853 162.053 222.493 149.313 219.903C141.403 218.293 137.253 215.963 127.093 219.783C118.853 222.883 114.063 231.713 116.463 240.183C118.713 248.133 125.433 253.103 130.953 255.363C135.043 256.853 142.703 259.183 151.963 259.853C153.523 259.963 154.873 261.133 155.063 262.693C155.323 264.773 153.653 266.403 151.623 266.373C148.383 266.323 146.203 266.033 146.203 266.033C140.683 265.273 135.903 264.063 132.283 262.933C129.883 262.193 127.343 263.503 126.593 265.903C126.073 267.553 125.583 269.313 125.153 271.163C123.863 276.733 123.153 283.143 124.033 290.063C127.163 314.533 145.813 332.643 175.053 333.853C210.803 335.333 239.013 305.853 234.953 271.033C231.683 242.633 206.523 220.683 177.933 221.313V221.303Z" fill="#FF6E82"/>
<path d="M221.002 217.152C221.002 217.152 222.302 219.472 224.362 219.462C226.422 219.462 225.292 215.552 225.272 214.482C225.242 212.932 225.452 210.872 224.062 210.392C220.692 209.222 221.002 217.102 221.012 217.142L221.002 217.152Z" fill="#FF6E82"/>
<path d="M204.041 321.082C204.361 324.452 207.221 330.822 208.051 332.002C209.851 334.552 212.431 338.722 217.921 338.392C223.651 338.042 229.431 335.022 231.941 331.032C234.451 327.052 238.011 326.832 239.091 327.132C240.171 327.432 240.911 324.702 239.171 322.492C237.431 320.282 231.581 317.482 230.261 316.602C227.291 314.642 226.711 316.982 224.451 320.872C223.191 323.032 220.211 324.982 219.581 318.162C219.171 313.742 218.671 310.352 218.661 310.252L202.191 313.202C202.191 313.202 202.191 313.202 202.191 313.212L204.061 321.092L204.041 321.082Z" fill="#FF6E82"/>
<path d="M156.925 283.292C157.365 283.312 157.795 283.172 158.175 282.862C158.815 282.332 159.195 281.402 159.255 280.232C159.335 279.052 159.055 278.082 158.475 277.482C158.135 277.142 157.725 276.942 157.285 276.922C156.845 276.902 156.405 277.042 156.035 277.352C155.395 277.882 155.015 278.812 154.955 279.982C154.875 281.162 155.155 282.132 155.735 282.732C156.075 283.072 156.485 283.272 156.925 283.292Z" fill="white"/>
<path d="M148.015 283.522C148.455 283.542 148.885 283.402 149.265 283.092C149.905 282.562 150.285 281.632 150.345 280.462C150.425 279.282 150.145 278.312 149.565 277.712C149.225 277.372 148.815 277.172 148.375 277.152C147.935 277.132 147.495 277.272 147.125 277.582C146.485 278.112 146.105 279.042 146.045 280.212C145.965 281.392 146.245 282.362 146.825 282.962C147.165 283.302 147.575 283.502 148.015 283.522Z" fill="white"/>
<path d="M168.025 286.292C168.025 286.292 164.935 294.562 155.145 293.702" stroke="white" stroke-width="2" stroke-linecap="round" stroke-linejoin="round"/>
<path d="M146.342 347.802C146.872 347.302 147.282 346.682 147.532 345.992L151.632 334.753C152.292 332.943 153.222 331.222 154.512 329.802C154.742 329.542 154.962 329.272 155.152 328.982L160.302 320.852C161.972 318.212 165.392 317.313 168.152 318.783L172.462 321.082C176.332 323.142 176.742 328.562 173.202 331.142C170.322 333.232 167.202 335.883 164.732 338.903C160.722 343.813 161.302 350.983 158.052 354.463C155.282 357.433 155.122 356.692 146.422 352.772C144.252 351.792 141.222 349.833 145.032 348.593C145.442 348.463 145.862 348.272 146.342 347.822H146.352L146.342 347.802Z" fill="#FF6E82"/>
<path d="M193.953 222.004L195.053 233.996" stroke="#3B5490" stroke-width="12.7" stroke-linecap="round" stroke-linejoin="round"/>
</svg>
